<svg xmlns="http://www.w3.org/2000/svg" viewBox="0 0 13 9">
	<rect width="2" height="9" x="10" y="0" fill="#bcbce2" />
	<rect width="1" height="9" x="12" y="0" fill="#d0d0d0" />
	<rect width="13" height="10" x="0" y="0" fill="#ffbbbb" />
	
	<path fill="transparent" stroke="gray" stroke-width="0.08" d="M 0 0 v 10" />
	<path fill="transparent" stroke="gray" stroke-width="0.08" d="M 0 0 h 13" />
	<path fill="transparent" stroke="gray" stroke-width="0.08" d="M 1 0 v 10" />
	<path fill="transparent" stroke="gray" stroke-width="0.08" d="M 0 1 h 13" />
	<path fill="transparent" stroke="gray" stroke-width="0.08" d="M 2 0 v 10" />
	<path fill="transparent" stroke="gray" stroke-width="0.08" d="M 0 2 h 13" />
	<path fill="transparent" stroke="gray" stroke-width="0.08" d="M 3 0 v 10" />
	<path fill="transparent" stroke="gray" stroke-width="0.08" d="M 0 3 h 13" />
	<path fill="transparent" stroke="gray" stroke-width="0.08" d="M 4 0 v 10" />
	<path fill="transparent" stroke="gray" stroke-width="0.08" d="M 0 4 h 13" />
	<path fill="transparent" stroke="gray" stroke-width="0.08" d="M 5 0 v 10" />
	<path fill="transparent" stroke="gray" stroke-width="0.08" d="M 0 5 h 13" />
	<path fill="transparent" stroke="gray" stroke-width="0.08" d="M 6 0 v 10" />
	<path fill="transparent" stroke="gray" stroke-width="0.08" d="M 0 6 h 13" />
	<path fill="transparent" stroke="gray" stroke-width="0.08" d="M 7 0 v 10" />
	<path fill="transparent" stroke="gray" stroke-width="0.08" d="M 0 7 h 13" />
	<path fill="transparent" stroke="gray" stroke-width="0.08" d="M 8 0 v 10" />
	<path fill="transparent" stroke="gray" stroke-width="0.08" d="M 0 8 h 13" />
	<path fill="transparent" stroke="gray" stroke-width="0.08" d="M 9 0 v 10" />
	<path fill="transparent" stroke="gray" stroke-width="0.08" d="M 0 9 h 13" />
	<path fill="transparent" stroke="gray" stroke-width="0.08" d="M 10 0 v 10" />
	<path fill="transparent" stroke="gray" stroke-width="0.08" d="M 0 10 h 13" />
	<path fill="transparent" stroke="gray" stroke-width="0.08" d="M 11 0 v 10" />
	<path fill="transparent" stroke="gray" stroke-width="0.08" d="M 0 11 h 13" />
	<path fill="transparent" stroke="gray" stroke-width="0.08" d="M 12 0 v 10" />
	<path fill="transparent" stroke="gray" stroke-width="0.08" d="M 0 12 h 13" />
	<path fill="transparent" stroke="gray" stroke-width="0.08" d="M 13 0 v 10" />
	<path fill="transparent" stroke="gray" stroke-width="0.08" d="M 0 13 h 13" />
	<path d="M 0.5 0.5
h 12.5" fill="white" fill-opacity="0" stroke="black" stroke-width="0.05" stroke-linecap="round" />
<path d="M 0.5 1.5
h 12.5" fill="white" fill-opacity="0" stroke="black" stroke-width="0.05" stroke-linecap="round" />
<path d="M 0.5 2.5
h 12.5" fill="white" fill-opacity="0" stroke="black" stroke-width="0.05" stroke-linecap="round" />
<path d="M 10.5 3.5
v 5.5" fill="white" fill-opacity="0" stroke="black" stroke-width="0.05" stroke-linecap="round" />
<path d="M 11.5 3.5
v 5.5" fill="white" fill-opacity="0" stroke="black" stroke-width="0.05" stroke-linecap="round" />
<path d="M 12.5 3.5
v 5.5" fill="white" fill-opacity="0" stroke="black" stroke-width="0.05" stroke-linecap="round" />
	<path d="
M 1 3.5
a 0.5 0.5 0 0 1 0.5 0.5
a 0.5 0.5 0 0 1 -0.5 0.5
a 0.5 0.5 0 0 1 -0.5 -0.5
a 0.5 0.5 0 0 1 0.5 -0.5

M 3 3.5
a 0.5 0.5 0 0 1 0.5 0.5
a 0.5 0.5 0 0 1 -0.5 0.5
a 0.5 0.5 0 0 1 -0.5 -0.5
a 0.5 0.5 0 0 1 0.5 -0.5

M 5 3.5
a 0.5 0.5 0 0 1 0.5 0.5
a 0.5 0.5 0 0 1 -0.5 0.5
a 0.5 0.5 0 0 1 -0.5 -0.5
a 0.5 0.5 0 0 1 0.5 -0.5

M 7 3.5
a 0.5 0.5 0 0 1 0.5 0.5
a 0.5 0.5 0 0 1 -0.5 0.5
a 0.5 0.5 0 0 1 -0.5 -0.5
a 0.5 0.5 0 0 1 0.5 -0.5

M 9 3.5
a 0.5 0.5 0 0 1 0.5 0.5
a 0.5 0.5 0 0 1 -0.5 0.5
a 0.5 0.5 0 0 1 -0.5 -0.5
a 0.5 0.5 0 0 1 0.5 -0.5

M 1 5.5
a 0.5 0.5 0 0 1 0.5 0.5
a 0.5 0.5 0 0 1 -0.5 0.5
a 0.5 0.5 0 0 1 -0.5 -0.5
a 0.5 0.5 0 0 1 0.5 -0.5

M 3 5.5
a 0.5 0.5 0 0 1 0.5 0.5
a 0.5 0.5 0 0 1 -0.5 0.5
a 0.5 0.5 0 0 1 -0.5 -0.5
a 0.5 0.5 0 0 1 0.5 -0.5

M 5 5.5
a 0.5 0.5 0 0 1 0.5 0.5
a 0.5 0.5 0 0 1 -0.5 0.5
a 0.5 0.5 0 0 1 -0.5 -0.5
a 0.5 0.5 0 0 1 0.5 -0.5

M 7 5.5
a 0.5 0.5 0 0 1 0.5 0.5
a 0.5 0.5 0 0 1 -0.5 0.5
a 0.5 0.5 0 0 1 -0.5 -0.5
a 0.5 0.5 0 0 1 0.5 -0.5

M 9 5.5
a 0.5 0.5 0 0 1 0.5 0.5
a 0.5 0.5 0 0 1 -0.5 0.5
a 0.5 0.5 0 0 1 -0.5 -0.5
a 0.5 0.5 0 0 1 0.5 -0.5

M 1 7.5
a 0.5 0.5 0 0 1 0.5 0.5
a 0.5 0.5 0 0 1 -0.5 0.5
a 0.5 0.5 0 0 1 -0.5 -0.5
a 0.5 0.5 0 0 1 0.5 -0.5

M 3 7.5
a 0.5 0.5 0 0 1 0.5 0.5
a 0.5 0.5 0 0 1 -0.5 0.5
a 0.5 0.5 0 0 1 -0.5 -0.5
a 0.5 0.5 0 0 1 0.5 -0.5

M 5 7.5
a 0.5 0.5 0 0 1 0.5 0.5
a 0.5 0.5 0 0 1 -0.5 0.5
a 0.5 0.5 0 0 1 -0.5 -0.5
a 0.5 0.5 0 0 1 0.5 -0.5

M 7 7.5
a 0.5 0.5 0 0 1 0.5 0.5
a 0.5 0.5 0 0 1 -0.5 0.5
a 0.5 0.5 0 0 1 -0.5 -0.5
a 0.5 0.5 0 0 1 0.5 -0.5

M 9 7.5
a 0.5 0.5 0 0 1 0.5 0.5
a 0.5 0.5 0 0 1 -0.5 0.5
a 0.5 0.5 0 0 1 -0.5 -0.5
a 0.5 0.5 0 0 1 0.5 -0.5" fill="white" fill-opacity="0" stroke="black" stroke-width="0.05" stroke-linecap="round" />
</svg>