<svg xmlns="http://www.w3.org/2000/svg" viewBox="0 0 9 13">		
	<rect width="9" height="10" x="0" y="0" fill="#ffbbbb" />
	<rect width="6" height="2" x="1" y="8" fill="#bcbce2" />
	<rect width="7" height="2" x="1" y="10" fill="#bcbce2" />	
	<rect width="1" height="7" x="0" y="4" fill="#d0d0d0" />
	
	<path fill="transparent" stroke="gray" stroke-width="0.04" d="M 0 0 v 13" />
	<path fill="transparent" stroke="gray" stroke-width="0.04" d="M 0 0 h 13" />
	<path fill="transparent" stroke="gray" stroke-width="0.04" d="M 1 0 v 13" />
	<path fill="transparent" stroke="gray" stroke-width="0.04" d="M 0 1 h 13" />
	<path fill="transparent" stroke="gray" stroke-width="0.04" d="M 2 0 v 13" />
	<path fill="transparent" stroke="gray" stroke-width="0.04" d="M 0 2 h 13" />
	<path fill="transparent" stroke="gray" stroke-width="0.04" d="M 3 0 v 13" />
	<path fill="transparent" stroke="gray" stroke-width="0.04" d="M 0 3 h 13" />
	<path fill="transparent" stroke="gray" stroke-width="0.04" d="M 4 0 v 13" />
	<path fill="transparent" stroke="gray" stroke-width="0.04" d="M 0 4 h 13" />
	<path fill="transparent" stroke="gray" stroke-width="0.04" d="M 5 0 v 13" />
	<path fill="transparent" stroke="gray" stroke-width="0.04" d="M 0 5 h 13" />
	<path fill="transparent" stroke="gray" stroke-width="0.04" d="M 6 0 v 13" />
	<path fill="transparent" stroke="gray" stroke-width="0.04" d="M 0 6 h 13" />
	<path fill="transparent" stroke="gray" stroke-width="0.04" d="M 7 0 v 13" />
	<path fill="transparent" stroke="gray" stroke-width="0.04" d="M 0 7 h 13" />
	<path fill="transparent" stroke="gray" stroke-width="0.04" d="M 8 0 v 13" />
	<path fill="transparent" stroke="gray" stroke-width="0.04" d="M 0 8 h 13" />
	<path fill="transparent" stroke="gray" stroke-width="0.04" d="M 9 0 v 13" />
	<path fill="transparent" stroke="gray" stroke-width="0.04" d="M 0 9 h 13" />
	<path fill="transparent" stroke="gray" stroke-width="0.04" d="M 10 0 v 13" />
	<path fill="transparent" stroke="gray" stroke-width="0.04" d="M 0 10 h 13" />
	<path fill="transparent" stroke="gray" stroke-width="0.04" d="M 11 0 v 13" />
	<path fill="transparent" stroke="gray" stroke-width="0.04" d="M 0 11 h 13" />
	<path fill="transparent" stroke="gray" stroke-width="0.04" d="M 12 0 v 13" />
	<path fill="transparent" stroke="gray" stroke-width="0.04" d="M 0 12 h 13" />
	<path fill="transparent" stroke="gray" stroke-width="0.04" d="M 13 0 v 13" />
	<path fill="transparent" stroke="gray" stroke-width="0.04" d="M 0 13 h 13" />
	<path d="M 0 0.5
h 8.5" fill="white" fill-opacity="0" stroke="black" stroke-width="0.05" stroke-linecap="round" />
	<path d="M 0 1.5
	h 8.5" fill="white" fill-opacity="0" stroke="black" stroke-width="0.05" stroke-linecap="round" />
	<path d="M 0 2.5
	h 8.5" fill="white" fill-opacity="0" stroke="black" stroke-width="0.05" stroke-linecap="round" />
	<path d="M 0 3.5
	h 8.5" fill="white" fill-opacity="0" stroke="black" stroke-width="0.05" stroke-linecap="round" />
	<path d="
M 2 4.5
a 0.5 0.5 0 0 1 0.5 0.5
a 0.5 0.5 0 0 1 -0.5 0.5
a 0.5 0.5 0 0 1 -0.5 -0.5
a 0.5 0.5 0 0 1 0.5 -0.5

M 4 4.5
a 0.5 0.5 0 0 1 0.5 0.5
a 0.5 0.5 0 0 1 -0.5 0.5
a 0.5 0.5 0 0 1 -0.5 -0.5
a 0.5 0.5 0 0 1 0.5 -0.5

M 6 4.5
a 0.5 0.5 0 0 1 0.5 0.5
a 0.5 0.5 0 0 1 -0.5 0.5
a 0.5 0.5 0 0 1 -0.5 -0.5
a 0.5 0.5 0 0 1 0.5 -0.5

M 8 4.5
a 0.5 0.5 0 0 1 0.5 0.5
a 0.5 0.5 0 0 1 -0.5 0.5
a 0.5 0.5 0 0 1 -0.5 -0.5
a 0.5 0.5 0 0 1 0.5 -0.5

M 2 6.5
a 0.5 0.5 0 0 1 0.5 0.5
a 0.5 0.5 0 0 1 -0.5 0.5
a 0.5 0.5 0 0 1 -0.5 -0.5
a 0.5 0.5 0 0 1 0.5 -0.5

M 4 6.5
a 0.5 0.5 0 0 1 0.5 0.5
a 0.5 0.5 0 0 1 -0.5 0.5
a 0.5 0.5 0 0 1 -0.5 -0.5
a 0.5 0.5 0 0 1 0.5 -0.5

M 6 6.5
a 0.5 0.5 0 0 1 0.5 0.5
a 0.5 0.5 0 0 1 -0.5 0.5
a 0.5 0.5 0 0 1 -0.5 -0.5
a 0.5 0.5 0 0 1 0.5 -0.5

M 8 6.5
a 0.5 0.5 0 0 1 0.5 0.5
a 0.5 0.5 0 0 1 -0.5 0.5
a 0.5 0.5 0 0 1 -0.5 -0.5
a 0.5 0.5 0 0 1 0.5 -0.5" fill="white" fill-opacity="0" stroke="black" stroke-width="0.05" stroke-linecap="round" />
    <path d="
M 2 8.5
a 0.5 0.5 0 0 1 0.5 0.5
a 0.5 0.5 0 0 1 -0.5 0.5
a 0.5 0.5 0 0 1 -0.5 -0.5
a 0.5 0.5 0 0 1 0.5 -0.5

M 4 8.5
a 0.5 0.5 0 0 1 0.5 0.5
a 0.5 0.5 0 0 1 -0.5 0.5
a 0.5 0.5 0 0 1 -0.5 -0.5
a 0.5 0.5 0 0 1 0.5 -0.5

M 6 8.5
a 0.5 0.5 0 0 1 0.5 0.5
a 0.5 0.5 0 0 1 -0.5 0.5
a 0.5 0.5 0 0 1 -0.5 -0.5
a 0.5 0.5 0 0 1 0.5 -0.5" fill="white" fill-opacity="0" stroke="blue" stroke-width="0.05" stroke-linecap="round" />
	<path d="M 1.5 10.5
	h 6" fill="white" fill-opacity="0" stroke="blue" stroke-width="0.05" stroke-linecap="round" />
	<path d="M 1.5 11.5
	h 6" fill="white" fill-opacity="0" stroke="blue" stroke-width="0.05" stroke-linecap="round" />

	<!-- taken -->
	<path d="M 7.3 8.5 h 0.4 M 7.5 8.3 v 0.4" fill="white" fill-opacity="0" stroke="black" stroke-width="0.05" stroke-linecap="round" />
	<path d="M 8.3 8.5 h 0.4 M 8.5 8.3 v 0.4" fill="white" fill-opacity="0" stroke="black" stroke-width="0.05" stroke-linecap="round" />
	<path d="M 7.3 9.5 h 0.4 M 7.5 9.3 v 0.4" fill="white" fill-opacity="0" stroke="black" stroke-width="0.05" stroke-linecap="round" />
	<path d="M 8.3 9.5 h 0.4 M 8.5 9.3 v 0.4" fill="white" fill-opacity="0" stroke="black" stroke-width="0.05" stroke-linecap="round" />

	<!-- count area pair start -->
	<path d="M 8 12 h 1 v 1 h -1 v -0.8 h 0.2 v 0.6 h 0.6 v -0.6 h -0.8 z" fill="#008000" fill-opacity="0.25" />
	<path d="M 8.3 12.3 v 0.4 v -0.2 h 0.4 l -0.13 -0.13 l 0.13 0.13 l -0.13 0.13" fill="white" fill-opacity="0" stroke="black" stroke-width="0.05" stroke-linecap="round" stroke-linejoin="round" />

	<!-- count area pair end -->
	<path d="M 7 12 h 1 v 1 h -1 v -0.8 h 0.2 v 0.6 h 0.6 v -0.6 h -0.8 z" fill="#008000" fill-opacity="0.25" />
	<path d="M 7.3 12.5 h 0.4 l -0.13 -0.13 l 0.13 0.13 l -0.13 0.13 l 0.13 -0.13 v 0.2 v -0.4" fill="white" fill-opacity="0" stroke="black" stroke-width="0.05" stroke-linecap="round" stroke-linejoin="round" />

	<!-- count area pair border -->
	<path d="M 6 12 h 1 v 1 h -1 v -0.8 h 0.2 v 0.6 h 0.6 v -0.6 h -0.8 z" fill="#008000" fill-opacity="0.25" />
	<path d="M 5 12 h 1 v 1 h -1 v -0.8 h 0.2 v 0.6 h 0.6 v -0.6 h -0.8 z" fill="#008000" fill-opacity="0.25" />

	<!-- count area impair start -->
	<path d="M 4 12 h 1 v 1 h -1 v -0.8 h 0.2 v 0.6 h 0.6 v -0.6 h -0.8 z" fill="#808000" fill-opacity="0.25" />
	<path d="M 4.3 12.3 v 0.4 v -0.2 h 0.4 l -0.13 -0.13 l 0.13 0.13 l -0.13 0.13" fill="white" fill-opacity="0" stroke="black" stroke-width="0.05" stroke-linecap="round" stroke-linejoin="round" />

	<!-- count area impair end -->
	<path d="M 3 12 h 1 v 1 h -1 v -0.8 h 0.2 v 0.6 h 0.6 v -0.6 h -0.8 z" fill="#808000" fill-opacity="0.25" />
	<path d="M 3.3 12.5 h 0.4 l -0.13 -0.13 l 0.13 0.13 l -0.13 0.13 l 0.13 -0.13 v 0.2 v -0.4" fill="white" fill-opacity="0" stroke="black" stroke-width="0.05" stroke-linecap="round" stroke-linejoin="round" />

	<!-- count area impair border -->
	<path d="M 2 12 h 1 v 1 h -1 v -0.8 h 0.2 v 0.6 h 0.6 v -0.6 h -0.8 z" fill="#808000" fill-opacity="0.25" />
	<path d="M 1 12 h 1 v 1 h -1 v -0.8 h 0.2 v 0.6 h 0.6 v -0.6 h -0.8 z" fill="#808000" fill-opacity="0.25" />

	<!-- count area pair start forbidden -->
	<path d="M 8 11 h 1 v 1 h -1 v -0.8 h 0.2 v 0.6 h 0.6 v -0.6 h -0.8 z" fill="#008000" fill-opacity="0.25" />
	<path d="M 8.3 11.3 v 0.4 v -0.2 h 0.4 l -0.13 -0.13 l 0.13 0.13 l -0.13 0.13" fill="white" fill-opacity="0" stroke="black" stroke-width="0.05" stroke-linecap="round" stroke-linejoin="round" />
	<path d="M 8.2 11.2 l 0.6 0.6 M 8.2 11.8 l 0.6 -0.6" fill="white" fill-opacity="0" stroke="red" stroke-width="0.05" stroke-linecap="round" />

	<!-- count area impair start forbidden -->
	<path d="M 8 10 h 1 v 1 h -1 v -0.8 h 0.2 v 0.6 h 0.6 v -0.6 h -0.8 z" fill="#808000" fill-opacity="0.25" />
	<path d="M 8.3 10.3 v 0.4 v -0.2 h 0.4 l -0.13 -0.13 l 0.13 0.13 l -0.13 0.13" fill="white" fill-opacity="0" stroke="black" stroke-width="0.05" stroke-linecap="round" stroke-linejoin="round" />
	<path d="M 8.2 10.2 l 0.6 0.6 M 8.2 10.8 l 0.6 -0.6" fill="white" fill-opacity="0" stroke="red" stroke-width="0.05" stroke-linecap="round" />

	<!-- forbidden -->
	<path d="M 0.2 11.2 l 0.6 0.6 M 0.2 11.8 l 0.6 -0.6" fill="white" fill-opacity="0" stroke="red" stroke-width="0.05" stroke-linecap="round" />
	<path d="M 0.2 12.2 l 0.6 0.6 M 0.2 12.8 l 0.6 -0.6" fill="white" fill-opacity="0" stroke="red" stroke-width="0.05" stroke-linecap="round" />
</svg>