<svg xmlns="http://www.w3.org/2000/svg" viewBox="0 0 13 13">
	<path d="M0,0 h13 v13 h-13 z" fill="#dddddd" />
	<rect x="4.25" y="8.25" width="0.5" height="0.5" fill="black" fill-opacity="0.5"  />
	<rect x="3.25" y="7.25" width="0.5" height="0.5" fill="black" fill-opacity="0.5"  />
	<rect x="5.25" y="7.25" width="0.5" height="0.5" fill="black" fill-opacity="0.5"  />
	<rect x="4.25" y="6.25" width="0.5" height="0.5" fill="black" fill-opacity="0.5"  />
	<rect x="3.25" y="5.25" width="0.5" height="0.5" fill="black" fill-opacity="0.5"  />
	<rect x="5.25" y="5.25" width="0.5" height="0.5" fill="black" fill-opacity="0.5"  />
	<rect width="1" height="1" x="0" y="0" fill="#e2bcbc" fill-opacity="1" />
	<rect width="1" height="1" x="0" y="1" fill="#e2bcbc" fill-opacity="1" />
	<rect width="1" height="1" x="0" y="2" fill="#e2bcbc" fill-opacity="1" />
	<rect width="1" height="1" x="0" y="3" fill="#e2bcbc" fill-opacity="1" />
	<rect width="1" height="1" x="0" y="4" fill="#e2bcbc" fill-opacity="1" />
	<rect width="1" height="1" x="0" y="5" fill="#e2bcbc" fill-opacity="1" />
	<rect width="1" height="1" x="0" y="6" fill="#e2bcbc" fill-opacity="1" />
	<rect width="1" height="1" x="0" y="7" fill="#e2bcbc" fill-opacity="1" />
	<rect width="1" height="1" x="0" y="8" fill="#e2bcbc" fill-opacity="1" />
	<rect width="1" height="1" x="0" y="9" fill="#e2bcbc" fill-opacity="1" />
	<rect width="1" height="1" x="1" y="9" fill="#e2bcbc" fill-opacity="1" />
	<rect width="1" height="1" x="2" y="9" fill="#e2bcbc" fill-opacity="1" />
	<rect width="1" height="1" x="3" y="9" fill="#e2bcbc" fill-opacity="1" />
	<rect width="1" height="1" x="4" y="9" fill="#e2bcbc" fill-opacity="1" />
	<rect width="1" height="1" x="5" y="9" fill="#e2bcbc" fill-opacity="1" />
	<rect width="1" height="1" x="5" y="8" fill="#e2bcbc" fill-opacity="1" />
	<rect width="1" height="1" x="6" y="8" fill="#e2bcbc" fill-opacity="1" />
	<rect width="1" height="1" x="6" y="7" fill="#e2bcbc" fill-opacity="1" />
	<rect width="1" height="1" x="6" y="6" fill="#e2bcbc" fill-opacity="1" />
	<rect width="1" height="1" x="6" y="5" fill="#e2bcbc" fill-opacity="1" />
	<rect width="1" height="1" x="6" y="4" fill="#e2bcbc" fill-opacity="1" />
	<rect width="1" height="1" x="5" y="4" fill="#e2bcbc" fill-opacity="1" />
	<rect width="1" height="1" x="4" y="4" fill="#e2bcbc" fill-opacity="1" />
	<rect width="1" height="1" x="3" y="4" fill="#000000" fill-opacity="0.1" />
	<rect width="1" height="1" x="4" y="3" fill="#000000" fill-opacity="0.1" />
	<rect width="0.25" height="1" x="3" y="7" fill="#FF4000" fill-opacity="0.25" />
	<rect width="0.25" height="1" x="3" y="6" fill="#FF4000" fill-opacity="0.25" />
	<path d="M 3 5 h 1 v 0.25 h -0.75 v 0.75 h -0.25 z" fill="#FF4000" fill-opacity="0.25" />
	<rect width="1" height="0.25" x="4" y="5" fill="#FF4000" fill-opacity="0.25" />
	<path d="M 6 5 v 1 h -0.25 v -0.75 h -0.75 v -0.25 z" fill="#FF4000" fill-opacity="0.25" />
	<rect width="0.25" height="1" x="5.75" y="6" fill="#FF4000" fill-opacity="0.25" />
	<path d="M 6 8 h -1 v -0.25 h 0.75 v -0.75 h 0.25 z" fill="#FF4000" fill-opacity="0.25" />
	<rect width="0.25" height="0.25" x="4.75" y="7.75" fill="#FF4000" fill-opacity="0.25" />
	<path d="M 5 9 h -1 v -0.25 h 0.75 v -0.75 h 0.25 z" fill="#FF4000" fill-opacity="0.25" />
	<path d="M 3 9 v -1 h 0.25 v 0.75 h 0.75 v 0.25 z" fill="#FF4000" fill-opacity="0.25" />
	<rect width="1" height="0.25" x="2" y="5" fill="#808000" fill-opacity="0.25" />
	<rect width="1" height="0.25" x="3" y="5" fill="#808000" fill-opacity="0.25" />
	<rect width="1" height="0.25" x="4" y="5" fill="#808000" fill-opacity="0.25" />
	<path d="M 6 5 v 1 h -0.25 v -0.75 h -0.75 v -0.25 z" fill="#808000" fill-opacity="0.25" />
	<rect width="0.25" height="1" x="5.75" y="6" fill="#808000" fill-opacity="0.25" />
	<path d="M 6 8 h -1 v -0.25 h 0.75 v -0.75 h 0.25 z" fill="#808000" fill-opacity="0.25" />
	<rect width="0.25" height="0.25" x="4.75" y="7.75" fill="#808000" fill-opacity="0.25" />
	<path d="M 5 9 h -1 v -0.25 h 0.75 v -0.75 h 0.25 z" fill="#808000" fill-opacity="0.25" />
	<rect width="1" height="0.25" x="3" y="8.75" fill="#808000" fill-opacity="0.25" />
	<rect width="1" height="0.25" x="2" y="8.75" fill="#808000" fill-opacity="0.25" />
	<path d="M 1 9 v -1 h 0.25 v 0.75 h 0.75 v 0.25 z" fill="#808000" fill-opacity="0.25" />
	<rect width="0.25" height="1" x="1" y="7" fill="#808000" fill-opacity="0.25" />
	<rect width="0.25" height="1" x="1" y="6" fill="#808000" fill-opacity="0.25" />
	<path d="M 1 5 h 1 v 0.25 h -0.75 v 0.75 h -0.25 z" fill="#808000" fill-opacity="0.25" />
	<rect width="1" height="0.25" x="2" y="5" fill="#FF4000" fill-opacity="0.25" />
	<rect width="1" height="0.25" x="3" y="5" fill="#FF4000" fill-opacity="0.25" />
	<rect width="1" height="0.25" x="4" y="5" fill="#FF4000" fill-opacity="0.25" />
	<path d="M 6 5 v 1 h -0.25 v -0.75 h -0.75 v -0.25 z" fill="#FF4000" fill-opacity="0.25" />
	<rect width="0.25" height="1" x="5.75" y="6" fill="#FF4000" fill-opacity="0.25" />
	<path d="M 6 8 h -1 v -0.25 h 0.75 v -0.75 h 0.25 z" fill="#FF4000" fill-opacity="0.25" />
	<rect width="0.25" height="0.25" x="4.75" y="7.75" fill="#FF4000" fill-opacity="0.25" />
	<path d="M 5 9 h -1 v -0.25 h 0.75 v -0.75 h 0.25 z" fill="#FF4000" fill-opacity="0.25" />
	<rect width="1" height="0.25" x="3" y="8.75" fill="#FF4000" fill-opacity="0.25" />
	<rect width="1" height="0.25" x="2" y="8.75" fill="#FF4000" fill-opacity="0.25" />
	<path d="M 1 9 v -1 h 0.25 v 0.75 h 0.75 v 0.25 z" fill="#FF4000" fill-opacity="0.25" />
	<rect width="0.25" height="1" x="1" y="7" fill="#FF4000" fill-opacity="0.25" />
	<rect width="0.25" height="1" x="1" y="6" fill="#FF4000" fill-opacity="0.25" />
	<path d="M 1 5 h 1 v 0.25 h -0.75 v 0.75 h -0.25 z" fill="#FF4000" fill-opacity="0.25" />
	<rect width="0.25" height="1" x="4" y="6" fill="#008000" fill-opacity="0.25" />
	<path d="M 4 5 h 1 v 0.25 h -0.75 v 0.75 h -0.25 z" fill="#008000" fill-opacity="0.25" />
	<path d="M 6 5 v 1 h -0.25 v -0.75 h -0.75 v -0.25 z" fill="#008000" fill-opacity="0.25" />
	<rect width="0.25" height="1" x="5.75" y="6" fill="#008000" fill-opacity="0.25" />
	<path d="M 6 8 h -1 v -0.25 h 0.75 v -0.75 h 0.25 z" fill="#008000" fill-opacity="0.25" />
	<path d="M 4 8 v -1 h 0.25 v 0.75 h 0.75 v 0.25 z" fill="#008000" fill-opacity="0.25" />
	<path fill="transparent" stroke="gray" stroke-width="0.02" d="M 0.01 0 v 13" />
	<path fill="transparent" stroke="gray" stroke-width="0.02" d="M 0 0.01 h 13" />
	<path fill="transparent" stroke="gray" stroke-width="0.02" d="M 1 0 v 13" />
	<path fill="transparent" stroke="gray" stroke-width="0.02" d="M 0 1 h 13" />
	<path fill="transparent" stroke="gray" stroke-width="0.02" d="M 2 0 v 13" />
	<path fill="transparent" stroke="gray" stroke-width="0.02" d="M 0 2 h 13" />
	<path fill="transparent" stroke="gray" stroke-width="0.02" d="M 3 0 v 13" />
	<path fill="transparent" stroke="gray" stroke-width="0.02" d="M 0 3 h 13" />
	<path fill="transparent" stroke="gray" stroke-width="0.02" d="M 4 0 v 13" />
	<path fill="transparent" stroke="gray" stroke-width="0.02" d="M 0 4 h 13" />
	<path fill="transparent" stroke="gray" stroke-width="0.02" d="M 5 0 v 13" />
	<path fill="transparent" stroke="gray" stroke-width="0.02" d="M 0 5 h 13" />
	<path fill="transparent" stroke="gray" stroke-width="0.02" d="M 6 0 v 13" />
	<path fill="transparent" stroke="gray" stroke-width="0.02" d="M 0 6 h 13" />
	<path fill="transparent" stroke="gray" stroke-width="0.02" d="M 7 0 v 13" />
	<path fill="transparent" stroke="gray" stroke-width="0.02" d="M 0 7 h 13" />
	<path fill="transparent" stroke="gray" stroke-width="0.02" d="M 8 0 v 13" />
	<path fill="transparent" stroke="gray" stroke-width="0.02" d="M 0 8 h 13" />
	<path fill="transparent" stroke="gray" stroke-width="0.02" d="M 9 0 v 13" />
	<path fill="transparent" stroke="gray" stroke-width="0.02" d="M 0 9 h 13" />
	<path fill="transparent" stroke="gray" stroke-width="0.02" d="M 10 0 v 13" />
	<path fill="transparent" stroke="gray" stroke-width="0.02" d="M 0 10 h 13" />
	<path fill="transparent" stroke="gray" stroke-width="0.02" d="M 11 0 v 13" />
	<path fill="transparent" stroke="gray" stroke-width="0.02" d="M 0 11 h 13" />
	<path fill="transparent" stroke="gray" stroke-width="0.02" d="M 12 0 v 13" />
	<path fill="transparent" stroke="gray" stroke-width="0.02" d="M 0 12 h 13" />
	<path fill="transparent" stroke="gray" stroke-width="0.02" d="M 12.99 0 v 13" />
	<path fill="transparent" stroke="gray" stroke-width="0.02" d="M 0 12.99 h 13" />
	<path d="M 0.5 0.5
L 0.5 1
L 0.5 2
L 0.5 3
L 0.5 4
L 0.5 5
L 0.5 6
L 0.5 7
L 0.5 8
L 0.5 9
A 0.5 0.5 0 0 0 1 9.5
L 2 9.5
L 3 9.5
L 4 9.5
L 5 9.5
A 0.5 0.5 0 0 0 5.5 9
A 0.5 0.5 0 0 1 6 8.5
A 0.5 0.5 0 0 0 6.5 8
L 6.5 7
L 6.5 6
L 6.5 5
A 0.5 0.5 0 0 0 6 4.5
L 5 4.5
L 4.5 4.5" fill="white" fill-opacity="0" stroke="black" stroke-width="0.05" stroke-linecap="round" />
</svg>