<svg xmlns="http://www.w3.org/2000/svg" viewBox="0 0 21 21">
	<path d="M0,0 h21 v21 h-21 z" fill="#dddddd" />
	<rect width="1" height="1" x="0" y="0" fill="#ff0000" fill-opacity="0.15" />
	<rect width="1" height="1" x="0" y="1" fill="#ff0000" fill-opacity="0.15" />
	<rect width="1" height="1" x="0" y="2" fill="#ff0000" fill-opacity="0.15" />
	<rect width="1" height="1" x="0" y="3" fill="#ff0000" fill-opacity="0.15" />
	<rect width="1" height="1" x="0" y="4" fill="#ff0000" fill-opacity="0.15" />
	<rect width="1" height="1" x="0" y="5" fill="#ff0000" fill-opacity="0.15" />
	<rect width="1" height="1" x="0" y="6" fill="#ff0000" fill-opacity="0.15" />
	<rect width="1" height="1" x="0" y="7" fill="#ff0000" fill-opacity="0.15" />
	<rect width="1" height="1" x="0" y="8" fill="#ff0000" fill-opacity="0.15" />
	<rect width="1" height="1" x="0" y="9" fill="#ff0000" fill-opacity="0.15" />
	<rect width="1" height="1" x="0" y="10" fill="#ff0000" fill-opacity="0.15" />
	<rect width="1" height="1" x="0" y="11" fill="#ff0000" fill-opacity="0.15" />
	<rect width="1" height="1" x="0" y="12" fill="#ff0000" fill-opacity="0.15" />
	<rect width="1" height="1" x="0" y="13" fill="#ff0000" fill-opacity="0.15" />
	<rect width="1" height="1" x="0" y="14" fill="#ff0000" fill-opacity="0.15" />
	<rect width="1" height="1" x="0" y="15" fill="#ff0000" fill-opacity="0.15" />
	<rect width="1" height="1" x="1" y="15" fill="#ff0000" fill-opacity="0.15" />
	<rect width="1" height="1" x="2" y="15" fill="#ff0000" fill-opacity="0.15" />
	<rect width="1" height="1" x="3" y="15" fill="#ff0000" fill-opacity="0.15" />
	<rect width="1" height="1" x="4" y="15" fill="#ff0000" fill-opacity="0.15" />
	<rect width="1" height="1" x="5" y="15" fill="#ff0000" fill-opacity="0.15" />
	<rect width="1" height="1" x="6" y="15" fill="#ff0000" fill-opacity="0.15" />
	<rect width="1" height="1" x="7" y="15" fill="#ff0000" fill-opacity="0.15" />
	<rect width="1" height="1" x="8" y="15" fill="#ff0000" fill-opacity="0.15" />
	<rect width="1" height="1" x="8" y="16" fill="#ff0000" fill-opacity="0.15" />
	<rect width="1" height="1" x="8" y="17" fill="#ff0000" fill-opacity="0.15" />
	<rect width="1" height="1" x="9" y="17" fill="#ff0000" fill-opacity="0.15" />
	<rect width="1" height="1" x="10" y="17" fill="#ff0000" fill-opacity="0.15" />
	<rect width="1" height="1" x="11" y="17" fill="#ff0000" fill-opacity="0.15" />
	<rect width="1" height="1" x="12" y="17" fill="#ff0000" fill-opacity="0.15" />
	<rect width="1" height="1" x="13" y="17" fill="#ff0000" fill-opacity="0.15" />
	<rect width="1" height="1" x="13" y="16" fill="#ff0000" fill-opacity="0.15" />
	<rect width="1" height="1" x="13" y="15" fill="#ff0000" fill-opacity="0.15" />
	<rect width="1" height="1" x="13" y="14" fill="#ff0000" fill-opacity="0.15" />
	<rect width="1" height="1" x="13" y="13" fill="#ff0000" fill-opacity="0.15" />
	<rect width="1" height="1" x="12" y="13" fill="#ff0000" fill-opacity="0.15" />
	<rect width="1" height="1" x="12" y="12" fill="#ff0000" fill-opacity="0.15" />
	<rect width="1" height="1" x="12" y="11" fill="#ff0000" fill-opacity="0.15" />
	<rect width="1" height="1" x="12" y="10" fill="#ff0000" fill-opacity="0.15" />
	<rect width="1" height="1" x="11" y="10" fill="#ff0000" fill-opacity="0.15" />
	<rect width="1" height="1" x="11" y="9" fill="#ff0000" fill-opacity="0.15" />
	<rect width="1" height="1" x="10" y="9" fill="#ff0000" fill-opacity="0.15" />
	<rect width="1" height="1" x="9" y="9" fill="#ff0000" fill-opacity="0.15" />
	<rect width="1" height="1" x="9" y="8" fill="#ff0000" fill-opacity="0.15" />
	<rect width="1" height="1" x="9" y="7" fill="#ff0000" fill-opacity="0.15" />
	<rect width="1" height="1" x="9" y="6" fill="#ff0000" fill-opacity="0.15" />
	<rect width="1" height="1" x="9" y="5" fill="#ff0000" fill-opacity="0.15" />
	<rect width="1" height="1" x="9" y="4" fill="#ff0000" fill-opacity="0.15" />
	<rect width="1" height="1" x="9" y="3" fill="#ff0000" fill-opacity="0.15" />
	<rect width="1" height="1" x="8" y="3" fill="#ff0000" fill-opacity="0.15" />
	<rect width="1" height="1" x="7" y="3" fill="#ff0000" fill-opacity="0.15" />
	<rect width="1" height="1" x="6" y="3" fill="#ff0000" fill-opacity="0.15" />
	<rect width="1" height="1" x="5" y="3" fill="#ff0000" fill-opacity="0.15" />
	<rect width="1" height="1" x="5" y="4" fill="#ff0000" fill-opacity="0.15" />
	<rect width="1" height="1" x="5" y="5" fill="#ff0000" fill-opacity="0.15" />
	<rect width="1" height="1" x="4" y="5" fill="#ff0000" fill-opacity="0.15" />
	<rect width="1" height="1" x="3" y="5" fill="#ff0000" fill-opacity="0.15" />
	<rect width="1" height="1" x="3" y="6" fill="#ff0000" fill-opacity="0.15" />
	<rect width="1" height="1" x="3" y="7" fill="#ff0000" fill-opacity="0.15" />
	<rect width="1" height="1" x="3" y="8" fill="#ff0000" fill-opacity="0.15" />
	<rect width="1" height="1" x="3" y="9" fill="#ff0000" fill-opacity="0.15" />
	<rect width="1" height="1" x="3" y="10" fill="#ff0000" fill-opacity="0.15" />
	<rect width="1" height="1" x="4" y="10" fill="#ff0000" fill-opacity="0.15" />
	<rect width="1" height="1" x="5" y="10" fill="#ff0000" fill-opacity="0.15" />
	<rect width="1" height="1" x="6" y="10" fill="#ff0000" fill-opacity="0.15" />
	<rect width="1" height="1" x="6" y="5" fill="#0000ff" fill-opacity="0.15" />
	<rect width="1" height="1" x="6" y="4" fill="#0000ff" fill-opacity="0.15" />
	<rect width="1" height="1" x="7" y="4" fill="#0000ff" fill-opacity="0.15" />
	<rect width="1" height="1" x="8" y="4" fill="#0000ff" fill-opacity="0.15" />
	<rect width="1" height="1" x="8" y="5" fill="#0000ff" fill-opacity="0.15" />
	<rect width="1" height="1" x="7" y="12" fill="#0000ff" fill-opacity="0.15" />
	<rect width="1" height="1" x="8" y="12" fill="#0000ff" fill-opacity="0.15" />
	<rect width="1" height="1" x="8" y="11" fill="#0000ff" fill-opacity="0.15" />
	<rect width="1" height="1" x="9" y="11" fill="#0000ff" fill-opacity="0.15" />
	<rect width="1" height="1" x="9" y="10" fill="#0000ff" fill-opacity="0.15" />
	<rect width="1" height="1" x="10" y="10" fill="#0000ff" fill-opacity="0.15" />
	<rect width="1" height="1" x="10" y="11" fill="#0000ff" fill-opacity="0.15" />
	<rect width="1" height="1" x="11" y="11" fill="#0000ff" fill-opacity="0.15" />
	<rect width="1" height="1" x="11" y="12" fill="#0000ff" fill-opacity="0.15" />
	<rect width="1" height="1" x="11" y="13" fill="#0000ff" fill-opacity="0.15" />
	<rect width="1" height="1" x="11" y="14" fill="#0000ff" fill-opacity="0.15" />
	<rect width="1" height="1" x="12" y="14" fill="#0000ff" fill-opacity="0.15" />
	<rect width="1" height="1" x="12" y="15" fill="#0000ff" fill-opacity="0.15" />
	<rect width="1" height="1" x="12" y="16" fill="#0000ff" fill-opacity="0.15" />
	<rect width="1" height="1" x="11" y="16" fill="#0000ff" fill-opacity="0.15" />
	<rect width="1" height="1" x="11" y="15" fill="#0000ff" fill-opacity="0.15" />
	<rect width="1" height="1" x="10" y="15" fill="#0000ff" fill-opacity="0.15" />
	<rect width="1" height="1" x="10" y="16" fill="#0000ff" fill-opacity="0.15" />
	<rect width="1" height="1" x="9" y="16" fill="#0000ff" fill-opacity="0.15" />
	<rect width="1" height="1" x="9" y="15" fill="#0000ff" fill-opacity="0.15" />
	<rect width="1" height="1" x="9" y="14" fill="#0000ff" fill-opacity="0.15" />
	<rect width="1" height="1" x="10" y="14" fill="#0000ff" fill-opacity="0.15" />
	<rect width="1" height="1" x="10" y="13" fill="#0000ff" fill-opacity="0.15" />
	<rect width="1" height="1" x="10" y="12" fill="#0000ff" fill-opacity="0.15" />
	<rect width="1" height="1" x="9" y="12" fill="#0000ff" fill-opacity="0.15" />
	<rect width="1" height="1" x="9" y="13" fill="#0000ff" fill-opacity="0.15" />
	<rect width="1" height="1" x="8" y="13" fill="#0000ff" fill-opacity="0.15" />
	<rect width="1" height="1" x="8" y="14" fill="#0000ff" fill-opacity="0.15" />
	<rect width="1" height="1" x="7" y="14" fill="#0000ff" fill-opacity="0.15" />
	<rect width="1" height="1" x="7" y="10" fill="#000000" fill-opacity="0.1" />
	<rect width="1" height="1" x="6" y="9" fill="#000000" fill-opacity="0.1" />
	<path fill="transparent" stroke="gray" stroke-width="0.02" d="M 0.01 0 v 21" />
	<path fill="transparent" stroke="gray" stroke-width="0.02" d="M 0 0.01 h 21" />
	<path fill="transparent" stroke="gray" stroke-width="0.02" d="M 1 0 v 21" />
	<path fill="transparent" stroke="gray" stroke-width="0.02" d="M 0 1 h 21" />
	<path fill="transparent" stroke="gray" stroke-width="0.02" d="M 2 0 v 21" />
	<path fill="transparent" stroke="gray" stroke-width="0.02" d="M 0 2 h 21" />
	<path fill="transparent" stroke="gray" stroke-width="0.02" d="M 3 0 v 21" />
	<path fill="transparent" stroke="gray" stroke-width="0.02" d="M 0 3 h 21" />
	<path fill="transparent" stroke="gray" stroke-width="0.02" d="M 4 0 v 21" />
	<path fill="transparent" stroke="gray" stroke-width="0.02" d="M 0 4 h 21" />
	<path fill="transparent" stroke="gray" stroke-width="0.02" d="M 5 0 v 21" />
	<path fill="transparent" stroke="gray" stroke-width="0.02" d="M 0 5 h 21" />
	<path fill="transparent" stroke="gray" stroke-width="0.02" d="M 6 0 v 21" />
	<path fill="transparent" stroke="gray" stroke-width="0.02" d="M 0 6 h 21" />
	<path fill="transparent" stroke="gray" stroke-width="0.02" d="M 7 0 v 21" />
	<path fill="transparent" stroke="gray" stroke-width="0.02" d="M 0 7 h 21" />
	<path fill="transparent" stroke="gray" stroke-width="0.02" d="M 8 0 v 21" />
	<path fill="transparent" stroke="gray" stroke-width="0.02" d="M 0 8 h 21" />
	<path fill="transparent" stroke="gray" stroke-width="0.02" d="M 9 0 v 21" />
	<path fill="transparent" stroke="gray" stroke-width="0.02" d="M 0 9 h 21" />
	<path fill="transparent" stroke="gray" stroke-width="0.02" d="M 10 0 v 21" />
	<path fill="transparent" stroke="gray" stroke-width="0.02" d="M 0 10 h 21" />
	<path fill="transparent" stroke="gray" stroke-width="0.02" d="M 11 0 v 21" />
	<path fill="transparent" stroke="gray" stroke-width="0.02" d="M 0 11 h 21" />
	<path fill="transparent" stroke="gray" stroke-width="0.02" d="M 12 0 v 21" />
	<path fill="transparent" stroke="gray" stroke-width="0.02" d="M 0 12 h 21" />
	<path fill="transparent" stroke="gray" stroke-width="0.02" d="M 13 0 v 21" />
	<path fill="transparent" stroke="gray" stroke-width="0.02" d="M 0 13 h 21" />
	<path fill="transparent" stroke="gray" stroke-width="0.02" d="M 14 0 v 21" />
	<path fill="transparent" stroke="gray" stroke-width="0.02" d="M 0 14 h 21" />
	<path fill="transparent" stroke="gray" stroke-width="0.02" d="M 15 0 v 21" />
	<path fill="transparent" stroke="gray" stroke-width="0.02" d="M 0 15 h 21" />
	<path fill="transparent" stroke="gray" stroke-width="0.02" d="M 16 0 v 21" />
	<path fill="transparent" stroke="gray" stroke-width="0.02" d="M 0 16 h 21" />
	<path fill="transparent" stroke="gray" stroke-width="0.02" d="M 17 0 v 21" />
	<path fill="transparent" stroke="gray" stroke-width="0.02" d="M 0 17 h 21" />
	<path fill="transparent" stroke="gray" stroke-width="0.02" d="M 18 0 v 21" />
	<path fill="transparent" stroke="gray" stroke-width="0.02" d="M 0 18 h 21" />
	<path fill="transparent" stroke="gray" stroke-width="0.02" d="M 19 0 v 21" />
	<path fill="transparent" stroke="gray" stroke-width="0.02" d="M 0 19 h 21" />
	<path fill="transparent" stroke="gray" stroke-width="0.02" d="M 20 0 v 21" />
	<path fill="transparent" stroke="gray" stroke-width="0.02" d="M 0 20 h 21" />
	<path fill="transparent" stroke="gray" stroke-width="0.02" d="M 20.99 0 v 21" />
	<path fill="transparent" stroke="gray" stroke-width="0.02" d="M 0 20.99 h 21" />
	<path d="M 0 0.5
A 0.5 0.5 0 0 1 0.5 1
L 0.5 2
L 0.5 3
L 0.5 4
L 0.5 5
L 0.5 6
L 0.5 7
L 0.5 8
L 0.5 9
L 0.5 10
L 0.5 11
L 0.5 12
L 0.5 13
L 0.5 14
L 0.5 15
A 0.5 0.5 0 0 0 1 15.5
L 2 15.5
L 3 15.5
L 4 15.5
L 5 15.5
L 6 15.5
L 7 15.5
L 8 15.5
A 0.5 0.5 0 0 1 8.5 16
L 8.5 17
A 0.5 0.5 0 0 0 9 17.5
L 10 17.5
L 11 17.5
L 12 17.5
L 13 17.5
A 0.5 0.5 0 0 0 13.5 17
L 13.5 16
L 13.5 15
L 13.5 14
A 0.5 0.5 0 0 0 13 13.5
A 0.5 0.5 0 0 1 12.5 13
L 12.5 12
L 12.5 11
A 0.5 0.5 0 0 0 12 10.5
A 0.5 0.5 0 0 1 11.5 10
A 0.5 0.5 0 0 0 11 9.5
L 10 9.5
A 0.5 0.5 0 0 1 9.5 9
L 9.5 8
L 9.5 7
L 9.5 6
L 9.5 5
L 9.5 4
A 0.5 0.5 0 0 0 9 3.5
L 8 3.5
L 7 3.5
L 6 3.5
A 0.5 0.5 0 0 0 5.5 4
L 5.5 5
A 0.5 0.5 0 0 1 5 5.5
L 4 5.5
A 0.5 0.5 0 0 0 3.5 6
L 3.5 7
L 3.5 8
L 3.5 9
L 3.5 10
A 0.5 0.5 0 0 0 4 10.5
L 5 10.5
L 6 10.5" fill="white" fill-opacity="0" stroke="black" stroke-width="0.05" />
	<path d="M 6.5 5.5
L 6.5 5
A 0.5 0.5 0 0 1 7 4.5
L 8 4.5
A 0.5 0.5 0 0 1 8.5 5
" fill="white" fill-opacity="0" stroke="blue" stroke-width="0.05" />
	<path d="M 7.5 12.5
L 8 12.5
A 0.5 0.5 0 0 0 8.5 12
A 0.5 0.5 0 0 1 9 11.5
A 0.5 0.5 0 0 0 9.5 11
A 0.5 0.5 0 0 1 10 10.5
A 0.5 0.5 0 0 1 10.5 11
A 0.5 0.5 0 0 0 11 11.5
A 0.5 0.5 0 0 1 11.5 12
L 11.5 13
L 11.5 14
A 0.5 0.5 0 0 0 12 14.5
A 0.5 0.5 0 0 1 12.5 15
L 12.5 16
A 0.5 0.5 0 0 1 12 16.5
A 0.5 0.5 0 0 1 11.5 16
A 0.5 0.5 0 0 0 11 15.5
A 0.5 0.5 0 0 0 10.5 16
A 0.5 0.5 0 0 1 10 16.5
A 0.5 0.5 0 0 1 9.5 16
L 9.5 15
A 0.5 0.5 0 0 1 10 14.5
A 0.5 0.5 0 0 0 10.5 14
L 10.5 13
A 0.5 0.5 0 0 0 10 12.5
A 0.5 0.5 0 0 0 9.5 13
A 0.5 0.5 0 0 1 9 13.5
A 0.5 0.5 0 0 0 8.5 14
A 0.5 0.5 0 0 1 8 14.5
" fill="white" fill-opacity="0" stroke="blue" stroke-width="0.05" />
</svg>