<svg xmlns="http://www.w3.org/2000/svg" viewBox="4 0 17 14">
	<path d="M0,0 h25 v25 h-25 z" fill="#dddddd" />
	<rect x="17.25" y="12.25" width="0.5" height="0.5" fill="black" fill-opacity="0.5"  />
	<rect x="19.25" y="12.25" width="0.5" height="0.5" fill="black" fill-opacity="0.5"  />
	<rect x="16.25" y="11.25" width="0.5" height="0.5" fill="black" fill-opacity="0.5"  />
	<rect x="18.25" y="11.25" width="0.5" height="0.5" fill="black" fill-opacity="0.5"  />
	<rect x="5.25" y="12.25" width="0.5" height="0.5" fill="black" fill-opacity="0.5"  />
	<rect x="7.25" y="12.25" width="0.5" height="0.5" fill="black" fill-opacity="0.5"  />
	<rect x="6.25" y="11.25" width="0.5" height="0.5" fill="black" fill-opacity="0.5"  />
	<rect x="8.25" y="11.25" width="0.5" height="0.5" fill="black" fill-opacity="0.5"  />
	<rect x="5.25" y="10.25" width="0.5" height="0.5" fill="black" fill-opacity="0.5"  />
	<rect x="7.25" y="10.25" width="0.5" height="0.5" fill="black" fill-opacity="0.5"  />
	<rect x="9.25" y="10.25" width="0.5" height="0.5" fill="black" fill-opacity="0.5"  />
	<rect x="11.25" y="10.25" width="0.5" height="0.5" fill="black" fill-opacity="0.5"  />
	<rect x="13.25" y="10.25" width="0.5" height="0.5" fill="black" fill-opacity="0.5"  />
	<rect x="15.25" y="10.25" width="0.5" height="0.5" fill="black" fill-opacity="0.5"  />
	<rect x="17.25" y="10.25" width="0.5" height="0.5" fill="black" fill-opacity="0.5"  />
	<rect x="19.25" y="10.25" width="0.5" height="0.5" fill="black" fill-opacity="0.5"  />
	<rect x="6.25" y="9.25" width="0.5" height="0.5" fill="black" fill-opacity="0.5"  />
	<rect x="8.25" y="9.25" width="0.5" height="0.5" fill="black" fill-opacity="0.5"  />
	<rect x="10.25" y="9.25" width="0.5" height="0.5" fill="black" fill-opacity="0.5"  />
	<rect x="12.25" y="9.25" width="0.5" height="0.5" fill="black" fill-opacity="0.5"  />
	<rect x="14.25" y="9.25" width="0.5" height="0.5" fill="black" fill-opacity="0.5"  />
	<rect x="16.25" y="9.25" width="0.5" height="0.5" fill="black" fill-opacity="0.5"  />
	<rect x="18.25" y="9.25" width="0.5" height="0.5" fill="black" fill-opacity="0.5"  />
	<rect x="7.25" y="8.25" width="0.5" height="0.5" fill="black" fill-opacity="0.5"  />
	<rect x="9.25" y="8.25" width="0.5" height="0.5" fill="black" fill-opacity="0.5"  />
	<rect x="11.25" y="8.25" width="0.5" height="0.5" fill="black" fill-opacity="0.5"  />
	<rect x="13.25" y="8.25" width="0.5" height="0.5" fill="black" fill-opacity="0.5"  />
	<rect x="15.25" y="8.25" width="0.5" height="0.5" fill="black" fill-opacity="0.5"  />
	<rect x="17.25" y="8.25" width="0.5" height="0.5" fill="black" fill-opacity="0.5"  />
	<rect x="6.25" y="7.25" width="0.5" height="0.5" fill="black" fill-opacity="0.5"  />
	<rect x="8.25" y="7.25" width="0.5" height="0.5" fill="black" fill-opacity="0.5"  />
	<rect x="10.25" y="7.25" width="0.5" height="0.5" fill="black" fill-opacity="0.5"  />
	<rect x="12.25" y="7.25" width="0.5" height="0.5" fill="black" fill-opacity="0.5"  />
	<rect x="14.25" y="7.25" width="0.5" height="0.5" fill="black" fill-opacity="0.5"  />
	<rect x="16.25" y="7.25" width="0.5" height="0.5" fill="black" fill-opacity="0.5"  />
	<rect x="18.25" y="7.25" width="0.5" height="0.5" fill="black" fill-opacity="0.5"  />
	<rect x="7.25" y="6.25" width="0.5" height="0.5" fill="black" fill-opacity="0.5"  />
	<rect x="9.25" y="6.25" width="0.5" height="0.5" fill="black" fill-opacity="0.5"  />
	<rect x="11.25" y="6.25" width="0.5" height="0.5" fill="black" fill-opacity="0.5"  />
	<rect x="13.25" y="6.25" width="0.5" height="0.5" fill="black" fill-opacity="0.5"  />
	<rect x="15.25" y="6.25" width="0.5" height="0.5" fill="black" fill-opacity="0.5"  />
	<rect x="17.25" y="6.25" width="0.5" height="0.5" fill="black" fill-opacity="0.5"  />
	<rect x="8.25" y="5.25" width="0.5" height="0.5" fill="black" fill-opacity="0.5"  />
	<rect x="10.25" y="5.25" width="0.5" height="0.5" fill="black" fill-opacity="0.5"  />
	<rect x="12.25" y="5.25" width="0.5" height="0.5" fill="black" fill-opacity="0.5"  />
	<rect x="14.25" y="5.25" width="0.5" height="0.5" fill="black" fill-opacity="0.5"  />
	<rect x="16.25" y="5.25" width="0.5" height="0.5" fill="black" fill-opacity="0.5"  />
	<rect x="7.25" y="4.25" width="0.5" height="0.5" fill="black" fill-opacity="0.5"  />
	<rect x="9.25" y="4.25" width="0.5" height="0.5" fill="black" fill-opacity="0.5"  />
	<rect x="11.25" y="4.25" width="0.5" height="0.5" fill="black" fill-opacity="0.5"  />
	<rect x="13.25" y="4.25" width="0.5" height="0.5" fill="black" fill-opacity="0.5"  />
	<rect x="15.25" y="4.25" width="0.5" height="0.5" fill="black" fill-opacity="0.5"  />
	<rect x="17.25" y="4.25" width="0.5" height="0.5" fill="black" fill-opacity="0.5"  />
	<rect x="10.25" y="3.25" width="0.5" height="0.5" fill="black" fill-opacity="0.5"  />
	<rect x="12.25" y="3.25" width="0.5" height="0.5" fill="black" fill-opacity="0.5"  />
	<rect x="14.25" y="3.25" width="0.5" height="0.5" fill="black" fill-opacity="0.5"  />
	<rect x="16.25" y="3.25" width="0.5" height="0.5" fill="black" fill-opacity="0.5"  />
	<rect x="9.25" y="2.25" width="0.5" height="0.5" fill="black" fill-opacity="0.5"  />
	<rect x="11.25" y="2.25" width="0.5" height="0.5" fill="black" fill-opacity="0.5"  />
	<rect x="13.25" y="2.25" width="0.5" height="0.5" fill="black" fill-opacity="0.5"  />
	<rect x="15.25" y="2.25" width="0.5" height="0.5" fill="black" fill-opacity="0.5"  />
	<rect x="17.25" y="2.25" width="0.5" height="0.5" fill="black" fill-opacity="0.5"  />
	<rect width="1" height="1" x="0" y="0" fill="#e2bcbc" fill-opacity="1" />
	<rect width="1" height="1" x="1" y="0" fill="#e2bcbc" fill-opacity="1" />
	<rect width="1" height="1" x="2" y="0" fill="#e2bcbc" fill-opacity="1" />
	<rect width="1" height="1" x="3" y="0" fill="#e2bcbc" fill-opacity="1" />
	<rect width="1" height="1" x="4" y="0" fill="#e2bcbc" fill-opacity="1" />
	<rect width="1" height="1" x="5" y="0" fill="#e2bcbc" fill-opacity="1" />
	<rect width="1" height="1" x="6" y="0" fill="#e2bcbc" fill-opacity="1" />
	<rect width="1" height="1" x="7" y="0" fill="#e2bcbc" fill-opacity="1" />
	<rect width="1" height="1" x="8" y="0" fill="#e2bcbc" fill-opacity="1" />
	<rect width="1" height="1" x="8" y="1" fill="#e2bcbc" fill-opacity="1" />
	<rect width="1" height="1" x="8" y="2" fill="#e2bcbc" fill-opacity="1" />
	<rect width="1" height="1" x="8" y="3" fill="#e2bcbc" fill-opacity="1" />
	<rect width="1" height="1" x="7" y="3" fill="#e2bcbc" fill-opacity="1" />
	<rect width="1" height="1" x="6" y="3" fill="#e2bcbc" fill-opacity="1" />
	<rect width="1" height="1" x="6" y="4" fill="#e2bcbc" fill-opacity="1" />
	<rect width="1" height="1" x="6" y="5" fill="#e2bcbc" fill-opacity="1" />
	<rect width="1" height="1" x="6" y="6" fill="#e2bcbc" fill-opacity="1" />
	<rect width="1" height="1" x="5" y="6" fill="#e2bcbc" fill-opacity="1" />
	<rect width="1" height="1" x="5" y="7" fill="#e2bcbc" fill-opacity="1" />
	<rect width="1" height="1" x="5" y="8" fill="#e2bcbc" fill-opacity="1" />
	<rect width="1" height="1" x="5" y="9" fill="#e2bcbc" fill-opacity="1" />
	<rect width="1" height="1" x="4" y="9" fill="#e2bcbc" fill-opacity="1" />
	<rect width="1" height="1" x="4" y="10" fill="#e2bcbc" fill-opacity="1" />
	<rect width="1" height="1" x="4" y="11" fill="#e2bcbc" fill-opacity="1" />
	<rect width="1" height="1" x="4" y="12" fill="#e2bcbc" fill-opacity="1" />
	<rect width="1" height="1" x="4" y="13" fill="#e2bcbc" fill-opacity="1" />
	<rect width="1" height="1" x="5" y="13" fill="#e2bcbc" fill-opacity="1" />
	<rect width="1" height="1" x="6" y="13" fill="#e2bcbc" fill-opacity="1" />
	<rect width="1" height="1" x="7" y="13" fill="#e2bcbc" fill-opacity="1" />
	<rect width="1" height="1" x="8" y="13" fill="#e2bcbc" fill-opacity="1" />
	<rect width="1" height="1" x="9" y="13" fill="#e2bcbc" fill-opacity="1" />
	<rect width="1" height="1" x="9" y="12" fill="#e2bcbc" fill-opacity="1" />
	<rect width="1" height="1" x="9" y="11" fill="#e2bcbc" fill-opacity="1" />
	<rect width="1" height="1" x="10" y="11" fill="#e2bcbc" fill-opacity="1" />
	<rect width="1" height="1" x="11" y="11" fill="#e2bcbc" fill-opacity="1" />
	<rect width="1" height="1" x="12" y="11" fill="#e2bcbc" fill-opacity="1" />
	<rect width="1" height="1" x="13" y="11" fill="#e2bcbc" fill-opacity="1" />
	<rect width="1" height="1" x="14" y="11" fill="#e2bcbc" fill-opacity="1" />
	<rect width="1" height="1" x="15" y="11" fill="#e2bcbc" fill-opacity="1" />
	<rect width="1" height="1" x="15" y="12" fill="#e2bcbc" fill-opacity="1" />
	<rect width="1" height="1" x="15" y="13" fill="#e2bcbc" fill-opacity="1" />
	<rect width="1" height="1" x="16" y="13" fill="#e2bcbc" fill-opacity="1" />
	<rect width="1" height="1" x="17" y="13" fill="#e2bcbc" fill-opacity="1" />
	<rect width="1" height="1" x="18" y="13" fill="#e2bcbc" fill-opacity="1" />
	<rect width="1" height="1" x="19" y="13" fill="#e2bcbc" fill-opacity="1" />
	<rect width="1" height="1" x="20" y="13" fill="#e2bcbc" fill-opacity="1" />
	<rect width="1" height="1" x="20" y="12" fill="#e2bcbc" fill-opacity="1" />
	<rect width="1" height="1" x="20" y="11" fill="#e2bcbc" fill-opacity="1" />
	<rect width="1" height="1" x="20" y="10" fill="#e2bcbc" fill-opacity="1" />
	<rect width="1" height="1" x="20" y="9" fill="#e2bcbc" fill-opacity="1" />
	<rect width="1" height="1" x="19" y="9" fill="#e2bcbc" fill-opacity="1" />
	<rect width="1" height="1" x="19" y="8" fill="#e2bcbc" fill-opacity="1" />
	<rect width="1" height="1" x="19" y="7" fill="#e2bcbc" fill-opacity="1" />
	<rect width="1" height="1" x="19" y="6" fill="#e2bcbc" fill-opacity="1" />
	<rect width="1" height="1" x="18" y="6" fill="#e2bcbc" fill-opacity="1" />
	<rect width="1" height="1" x="18" y="5" fill="#e2bcbc" fill-opacity="1" />
	<rect width="1" height="1" x="19" y="5" fill="#e2bcbc" fill-opacity="1" />
	<rect width="1" height="1" x="19" y="4" fill="#e2bcbc" fill-opacity="1" />
	<rect width="1" height="1" x="18" y="4" fill="#e2bcbc" fill-opacity="1" />
	<rect width="1" height="1" x="18" y="3" fill="#e2bcbc" fill-opacity="1" />
	<rect width="1" height="0.25" x="10" y="2" fill="#FF4000" fill-opacity="0.25" />
	<rect width="1" height="0.25" x="11" y="2" fill="#FF4000" fill-opacity="0.25" />
	<rect width="1" height="0.25" x="12" y="2" fill="#FF4000" fill-opacity="0.25" />
	<rect width="1" height="0.25" x="13" y="2" fill="#FF4000" fill-opacity="0.25" />
	<rect width="1" height="0.25" x="14" y="2" fill="#FF4000" fill-opacity="0.25" />
	<rect width="1" height="0.25" x="15" y="2" fill="#FF4000" fill-opacity="0.25" />
	<rect width="1" height="0.25" x="16" y="2" fill="#FF4000" fill-opacity="0.25" />
	<path d="M 18 2 v 1 h -0.25 v -0.75 h -0.75 v -0.25 z" fill="#FF4000" fill-opacity="0.25" />
	<rect width="0.25" height="1" x="17.75" y="3" fill="#FF4000" fill-opacity="0.25" />
	<rect width="0.25" height="1" x="17.75" y="4" fill="#FF4000" fill-opacity="0.25" />
	<rect width="0.25" height="1" x="17.75" y="5" fill="#FF4000" fill-opacity="0.25" />
	<rect width="0.25" height="1" x="17.75" y="6" fill="#FF4000" fill-opacity="0.25" />
	<rect width="0.25" height="0.25" x="17.75" y="7" fill="#FF4000" fill-opacity="0.25" />
	<path d="M 19 7 v 1 h -0.25 v -0.75 h -0.75 v -0.25 z" fill="#FF4000" fill-opacity="0.25" />
	<rect width="0.25" height="1" x="18.75" y="8" fill="#FF4000" fill-opacity="0.25" />
	<rect width="0.25" height="1" x="18.75" y="9" fill="#FF4000" fill-opacity="0.25" />
	<rect width="0.25" height="0.25" x="18.75" y="10" fill="#FF4000" fill-opacity="0.25" />
	<path d="M 20 10 v 1 h -0.25 v -0.75 h -0.75 v -0.25 z" fill="#FF4000" fill-opacity="0.25" />
	<rect width="0.25" height="1" x="19.75" y="11" fill="#FF4000" fill-opacity="0.25" />
	<path d="M 20 13 h -1 v -0.25 h 0.75 v -0.75 h 0.25 z" fill="#FF4000" fill-opacity="0.25" />
	<rect width="1" height="0.25" x="18" y="12.75" fill="#FF4000" fill-opacity="0.25" />
	<rect width="1" height="0.25" x="17" y="12.75" fill="#FF4000" fill-opacity="0.25" />
	<path d="M 16 13 v -1 h 0.25 v 0.75 h 0.75 v 0.25 z" fill="#FF4000" fill-opacity="0.25" />
	<rect width="0.25" height="1" x="16" y="11" fill="#FF4000" fill-opacity="0.25" />
	<rect width="0.25" height="0.25" x="16" y="10.75" fill="#FF4000" fill-opacity="0.25" />
	<rect width="1" height="0.25" x="15" y="10.75" fill="#FF4000" fill-opacity="0.25" />
	<rect width="1" height="0.25" x="14" y="10.75" fill="#FF4000" fill-opacity="0.25" />
	<rect width="1" height="0.25" x="13" y="10.75" fill="#FF4000" fill-opacity="0.25" />
	<rect width="1" height="0.25" x="12" y="10.75" fill="#FF4000" fill-opacity="0.25" />
	<rect width="1" height="0.25" x="11" y="10.75" fill="#FF4000" fill-opacity="0.25" />
	<rect width="1" height="0.25" x="10" y="10.75" fill="#FF4000" fill-opacity="0.25" />
	<rect width="1" height="0.25" x="9" y="10.75" fill="#FF4000" fill-opacity="0.25" />
	<rect width="0.25" height="0.25" x="8.75" y="10.75" fill="#FF4000" fill-opacity="0.25" />
	<rect width="0.25" height="1" x="8.75" y="11" fill="#FF4000" fill-opacity="0.25" />
	<path d="M 9 13 h -1 v -0.25 h 0.75 v -0.75 h 0.25 z" fill="#FF4000" fill-opacity="0.25" />
	<rect width="1" height="0.25" x="7" y="12.75" fill="#FF4000" fill-opacity="0.25" />
	<rect width="1" height="0.25" x="6" y="12.75" fill="#FF4000" fill-opacity="0.25" />
	<path d="M 5 13 v -1 h 0.25 v 0.75 h 0.75 v 0.25 z" fill="#FF4000" fill-opacity="0.25" />
	<rect width="0.25" height="1" x="5" y="11" fill="#FF4000" fill-opacity="0.25" />
	<path d="M 5 10 h 1 v 0.25 h -0.75 v 0.75 h -0.25 z" fill="#FF4000" fill-opacity="0.25" />
	<rect width="0.25" height="0.25" x="6" y="10" fill="#FF4000" fill-opacity="0.25" />
	<rect width="0.25" height="1" x="6" y="9" fill="#FF4000" fill-opacity="0.25" />
	<rect width="0.25" height="1" x="6" y="8" fill="#FF4000" fill-opacity="0.25" />
	<path d="M 6 7 h 1 v 0.25 h -0.75 v 0.75 h -0.25 z" fill="#FF4000" fill-opacity="0.25" />
	<rect width="0.25" height="0.25" x="7" y="7" fill="#FF4000" fill-opacity="0.25" />
	<rect width="0.25" height="1" x="7" y="6" fill="#FF4000" fill-opacity="0.25" />
	<rect width="0.25" height="1" x="7" y="5" fill="#FF4000" fill-opacity="0.25" />
	<path d="M 7 4 h 1 v 0.25 h -0.75 v 0.75 h -0.25 z" fill="#FF4000" fill-opacity="0.25" />
	<rect width="1" height="0.25" x="8" y="4" fill="#FF4000" fill-opacity="0.25" />
	<rect width="0.25" height="0.25" x="9" y="4" fill="#FF4000" fill-opacity="0.25" />
	<rect width="0.25" height="1" x="9" y="3" fill="#FF4000" fill-opacity="0.25" />
	<path d="M 9 2 h 1 v 0.25 h -0.75 v 0.75 h -0.25 z" fill="#FF4000" fill-opacity="0.25" />
	<rect width="0.25" height="1" x="17.75" y="1" fill="#808000" fill-opacity="0.25" />
	<rect width="0.25" height="1" x="17.75" y="2" fill="#808000" fill-opacity="0.25" />
	<rect width="0.25" height="1" x="17.75" y="3" fill="#808000" fill-opacity="0.25" />
	<rect width="0.25" height="1" x="17.75" y="4" fill="#808000" fill-opacity="0.25" />
	<rect width="0.25" height="1" x="17.75" y="5" fill="#808000" fill-opacity="0.25" />
	<rect width="0.25" height="1" x="17.75" y="6" fill="#808000" fill-opacity="0.25" />
	<rect width="0.25" height="0.25" x="17.75" y="7" fill="#808000" fill-opacity="0.25" />
	<path d="M 19 7 v 1 h -0.25 v -0.75 h -0.75 v -0.25 z" fill="#808000" fill-opacity="0.25" />
	<rect width="0.25" height="1" x="18.75" y="8" fill="#808000" fill-opacity="0.25" />
	<rect width="0.25" height="1" x="18.75" y="9" fill="#808000" fill-opacity="0.25" />
	<rect width="0.25" height="0.25" x="18.75" y="10" fill="#808000" fill-opacity="0.25" />
	<path d="M 20 10 v 1 h -0.25 v -0.75 h -0.75 v -0.25 z" fill="#808000" fill-opacity="0.25" />
	<rect width="0.25" height="1" x="19.75" y="11" fill="#808000" fill-opacity="0.25" />
	<path d="M 20 13 h -1 v -0.25 h 0.75 v -0.75 h 0.25 z" fill="#808000" fill-opacity="0.25" />
	<rect width="1" height="0.25" x="18" y="12.75" fill="#808000" fill-opacity="0.25" />
	<rect width="1" height="0.25" x="17" y="12.75" fill="#808000" fill-opacity="0.25" />
	<path d="M 16 13 v -1 h 0.25 v 0.75 h 0.75 v 0.25 z" fill="#808000" fill-opacity="0.25" />
	<rect width="0.25" height="1" x="16" y="11" fill="#808000" fill-opacity="0.25" />
	<rect width="0.25" height="0.25" x="16" y="10.75" fill="#808000" fill-opacity="0.25" />
	<rect width="1" height="0.25" x="15" y="10.75" fill="#808000" fill-opacity="0.25" />
	<rect width="1" height="0.25" x="14" y="10.75" fill="#808000" fill-opacity="0.25" />
	<rect width="1" height="0.25" x="13" y="10.75" fill="#808000" fill-opacity="0.25" />
	<rect width="1" height="0.25" x="12" y="10.75" fill="#808000" fill-opacity="0.25" />
	<rect width="1" height="0.25" x="11" y="10.75" fill="#808000" fill-opacity="0.25" />
	<rect width="1" height="0.25" x="10" y="10.75" fill="#808000" fill-opacity="0.25" />
	<rect width="1" height="0.25" x="9" y="10.75" fill="#808000" fill-opacity="0.25" />
	<rect width="0.25" height="0.25" x="8.75" y="10.75" fill="#808000" fill-opacity="0.25" />
	<rect width="0.25" height="1" x="8.75" y="11" fill="#808000" fill-opacity="0.25" />
	<path d="M 9 13 h -1 v -0.25 h 0.75 v -0.75 h 0.25 z" fill="#808000" fill-opacity="0.25" />
	<rect width="1" height="0.25" x="7" y="12.75" fill="#808000" fill-opacity="0.25" />
	<rect width="1" height="0.25" x="6" y="12.75" fill="#808000" fill-opacity="0.25" />
	<path d="M 5 13 v -1 h 0.25 v 0.75 h 0.75 v 0.25 z" fill="#808000" fill-opacity="0.25" />
	<rect width="0.25" height="1" x="5" y="11" fill="#808000" fill-opacity="0.25" />
	<path d="M 5 10 h 1 v 0.25 h -0.75 v 0.75 h -0.25 z" fill="#808000" fill-opacity="0.25" />
	<rect width="0.25" height="0.25" x="6" y="10" fill="#808000" fill-opacity="0.25" />
	<rect width="0.25" height="1" x="6" y="9" fill="#808000" fill-opacity="0.25" />
	<rect width="0.25" height="1" x="6" y="8" fill="#808000" fill-opacity="0.25" />
	<path d="M 6 7 h 1 v 0.25 h -0.75 v 0.75 h -0.25 z" fill="#808000" fill-opacity="0.25" />
	<rect width="0.25" height="0.25" x="7" y="7" fill="#808000" fill-opacity="0.25" />
	<rect width="0.25" height="1" x="7" y="6" fill="#808000" fill-opacity="0.25" />
	<rect width="0.25" height="1" x="7" y="5" fill="#808000" fill-opacity="0.25" />
	<path d="M 7 4 h 1 v 0.25 h -0.75 v 0.75 h -0.25 z" fill="#808000" fill-opacity="0.25" />
	<rect width="1" height="0.25" x="8" y="4" fill="#808000" fill-opacity="0.25" />
	<rect width="0.25" height="0.25" x="9" y="4" fill="#808000" fill-opacity="0.25" />
	<rect width="0.25" height="1" x="9" y="3" fill="#808000" fill-opacity="0.25" />
	<rect width="0.25" height="1" x="9" y="2" fill="#808000" fill-opacity="0.25" />
	<rect width="0.25" height="1" x="9" y="1" fill="#808000" fill-opacity="0.25" />
	<path d="M 9 0 h 1 v 0.25 h -0.75 v 0.75 h -0.25 z" fill="#808000" fill-opacity="0.25" />
	<rect width="1" height="0.25" x="10" y="0" fill="#808000" fill-opacity="0.25" />
	<rect width="1" height="0.25" x="11" y="0" fill="#808000" fill-opacity="0.25" />
	<rect width="1" height="0.25" x="12" y="0" fill="#808000" fill-opacity="0.25" />
	<rect width="1" height="0.25" x="13" y="0" fill="#808000" fill-opacity="0.25" />
	<rect width="1" height="0.25" x="14" y="0" fill="#808000" fill-opacity="0.25" />
	<rect width="1" height="0.25" x="15" y="0" fill="#808000" fill-opacity="0.25" />
	<rect width="1" height="0.25" x="16" y="0" fill="#808000" fill-opacity="0.25" />
	<path d="M 18 0 v 1 h -0.25 v -0.75 h -0.75 v -0.25 z" fill="#808000" fill-opacity="0.25" />
	<rect width="0.25" height="1" x="17.75" y="1" fill="#FF4000" fill-opacity="0.25" />
	<rect width="0.25" height="1" x="17.75" y="2" fill="#FF4000" fill-opacity="0.25" />
	<rect width="0.25" height="1" x="17.75" y="3" fill="#FF4000" fill-opacity="0.25" />
	<rect width="0.25" height="1" x="17.75" y="4" fill="#FF4000" fill-opacity="0.25" />
	<rect width="0.25" height="1" x="17.75" y="5" fill="#FF4000" fill-opacity="0.25" />
	<rect width="0.25" height="1" x="17.75" y="6" fill="#FF4000" fill-opacity="0.25" />
	<rect width="0.25" height="0.25" x="17.75" y="7" fill="#FF4000" fill-opacity="0.25" />
	<path d="M 19 7 v 1 h -0.25 v -0.75 h -0.75 v -0.25 z" fill="#FF4000" fill-opacity="0.25" />
	<rect width="0.25" height="1" x="18.75" y="8" fill="#FF4000" fill-opacity="0.25" />
	<rect width="0.25" height="1" x="18.75" y="9" fill="#FF4000" fill-opacity="0.25" />
	<rect width="0.25" height="0.25" x="18.75" y="10" fill="#FF4000" fill-opacity="0.25" />
	<path d="M 20 10 v 1 h -0.25 v -0.75 h -0.75 v -0.25 z" fill="#FF4000" fill-opacity="0.25" />
	<rect width="0.25" height="1" x="19.75" y="11" fill="#FF4000" fill-opacity="0.25" />
	<path d="M 20 13 h -1 v -0.25 h 0.75 v -0.75 h 0.25 z" fill="#FF4000" fill-opacity="0.25" />
	<rect width="1" height="0.25" x="18" y="12.75" fill="#FF4000" fill-opacity="0.25" />
	<rect width="1" height="0.25" x="17" y="12.75" fill="#FF4000" fill-opacity="0.25" />
	<path d="M 16 13 v -1 h 0.25 v 0.75 h 0.75 v 0.25 z" fill="#FF4000" fill-opacity="0.25" />
	<rect width="0.25" height="1" x="16" y="11" fill="#FF4000" fill-opacity="0.25" />
	<rect width="0.25" height="0.25" x="16" y="10.75" fill="#FF4000" fill-opacity="0.25" />
	<rect width="1" height="0.25" x="15" y="10.75" fill="#FF4000" fill-opacity="0.25" />
	<rect width="1" height="0.25" x="14" y="10.75" fill="#FF4000" fill-opacity="0.25" />
	<rect width="1" height="0.25" x="13" y="10.75" fill="#FF4000" fill-opacity="0.25" />
	<rect width="1" height="0.25" x="12" y="10.75" fill="#FF4000" fill-opacity="0.25" />
	<rect width="1" height="0.25" x="11" y="10.75" fill="#FF4000" fill-opacity="0.25" />
	<rect width="1" height="0.25" x="10" y="10.75" fill="#FF4000" fill-opacity="0.25" />
	<rect width="1" height="0.25" x="9" y="10.75" fill="#FF4000" fill-opacity="0.25" />
	<rect width="0.25" height="0.25" x="8.75" y="10.75" fill="#FF4000" fill-opacity="0.25" />
	<rect width="0.25" height="1" x="8.75" y="11" fill="#FF4000" fill-opacity="0.25" />
	<path d="M 9 13 h -1 v -0.25 h 0.75 v -0.75 h 0.25 z" fill="#FF4000" fill-opacity="0.25" />
	<rect width="1" height="0.25" x="7" y="12.75" fill="#FF4000" fill-opacity="0.25" />
	<rect width="1" height="0.25" x="6" y="12.75" fill="#FF4000" fill-opacity="0.25" />
	<path d="M 5 13 v -1 h 0.25 v 0.75 h 0.75 v 0.25 z" fill="#FF4000" fill-opacity="0.25" />
	<rect width="0.25" height="1" x="5" y="11" fill="#FF4000" fill-opacity="0.25" />
	<path d="M 5 10 h 1 v 0.25 h -0.75 v 0.75 h -0.25 z" fill="#FF4000" fill-opacity="0.25" />
	<rect width="0.25" height="0.25" x="6" y="10" fill="#FF4000" fill-opacity="0.25" />
	<rect width="0.25" height="1" x="6" y="9" fill="#FF4000" fill-opacity="0.25" />
	<rect width="0.25" height="1" x="6" y="8" fill="#FF4000" fill-opacity="0.25" />
	<path d="M 6 7 h 1 v 0.25 h -0.75 v 0.75 h -0.25 z" fill="#FF4000" fill-opacity="0.25" />
	<rect width="0.25" height="0.25" x="7" y="7" fill="#FF4000" fill-opacity="0.25" />
	<rect width="0.25" height="1" x="7" y="6" fill="#FF4000" fill-opacity="0.25" />
	<rect width="0.25" height="1" x="7" y="5" fill="#FF4000" fill-opacity="0.25" />
	<path d="M 7 4 h 1 v 0.25 h -0.75 v 0.75 h -0.25 z" fill="#FF4000" fill-opacity="0.25" />
	<rect width="1" height="0.25" x="8" y="4" fill="#FF4000" fill-opacity="0.25" />
	<rect width="0.25" height="0.25" x="9" y="4" fill="#FF4000" fill-opacity="0.25" />
	<rect width="0.25" height="1" x="9" y="3" fill="#FF4000" fill-opacity="0.25" />
	<rect width="0.25" height="1" x="9" y="2" fill="#FF4000" fill-opacity="0.25" />
	<rect width="0.25" height="1" x="9" y="1" fill="#FF4000" fill-opacity="0.25" />
	<path d="M 9 0 h 1 v 0.25 h -0.75 v 0.75 h -0.25 z" fill="#FF4000" fill-opacity="0.25" />
	<rect width="1" height="0.25" x="10" y="0" fill="#FF4000" fill-opacity="0.25" />
	<rect width="1" height="0.25" x="11" y="0" fill="#FF4000" fill-opacity="0.25" />
	<rect width="1" height="0.25" x="12" y="0" fill="#FF4000" fill-opacity="0.25" />
	<rect width="1" height="0.25" x="13" y="0" fill="#FF4000" fill-opacity="0.25" />
	<rect width="1" height="0.25" x="14" y="0" fill="#FF4000" fill-opacity="0.25" />
	<rect width="1" height="0.25" x="15" y="0" fill="#FF4000" fill-opacity="0.25" />
	<rect width="1" height="0.25" x="16" y="0" fill="#FF4000" fill-opacity="0.25" />
	<path d="M 18 0 v 1 h -0.25 v -0.75 h -0.75 v -0.25 z" fill="#FF4000" fill-opacity="0.25" />
	<rect width="0.25" height="1" x="17.75" y="1" fill="#FF4000" fill-opacity="0.25" />
	<rect width="0.25" height="1" x="17.75" y="2" fill="#FF4000" fill-opacity="0.25" />
	<rect width="0.25" height="1" x="17.75" y="3" fill="#FF4000" fill-opacity="0.25" />
	<rect width="0.25" height="1" x="17.75" y="4" fill="#FF4000" fill-opacity="0.25" />
	<rect width="0.25" height="1" x="17.75" y="5" fill="#FF4000" fill-opacity="0.25" />
	<rect width="0.25" height="1" x="17.75" y="6" fill="#FF4000" fill-opacity="0.25" />
	<rect width="0.25" height="0.25" x="17.75" y="7" fill="#FF4000" fill-opacity="0.25" />
	<path d="M 19 7 v 1 h -0.25 v -0.75 h -0.75 v -0.25 z" fill="#FF4000" fill-opacity="0.25" />
	<rect width="0.25" height="1" x="18.75" y="8" fill="#FF4000" fill-opacity="0.25" />
	<rect width="0.25" height="1" x="18.75" y="9" fill="#FF4000" fill-opacity="0.25" />
	<rect width="0.25" height="0.25" x="18.75" y="10" fill="#FF4000" fill-opacity="0.25" />
	<path d="M 20 10 v 1 h -0.25 v -0.75 h -0.75 v -0.25 z" fill="#FF4000" fill-opacity="0.25" />
	<rect width="0.25" height="1" x="19.75" y="11" fill="#FF4000" fill-opacity="0.25" />
	<path d="M 20 13 h -1 v -0.25 h 0.75 v -0.75 h 0.25 z" fill="#FF4000" fill-opacity="0.25" />
	<rect width="1" height="0.25" x="18" y="12.75" fill="#FF4000" fill-opacity="0.25" />
	<rect width="1" height="0.25" x="17" y="12.75" fill="#FF4000" fill-opacity="0.25" />
	<path d="M 16 13 v -1 h 0.25 v 0.75 h 0.75 v 0.25 z" fill="#FF4000" fill-opacity="0.25" />
	<rect width="0.25" height="1" x="16" y="11" fill="#FF4000" fill-opacity="0.25" />
	<rect width="0.25" height="0.25" x="16" y="10.75" fill="#FF4000" fill-opacity="0.25" />
	<rect width="1" height="0.25" x="15" y="10.75" fill="#FF4000" fill-opacity="0.25" />
	<rect width="1" height="0.25" x="14" y="10.75" fill="#FF4000" fill-opacity="0.25" />
	<rect width="1" height="0.25" x="13" y="10.75" fill="#FF4000" fill-opacity="0.25" />
	<rect width="1" height="0.25" x="12" y="10.75" fill="#FF4000" fill-opacity="0.25" />
	<rect width="1" height="0.25" x="11" y="10.75" fill="#FF4000" fill-opacity="0.25" />
	<rect width="1" height="0.25" x="10" y="10.75" fill="#FF4000" fill-opacity="0.25" />
	<rect width="1" height="0.25" x="9" y="10.75" fill="#FF4000" fill-opacity="0.25" />
	<rect width="0.25" height="0.25" x="8.75" y="10.75" fill="#FF4000" fill-opacity="0.25" />
	<rect width="0.25" height="1" x="8.75" y="11" fill="#FF4000" fill-opacity="0.25" />
	<path d="M 9 13 h -1 v -0.25 h 0.75 v -0.75 h 0.25 z" fill="#FF4000" fill-opacity="0.25" />
	<rect width="1" height="0.25" x="7" y="12.75" fill="#FF4000" fill-opacity="0.25" />
	<rect width="1" height="0.25" x="6" y="12.75" fill="#FF4000" fill-opacity="0.25" />
	<path d="M 5 13 v -1 h 0.25 v 0.75 h 0.75 v 0.25 z" fill="#FF4000" fill-opacity="0.25" />
	<rect width="0.25" height="1" x="5" y="11" fill="#FF4000" fill-opacity="0.25" />
	<path d="M 5 10 h 1 v 0.25 h -0.75 v 0.75 h -0.25 z" fill="#FF4000" fill-opacity="0.25" />
	<rect width="0.25" height="0.25" x="6" y="10" fill="#FF4000" fill-opacity="0.25" />
	<rect width="0.25" height="1" x="6" y="9" fill="#FF4000" fill-opacity="0.25" />
	<rect width="0.25" height="1" x="6" y="8" fill="#FF4000" fill-opacity="0.25" />
	<path d="M 6 7 h 1 v 0.25 h -0.75 v 0.75 h -0.25 z" fill="#FF4000" fill-opacity="0.25" />
	<rect width="0.25" height="0.25" x="7" y="7" fill="#FF4000" fill-opacity="0.25" />
	<rect width="0.25" height="1" x="7" y="6" fill="#FF4000" fill-opacity="0.25" />
	<rect width="0.25" height="1" x="7" y="5" fill="#FF4000" fill-opacity="0.25" />
	<path d="M 7 4 h 1 v 0.25 h -0.75 v 0.75 h -0.25 z" fill="#FF4000" fill-opacity="0.25" />
	<rect width="1" height="0.25" x="8" y="4" fill="#FF4000" fill-opacity="0.25" />
	<rect width="0.25" height="0.25" x="9" y="4" fill="#FF4000" fill-opacity="0.25" />
	<rect width="0.25" height="1" x="9" y="3" fill="#FF4000" fill-opacity="0.25" />
	<rect width="0.25" height="1" x="9" y="2" fill="#FF4000" fill-opacity="0.25" />
	<rect width="0.25" height="1" x="9" y="1" fill="#FF4000" fill-opacity="0.25" />
	<path d="M 9 0 h 1 v 0.25 h -0.75 v 0.75 h -0.25 z" fill="#FF4000" fill-opacity="0.25" />
	<rect width="1" height="0.25" x="10" y="0" fill="#FF4000" fill-opacity="0.25" />
	<rect width="1" height="0.25" x="11" y="0" fill="#FF4000" fill-opacity="0.25" />
	<rect width="1" height="0.25" x="12" y="0" fill="#FF4000" fill-opacity="0.25" />
	<rect width="1" height="0.25" x="13" y="0" fill="#FF4000" fill-opacity="0.25" />
	<rect width="1" height="0.25" x="14" y="0" fill="#FF4000" fill-opacity="0.25" />
	<rect width="1" height="0.25" x="15" y="0" fill="#FF4000" fill-opacity="0.25" />
	<rect width="1" height="0.25" x="16" y="0" fill="#FF4000" fill-opacity="0.25" />
	<path d="M 18 0 v 1 h -0.25 v -0.75 h -0.75 v -0.25 z" fill="#FF4000" fill-opacity="0.25" />
	<path fill="transparent" stroke="gray" stroke-width="0.02" d="M 0.01 0 v 25" />
	<path fill="transparent" stroke="gray" stroke-width="0.02" d="M 0 0.01 h 25" />
	<path fill="transparent" stroke="gray" stroke-width="0.02" d="M 1 0 v 25" />
	<path fill="transparent" stroke="gray" stroke-width="0.02" d="M 0 1 h 25" />
	<path fill="transparent" stroke="gray" stroke-width="0.02" d="M 2 0 v 25" />
	<path fill="transparent" stroke="gray" stroke-width="0.02" d="M 0 2 h 25" />
	<path fill="transparent" stroke="gray" stroke-width="0.02" d="M 3 0 v 25" />
	<path fill="transparent" stroke="gray" stroke-width="0.02" d="M 0 3 h 25" />
	<path fill="transparent" stroke="gray" stroke-width="0.02" d="M 4 0 v 25" />
	<path fill="transparent" stroke="gray" stroke-width="0.02" d="M 0 4 h 25" />
	<path fill="transparent" stroke="gray" stroke-width="0.02" d="M 5 0 v 25" />
	<path fill="transparent" stroke="gray" stroke-width="0.02" d="M 0 5 h 25" />
	<path fill="transparent" stroke="gray" stroke-width="0.02" d="M 6 0 v 25" />
	<path fill="transparent" stroke="gray" stroke-width="0.02" d="M 0 6 h 25" />
	<path fill="transparent" stroke="gray" stroke-width="0.02" d="M 7 0 v 25" />
	<path fill="transparent" stroke="gray" stroke-width="0.02" d="M 0 7 h 25" />
	<path fill="transparent" stroke="gray" stroke-width="0.02" d="M 8 0 v 25" />
	<path fill="transparent" stroke="gray" stroke-width="0.02" d="M 0 8 h 25" />
	<path fill="transparent" stroke="gray" stroke-width="0.02" d="M 9 0 v 25" />
	<path fill="transparent" stroke="gray" stroke-width="0.02" d="M 0 9 h 25" />
	<path fill="transparent" stroke="gray" stroke-width="0.02" d="M 10 0 v 25" />
	<path fill="transparent" stroke="gray" stroke-width="0.02" d="M 0 10 h 25" />
	<path fill="transparent" stroke="gray" stroke-width="0.02" d="M 11 0 v 25" />
	<path fill="transparent" stroke="gray" stroke-width="0.02" d="M 0 11 h 25" />
	<path fill="transparent" stroke="gray" stroke-width="0.02" d="M 12 0 v 25" />
	<path fill="transparent" stroke="gray" stroke-width="0.02" d="M 0 12 h 25" />
	<path fill="transparent" stroke="gray" stroke-width="0.02" d="M 13 0 v 25" />
	<path fill="transparent" stroke="gray" stroke-width="0.02" d="M 0 13 h 25" />
	<path fill="transparent" stroke="gray" stroke-width="0.02" d="M 14 0 v 25" />
	<path fill="transparent" stroke="gray" stroke-width="0.02" d="M 0 14 h 25" />
	<path fill="transparent" stroke="gray" stroke-width="0.02" d="M 15 0 v 25" />
	<path fill="transparent" stroke="gray" stroke-width="0.02" d="M 0 15 h 25" />
	<path fill="transparent" stroke="gray" stroke-width="0.02" d="M 16 0 v 25" />
	<path fill="transparent" stroke="gray" stroke-width="0.02" d="M 0 16 h 25" />
	<path fill="transparent" stroke="gray" stroke-width="0.02" d="M 17 0 v 25" />
	<path fill="transparent" stroke="gray" stroke-width="0.02" d="M 0 17 h 25" />
	<path fill="transparent" stroke="gray" stroke-width="0.02" d="M 18 0 v 25" />
	<path fill="transparent" stroke="gray" stroke-width="0.02" d="M 0 18 h 25" />
	<path fill="transparent" stroke="gray" stroke-width="0.02" d="M 19 0 v 25" />
	<path fill="transparent" stroke="gray" stroke-width="0.02" d="M 0 19 h 25" />
	<path fill="transparent" stroke="gray" stroke-width="0.02" d="M 20 0 v 25" />
	<path fill="transparent" stroke="gray" stroke-width="0.02" d="M 0 20 h 25" />
	<path fill="transparent" stroke="gray" stroke-width="0.02" d="M 21 0 v 25" />
	<path fill="transparent" stroke="gray" stroke-width="0.02" d="M 0 21 h 25" />
	<path fill="transparent" stroke="gray" stroke-width="0.02" d="M 22 0 v 25" />
	<path fill="transparent" stroke="gray" stroke-width="0.02" d="M 0 22 h 25" />
	<path fill="transparent" stroke="gray" stroke-width="0.02" d="M 23 0 v 25" />
	<path fill="transparent" stroke="gray" stroke-width="0.02" d="M 0 23 h 25" />
	<path fill="transparent" stroke="gray" stroke-width="0.02" d="M 24 0 v 25" />
	<path fill="transparent" stroke="gray" stroke-width="0.02" d="M 0 24 h 25" />
	<path fill="transparent" stroke="gray" stroke-width="0.02" d="M 24.99 0 v 25" />
	<path fill="transparent" stroke="gray" stroke-width="0.02" d="M 0 24.99 h 25" />
	<path d="M 0.5 0.5
L 1 0.5
L 2 0.5
L 3 0.5
L 4 0.5
L 5 0.5
L 6 0.5
L 7 0.5
L 8 0.5
A 0.5 0.5 0 0 1 8.5 1
L 8.5 2
L 8.5 3
A 0.5 0.5 0 0 1 8 3.5
L 7 3.5
A 0.5 0.5 0 0 0 6.5 4
L 6.5 5
L 6.5 6
A 0.5 0.5 0 0 1 6 6.5
A 0.5 0.5 0 0 0 5.5 7
L 5.5 8
L 5.5 9
A 0.5 0.5 0 0 1 5 9.5
A 0.5 0.5 0 0 0 4.5 10
L 4.5 11
L 4.5 12
L 4.5 13
A 0.5 0.5 0 0 0 5 13.5
L 6 13.5
L 7 13.5
L 8 13.5
L 9 13.5
A 0.5 0.5 0 0 0 9.5 13
L 9.5 12
A 0.5 0.5 0 0 1 10 11.5
L 11 11.5
L 12 11.5
L 13 11.5
L 14 11.5
L 15 11.5
A 0.5 0.5 0 0 1 15.5 12
L 15.5 13
A 0.5 0.5 0 0 0 16 13.5
L 17 13.5
L 18 13.5
L 19 13.5
L 20 13.5
A 0.5 0.5 0 0 0 20.5 13
L 20.5 12
L 20.5 11
L 20.5 10
A 0.5 0.5 0 0 0 20 9.5
A 0.5 0.5 0 0 1 19.5 9
L 19.5 8
L 19.5 7
A 0.5 0.5 0 0 0 19 6.5
A 0.5 0.5 0 0 1 18.5 6
A 0.5 0.5 0 0 1 19 5.5
A 0.5 0.5 0 0 0 19.5 5
A 0.5 0.5 0 0 0 19 4.5
A 0.5 0.5 0 0 1 18.5 4
L 18.5 3.5" fill="white" fill-opacity="0" stroke="black" stroke-width="0.05" stroke-linecap="round" />
</svg>