<svg xmlns="http://www.w3.org/2000/svg" viewBox="0 0 25 25">
	<path d="M0,0 h25 v25 h-25 z" fill="#dddddd" />
	<rect x="4.25" y="16.25" width="0.5" height="0.5" fill="black" fill-opacity="0.5"  />
	<rect x="6.25" y="16.25" width="0.5" height="0.5" fill="black" fill-opacity="0.5"  />
	<rect x="8.25" y="16.25" width="0.5" height="0.5" fill="black" fill-opacity="0.5"  />
	<rect x="10.25" y="16.25" width="0.5" height="0.5" fill="black" fill-opacity="0.5"  />
	<rect x="12.25" y="16.25" width="0.5" height="0.5" fill="black" fill-opacity="0.5"  />
	<rect x="14.25" y="16.25" width="0.5" height="0.5" fill="black" fill-opacity="0.5"  />
	<rect x="16.25" y="16.25" width="0.5" height="0.5" fill="black" fill-opacity="0.5"  />
	<rect x="18.25" y="16.25" width="0.5" height="0.5" fill="black" fill-opacity="0.5"  />
	<rect x="20.25" y="16.25" width="0.5" height="0.5" fill="black" fill-opacity="0.5"  />
	<rect x="22.25" y="16.25" width="0.5" height="0.5" fill="black" fill-opacity="0.5"  />
	<rect x="3.25" y="17.25" width="0.5" height="0.5" fill="black" fill-opacity="0.5"  />
	<rect x="5.25" y="17.25" width="0.5" height="0.5" fill="black" fill-opacity="0.5"  />
	<rect x="7.25" y="17.25" width="0.5" height="0.5" fill="black" fill-opacity="0.5"  />
	<rect x="9.25" y="17.25" width="0.5" height="0.5" fill="black" fill-opacity="0.5"  />
	<rect x="11.25" y="17.25" width="0.5" height="0.5" fill="black" fill-opacity="0.5"  />
	<rect x="13.25" y="17.25" width="0.5" height="0.5" fill="black" fill-opacity="0.5"  />
	<rect x="15.25" y="17.25" width="0.5" height="0.5" fill="black" fill-opacity="0.5"  />
	<rect x="17.25" y="17.25" width="0.5" height="0.5" fill="black" fill-opacity="0.5"  />
	<rect x="19.25" y="17.25" width="0.5" height="0.5" fill="black" fill-opacity="0.5"  />
	<rect x="21.25" y="17.25" width="0.5" height="0.5" fill="black" fill-opacity="0.5"  />
	<rect x="23.25" y="17.25" width="0.5" height="0.5" fill="black" fill-opacity="0.5"  />
	<rect x="2.25" y="18.25" width="0.5" height="0.5" fill="black" fill-opacity="0.5"  />
	<rect x="4.25" y="18.25" width="0.5" height="0.5" fill="black" fill-opacity="0.5"  />
	<rect x="6.25" y="18.25" width="0.5" height="0.5" fill="black" fill-opacity="0.5"  />
	<rect x="8.25" y="18.25" width="0.5" height="0.5" fill="black" fill-opacity="0.5"  />
	<rect x="10.25" y="18.25" width="0.5" height="0.5" fill="black" fill-opacity="0.5"  />
	<rect x="12.25" y="18.25" width="0.5" height="0.5" fill="black" fill-opacity="0.5"  />
	<rect x="14.25" y="18.25" width="0.5" height="0.5" fill="black" fill-opacity="0.5"  />
	<rect x="16.25" y="18.25" width="0.5" height="0.5" fill="black" fill-opacity="0.5"  />
	<rect x="18.25" y="18.25" width="0.5" height="0.5" fill="black" fill-opacity="0.5"  />
	<rect x="20.25" y="18.25" width="0.5" height="0.5" fill="black" fill-opacity="0.5"  />
	<rect x="22.25" y="18.25" width="0.5" height="0.5" fill="black" fill-opacity="0.5"  />
	<rect x="3.25" y="19.25" width="0.5" height="0.5" fill="black" fill-opacity="0.5"  />
	<rect x="5.25" y="19.25" width="0.5" height="0.5" fill="black" fill-opacity="0.5"  />
	<rect x="7.25" y="19.25" width="0.5" height="0.5" fill="black" fill-opacity="0.5"  />
	<rect x="9.25" y="19.25" width="0.5" height="0.5" fill="black" fill-opacity="0.5"  />
	<rect x="11.25" y="19.25" width="0.5" height="0.5" fill="black" fill-opacity="0.5"  />
	<rect x="13.25" y="19.25" width="0.5" height="0.5" fill="black" fill-opacity="0.5"  />
	<rect x="15.25" y="19.25" width="0.5" height="0.5" fill="black" fill-opacity="0.5"  />
	<rect x="17.25" y="19.25" width="0.5" height="0.5" fill="black" fill-opacity="0.5"  />
	<rect x="19.25" y="19.25" width="0.5" height="0.5" fill="black" fill-opacity="0.5"  />
	<rect x="21.25" y="19.25" width="0.5" height="0.5" fill="black" fill-opacity="0.5"  />
	<rect x="23.25" y="19.25" width="0.5" height="0.5" fill="black" fill-opacity="0.5"  />
	<rect x="2.25" y="20.25" width="0.5" height="0.5" fill="black" fill-opacity="0.5"  />
	<rect x="4.25" y="20.25" width="0.5" height="0.5" fill="black" fill-opacity="0.5"  />
	<rect x="6.25" y="20.25" width="0.5" height="0.5" fill="black" fill-opacity="0.5"  />
	<rect x="8.25" y="20.25" width="0.5" height="0.5" fill="black" fill-opacity="0.5"  />
	<rect x="10.25" y="20.25" width="0.5" height="0.5" fill="black" fill-opacity="0.5"  />
	<rect x="12.25" y="20.25" width="0.5" height="0.5" fill="black" fill-opacity="0.5"  />
	<rect x="14.25" y="20.25" width="0.5" height="0.5" fill="black" fill-opacity="0.5"  />
	<rect x="16.25" y="20.25" width="0.5" height="0.5" fill="black" fill-opacity="0.5"  />
	<rect x="18.25" y="20.25" width="0.5" height="0.5" fill="black" fill-opacity="0.5"  />
	<rect x="20.25" y="20.25" width="0.5" height="0.5" fill="black" fill-opacity="0.5"  />
	<rect x="22.25" y="20.25" width="0.5" height="0.5" fill="black" fill-opacity="0.5"  />
	<rect x="3.25" y="21.25" width="0.5" height="0.5" fill="black" fill-opacity="0.5"  />
	<rect x="5.25" y="21.25" width="0.5" height="0.5" fill="black" fill-opacity="0.5"  />
	<rect x="7.25" y="21.25" width="0.5" height="0.5" fill="black" fill-opacity="0.5"  />
	<rect x="9.25" y="21.25" width="0.5" height="0.5" fill="black" fill-opacity="0.5"  />
	<rect x="11.25" y="21.25" width="0.5" height="0.5" fill="black" fill-opacity="0.5"  />
	<rect x="13.25" y="21.25" width="0.5" height="0.5" fill="black" fill-opacity="0.5"  />
	<rect x="15.25" y="21.25" width="0.5" height="0.5" fill="black" fill-opacity="0.5"  />
	<rect x="17.25" y="21.25" width="0.5" height="0.5" fill="black" fill-opacity="0.5"  />
	<rect x="19.25" y="21.25" width="0.5" height="0.5" fill="black" fill-opacity="0.5"  />
	<rect x="21.25" y="21.25" width="0.5" height="0.5" fill="black" fill-opacity="0.5"  />
	<rect x="23.25" y="21.25" width="0.5" height="0.5" fill="black" fill-opacity="0.5"  />
	<rect x="2.25" y="22.25" width="0.5" height="0.5" fill="black" fill-opacity="0.5"  />
	<rect x="4.25" y="22.25" width="0.5" height="0.5" fill="black" fill-opacity="0.5"  />
	<rect x="6.25" y="22.25" width="0.5" height="0.5" fill="black" fill-opacity="0.5"  />
	<rect x="8.25" y="22.25" width="0.5" height="0.5" fill="black" fill-opacity="0.5"  />
	<rect x="10.25" y="22.25" width="0.5" height="0.5" fill="black" fill-opacity="0.5"  />
	<rect x="12.25" y="22.25" width="0.5" height="0.5" fill="black" fill-opacity="0.5"  />
	<rect x="14.25" y="22.25" width="0.5" height="0.5" fill="black" fill-opacity="0.5"  />
	<rect x="16.25" y="22.25" width="0.5" height="0.5" fill="black" fill-opacity="0.5"  />
	<rect x="18.25" y="22.25" width="0.5" height="0.5" fill="black" fill-opacity="0.5"  />
	<rect x="20.25" y="22.25" width="0.5" height="0.5" fill="black" fill-opacity="0.5"  />
	<rect x="22.25" y="22.25" width="0.5" height="0.5" fill="black" fill-opacity="0.5"  />
	<rect width="1" height="1" x="0" y="0" fill="#e2bcbc" fill-opacity="1" />
	<rect width="1" height="1" x="1" y="0" fill="#e2bcbc" fill-opacity="1" />
	<rect width="1" height="1" x="2" y="0" fill="#e2bcbc" fill-opacity="1" />
	<rect width="1" height="1" x="3" y="0" fill="#e2bcbc" fill-opacity="1" />
	<rect width="1" height="1" x="4" y="0" fill="#e2bcbc" fill-opacity="1" />
	<rect width="1" height="1" x="5" y="0" fill="#e2bcbc" fill-opacity="1" />
	<rect width="1" height="1" x="6" y="0" fill="#e2bcbc" fill-opacity="1" />
	<rect width="1" height="1" x="7" y="0" fill="#e2bcbc" fill-opacity="1" />
	<rect width="1" height="1" x="8" y="0" fill="#e2bcbc" fill-opacity="1" />
	<rect width="1" height="1" x="8" y="1" fill="#e2bcbc" fill-opacity="1" />
	<rect width="1" height="1" x="8" y="2" fill="#e2bcbc" fill-opacity="1" />
	<rect width="1" height="1" x="8" y="3" fill="#e2bcbc" fill-opacity="1" />
	<rect width="1" height="1" x="7" y="3" fill="#e2bcbc" fill-opacity="1" />
	<rect width="1" height="1" x="6" y="3" fill="#e2bcbc" fill-opacity="1" />
	<rect width="1" height="1" x="6" y="4" fill="#e2bcbc" fill-opacity="1" />
	<rect width="1" height="1" x="6" y="5" fill="#e2bcbc" fill-opacity="1" />
	<rect width="1" height="1" x="6" y="6" fill="#e2bcbc" fill-opacity="1" />
	<rect width="1" height="1" x="5" y="6" fill="#e2bcbc" fill-opacity="1" />
	<rect width="1" height="1" x="5" y="7" fill="#e2bcbc" fill-opacity="1" />
	<rect width="1" height="1" x="5" y="8" fill="#e2bcbc" fill-opacity="1" />
	<rect width="1" height="1" x="5" y="9" fill="#e2bcbc" fill-opacity="1" />
	<rect width="1" height="1" x="4" y="9" fill="#e2bcbc" fill-opacity="1" />
	<rect width="1" height="1" x="4" y="10" fill="#e2bcbc" fill-opacity="1" />
	<rect width="1" height="1" x="4" y="11" fill="#e2bcbc" fill-opacity="1" />
	<rect width="1" height="1" x="4" y="12" fill="#e2bcbc" fill-opacity="1" />
	<rect width="1" height="1" x="4" y="13" fill="#e2bcbc" fill-opacity="1" />
	<rect width="1" height="1" x="5" y="13" fill="#e2bcbc" fill-opacity="1" />
	<rect width="1" height="1" x="6" y="13" fill="#e2bcbc" fill-opacity="1" />
	<rect width="1" height="1" x="7" y="13" fill="#e2bcbc" fill-opacity="1" />
	<rect width="1" height="1" x="8" y="13" fill="#e2bcbc" fill-opacity="1" />
	<rect width="1" height="1" x="9" y="13" fill="#e2bcbc" fill-opacity="1" />
	<rect width="1" height="1" x="9" y="12" fill="#e2bcbc" fill-opacity="1" />
	<rect width="1" height="1" x="9" y="11" fill="#e2bcbc" fill-opacity="1" />
	<rect width="1" height="1" x="10" y="11" fill="#e2bcbc" fill-opacity="1" />
	<rect width="1" height="1" x="11" y="11" fill="#e2bcbc" fill-opacity="1" />
	<rect width="1" height="1" x="12" y="11" fill="#e2bcbc" fill-opacity="1" />
	<rect width="1" height="1" x="13" y="11" fill="#e2bcbc" fill-opacity="1" />
	<rect width="1" height="1" x="14" y="11" fill="#e2bcbc" fill-opacity="1" />
	<rect width="1" height="1" x="15" y="11" fill="#e2bcbc" fill-opacity="1" />
	<rect width="1" height="1" x="15" y="12" fill="#e2bcbc" fill-opacity="1" />
	<rect width="1" height="1" x="15" y="13" fill="#e2bcbc" fill-opacity="1" />
	<rect width="1" height="1" x="16" y="13" fill="#e2bcbc" fill-opacity="1" />
	<rect width="1" height="1" x="17" y="13" fill="#e2bcbc" fill-opacity="1" />
	<rect width="1" height="1" x="18" y="13" fill="#e2bcbc" fill-opacity="1" />
	<rect width="1" height="1" x="19" y="13" fill="#e2bcbc" fill-opacity="1" />
	<rect width="1" height="1" x="20" y="13" fill="#e2bcbc" fill-opacity="1" />
	<rect width="1" height="1" x="20" y="12" fill="#e2bcbc" fill-opacity="1" />
	<rect width="1" height="1" x="20" y="11" fill="#e2bcbc" fill-opacity="1" />
	<rect width="1" height="1" x="20" y="10" fill="#e2bcbc" fill-opacity="1" />
	<rect width="1" height="1" x="20" y="9" fill="#e2bcbc" fill-opacity="1" />
	<rect width="1" height="1" x="19" y="9" fill="#e2bcbc" fill-opacity="1" />
	<rect width="1" height="1" x="19" y="8" fill="#e2bcbc" fill-opacity="1" />
	<rect width="1" height="1" x="19" y="7" fill="#e2bcbc" fill-opacity="1" />
	<rect width="1" height="1" x="18" y="7" fill="#e2bcbc" fill-opacity="1" />
	<rect width="1" height="1" x="18" y="8" fill="#e2bcbc" fill-opacity="1" />
	<rect width="1" height="1" x="18" y="9" fill="#e2bcbc" fill-opacity="1" />
	<rect width="1" height="1" x="18" y="10" fill="#e2bcbc" fill-opacity="1" />
	<rect width="1" height="1" x="19" y="10" fill="#e2bcbc" fill-opacity="1" />
	<rect width="1" height="1" x="19" y="11" fill="#e2bcbc" fill-opacity="1" />
	<rect width="1" height="1" x="19" y="12" fill="#e2bcbc" fill-opacity="1" />
	<rect width="1" height="1" x="18" y="12" fill="#e2bcbc" fill-opacity="1" />
	<rect width="1" height="1" x="18" y="11" fill="#e2bcbc" fill-opacity="1" />
	<rect width="1" height="1" x="17" y="11" fill="#e2bcbc" fill-opacity="1" />
	<rect width="1" height="1" x="17" y="12" fill="#e2bcbc" fill-opacity="1" />
	<rect width="1" height="1" x="16" y="12" fill="#e2bcbc" fill-opacity="1" />
	<rect width="1" height="1" x="16" y="11" fill="#e2bcbc" fill-opacity="1" />
	<rect width="1" height="1" x="16" y="10" fill="#e2bcbc" fill-opacity="1" />
	<rect width="1" height="1" x="17" y="10" fill="#e2bcbc" fill-opacity="1" />
	<rect width="1" height="1" x="17" y="9" fill="#e2bcbc" fill-opacity="1" />
	<rect width="1" height="1" x="16" y="9" fill="#e2bcbc" fill-opacity="1" />
	<rect width="1" height="1" x="15" y="9" fill="#e2bcbc" fill-opacity="1" />
	<rect width="1" height="1" x="15" y="10" fill="#e2bcbc" fill-opacity="1" />
	<rect width="1" height="1" x="14" y="10" fill="#e2bcbc" fill-opacity="1" />
	<rect width="1" height="1" x="13" y="10" fill="#e2bcbc" fill-opacity="1" />
	<rect width="1" height="1" x="12" y="10" fill="#e2bcbc" fill-opacity="1" />
	<rect width="1" height="1" x="11" y="10" fill="#e2bcbc" fill-opacity="1" />
	<rect width="1" height="1" x="10" y="10" fill="#e2bcbc" fill-opacity="1" />
	<rect width="1" height="1" x="9" y="10" fill="#e2bcbc" fill-opacity="1" />
	<rect width="1" height="1" x="8" y="10" fill="#e2bcbc" fill-opacity="1" />
	<rect width="1" height="1" x="8" y="11" fill="#e2bcbc" fill-opacity="1" />
	<rect width="1" height="1" x="8" y="12" fill="#e2bcbc" fill-opacity="1" />
	<rect width="1" height="1" x="7" y="12" fill="#e2bcbc" fill-opacity="1" />
	<rect width="1" height="1" x="6" y="12" fill="#e2bcbc" fill-opacity="1" />
	<rect width="1" height="1" x="5" y="12" fill="#e2bcbc" fill-opacity="1" />
	<rect width="1" height="1" x="5" y="11" fill="#e2bcbc" fill-opacity="1" />
	<rect width="1" height="1" x="5" y="10" fill="#e2bcbc" fill-opacity="1" />
	<rect width="1" height="1" x="6" y="10" fill="#e2bcbc" fill-opacity="1" />
	<rect width="1" height="1" x="6" y="11" fill="#e2bcbc" fill-opacity="1" />
	<rect width="1" height="1" x="7" y="11" fill="#e2bcbc" fill-opacity="1" />
	<rect width="1" height="1" x="7" y="10" fill="#e2bcbc" fill-opacity="1" />
	<rect width="1" height="1" x="7" y="9" fill="#e2bcbc" fill-opacity="1" />
	<rect width="1" height="1" x="6" y="9" fill="#e2bcbc" fill-opacity="1" />
	<rect width="1" height="1" x="6" y="8" fill="#e2bcbc" fill-opacity="1" />
	<rect width="1" height="1" x="6" y="7" fill="#e2bcbc" fill-opacity="1" />
	<rect width="1" height="1" x="7" y="7" fill="#e2bcbc" fill-opacity="1" />
	<rect width="1" height="1" x="7" y="8" fill="#e2bcbc" fill-opacity="1" />
	<rect width="1" height="1" x="8" y="8" fill="#e2bcbc" fill-opacity="1" />
	<rect width="1" height="1" x="8" y="9" fill="#e2bcbc" fill-opacity="1" />
	<rect width="1" height="1" x="9" y="9" fill="#e2bcbc" fill-opacity="1" />
	<rect width="1" height="1" x="9" y="8" fill="#e2bcbc" fill-opacity="1" />
	<rect width="1" height="1" x="9" y="7" fill="#e2bcbc" fill-opacity="1" />
	<rect width="1" height="1" x="8" y="7" fill="#e2bcbc" fill-opacity="1" />
	<rect width="1" height="1" x="8" y="6" fill="#e2bcbc" fill-opacity="1" />
	<rect width="1" height="1" x="7" y="6" fill="#e2bcbc" fill-opacity="1" />
	<rect width="1" height="1" x="7" y="5" fill="#e2bcbc" fill-opacity="1" />
	<rect width="1" height="1" x="7" y="4" fill="#e2bcbc" fill-opacity="1" />
	<rect width="1" height="1" x="8" y="4" fill="#e2bcbc" fill-opacity="1" />
	<rect width="1" height="1" x="8" y="5" fill="#e2bcbc" fill-opacity="1" />
	<rect width="1" height="1" x="9" y="5" fill="#e2bcbc" fill-opacity="1" />
	<rect width="1" height="1" x="9" y="6" fill="#e2bcbc" fill-opacity="1" />
	<rect width="1" height="1" x="10" y="6" fill="#e2bcbc" fill-opacity="1" />
	<rect width="1" height="1" x="10" y="5" fill="#e2bcbc" fill-opacity="1" />
	<rect width="1" height="1" x="10" y="4" fill="#e2bcbc" fill-opacity="1" />
	<rect width="1" height="1" x="9" y="4" fill="#e2bcbc" fill-opacity="1" />
	<rect width="1" height="1" x="9" y="3" fill="#e2bcbc" fill-opacity="1" />
	<rect width="1" height="1" x="9" y="2" fill="#e2bcbc" fill-opacity="1" />
	<rect width="1" height="1" x="9" y="1" fill="#e2bcbc" fill-opacity="1" />
	<rect width="1" height="1" x="9" y="0" fill="#e2bcbc" fill-opacity="1" />
	<rect width="1" height="1" x="10" y="0" fill="#e2bcbc" fill-opacity="1" />
	<rect width="1" height="1" x="11" y="0" fill="#e2bcbc" fill-opacity="1" />
	<rect width="1" height="1" x="12" y="0" fill="#e2bcbc" fill-opacity="1" />
	<rect width="1" height="1" x="13" y="0" fill="#e2bcbc" fill-opacity="1" />
	<rect width="1" height="1" x="14" y="0" fill="#e2bcbc" fill-opacity="1" />
	<rect width="1" height="1" x="15" y="0" fill="#e2bcbc" fill-opacity="1" />
	<rect width="1" height="1" x="16" y="0" fill="#e2bcbc" fill-opacity="1" />
	<rect width="1" height="1" x="16" y="1" fill="#e2bcbc" fill-opacity="1" />
	<rect width="1" height="1" x="17" y="1" fill="#e2bcbc" fill-opacity="1" />
	<rect width="1" height="1" x="17" y="0" fill="#e2bcbc" fill-opacity="1" />
	<rect width="1" height="1" x="18" y="0" fill="#e2bcbc" fill-opacity="1" />
	<rect width="1" height="1" x="18" y="1" fill="#e2bcbc" fill-opacity="1" />
	<rect width="1" height="1" x="19" y="1" fill="#e2bcbc" fill-opacity="1" />
	<rect width="1" height="1" x="19" y="0" fill="#e2bcbc" fill-opacity="1" />
	<rect width="1" height="1" x="20" y="0" fill="#e2bcbc" fill-opacity="1" />
	<rect width="1" height="1" x="21" y="0" fill="#e2bcbc" fill-opacity="1" />
	<rect width="1" height="1" x="22" y="0" fill="#e2bcbc" fill-opacity="1" />
	<rect width="1" height="1" x="23" y="0" fill="#e2bcbc" fill-opacity="1" />
	<rect width="1" height="1" x="24" y="0" fill="#e2bcbc" fill-opacity="1" />
	<rect width="1" height="1" x="24" y="1" fill="#e2bcbc" fill-opacity="1" />
	<rect width="1" height="1" x="24" y="2" fill="#e2bcbc" fill-opacity="1" />
	<rect width="1" height="1" x="24" y="3" fill="#e2bcbc" fill-opacity="1" />
	<rect width="1" height="1" x="24" y="4" fill="#e2bcbc" fill-opacity="1" />
	<rect width="1" height="1" x="24" y="5" fill="#e2bcbc" fill-opacity="1" />
	<rect width="1" height="1" x="24" y="6" fill="#e2bcbc" fill-opacity="1" />
	<rect width="1" height="1" x="24" y="7" fill="#e2bcbc" fill-opacity="1" />
	<rect width="1" height="1" x="24" y="8" fill="#e2bcbc" fill-opacity="1" />
	<rect width="1" height="1" x="24" y="9" fill="#e2bcbc" fill-opacity="1" />
	<rect width="1" height="1" x="24" y="10" fill="#e2bcbc" fill-opacity="1" />
	<rect width="1" height="1" x="24" y="11" fill="#e2bcbc" fill-opacity="1" />
	<rect width="1" height="1" x="24" y="12" fill="#e2bcbc" fill-opacity="1" />
	<rect width="1" height="1" x="24" y="13" fill="#e2bcbc" fill-opacity="1" />
	<rect width="1" height="1" x="24" y="14" fill="#e2bcbc" fill-opacity="1" />
	<rect width="1" height="1" x="24" y="15" fill="#e2bcbc" fill-opacity="1" />
	<rect width="1" height="1" x="24" y="16" fill="#e2bcbc" fill-opacity="1" />
	<rect width="1" height="1" x="24" y="17" fill="#e2bcbc" fill-opacity="1" />
	<rect width="1" height="1" x="24" y="18" fill="#e2bcbc" fill-opacity="1" />
	<rect width="1" height="1" x="24" y="19" fill="#e2bcbc" fill-opacity="1" />
	<rect width="1" height="1" x="24" y="20" fill="#e2bcbc" fill-opacity="1" />
	<rect width="1" height="1" x="24" y="21" fill="#e2bcbc" fill-opacity="1" />
	<rect width="1" height="1" x="24" y="22" fill="#e2bcbc" fill-opacity="1" />
	<rect width="1" height="1" x="24" y="23" fill="#e2bcbc" fill-opacity="1" />
	<rect width="1" height="1" x="23" y="23" fill="#e2bcbc" fill-opacity="1" />
	<rect width="1" height="1" x="22" y="23" fill="#e2bcbc" fill-opacity="1" />
	<rect width="1" height="1" x="21" y="23" fill="#e2bcbc" fill-opacity="1" />
	<rect width="1" height="1" x="20" y="23" fill="#e2bcbc" fill-opacity="1" />
	<rect width="1" height="1" x="19" y="23" fill="#e2bcbc" fill-opacity="1" />
	<rect width="1" height="1" x="18" y="23" fill="#e2bcbc" fill-opacity="1" />
	<rect width="1" height="1" x="17" y="23" fill="#e2bcbc" fill-opacity="1" />
	<rect width="1" height="1" x="16" y="23" fill="#e2bcbc" fill-opacity="1" />
	<rect width="1" height="1" x="15" y="23" fill="#e2bcbc" fill-opacity="1" />
	<rect width="1" height="1" x="14" y="23" fill="#e2bcbc" fill-opacity="1" />
	<rect width="1" height="1" x="13" y="23" fill="#e2bcbc" fill-opacity="1" />
	<rect width="1" height="1" x="12" y="23" fill="#e2bcbc" fill-opacity="1" />
	<rect width="1" height="1" x="11" y="23" fill="#e2bcbc" fill-opacity="1" />
	<rect width="1" height="1" x="10" y="23" fill="#e2bcbc" fill-opacity="1" />
	<rect width="1" height="1" x="9" y="23" fill="#e2bcbc" fill-opacity="1" />
	<rect width="1" height="1" x="8" y="23" fill="#e2bcbc" fill-opacity="1" />
	<rect width="1" height="1" x="7" y="23" fill="#e2bcbc" fill-opacity="1" />
	<rect width="1" height="1" x="6" y="23" fill="#e2bcbc" fill-opacity="1" />
	<rect width="1" height="1" x="5" y="23" fill="#e2bcbc" fill-opacity="1" />
	<rect width="1" height="1" x="4" y="23" fill="#e2bcbc" fill-opacity="1" />
	<rect width="1" height="1" x="3" y="23" fill="#e2bcbc" fill-opacity="1" />
	<rect width="1" height="1" x="2" y="23" fill="#e2bcbc" fill-opacity="1" />
	<rect width="1" height="1" x="1" y="23" fill="#e2bcbc" fill-opacity="1" />
	<rect width="1" height="1" x="1" y="22" fill="#e2bcbc" fill-opacity="1" />
	<rect width="1" height="1" x="1" y="21" fill="#e2bcbc" fill-opacity="1" />
	<rect width="1" height="1" x="1" y="20" fill="#e2bcbc" fill-opacity="1" />
	<rect width="1" height="1" x="1" y="19" fill="#e2bcbc" fill-opacity="1" />
	<rect width="1" height="1" x="1" y="18" fill="#e2bcbc" fill-opacity="1" />
	<rect width="1" height="1" x="1" y="17" fill="#e2bcbc" fill-opacity="1" />
	<rect width="1" height="1" x="2" y="17" fill="#e2bcbc" fill-opacity="1" />
	<rect width="1" height="1" x="2" y="16" fill="#e2bcbc" fill-opacity="1" />
	<rect width="1" height="1" x="3" y="16" fill="#e2bcbc" fill-opacity="1" />
	<rect width="1" height="1" x="3" y="15" fill="#e2bcbc" fill-opacity="1" />
	<rect width="1" height="1" x="4" y="15" fill="#e2bcbc" fill-opacity="1" />
	<rect width="1" height="1" x="5" y="15" fill="#e2bcbc" fill-opacity="1" />
	<rect width="1" height="1" x="6" y="15" fill="#e2bcbc" fill-opacity="1" />
	<rect width="1" height="1" x="7" y="15" fill="#e2bcbc" fill-opacity="1" />
	<rect width="1" height="1" x="8" y="15" fill="#e2bcbc" fill-opacity="1" />
	<rect width="1" height="1" x="9" y="15" fill="#e2bcbc" fill-opacity="1" />
	<rect width="1" height="1" x="10" y="15" fill="#e2bcbc" fill-opacity="1" />
	<rect width="1" height="1" x="11" y="15" fill="#e2bcbc" fill-opacity="1" />
	<rect width="1" height="1" x="11" y="14" fill="#e2bcbc" fill-opacity="1" />
	<rect width="1" height="1" x="11" y="13" fill="#e2bcbc" fill-opacity="1" />
	<rect width="1" height="1" x="12" y="13" fill="#e2bcbc" fill-opacity="1" />
	<rect width="1" height="1" x="13" y="13" fill="#e2bcbc" fill-opacity="1" />
	<rect width="1" height="1" x="13" y="14" fill="#e2bcbc" fill-opacity="1" />
	<rect width="1" height="1" x="12" y="14" fill="#e2bcbc" fill-opacity="1" />
	<rect width="1" height="1" x="12" y="15" fill="#e2bcbc" fill-opacity="1" />
	<rect width="1" height="1" x="13" y="15" fill="#e2bcbc" fill-opacity="1" />
	<rect width="1" height="1" x="14" y="15" fill="#e2bcbc" fill-opacity="1" />
	<rect width="1" height="1" x="15" y="15" fill="#e2bcbc" fill-opacity="1" />
	<rect width="1" height="1" x="16" y="15" fill="#e2bcbc" fill-opacity="1" />
	<rect width="1" height="1" x="17" y="15" fill="#e2bcbc" fill-opacity="1" />
	<rect width="1" height="1" x="18" y="15" fill="#e2bcbc" fill-opacity="1" />
	<rect width="1" height="1" x="19" y="15" fill="#e2bcbc" fill-opacity="1" />
	<rect width="1" height="0.25" x="22" y="16" fill="#FF4000" fill-opacity="0.25" />
	<rect width="1" height="0.25" x="21" y="16" fill="#FF4000" fill-opacity="0.25" />
	<rect width="1" height="0.25" x="20" y="16" fill="#FF4000" fill-opacity="0.25" />
	<rect width="1" height="0.25" x="19" y="16" fill="#FF4000" fill-opacity="0.25" />
	<rect width="1" height="0.25" x="18" y="16" fill="#FF4000" fill-opacity="0.25" />
	<rect width="1" height="0.25" x="17" y="16" fill="#FF4000" fill-opacity="0.25" />
	<rect width="1" height="0.25" x="16" y="16" fill="#FF4000" fill-opacity="0.25" />
	<rect width="1" height="0.25" x="15" y="16" fill="#FF4000" fill-opacity="0.25" />
	<rect width="1" height="0.25" x="14" y="16" fill="#FF4000" fill-opacity="0.25" />
	<rect width="1" height="0.25" x="13" y="16" fill="#FF4000" fill-opacity="0.25" />
	<rect width="1" height="0.25" x="12" y="16" fill="#FF4000" fill-opacity="0.25" />
	<rect width="1" height="0.25" x="11" y="16" fill="#FF4000" fill-opacity="0.25" />
	<rect width="1" height="0.25" x="10" y="16" fill="#FF4000" fill-opacity="0.25" />
	<rect width="1" height="0.25" x="9" y="16" fill="#FF4000" fill-opacity="0.25" />
	<rect width="1" height="0.25" x="8" y="16" fill="#FF4000" fill-opacity="0.25" />
	<rect width="1" height="0.25" x="7" y="16" fill="#FF4000" fill-opacity="0.25" />
	<rect width="1" height="0.25" x="6" y="16" fill="#FF4000" fill-opacity="0.25" />
	<rect width="1" height="0.25" x="5" y="16" fill="#FF4000" fill-opacity="0.25" />
	<path d="M 4 16 h 1 v 0.25 h -0.75 v 0.75 h -0.25 z" fill="#FF4000" fill-opacity="0.25" />
	<rect width="0.25" height="0.25" x="4" y="17" fill="#FF4000" fill-opacity="0.25" />
	<path d="M 3 17 h 1 v 0.25 h -0.75 v 0.75 h -0.25 z" fill="#FF4000" fill-opacity="0.25" />
	<rect width="0.25" height="0.25" x="3" y="18" fill="#FF4000" fill-opacity="0.25" />
	<path d="M 2 18 h 1 v 0.25 h -0.75 v 0.75 h -0.25 z" fill="#FF4000" fill-opacity="0.25" />
	<rect width="0.25" height="1" x="2" y="19" fill="#FF4000" fill-opacity="0.25" />
	<rect width="0.25" height="1" x="2" y="20" fill="#FF4000" fill-opacity="0.25" />
	<rect width="0.25" height="1" x="2" y="21" fill="#FF4000" fill-opacity="0.25" />
	<path d="M 2 23 v -1 h 0.25 v 0.75 h 0.75 v 0.25 z" fill="#FF4000" fill-opacity="0.25" />
	<rect width="1" height="0.25" x="3" y="22.75" fill="#FF4000" fill-opacity="0.25" />
	<rect width="1" height="0.25" x="4" y="22.75" fill="#FF4000" fill-opacity="0.25" />
	<rect width="1" height="0.25" x="5" y="22.75" fill="#FF4000" fill-opacity="0.25" />
	<rect width="1" height="0.25" x="6" y="22.75" fill="#FF4000" fill-opacity="0.25" />
	<rect width="1" height="0.25" x="7" y="22.75" fill="#FF4000" fill-opacity="0.25" />
	<rect width="1" height="0.25" x="8" y="22.75" fill="#FF4000" fill-opacity="0.25" />
	<rect width="1" height="0.25" x="9" y="22.75" fill="#FF4000" fill-opacity="0.25" />
	<rect width="1" height="0.25" x="10" y="22.75" fill="#FF4000" fill-opacity="0.25" />
	<rect width="1" height="0.25" x="11" y="22.75" fill="#FF4000" fill-opacity="0.25" />
	<rect width="1" height="0.25" x="12" y="22.75" fill="#FF4000" fill-opacity="0.25" />
	<rect width="1" height="0.25" x="13" y="22.75" fill="#FF4000" fill-opacity="0.25" />
	<rect width="1" height="0.25" x="14" y="22.75" fill="#FF4000" fill-opacity="0.25" />
	<rect width="1" height="0.25" x="15" y="22.75" fill="#FF4000" fill-opacity="0.25" />
	<rect width="1" height="0.25" x="16" y="22.75" fill="#FF4000" fill-opacity="0.25" />
	<rect width="1" height="0.25" x="17" y="22.75" fill="#FF4000" fill-opacity="0.25" />
	<rect width="1" height="0.25" x="18" y="22.75" fill="#FF4000" fill-opacity="0.25" />
	<rect width="1" height="0.25" x="19" y="22.75" fill="#FF4000" fill-opacity="0.25" />
	<rect width="1" height="0.25" x="20" y="22.75" fill="#FF4000" fill-opacity="0.25" />
	<rect width="1" height="0.25" x="21" y="22.75" fill="#FF4000" fill-opacity="0.25" />
	<rect width="1" height="0.25" x="22" y="22.75" fill="#FF4000" fill-opacity="0.25" />
	<path d="M 24 23 h -1 v -0.25 h 0.75 v -0.75 h 0.25 z" fill="#FF4000" fill-opacity="0.25" />
	<rect width="0.25" height="1" x="23.75" y="21" fill="#FF4000" fill-opacity="0.25" />
	<rect width="0.25" height="1" x="23.75" y="20" fill="#FF4000" fill-opacity="0.25" />
	<rect width="0.25" height="1" x="23.75" y="19" fill="#FF4000" fill-opacity="0.25" />
	<rect width="0.25" height="1" x="23.75" y="18" fill="#FF4000" fill-opacity="0.25" />
	<rect width="0.25" height="1" x="23.75" y="17" fill="#FF4000" fill-opacity="0.25" />
	<path d="M 24 16 v 1 h -0.25 v -0.75 h -0.75 v -0.25 z" fill="#FF4000" fill-opacity="0.25" />
	<rect width="1" height="0.25" x="22" y="16" fill="#FF4000" fill-opacity="0.25" />
	<rect width="1" height="0.25" x="21" y="16" fill="#FF4000" fill-opacity="0.25" />
	<rect width="1" height="0.25" x="20" y="16" fill="#FF4000" fill-opacity="0.25" />
	<rect width="1" height="0.25" x="19" y="16" fill="#FF4000" fill-opacity="0.25" />
	<rect width="1" height="0.25" x="18" y="16" fill="#FF4000" fill-opacity="0.25" />
	<rect width="1" height="0.25" x="17" y="16" fill="#FF4000" fill-opacity="0.25" />
	<rect width="1" height="0.25" x="16" y="16" fill="#FF4000" fill-opacity="0.25" />
	<rect width="1" height="0.25" x="15" y="16" fill="#FF4000" fill-opacity="0.25" />
	<rect width="1" height="0.25" x="14" y="16" fill="#FF4000" fill-opacity="0.25" />
	<rect width="1" height="0.25" x="13" y="16" fill="#FF4000" fill-opacity="0.25" />
	<rect width="1" height="0.25" x="12" y="16" fill="#FF4000" fill-opacity="0.25" />
	<rect width="1" height="0.25" x="11" y="16" fill="#FF4000" fill-opacity="0.25" />
	<rect width="1" height="0.25" x="10" y="16" fill="#FF4000" fill-opacity="0.25" />
	<rect width="1" height="0.25" x="9" y="16" fill="#FF4000" fill-opacity="0.25" />
	<rect width="1" height="0.25" x="8" y="16" fill="#FF4000" fill-opacity="0.25" />
	<rect width="1" height="0.25" x="7" y="16" fill="#FF4000" fill-opacity="0.25" />
	<rect width="1" height="0.25" x="6" y="16" fill="#FF4000" fill-opacity="0.25" />
	<rect width="1" height="0.25" x="5" y="16" fill="#FF4000" fill-opacity="0.25" />
	<path d="M 4 16 h 1 v 0.25 h -0.75 v 0.75 h -0.25 z" fill="#FF4000" fill-opacity="0.25" />
	<rect width="0.25" height="0.25" x="4" y="17" fill="#FF4000" fill-opacity="0.25" />
	<path d="M 3 17 h 1 v 0.25 h -0.75 v 0.75 h -0.25 z" fill="#FF4000" fill-opacity="0.25" />
	<rect width="0.25" height="0.25" x="3" y="18" fill="#FF4000" fill-opacity="0.25" />
	<path d="M 2 18 h 1 v 0.25 h -0.75 v 0.75 h -0.25 z" fill="#FF4000" fill-opacity="0.25" />
	<rect width="0.25" height="1" x="2" y="19" fill="#FF4000" fill-opacity="0.25" />
	<rect width="0.25" height="1" x="2" y="20" fill="#FF4000" fill-opacity="0.25" />
	<rect width="0.25" height="1" x="2" y="21" fill="#FF4000" fill-opacity="0.25" />
	<path d="M 2 23 v -1 h 0.25 v 0.75 h 0.75 v 0.25 z" fill="#FF4000" fill-opacity="0.25" />
	<rect width="1" height="0.25" x="3" y="22.75" fill="#FF4000" fill-opacity="0.25" />
	<rect width="1" height="0.25" x="4" y="22.75" fill="#FF4000" fill-opacity="0.25" />
	<rect width="1" height="0.25" x="5" y="22.75" fill="#FF4000" fill-opacity="0.25" />
	<rect width="1" height="0.25" x="6" y="22.75" fill="#FF4000" fill-opacity="0.25" />
	<rect width="1" height="0.25" x="7" y="22.75" fill="#FF4000" fill-opacity="0.25" />
	<rect width="1" height="0.25" x="8" y="22.75" fill="#FF4000" fill-opacity="0.25" />
	<rect width="1" height="0.25" x="9" y="22.75" fill="#FF4000" fill-opacity="0.25" />
	<rect width="1" height="0.25" x="10" y="22.75" fill="#FF4000" fill-opacity="0.25" />
	<rect width="1" height="0.25" x="11" y="22.75" fill="#FF4000" fill-opacity="0.25" />
	<rect width="1" height="0.25" x="12" y="22.75" fill="#FF4000" fill-opacity="0.25" />
	<rect width="1" height="0.25" x="13" y="22.75" fill="#FF4000" fill-opacity="0.25" />
	<rect width="1" height="0.25" x="14" y="22.75" fill="#FF4000" fill-opacity="0.25" />
	<rect width="1" height="0.25" x="15" y="22.75" fill="#FF4000" fill-opacity="0.25" />
	<rect width="1" height="0.25" x="16" y="22.75" fill="#FF4000" fill-opacity="0.25" />
	<rect width="1" height="0.25" x="17" y="22.75" fill="#FF4000" fill-opacity="0.25" />
	<rect width="1" height="0.25" x="18" y="22.75" fill="#FF4000" fill-opacity="0.25" />
	<rect width="1" height="0.25" x="19" y="22.75" fill="#FF4000" fill-opacity="0.25" />
	<rect width="1" height="0.25" x="20" y="22.75" fill="#FF4000" fill-opacity="0.25" />
	<rect width="1" height="0.25" x="21" y="22.75" fill="#FF4000" fill-opacity="0.25" />
	<rect width="1" height="0.25" x="22" y="22.75" fill="#FF4000" fill-opacity="0.25" />
	<path d="M 24 23 h -1 v -0.25 h 0.75 v -0.75 h 0.25 z" fill="#FF4000" fill-opacity="0.25" />
	<rect width="0.25" height="1" x="23.75" y="21" fill="#FF4000" fill-opacity="0.25" />
	<rect width="0.25" height="1" x="23.75" y="20" fill="#FF4000" fill-opacity="0.25" />
	<rect width="0.25" height="1" x="23.75" y="19" fill="#FF4000" fill-opacity="0.25" />
	<rect width="0.25" height="1" x="23.75" y="18" fill="#FF4000" fill-opacity="0.25" />
	<rect width="0.25" height="1" x="23.75" y="17" fill="#FF4000" fill-opacity="0.25" />
	<path d="M 24 16 v 1 h -0.25 v -0.75 h -0.75 v -0.25 z" fill="#FF4000" fill-opacity="0.25" />
	<path fill="transparent" stroke="gray" stroke-width="0.02" d="M 0.01 0 v 25" />
	<path fill="transparent" stroke="gray" stroke-width="0.02" d="M 0 0.01 h 25" />
	<path fill="transparent" stroke="gray" stroke-width="0.02" d="M 1 0 v 25" />
	<path fill="transparent" stroke="gray" stroke-width="0.02" d="M 0 1 h 25" />
	<path fill="transparent" stroke="gray" stroke-width="0.02" d="M 2 0 v 25" />
	<path fill="transparent" stroke="gray" stroke-width="0.02" d="M 0 2 h 25" />
	<path fill="transparent" stroke="gray" stroke-width="0.02" d="M 3 0 v 25" />
	<path fill="transparent" stroke="gray" stroke-width="0.02" d="M 0 3 h 25" />
	<path fill="transparent" stroke="gray" stroke-width="0.02" d="M 4 0 v 25" />
	<path fill="transparent" stroke="gray" stroke-width="0.02" d="M 0 4 h 25" />
	<path fill="transparent" stroke="gray" stroke-width="0.02" d="M 5 0 v 25" />
	<path fill="transparent" stroke="gray" stroke-width="0.02" d="M 0 5 h 25" />
	<path fill="transparent" stroke="gray" stroke-width="0.02" d="M 6 0 v 25" />
	<path fill="transparent" stroke="gray" stroke-width="0.02" d="M 0 6 h 25" />
	<path fill="transparent" stroke="gray" stroke-width="0.02" d="M 7 0 v 25" />
	<path fill="transparent" stroke="gray" stroke-width="0.02" d="M 0 7 h 25" />
	<path fill="transparent" stroke="gray" stroke-width="0.02" d="M 8 0 v 25" />
	<path fill="transparent" stroke="gray" stroke-width="0.02" d="M 0 8 h 25" />
	<path fill="transparent" stroke="gray" stroke-width="0.02" d="M 9 0 v 25" />
	<path fill="transparent" stroke="gray" stroke-width="0.02" d="M 0 9 h 25" />
	<path fill="transparent" stroke="gray" stroke-width="0.02" d="M 10 0 v 25" />
	<path fill="transparent" stroke="gray" stroke-width="0.02" d="M 0 10 h 25" />
	<path fill="transparent" stroke="gray" stroke-width="0.02" d="M 11 0 v 25" />
	<path fill="transparent" stroke="gray" stroke-width="0.02" d="M 0 11 h 25" />
	<path fill="transparent" stroke="gray" stroke-width="0.02" d="M 12 0 v 25" />
	<path fill="transparent" stroke="gray" stroke-width="0.02" d="M 0 12 h 25" />
	<path fill="transparent" stroke="gray" stroke-width="0.02" d="M 13 0 v 25" />
	<path fill="transparent" stroke="gray" stroke-width="0.02" d="M 0 13 h 25" />
	<path fill="transparent" stroke="gray" stroke-width="0.02" d="M 14 0 v 25" />
	<path fill="transparent" stroke="gray" stroke-width="0.02" d="M 0 14 h 25" />
	<path fill="transparent" stroke="gray" stroke-width="0.02" d="M 15 0 v 25" />
	<path fill="transparent" stroke="gray" stroke-width="0.02" d="M 0 15 h 25" />
	<path fill="transparent" stroke="gray" stroke-width="0.02" d="M 16 0 v 25" />
	<path fill="transparent" stroke="gray" stroke-width="0.02" d="M 0 16 h 25" />
	<path fill="transparent" stroke="gray" stroke-width="0.02" d="M 17 0 v 25" />
	<path fill="transparent" stroke="gray" stroke-width="0.02" d="M 0 17 h 25" />
	<path fill="transparent" stroke="gray" stroke-width="0.02" d="M 18 0 v 25" />
	<path fill="transparent" stroke="gray" stroke-width="0.02" d="M 0 18 h 25" />
	<path fill="transparent" stroke="gray" stroke-width="0.02" d="M 19 0 v 25" />
	<path fill="transparent" stroke="gray" stroke-width="0.02" d="M 0 19 h 25" />
	<path fill="transparent" stroke="gray" stroke-width="0.02" d="M 20 0 v 25" />
	<path fill="transparent" stroke="gray" stroke-width="0.02" d="M 0 20 h 25" />
	<path fill="transparent" stroke="gray" stroke-width="0.02" d="M 21 0 v 25" />
	<path fill="transparent" stroke="gray" stroke-width="0.02" d="M 0 21 h 25" />
	<path fill="transparent" stroke="gray" stroke-width="0.02" d="M 22 0 v 25" />
	<path fill="transparent" stroke="gray" stroke-width="0.02" d="M 0 22 h 25" />
	<path fill="transparent" stroke="gray" stroke-width="0.02" d="M 23 0 v 25" />
	<path fill="transparent" stroke="gray" stroke-width="0.02" d="M 0 23 h 25" />
	<path fill="transparent" stroke="gray" stroke-width="0.02" d="M 24 0 v 25" />
	<path fill="transparent" stroke="gray" stroke-width="0.02" d="M 0 24 h 25" />
	<path fill="transparent" stroke="gray" stroke-width="0.02" d="M 24.99 0 v 25" />
	<path fill="transparent" stroke="gray" stroke-width="0.02" d="M 0 24.99 h 25" />
	<path d="M 0.5 0.5
L 1 0.5
L 2 0.5
L 3 0.5
L 4 0.5
L 5 0.5
L 6 0.5
L 7 0.5
L 8 0.5
A 0.5 0.5 0 0 1 8.5 1
L 8.5 2
L 8.5 3
A 0.5 0.5 0 0 1 8 3.5
L 7 3.5
A 0.5 0.5 0 0 0 6.5 4
L 6.5 5
L 6.5 6
A 0.5 0.5 0 0 1 6 6.5
A 0.5 0.5 0 0 0 5.5 7
L 5.5 8
L 5.5 9
A 0.5 0.5 0 0 1 5 9.5
A 0.5 0.5 0 0 0 4.5 10
L 4.5 11
L 4.5 12
L 4.5 13
A 0.5 0.5 0 0 0 5 13.5
L 6 13.5
L 7 13.5
L 8 13.5
L 9 13.5
A 0.5 0.5 0 0 0 9.5 13
L 9.5 12
A 0.5 0.5 0 0 1 10 11.5
L 11 11.5
L 12 11.5
L 13 11.5
L 14 11.5
L 15 11.5
A 0.5 0.5 0 0 1 15.5 12
L 15.5 13
A 0.5 0.5 0 0 0 16 13.5
L 17 13.5
L 18 13.5
L 19 13.5
L 20 13.5
A 0.5 0.5 0 0 0 20.5 13
L 20.5 12
L 20.5 11
L 20.5 10
A 0.5 0.5 0 0 0 20 9.5
A 0.5 0.5 0 0 1 19.5 9
L 19.5 8
A 0.5 0.5 0 0 0 19 7.5
A 0.5 0.5 0 0 0 18.5 8
L 18.5 9
L 18.5 10
A 0.5 0.5 0 0 0 19 10.5
A 0.5 0.5 0 0 1 19.5 11
L 19.5 12
A 0.5 0.5 0 0 1 19 12.5
A 0.5 0.5 0 0 1 18.5 12
A 0.5 0.5 0 0 0 18 11.5
A 0.5 0.5 0 0 0 17.5 12
A 0.5 0.5 0 0 1 17 12.5
A 0.5 0.5 0 0 1 16.5 12
L 16.5 11
A 0.5 0.5 0 0 1 17 10.5
A 0.5 0.5 0 0 0 17.5 10
A 0.5 0.5 0 0 0 17 9.5
L 16 9.5
A 0.5 0.5 0 0 0 15.5 10
A 0.5 0.5 0 0 1 15 10.5
L 14 10.5
L 13 10.5
L 12 10.5
L 11 10.5
L 10 10.5
L 9 10.5
A 0.5 0.5 0 0 0 8.5 11
L 8.5 12
A 0.5 0.5 0 0 1 8 12.5
L 7 12.5
L 6 12.5
A 0.5 0.5 0 0 1 5.5 12
L 5.5 11
A 0.5 0.5 0 0 1 6 10.5
A 0.5 0.5 0 0 1 6.5 11
A 0.5 0.5 0 0 0 7 11.5
A 0.5 0.5 0 0 0 7.5 11
L 7.5 10
A 0.5 0.5 0 0 0 7 9.5
A 0.5 0.5 0 0 1 6.5 9
L 6.5 8
A 0.5 0.5 0 0 1 7 7.5
A 0.5 0.5 0 0 1 7.5 8
A 0.5 0.5 0 0 0 8 8.5
A 0.5 0.5 0 0 1 8.5 9
A 0.5 0.5 0 0 0 9 9.5
A 0.5 0.5 0 0 0 9.5 9
L 9.5 8
A 0.5 0.5 0 0 0 9 7.5
A 0.5 0.5 0 0 1 8.5 7
A 0.5 0.5 0 0 0 8 6.5
A 0.5 0.5 0 0 1 7.5 6
L 7.5 5
A 0.5 0.5 0 0 1 8 4.5
A 0.5 0.5 0 0 1 8.5 5
A 0.5 0.5 0 0 0 9 5.5
A 0.5 0.5 0 0 1 9.5 6
A 0.5 0.5 0 0 0 10 6.5
A 0.5 0.5 0 0 0 10.5 6
L 10.5 5
A 0.5 0.5 0 0 0 10 4.5
A 0.5 0.5 0 0 1 9.5 4
L 9.5 3
L 9.5 2
L 9.5 1
A 0.5 0.5 0 0 1 10 0.5
L 11 0.5
L 12 0.5
L 13 0.5
L 14 0.5
L 15 0.5
L 16 0.5
A 0.5 0.5 0 0 1 16.5 1
A 0.5 0.5 0 0 0 17 1.5
A 0.5 0.5 0 0 0 17.5 1
A 0.5 0.5 0 0 1 18 0.5
A 0.5 0.5 0 0 1 18.5 1
A 0.5 0.5 0 0 0 19 1.5
A 0.5 0.5 0 0 0 19.5 1
A 0.5 0.5 0 0 1 20 0.5
L 21 0.5
L 22 0.5
L 23 0.5
L 24 0.5
A 0.5 0.5 0 0 1 24.5 1
L 24.5 2
L 24.5 3
L 24.5 4
L 24.5 5
L 24.5 6
L 24.5 7
L 24.5 8
L 24.5 9
L 24.5 10
L 24.5 11
L 24.5 12
L 24.5 13
L 24.5 14
L 24.5 15
L 24.5 16
L 24.5 17
L 24.5 18
L 24.5 19
L 24.5 20
L 24.5 21
L 24.5 22
L 24.5 23
A 0.5 0.5 0 0 1 24 23.5
L 23 23.5
L 22 23.5
L 21 23.5
L 20 23.5
L 19 23.5
L 18 23.5
L 17 23.5
L 16 23.5
L 15 23.5
L 14 23.5
L 13 23.5
L 12 23.5
L 11 23.5
L 10 23.5
L 9 23.5
L 8 23.5
L 7 23.5
L 6 23.5
L 5 23.5
L 4 23.5
L 3 23.5
L 2 23.5
A 0.5 0.5 0 0 1 1.5 23
L 1.5 22
L 1.5 21
L 1.5 20
L 1.5 19
L 1.5 18
A 0.5 0.5 0 0 1 2 17.5
A 0.5 0.5 0 0 0 2.5 17
A 0.5 0.5 0 0 1 3 16.5
A 0.5 0.5 0 0 0 3.5 16
A 0.5 0.5 0 0 1 4 15.5
L 5 15.5
L 6 15.5
L 7 15.5
L 8 15.5
L 9 15.5
L 10 15.5
L 11 15.5
A 0.5 0.5 0 0 0 11.5 15
L 11.5 14
A 0.5 0.5 0 0 1 12 13.5
L 13 13.5
A 0.5 0.5 0 0 1 13.5 14
A 0.5 0.5 0 0 1 13 14.5
A 0.5 0.5 0 0 0 12.5 15
A 0.5 0.5 0 0 0 13 15.5
L 14 15.5
L 15 15.5
L 16 15.5
L 17 15.5
L 18 15.5
L 19 15.5
L 19.5 15.5" fill="white" fill-opacity="0" stroke="black" stroke-width="0.05" stroke-linecap="round" />
</svg>