<svg xmlns="http://www.w3.org/2000/svg" viewBox="0 0 21 21">
	<path d="M0,0 h21 v21 h-21 z" fill="#dddddd" />
	<rect width="1" height="1" x="0" y="0" fill="#ff0000" fill-opacity="0.15" />
	<rect width="1" height="1" x="0" y="1" fill="#ff0000" fill-opacity="0.15" />
	<rect width="1" height="1" x="0" y="2" fill="#ff0000" fill-opacity="0.15" />
	<rect width="1" height="1" x="0" y="3" fill="#ff0000" fill-opacity="0.15" />
	<rect width="1" height="1" x="0" y="4" fill="#ff0000" fill-opacity="0.15" />
	<rect width="1" height="1" x="0" y="5" fill="#ff0000" fill-opacity="0.15" />
	<rect width="1" height="1" x="1" y="5" fill="#ff0000" fill-opacity="0.15" />
	<rect width="1" height="1" x="2" y="5" fill="#ff0000" fill-opacity="0.15" />
	<rect width="1" height="1" x="2" y="6" fill="#ff0000" fill-opacity="0.15" />
	<rect width="1" height="1" x="2" y="7" fill="#ff0000" fill-opacity="0.15" />
	<rect width="1" height="1" x="2" y="8" fill="#ff0000" fill-opacity="0.15" />
	<rect width="1" height="1" x="2" y="9" fill="#ff0000" fill-opacity="0.15" />
	<rect width="1" height="1" x="2" y="10" fill="#ff0000" fill-opacity="0.15" />
	<rect width="1" height="1" x="2" y="11" fill="#ff0000" fill-opacity="0.15" />
	<rect width="1" height="1" x="3" y="11" fill="#ff0000" fill-opacity="0.15" />
	<rect width="1" height="1" x="4" y="11" fill="#ff0000" fill-opacity="0.15" />
	<rect width="1" height="1" x="4" y="12" fill="#ff0000" fill-opacity="0.15" />
	<rect width="1" height="1" x="4" y="13" fill="#ff0000" fill-opacity="0.15" />
	<rect width="1" height="1" x="5" y="13" fill="#ff0000" fill-opacity="0.15" />
	<rect width="1" height="1" x="6" y="13" fill="#ff0000" fill-opacity="0.15" />
	<rect width="1" height="1" x="7" y="13" fill="#ff0000" fill-opacity="0.15" />
	<rect width="1" height="1" x="8" y="13" fill="#ff0000" fill-opacity="0.15" />
	<rect width="1" height="1" x="9" y="13" fill="#ff0000" fill-opacity="0.15" />
	<rect width="1" height="1" x="9" y="12" fill="#ff0000" fill-opacity="0.15" />
	<rect width="1" height="1" x="9" y="11" fill="#ff0000" fill-opacity="0.15" />
	<rect width="1" height="1" x="9" y="10" fill="#ff0000" fill-opacity="0.15" />
	<rect width="1" height="1" x="9" y="9" fill="#ff0000" fill-opacity="0.15" />
	<rect width="1" height="1" x="10" y="9" fill="#ff0000" fill-opacity="0.15" />
	<rect width="1" height="1" x="11" y="9" fill="#ff0000" fill-opacity="0.15" />
	<rect width="1" height="1" x="12" y="9" fill="#ff0000" fill-opacity="0.15" />
	<rect width="1" height="1" x="13" y="9" fill="#ff0000" fill-opacity="0.15" />
	<rect width="1" height="1" x="13" y="10" fill="#ff0000" fill-opacity="0.15" />
	<rect width="1" height="1" x="14" y="10" fill="#ff0000" fill-opacity="0.15" />
	<rect width="1" height="1" x="14" y="9" fill="#ff0000" fill-opacity="0.15" />
	<rect width="1" height="1" x="14" y="8" fill="#ff0000" fill-opacity="0.15" />
	<rect width="1" height="1" x="14" y="7" fill="#ff0000" fill-opacity="0.15" />
	<rect width="1" height="1" x="14" y="6" fill="#ff0000" fill-opacity="0.15" />
	<rect width="1" height="1" x="14" y="5" fill="#ff0000" fill-opacity="0.15" />
	<rect width="1" height="1" x="13" y="5" fill="#ff0000" fill-opacity="0.15" />
	<rect width="1" height="1" x="13" y="4" fill="#ff0000" fill-opacity="0.15" />
	<rect width="1" height="1" x="14" y="4" fill="#ff0000" fill-opacity="0.15" />
	<rect width="1" height="1" x="15" y="4" fill="#ff0000" fill-opacity="0.15" />
	<rect width="1" height="1" x="15" y="5" fill="#ff0000" fill-opacity="0.15" />
	<rect width="1" height="1" x="15" y="6" fill="#ff0000" fill-opacity="0.15" />
	<rect width="1" height="1" x="15" y="7" fill="#ff0000" fill-opacity="0.15" />
	<rect width="1" height="1" x="15" y="8" fill="#ff0000" fill-opacity="0.15" />
	<rect width="1" height="1" x="15" y="9" fill="#ff0000" fill-opacity="0.15" />
	<rect width="1" height="1" x="15" y="10" fill="#ff0000" fill-opacity="0.15" />
	<rect width="1" height="1" x="15" y="11" fill="#ff0000" fill-opacity="0.15" />
	<rect width="1" height="1" x="14" y="11" fill="#ff0000" fill-opacity="0.15" />
	<rect width="1" height="1" x="14" y="12" fill="#ff0000" fill-opacity="0.15" />
	<rect width="1" height="1" x="14" y="13" fill="#ff0000" fill-opacity="0.15" />
	<rect width="1" height="1" x="14" y="14" fill="#ff0000" fill-opacity="0.15" />
	<rect width="1" height="1" x="12" y="6" fill="#0000ff" fill-opacity="0.15" />
	<rect width="1" height="1" x="13" y="6" fill="#0000ff" fill-opacity="0.15" />
	<rect width="1" height="1" x="13" y="7" fill="#0000ff" fill-opacity="0.15" />
	<rect width="1" height="1" x="13" y="8" fill="#0000ff" fill-opacity="0.15" />
	<rect width="1" height="1" x="12" y="8" fill="#0000ff" fill-opacity="0.15" />
	<rect width="1" height="1" x="12" y="13" fill="#0000ff" fill-opacity="0.15" />
	<rect width="1" height="1" x="12" y="12" fill="#0000ff" fill-opacity="0.15" />
	<rect width="1" height="1" x="13" y="12" fill="#0000ff" fill-opacity="0.15" />
	<rect width="1" height="1" x="13" y="11" fill="#0000ff" fill-opacity="0.15" />
	<rect width="1" height="1" x="12" y="11" fill="#0000ff" fill-opacity="0.15" />
	<rect width="1" height="1" x="12" y="10" fill="#0000ff" fill-opacity="0.15" />
	<rect width="1" height="1" x="11" y="10" fill="#0000ff" fill-opacity="0.15" />
	<rect width="1" height="1" x="10" y="10" fill="#0000ff" fill-opacity="0.15" />
	<rect width="1" height="1" x="10" y="11" fill="#0000ff" fill-opacity="0.15" />
	<rect width="1" height="1" x="11" y="11" fill="#0000ff" fill-opacity="0.15" />
	<rect width="1" height="1" x="11" y="12" fill="#0000ff" fill-opacity="0.15" />
	<rect width="1" height="1" x="10" y="12" fill="#0000ff" fill-opacity="0.15" />
	<rect width="1" height="1" x="10" y="13" fill="#0000ff" fill-opacity="0.15" />
	<rect width="1" height="1" x="14" y="15" fill="#000000" fill-opacity="0.1" />
	<rect width="1" height="1" x="13" y="14" fill="#000000" fill-opacity="0.1" />
	<rect width="1" height="1" x="15" y="14" fill="#000000" fill-opacity="0.1" />
	<path fill="transparent" stroke="gray" stroke-width="0.02" d="M 0.01 0 v 21" />
	<path fill="transparent" stroke="gray" stroke-width="0.02" d="M 0 0.01 h 21" />
	<path fill="transparent" stroke="gray" stroke-width="0.02" d="M 1 0 v 21" />
	<path fill="transparent" stroke="gray" stroke-width="0.02" d="M 0 1 h 21" />
	<path fill="transparent" stroke="gray" stroke-width="0.02" d="M 2 0 v 21" />
	<path fill="transparent" stroke="gray" stroke-width="0.02" d="M 0 2 h 21" />
	<path fill="transparent" stroke="gray" stroke-width="0.02" d="M 3 0 v 21" />
	<path fill="transparent" stroke="gray" stroke-width="0.02" d="M 0 3 h 21" />
	<path fill="transparent" stroke="gray" stroke-width="0.02" d="M 4 0 v 21" />
	<path fill="transparent" stroke="gray" stroke-width="0.02" d="M 0 4 h 21" />
	<path fill="transparent" stroke="gray" stroke-width="0.02" d="M 5 0 v 21" />
	<path fill="transparent" stroke="gray" stroke-width="0.02" d="M 0 5 h 21" />
	<path fill="transparent" stroke="gray" stroke-width="0.02" d="M 6 0 v 21" />
	<path fill="transparent" stroke="gray" stroke-width="0.02" d="M 0 6 h 21" />
	<path fill="transparent" stroke="gray" stroke-width="0.02" d="M 7 0 v 21" />
	<path fill="transparent" stroke="gray" stroke-width="0.02" d="M 0 7 h 21" />
	<path fill="transparent" stroke="gray" stroke-width="0.02" d="M 8 0 v 21" />
	<path fill="transparent" stroke="gray" stroke-width="0.02" d="M 0 8 h 21" />
	<path fill="transparent" stroke="gray" stroke-width="0.02" d="M 9 0 v 21" />
	<path fill="transparent" stroke="gray" stroke-width="0.02" d="M 0 9 h 21" />
	<path fill="transparent" stroke="gray" stroke-width="0.02" d="M 10 0 v 21" />
	<path fill="transparent" stroke="gray" stroke-width="0.02" d="M 0 10 h 21" />
	<path fill="transparent" stroke="gray" stroke-width="0.02" d="M 11 0 v 21" />
	<path fill="transparent" stroke="gray" stroke-width="0.02" d="M 0 11 h 21" />
	<path fill="transparent" stroke="gray" stroke-width="0.02" d="M 12 0 v 21" />
	<path fill="transparent" stroke="gray" stroke-width="0.02" d="M 0 12 h 21" />
	<path fill="transparent" stroke="gray" stroke-width="0.02" d="M 13 0 v 21" />
	<path fill="transparent" stroke="gray" stroke-width="0.02" d="M 0 13 h 21" />
	<path fill="transparent" stroke="gray" stroke-width="0.02" d="M 14 0 v 21" />
	<path fill="transparent" stroke="gray" stroke-width="0.02" d="M 0 14 h 21" />
	<path fill="transparent" stroke="gray" stroke-width="0.02" d="M 15 0 v 21" />
	<path fill="transparent" stroke="gray" stroke-width="0.02" d="M 0 15 h 21" />
	<path fill="transparent" stroke="gray" stroke-width="0.02" d="M 16 0 v 21" />
	<path fill="transparent" stroke="gray" stroke-width="0.02" d="M 0 16 h 21" />
	<path fill="transparent" stroke="gray" stroke-width="0.02" d="M 17 0 v 21" />
	<path fill="transparent" stroke="gray" stroke-width="0.02" d="M 0 17 h 21" />
	<path fill="transparent" stroke="gray" stroke-width="0.02" d="M 18 0 v 21" />
	<path fill="transparent" stroke="gray" stroke-width="0.02" d="M 0 18 h 21" />
	<path fill="transparent" stroke="gray" stroke-width="0.02" d="M 19 0 v 21" />
	<path fill="transparent" stroke="gray" stroke-width="0.02" d="M 0 19 h 21" />
	<path fill="transparent" stroke="gray" stroke-width="0.02" d="M 20 0 v 21" />
	<path fill="transparent" stroke="gray" stroke-width="0.02" d="M 0 20 h 21" />
	<path fill="transparent" stroke="gray" stroke-width="0.02" d="M 20.99 0 v 21" />
	<path fill="transparent" stroke="gray" stroke-width="0.02" d="M 0 20.99 h 21" />
	<path d="M 0 0.5
A 0.5 0.5 0 0 1 0.5 1
L 0.5 2
L 0.5 3
L 0.5 4
L 0.5 5
A 0.5 0.5 0 0 0 1 5.5
L 2 5.5
A 0.5 0.5 0 0 1 2.5 6
L 2.5 7
L 2.5 8
L 2.5 9
L 2.5 10
L 2.5 11
A 0.5 0.5 0 0 0 3 11.5
L 4 11.5
A 0.5 0.5 0 0 1 4.5 12
L 4.5 13
A 0.5 0.5 0 0 0 5 13.5
L 6 13.5
L 7 13.5
L 8 13.5
L 9 13.5
A 0.5 0.5 0 0 0 9.5 13
L 9.5 12
L 9.5 11
L 9.5 10
A 0.5 0.5 0 0 1 10 9.5
L 11 9.5
L 12 9.5
L 13 9.5
A 0.5 0.5 0 0 1 13.5 10
A 0.5 0.5 0 0 0 14 10.5
A 0.5 0.5 0 0 0 14.5 10
L 14.5 9
L 14.5 8
L 14.5 7
L 14.5 6
A 0.5 0.5 0 0 0 14 5.5
A 0.5 0.5 0 0 1 13.5 5
A 0.5 0.5 0 0 1 14 4.5
L 15 4.5
A 0.5 0.5 0 0 1 15.5 5
L 15.5 6
L 15.5 7
L 15.5 8
L 15.5 9
L 15.5 10
L 15.5 11
A 0.5 0.5 0 0 1 15 11.5
A 0.5 0.5 0 0 0 14.5 12
L 14.5 13
L 14.5 14" fill="white" fill-opacity="0" stroke="black" stroke-width="0.05" />
	<path d="M 12.5 6.5
L 13 6.5
A 0.5 0.5 0 0 1 13.5 7
L 13.5 8
A 0.5 0.5 0 0 1 13 8.5
" fill="white" fill-opacity="0" stroke="blue" stroke-width="0.05" />
	<path d="M 12.5 13.5
L 12.5 13
A 0.5 0.5 0 0 1 13 12.5
A 0.5 0.5 0 0 0 13.5 12
A 0.5 0.5 0 0 0 13 11.5
A 0.5 0.5 0 0 1 12.5 11
A 0.5 0.5 0 0 0 12 10.5
L 11 10.5
A 0.5 0.5 0 0 0 10.5 11
A 0.5 0.5 0 0 0 11 11.5
A 0.5 0.5 0 0 1 11.5 12
A 0.5 0.5 0 0 1 11 12.5
A 0.5 0.5 0 0 0 10.5 13
" fill="white" fill-opacity="0" stroke="blue" stroke-width="0.05" />
</svg>