<svg xmlns="http://www.w3.org/2000/svg" viewBox="0 0 21 21">
	<path d="M0,0 h21 v21 h-21 z" fill="#dddddd" />
	<rect width="1" height="1" x="0" y="0" fill="#ff0000" fill-opacity="0.15" />
	<rect width="1" height="1" x="1" y="0" fill="#ff0000" fill-opacity="0.15" />
	<rect width="1" height="1" x="2" y="0" fill="#ff0000" fill-opacity="0.15" />
	<rect width="1" height="1" x="3" y="0" fill="#ff0000" fill-opacity="0.15" />
	<rect width="1" height="1" x="4" y="0" fill="#ff0000" fill-opacity="0.15" />
	<rect width="1" height="1" x="5" y="0" fill="#ff0000" fill-opacity="0.15" />
	<rect width="1" height="1" x="6" y="0" fill="#ff0000" fill-opacity="0.15" />
	<rect width="1" height="1" x="6" y="1" fill="#ff0000" fill-opacity="0.15" />
	<rect width="1" height="1" x="6" y="2" fill="#ff0000" fill-opacity="0.15" />
	<rect width="1" height="1" x="6" y="3" fill="#ff0000" fill-opacity="0.15" />
	<rect width="1" height="1" x="6" y="4" fill="#ff0000" fill-opacity="0.15" />
	<rect width="1" height="1" x="6" y="5" fill="#ff0000" fill-opacity="0.15" />
	<rect width="1" height="1" x="5" y="5" fill="#ff0000" fill-opacity="0.15" />
	<rect width="1" height="1" x="4" y="5" fill="#ff0000" fill-opacity="0.15" />
	<rect width="1" height="1" x="4" y="6" fill="#ff0000" fill-opacity="0.15" />
	<rect width="1" height="1" x="3" y="6" fill="#ff0000" fill-opacity="0.15" />
	<rect width="1" height="1" x="3" y="7" fill="#ff0000" fill-opacity="0.15" />
	<rect width="1" height="1" x="3" y="8" fill="#ff0000" fill-opacity="0.15" />
	<rect width="1" height="1" x="3" y="9" fill="#ff0000" fill-opacity="0.15" />
	<rect width="1" height="1" x="2" y="9" fill="#ff0000" fill-opacity="0.15" />
	<rect width="1" height="1" x="2" y="10" fill="#ff0000" fill-opacity="0.15" />
	<rect width="1" height="1" x="2" y="11" fill="#ff0000" fill-opacity="0.15" />
	<rect width="1" height="1" x="2" y="12" fill="#ff0000" fill-opacity="0.15" />
	<rect width="1" height="1" x="2" y="13" fill="#ff0000" fill-opacity="0.15" />
	<rect width="1" height="1" x="3" y="13" fill="#ff0000" fill-opacity="0.15" />
	<rect width="1" height="1" x="4" y="13" fill="#ff0000" fill-opacity="0.15" />
	<rect width="1" height="1" x="5" y="13" fill="#ff0000" fill-opacity="0.15" />
	<rect width="1" height="1" x="6" y="13" fill="#ff0000" fill-opacity="0.15" />
	<rect width="1" height="1" x="7" y="13" fill="#ff0000" fill-opacity="0.15" />
	<rect width="1" height="1" x="8" y="13" fill="#ff0000" fill-opacity="0.15" />
	<rect width="1" height="1" x="9" y="13" fill="#ff0000" fill-opacity="0.15" />
	<rect width="1" height="1" x="9" y="12" fill="#ff0000" fill-opacity="0.15" />
	<rect width="1" height="1" x="8" y="12" fill="#ff0000" fill-opacity="0.15" />
	<rect width="1" height="1" x="7" y="12" fill="#ff0000" fill-opacity="0.15" />
	<rect width="1" height="1" x="7" y="11" fill="#ff0000" fill-opacity="0.15" />
	<rect width="1" height="1" x="7" y="10" fill="#ff0000" fill-opacity="0.15" />
	<rect width="1" height="1" x="7" y="9" fill="#ff0000" fill-opacity="0.15" />
	<rect width="1" height="1" x="6" y="9" fill="#ff0000" fill-opacity="0.15" />
	<rect width="1" height="1" x="6" y="8" fill="#ff0000" fill-opacity="0.15" />
	<rect width="1" height="1" x="5" y="8" fill="#ff0000" fill-opacity="0.15" />
	<rect width="1" height="1" x="5" y="9" fill="#ff0000" fill-opacity="0.15" />
	<rect width="1" height="1" x="5" y="10" fill="#ff0000" fill-opacity="0.15" />
	<rect width="1" height="1" x="6" y="10" fill="#ff0000" fill-opacity="0.15" />
	<rect width="1" height="1" x="6" y="11" fill="#ff0000" fill-opacity="0.15" />
	<rect width="1" height="1" x="6" y="12" fill="#ff0000" fill-opacity="0.15" />
	<rect width="1" height="1" x="5" y="12" fill="#ff0000" fill-opacity="0.15" />
	<rect width="1" height="1" x="5" y="11" fill="#ff0000" fill-opacity="0.15" />
	<rect width="1" height="1" x="4" y="11" fill="#ff0000" fill-opacity="0.15" />
	<rect width="1" height="1" x="4" y="12" fill="#ff0000" fill-opacity="0.15" />
	<rect width="1" height="1" x="3" y="12" fill="#ff0000" fill-opacity="0.15" />
	<rect width="1" height="1" x="3" y="11" fill="#ff0000" fill-opacity="0.15" />
	<rect width="1" height="1" x="3" y="10" fill="#ff0000" fill-opacity="0.15" />
	<rect width="1" height="1" x="4" y="10" fill="#ff0000" fill-opacity="0.15" />
	<rect width="1" height="1" x="4" y="9" fill="#ff0000" fill-opacity="0.15" />
	<rect width="1" height="1" x="4" y="8" fill="#ff0000" fill-opacity="0.15" />
	<rect width="1" height="1" x="4" y="7" fill="#ff0000" fill-opacity="0.15" />
	<rect width="1" height="1" x="5" y="7" fill="#ff0000" fill-opacity="0.15" />
	<rect width="1" height="1" x="5" y="6" fill="#ff0000" fill-opacity="0.15" />
	<rect width="1" height="1" x="6" y="6" fill="#ff0000" fill-opacity="0.15" />
	<rect width="1" height="1" x="6" y="7" fill="#ff0000" fill-opacity="0.15" />
	<rect width="1" height="1" x="7" y="7" fill="#ff0000" fill-opacity="0.15" />
	<rect width="1" height="1" x="7" y="8" fill="#ff0000" fill-opacity="0.15" />
	<rect width="1" height="1" x="8" y="8" fill="#ff0000" fill-opacity="0.15" />
	<rect width="1" height="1" x="8" y="9" fill="#ff0000" fill-opacity="0.15" />
	<rect width="1" height="1" x="8" y="10" fill="#ff0000" fill-opacity="0.15" />
	<rect width="1" height="1" x="8" y="11" fill="#ff0000" fill-opacity="0.15" />
	<rect width="1" height="1" x="9" y="11" fill="#ff0000" fill-opacity="0.15" />
	<rect width="1" height="1" x="9" y="10" fill="#ff0000" fill-opacity="0.15" />
	<rect width="1" height="1" x="9" y="9" fill="#ff0000" fill-opacity="0.15" />
	<rect width="1" height="1" x="9" y="8" fill="#ff0000" fill-opacity="0.15" />
	<rect width="1" height="1" x="9" y="7" fill="#ff0000" fill-opacity="0.15" />
	<rect width="1" height="1" x="8" y="7" fill="#ff0000" fill-opacity="0.15" />
	<rect width="1" height="1" x="8" y="6" fill="#ff0000" fill-opacity="0.15" />
	<rect width="1" height="1" x="7" y="6" fill="#ff0000" fill-opacity="0.15" />
	<rect width="1" height="1" x="7" y="5" fill="#ff0000" fill-opacity="0.15" />
	<rect width="1" height="1" x="7" y="4" fill="#ff0000" fill-opacity="0.15" />
	<rect width="1" height="1" x="8" y="4" fill="#ff0000" fill-opacity="0.15" />
	<rect width="1" height="1" x="8" y="5" fill="#ff0000" fill-opacity="0.15" />
	<rect width="1" height="1" x="9" y="5" fill="#ff0000" fill-opacity="0.15" />
	<rect width="1" height="1" x="9" y="6" fill="#ff0000" fill-opacity="0.15" />
	<rect width="1" height="1" x="10" y="6" fill="#ff0000" fill-opacity="0.15" />
	<rect width="1" height="1" x="10" y="5" fill="#ff0000" fill-opacity="0.15" />
	<rect width="1" height="1" x="10" y="4" fill="#ff0000" fill-opacity="0.15" />
	<rect width="1" height="1" x="9" y="4" fill="#ff0000" fill-opacity="0.15" />
	<rect width="1" height="1" x="9" y="3" fill="#ff0000" fill-opacity="0.15" />
	<rect width="1" height="1" x="8" y="3" fill="#ff0000" fill-opacity="0.15" />
	<rect width="1" height="1" x="7" y="3" fill="#ff0000" fill-opacity="0.15" />
	<rect width="1" height="1" x="7" y="2" fill="#ff0000" fill-opacity="0.15" />
	<rect width="1" height="1" x="8" y="2" fill="#ff0000" fill-opacity="0.15" />
	<rect width="1" height="1" x="8" y="1" fill="#ff0000" fill-opacity="0.15" />
	<rect width="1" height="1" x="7" y="1" fill="#ff0000" fill-opacity="0.15" />
	<rect width="1" height="1" x="7" y="0" fill="#ff0000" fill-opacity="0.15" />
	<rect width="1" height="1" x="8" y="0" fill="#ff0000" fill-opacity="0.15" />
	<rect width="1" height="1" x="9" y="0" fill="#ff0000" fill-opacity="0.15" />
	<rect width="1" height="1" x="9" y="1" fill="#ff0000" fill-opacity="0.15" />
	<rect width="1" height="1" x="9" y="2" fill="#ff0000" fill-opacity="0.15" />
	<rect width="1" height="1" x="10" y="2" fill="#ff0000" fill-opacity="0.15" />
	<rect width="1" height="1" x="10" y="3" fill="#ff0000" fill-opacity="0.15" />
	<rect width="1" height="1" x="11" y="3" fill="#ff0000" fill-opacity="0.15" />
	<rect width="1" height="1" x="11" y="4" fill="#ff0000" fill-opacity="0.15" />
	<rect width="1" height="1" x="11" y="5" fill="#ff0000" fill-opacity="0.15" />
	<rect width="1" height="1" x="12" y="5" fill="#ff0000" fill-opacity="0.15" />
	<rect width="1" height="1" x="13" y="5" fill="#ff0000" fill-opacity="0.15" />
	<rect width="1" height="1" x="14" y="5" fill="#ff0000" fill-opacity="0.15" />
	<rect width="1" height="1" x="15" y="5" fill="#ff0000" fill-opacity="0.15" />
	<rect width="1" height="1" x="16" y="5" fill="#ff0000" fill-opacity="0.15" />
	<rect width="1" height="1" x="17" y="5" fill="#ff0000" fill-opacity="0.15" />
	<rect width="1" height="1" x="17" y="6" fill="#ff0000" fill-opacity="0.15" />
	<rect width="1" height="1" x="17" y="7" fill="#ff0000" fill-opacity="0.15" />
	<rect width="1" height="1" x="16" y="7" fill="#ff0000" fill-opacity="0.15" />
	<rect width="1" height="1" x="16" y="6" fill="#ff0000" fill-opacity="0.15" />
	<rect width="1" height="1" x="15" y="6" fill="#ff0000" fill-opacity="0.15" />
	<rect width="1" height="1" x="15" y="7" fill="#ff0000" fill-opacity="0.15" />
	<rect width="1" height="1" x="15" y="8" fill="#ff0000" fill-opacity="0.15" />
	<rect width="1" height="1" x="15" y="9" fill="#ff0000" fill-opacity="0.15" />
	<rect width="1" height="1" x="15" y="10" fill="#ff0000" fill-opacity="0.15" />
	<rect width="1" height="1" x="16" y="10" fill="#ff0000" fill-opacity="0.15" />
	<rect width="1" height="1" x="17" y="10" fill="#ff0000" fill-opacity="0.15" />
	<rect width="1" height="1" x="17" y="11" fill="#ff0000" fill-opacity="0.15" />
	<rect width="1" height="1" x="18" y="11" fill="#ff0000" fill-opacity="0.15" />
	<rect width="1" height="1" x="18" y="10" fill="#ff0000" fill-opacity="0.15" />
	<rect width="1" height="1" x="19" y="10" fill="#ff0000" fill-opacity="0.15" />
	<rect width="1" height="1" x="20" y="9" fill="#00ff00" fill-opacity="0.4" />
	<rect width="1" height="1" x="19" y="9" fill="#0000ff" fill-opacity="0.15" />
	<rect width="1" height="1" x="18" y="9" fill="#0000ff" fill-opacity="0.15" />
	<rect width="1" height="1" x="17" y="9" fill="#0000ff" fill-opacity="0.15" />
	<rect width="1" height="1" x="16" y="9" fill="#0000ff" fill-opacity="0.15" />
	<rect width="1" height="1" x="16" y="8" fill="#0000ff" fill-opacity="0.15" />
	<rect width="1" height="1" x="17" y="8" fill="#0000ff" fill-opacity="0.15" />
	<rect width="1" height="1" x="18" y="8" fill="#0000ff" fill-opacity="0.15" />
	<rect width="1" height="1" x="12" y="2" fill="#0000ff" fill-opacity="0.15" />
	<rect width="1" height="1" x="11" y="2" fill="#0000ff" fill-opacity="0.15" />
	<rect width="1" height="1" x="11" y="1" fill="#0000ff" fill-opacity="0.15" />
	<rect width="1" height="1" x="10" y="1" fill="#0000ff" fill-opacity="0.15" />
	<rect width="1" height="1" x="10" y="0" fill="#0000ff" fill-opacity="0.15" />
	<rect width="1" height="1" x="11" y="0" fill="#0000ff" fill-opacity="0.15" />
	<rect width="1" height="1" x="12" y="0" fill="#0000ff" fill-opacity="0.15" />
	<rect width="1" height="1" x="19" y="9" fill="#000000" fill-opacity="0.1" />
	<path fill="transparent" stroke="gray" stroke-width="0.02" d="M 1 0 v 21" />
	<path fill="transparent" stroke="gray" stroke-width="0.02" d="M 0 1 h 21" />
	<path fill="transparent" stroke="gray" stroke-width="0.02" d="M 2 0 v 21" />
	<path fill="transparent" stroke="gray" stroke-width="0.02" d="M 0 2 h 21" />
	<path fill="transparent" stroke="gray" stroke-width="0.02" d="M 3 0 v 21" />
	<path fill="transparent" stroke="gray" stroke-width="0.02" d="M 0 3 h 21" />
	<path fill="transparent" stroke="gray" stroke-width="0.02" d="M 4 0 v 21" />
	<path fill="transparent" stroke="gray" stroke-width="0.02" d="M 0 4 h 21" />
	<path fill="transparent" stroke="gray" stroke-width="0.02" d="M 5 0 v 21" />
	<path fill="transparent" stroke="gray" stroke-width="0.02" d="M 0 5 h 21" />
	<path fill="transparent" stroke="gray" stroke-width="0.02" d="M 6 0 v 21" />
	<path fill="transparent" stroke="gray" stroke-width="0.02" d="M 0 6 h 21" />
	<path fill="transparent" stroke="gray" stroke-width="0.02" d="M 7 0 v 21" />
	<path fill="transparent" stroke="gray" stroke-width="0.02" d="M 0 7 h 21" />
	<path fill="transparent" stroke="gray" stroke-width="0.02" d="M 8 0 v 21" />
	<path fill="transparent" stroke="gray" stroke-width="0.02" d="M 0 8 h 21" />
	<path fill="transparent" stroke="gray" stroke-width="0.02" d="M 9 0 v 21" />
	<path fill="transparent" stroke="gray" stroke-width="0.02" d="M 0 9 h 21" />
	<path fill="transparent" stroke="gray" stroke-width="0.02" d="M 10 0 v 21" />
	<path fill="transparent" stroke="gray" stroke-width="0.02" d="M 0 10 h 21" />
	<path fill="transparent" stroke="gray" stroke-width="0.02" d="M 11 0 v 21" />
	<path fill="transparent" stroke="gray" stroke-width="0.02" d="M 0 11 h 21" />
	<path fill="transparent" stroke="gray" stroke-width="0.02" d="M 12 0 v 21" />
	<path fill="transparent" stroke="gray" stroke-width="0.02" d="M 0 12 h 21" />
	<path fill="transparent" stroke="gray" stroke-width="0.02" d="M 13 0 v 21" />
	<path fill="transparent" stroke="gray" stroke-width="0.02" d="M 0 13 h 21" />
	<path fill="transparent" stroke="gray" stroke-width="0.02" d="M 14 0 v 21" />
	<path fill="transparent" stroke="gray" stroke-width="0.02" d="M 0 14 h 21" />
	<path fill="transparent" stroke="gray" stroke-width="0.02" d="M 15 0 v 21" />
	<path fill="transparent" stroke="gray" stroke-width="0.02" d="M 0 15 h 21" />
	<path fill="transparent" stroke="gray" stroke-width="0.02" d="M 16 0 v 21" />
	<path fill="transparent" stroke="gray" stroke-width="0.02" d="M 0 16 h 21" />
	<path fill="transparent" stroke="gray" stroke-width="0.02" d="M 17 0 v 21" />
	<path fill="transparent" stroke="gray" stroke-width="0.02" d="M 0 17 h 21" />
	<path fill="transparent" stroke="gray" stroke-width="0.02" d="M 18 0 v 21" />
	<path fill="transparent" stroke="gray" stroke-width="0.02" d="M 0 18 h 21" />
	<path fill="transparent" stroke="gray" stroke-width="0.02" d="M 19 0 v 21" />
	<path fill="transparent" stroke="gray" stroke-width="0.02" d="M 0 19 h 21" />
	<path fill="transparent" stroke="gray" stroke-width="0.02" d="M 20 0 v 21" />
	<path fill="transparent" stroke="gray" stroke-width="0.02" d="M 0 20 h 21" />
	<path d="M 0 0.5
L 1 0.5
L 2 0.5
L 3 0.5
L 4 0.5
L 5 0.5
L 6 0.5
A 0.5 0.5 0 0 1 6.5 1
L 6.5 2
L 6.5 3
L 6.5 4
L 6.5 5
A 0.5 0.5 0 0 1 6 5.5
L 5 5.5
A 0.5 0.5 0 0 0 4.5 6
A 0.5 0.5 0 0 1 4 6.5
A 0.5 0.5 0 0 0 3.5 7
L 3.5 8
L 3.5 9
A 0.5 0.5 0 0 1 3 9.5
A 0.5 0.5 0 0 0 2.5 10
L 2.5 11
L 2.5 12
L 2.5 13
A 0.5 0.5 0 0 0 3 13.5
L 4 13.5
L 5 13.5
L 6 13.5
L 7 13.5
L 8 13.5
L 9 13.5
A 0.5 0.5 0 0 0 9.5 13
A 0.5 0.5 0 0 0 9 12.5
L 8 12.5
A 0.5 0.5 0 0 1 7.5 12
L 7.5 11
L 7.5 10
A 0.5 0.5 0 0 0 7 9.5
A 0.5 0.5 0 0 1 6.5 9
A 0.5 0.5 0 0 0 6 8.5
A 0.5 0.5 0 0 0 5.5 9
L 5.5 10
A 0.5 0.5 0 0 0 6 10.5
A 0.5 0.5 0 0 1 6.5 11
L 6.5 12
A 0.5 0.5 0 0 1 6 12.5
A 0.5 0.5 0 0 1 5.5 12
A 0.5 0.5 0 0 0 5 11.5
A 0.5 0.5 0 0 0 4.5 12
A 0.5 0.5 0 0 1 4 12.5
A 0.5 0.5 0 0 1 3.5 12
L 3.5 11
A 0.5 0.5 0 0 1 4 10.5
A 0.5 0.5 0 0 0 4.5 10
L 4.5 9
L 4.5 8
A 0.5 0.5 0 0 1 5 7.5
A 0.5 0.5 0 0 0 5.5 7
A 0.5 0.5 0 0 1 6 6.5
A 0.5 0.5 0 0 1 6.5 7
A 0.5 0.5 0 0 0 7 7.5
A 0.5 0.5 0 0 1 7.5 8
A 0.5 0.5 0 0 0 8 8.5
A 0.5 0.5 0 0 1 8.5 9
L 8.5 10
L 8.5 11
A 0.5 0.5 0 0 0 9 11.5
A 0.5 0.5 0 0 0 9.5 11
L 9.5 10
L 9.5 9
L 9.5 8
A 0.5 0.5 0 0 0 9 7.5
A 0.5 0.5 0 0 1 8.5 7
A 0.5 0.5 0 0 0 8 6.5
A 0.5 0.5 0 0 1 7.5 6
L 7.5 5
A 0.5 0.5 0 0 1 8 4.5
A 0.5 0.5 0 0 1 8.5 5
A 0.5 0.5 0 0 0 9 5.5
A 0.5 0.5 0 0 1 9.5 6
A 0.5 0.5 0 0 0 10 6.5
A 0.5 0.5 0 0 0 10.5 6
L 10.5 5
A 0.5 0.5 0 0 0 10 4.5
A 0.5 0.5 0 0 1 9.5 4
A 0.5 0.5 0 0 0 9 3.5
L 8 3.5
A 0.5 0.5 0 0 1 7.5 3
A 0.5 0.5 0 0 1 8 2.5
A 0.5 0.5 0 0 0 8.5 2
A 0.5 0.5 0 0 0 8 1.5
A 0.5 0.5 0 0 1 7.5 1
A 0.5 0.5 0 0 1 8 0.5
L 9 0.5
A 0.5 0.5 0 0 1 9.5 1
L 9.5 2
A 0.5 0.5 0 0 0 10 2.5
A 0.5 0.5 0 0 1 10.5 3
A 0.5 0.5 0 0 0 11 3.5
A 0.5 0.5 0 0 1 11.5 4
L 11.5 5
A 0.5 0.5 0 0 0 12 5.5
L 13 5.5
L 14 5.5
L 15 5.5
L 16 5.5
L 17 5.5
A 0.5 0.5 0 0 1 17.5 6
L 17.5 7
A 0.5 0.5 0 0 1 17 7.5
A 0.5 0.5 0 0 1 16.5 7
A 0.5 0.5 0 0 0 16 6.5
A 0.5 0.5 0 0 0 15.5 7
L 15.5 8
L 15.5 9
L 15.5 10
A 0.5 0.5 0 0 0 16 10.5
L 17 10.5
A 0.5 0.5 0 0 1 17.5 11
A 0.5 0.5 0 0 0 18 11.5
A 0.5 0.5 0 0 0 18.5 11
A 0.5 0.5 0 0 1 19 10.5" fill="white" fill-opacity="0" stroke="black" stroke-width="0.05" />
	<path d="M 19.5 9.5
L 19 9.5
L 18 9.5
L 17 9.5
A 0.5 0.5 0 0 1 16.5 9
A 0.5 0.5 0 0 1 17 8.5
L 18 8.5
" fill="white" fill-opacity="0" stroke="blue" stroke-width="0.05" />
	<path d="M 12.5 2.5
L 12 2.5
A 0.5 0.5 0 0 1 11.5 2
A 0.5 0.5 0 0 0 11 1.5
A 0.5 0.5 0 0 1 10.5 1
A 0.5 0.5 0 0 1 11 0.5
L 12 0.5
" fill="white" fill-opacity="0" stroke="blue" stroke-width="0.05" />
</svg>