<svg xmlns="http://www.w3.org/2000/svg" viewBox="0 0 6 6">
	<style>
		svg { background-color: white; }
	</style>
	<!-- 6 6 1 -->
	<path d="M 5 5 h 1 v 1 h -1 z" fill="#ff0000" fill-opacity="0.15" />
	<path d="M 5.5 6 v -0.5" fill="white" fill-opacity="0" stroke="black" stroke-width="0.05" stroke-linecap="round" />
	<path d="M 5 6 h 1 v 1 h -1 z" fill="#ff0000" fill-opacity="0.15" />
	<path d="M 5.5 6 v 0.5" fill="white" fill-opacity="0" stroke="black" stroke-width="0.05" stroke-linecap="round" />
	<!-- 1 3 8 -->
	<path d="M 0 2 h 1 v 1 h -1 z" fill="#ff0000" fill-opacity="0.15" />
	<path d="M 0.5 2.2 v 0.6 l -0.2 -0.2 l 0.2 0.2 l 0.2 -0.2" fill="white" fill-opacity="0" stroke="black" stroke-width="0.05" stroke-linecap="round" />
	<!-- 5 1 6 -->
	<path d="M 4 0 h 1 v 1 h -1 z" fill="#ff0000" fill-opacity="0.15" />
	<path d="M 4.2 0.5 h 0.6 l -0.2 -0.2 l 0.2 0.2 l -0.2 0.2" fill="white" fill-opacity="0" stroke="black" stroke-width="0.05" stroke-linecap="round" />
	<!-- 5 5 3 -->
	<path d="M 4 4 h 1 v 1 h -1 z" fill="#000000" fill-opacity="1" />
	<!-- 4 4 3 -->
	<path d="M 3 3 h 1 v 1 h -1 z" fill="#000000" fill-opacity="1" />
	<!-- 3 3 3 -->
	<path d="M 2 2 h 1 v 1 h -1 z" fill="#000000" fill-opacity="1" />
	<!-- 2 3 2 -->
	<path d="M 1 2 h 1 v 1 h -1 z" fill="#dddddd" fill-opacity="1" />
	<!--1-->
	<!--2-->
	<path fill="transparent" stroke="gray" stroke-width="0.02" d="M 0.01 0 v 6" />
	<path fill="transparent" stroke="gray" stroke-width="0.02" d="M 1 0 v 6" />
	<path fill="transparent" stroke="gray" stroke-width="0.02" d="M 2 0 v 6" />
	<path fill="transparent" stroke="gray" stroke-width="0.02" d="M 3 0 v 6" />
	<path fill="transparent" stroke="gray" stroke-width="0.02" d="M 4 0 v 6" />
	<path fill="transparent" stroke="gray" stroke-width="0.02" d="M 5 0 v 6" />
	<path fill="transparent" stroke="gray" stroke-width="0.02" d="M 5.99 0 v 6" />
	<path fill="transparent" stroke="gray" stroke-width="0.02" d="M 0 0.01 h 6" />
	<path fill="transparent" stroke="gray" stroke-width="0.02" d="M 0 1 h 6" />
	<path fill="transparent" stroke="gray" stroke-width="0.02" d="M 0 2 h 6" />
	<path fill="transparent" stroke="gray" stroke-width="0.02" d="M 0 3 h 6" />
	<path fill="transparent" stroke="gray" stroke-width="0.02" d="M 0 4 h 6" />
	<path fill="transparent" stroke="gray" stroke-width="0.02" d="M 0 5 h 6" />
	<path fill="transparent" stroke="gray" stroke-width="0.02" d="M 0 5.99 h 6" />

	<!--3-->
	<!-- 5 4 9 -->
	<!--4--><path d="M 4.5 3.5
L 4.5 4
L 4.5 5
A 0.5 0.5 0 0 1 4 5.5
A 0.5 0.5 0 0 1 3.5 5
L 3.5 4
A 0.5 0.5 0 0 0 3 3.5
A 0.5 0.5 0 0 1 2.5 3
A 0.5 0.5 0 0 0 2 2.5
A 0.5 0.5 0 0 1 1.5 2
L 1.5 1.5
" fill="white" fill-opacity="0" stroke="white" stroke-width="0.1" stroke-linecap="round" />
<path d="M 4.5 3.5
L 4.5 4
L 4.5 5
A 0.5 0.5 0 0 1 4 5.5
A 0.5 0.5 0 0 1 3.5 5
L 3.5 4
A 0.5 0.5 0 0 0 3 3.5
A 0.5 0.5 0 0 1 2.5 3
A 0.5 0.5 0 0 0 2 2.5
A 0.5 0.5 0 0 1 1.5 2
L 1.5 1.5
" fill="white" fill-opacity="0" stroke="blue" stroke-width="0.05" stroke-linecap="round" /><!--5-->
</svg>