<svg xmlns="http://www.w3.org/2000/svg" viewBox="0 0 5 5">
	<path d="M0,0 h5 v5 h-5 z" fill="#dddddd" />
	<rect width="1" height="1" x="0" y="0" fill="#ff0000" fill-opacity="0.15" />
	<rect width="1" height="1" x="1" y="0" fill="#ff0000" fill-opacity="0.15" />
	<rect width="1" height="1" x="2" y="0" fill="#ff0000" fill-opacity="0.15" />
	<rect width="1" height="1" x="2" y="1" fill="#ff0000" fill-opacity="0.15" />
	<rect width="1" height="1" x="2" y="2" fill="#ff0000" fill-opacity="0.15" />
	<rect width="1" height="1" x="3" y="2" fill="#ff0000" fill-opacity="0.15" />
	<rect width="1" height="1" x="3" y="1" fill="#0000ff" fill-opacity="0.15" />
	<rect width="1" height="1" x="3" y="0" fill="#0000ff" fill-opacity="0.15" />
	<rect width="1" height="1" x="4" y="0" fill="#0000ff" fill-opacity="0.15" />
	<rect width="1" height="1" x="4" y="1" fill="#0000ff" fill-opacity="0.15" />
	<rect width="1" height="1" x="4" y="2" fill="#0000ff" fill-opacity="0.15" />
	<rect width="1" height="1" x="4" y="3" fill="#0000ff" fill-opacity="0.15" />
	<rect width="1" height="1" x="3" y="3" fill="#0000ff" fill-opacity="0.15" />
	<rect width="1" height="1" x="2" y="3" fill="#0000ff" fill-opacity="0.15" />
	<rect width="1" height="1" x="1" y="3" fill="#0000ff" fill-opacity="0.15" />
	<rect width="1" height="1" x="1" y="2" fill="#0000ff" fill-opacity="0.15" />
	<rect width="1" height="1" x="1" y="1" fill="#0000ff" fill-opacity="0.15" />
	<rect width="1" height="1" x="0" y="1" fill="#0000ff" fill-opacity="0.15" />
	<rect width="1" height="1" x="0" y="2" fill="#0000ff" fill-opacity="0.15" />
	<rect width="1" height="1" x="0" y="3" fill="#0000ff" fill-opacity="0.15" />
	<rect width="1" height="1" x="0" y="4" fill="#0000ff" fill-opacity="0.15" />
	<rect width="1" height="1" x="1" y="4" fill="#0000ff" fill-opacity="0.15" />
	<rect width="1" height="1" x="2" y="4" fill="#0000ff" fill-opacity="0.15" />
	<rect width="1" height="1" x="3" y="4" fill="#0000ff" fill-opacity="0.15" />
	<rect width="1" height="1" x="4" y="4" fill="#0000ff" fill-opacity="0.15" />
	<rect width="1" height="1" x="3" y="1" fill="#000000" fill-opacity="0.1" />
	<path fill="transparent" stroke="gray" stroke-width="0.02" d="M 0.01 0 v 5" />
	<path fill="transparent" stroke="gray" stroke-width="0.02" d="M 0 0.01 h 5" />
	<path fill="transparent" stroke="gray" stroke-width="0.02" d="M 1 0 v 5" />
	<path fill="transparent" stroke="gray" stroke-width="0.02" d="M 0 1 h 5" />
	<path fill="transparent" stroke="gray" stroke-width="0.02" d="M 2 0 v 5" />
	<path fill="transparent" stroke="gray" stroke-width="0.02" d="M 0 2 h 5" />
	<path fill="transparent" stroke="gray" stroke-width="0.02" d="M 3 0 v 5" />
	<path fill="transparent" stroke="gray" stroke-width="0.02" d="M 0 3 h 5" />
	<path fill="transparent" stroke="gray" stroke-width="0.02" d="M 4 0 v 5" />
	<path fill="transparent" stroke="gray" stroke-width="0.02" d="M 0 4 h 5" />
	<path fill="transparent" stroke="gray" stroke-width="0.02" d="M 4.99 0 v 5" />
	<path fill="transparent" stroke="gray" stroke-width="0.02" d="M 0 4.99 h 5" />
	<path d="M 0.5 0.5
L 1 0.5
L 2 0.5
A 0.5 0.5 0 0 1 2.5 1
L 2.5 2
A 0.5 0.5 0 0 0 3 2.5
L 3.5 2.5" fill="white" fill-opacity="0" stroke="black" stroke-width="0.05" />
	<path d="M 3.5 1.5
L 3.5 1
A 0.5 0.5 0 0 1 4 0.5
A 0.5 0.5 0 0 1 4.5 1
L 4.5 2
L 4.5 3
A 0.5 0.5 0 0 1 4 3.5
L 3 3.5
L 2 3.5
A 0.5 0.5 0 0 1 1.5 3
L 1.5 2
A 0.5 0.5 0 0 0 1 1.5
A 0.5 0.5 0 0 0 0.5 2
L 0.5 3
L 0.5 4
A 0.5 0.5 0 0 0 1 4.5
L 2 4.5
L 3 4.5
L 4 4.5
L 4.5 4.5
" fill="white" fill-opacity="0" stroke="blue" stroke-width="0.05" />
</svg>