<svg xmlns="http://www.w3.org/2000/svg" viewBox="0 0 21 21">
	<path d="M0,0 h21 v21 h-21 z" fill="#dddddd" />
	<rect width="1" height="1" x="0" y="0" fill="#ff0000" fill-opacity="0.15" />
	<rect width="1" height="1" x="0" y="1" fill="#ff0000" fill-opacity="0.15" />
	<rect width="1" height="1" x="0" y="2" fill="#ff0000" fill-opacity="0.15" />
	<rect width="1" height="1" x="0" y="3" fill="#ff0000" fill-opacity="0.15" />
	<rect width="1" height="1" x="1" y="3" fill="#ff0000" fill-opacity="0.15" />
	<rect width="1" height="1" x="2" y="3" fill="#ff0000" fill-opacity="0.15" />
	<rect width="1" height="1" x="3" y="3" fill="#ff0000" fill-opacity="0.15" />
	<rect width="1" height="1" x="3" y="4" fill="#ff0000" fill-opacity="0.15" />
	<rect width="1" height="1" x="3" y="5" fill="#ff0000" fill-opacity="0.15" />
	<rect width="1" height="1" x="2" y="5" fill="#ff0000" fill-opacity="0.15" />
	<rect width="1" height="1" x="2" y="4" fill="#ff0000" fill-opacity="0.15" />
	<rect width="1" height="1" x="1" y="4" fill="#ff0000" fill-opacity="0.15" />
	<rect width="1" height="1" x="0" y="4" fill="#ff0000" fill-opacity="0.15" />
	<rect width="1" height="1" x="0" y="5" fill="#ff0000" fill-opacity="0.15" />
	<rect width="1" height="1" x="1" y="5" fill="#ff0000" fill-opacity="0.15" />
	<rect width="1" height="1" x="1" y="6" fill="#ff0000" fill-opacity="0.15" />
	<rect width="1" height="1" x="0" y="6" fill="#ff0000" fill-opacity="0.15" />
	<rect width="1" height="1" x="0" y="7" fill="#ff0000" fill-opacity="0.15" />
	<rect width="1" height="1" x="0" y="8" fill="#ff0000" fill-opacity="0.15" />
	<rect width="1" height="1" x="0" y="9" fill="#ff0000" fill-opacity="0.15" />
	<rect width="1" height="1" x="0" y="10" fill="#ff0000" fill-opacity="0.15" />
	<rect width="1" height="1" x="0" y="11" fill="#ff0000" fill-opacity="0.15" />
	<rect width="1" height="1" x="0" y="12" fill="#ff0000" fill-opacity="0.15" />
	<rect width="1" height="1" x="0" y="13" fill="#ff0000" fill-opacity="0.15" />
	<rect width="1" height="1" x="0" y="14" fill="#ff0000" fill-opacity="0.15" />
	<rect width="1" height="1" x="1" y="14" fill="#ff0000" fill-opacity="0.15" />
	<rect width="1" height="1" x="2" y="14" fill="#ff0000" fill-opacity="0.15" />
	<rect width="1" height="1" x="3" y="14" fill="#ff0000" fill-opacity="0.15" />
	<rect width="1" height="1" x="4" y="14" fill="#ff0000" fill-opacity="0.15" />
	<rect width="1" height="1" x="4" y="13" fill="#ff0000" fill-opacity="0.15" />
	<rect width="1" height="1" x="4" y="12" fill="#ff0000" fill-opacity="0.15" />
	<rect width="1" height="1" x="4" y="11" fill="#ff0000" fill-opacity="0.15" />
	<rect width="1" height="1" x="4" y="10" fill="#ff0000" fill-opacity="0.15" />
	<rect width="1" height="1" x="5" y="10" fill="#ff0000" fill-opacity="0.15" />
	<rect width="1" height="1" x="6" y="10" fill="#ff0000" fill-opacity="0.15" />
	<rect width="1" height="1" x="6" y="11" fill="#ff0000" fill-opacity="0.15" />
	<rect width="1" height="1" x="5" y="11" fill="#ff0000" fill-opacity="0.15" />
	<rect width="1" height="1" x="5" y="12" fill="#ff0000" fill-opacity="0.15" />
	<rect width="1" height="1" x="5" y="13" fill="#ff0000" fill-opacity="0.15" />
	<rect width="1" height="1" x="5" y="14" fill="#ff0000" fill-opacity="0.15" />
	<rect width="1" height="1" x="6" y="14" fill="#ff0000" fill-opacity="0.15" />
	<rect width="1" height="1" x="6" y="13" fill="#ff0000" fill-opacity="0.15" />
	<rect width="1" height="1" x="6" y="12" fill="#ff0000" fill-opacity="0.15" />
	<rect width="1" height="1" x="7" y="12" fill="#ff0000" fill-opacity="0.15" />
	<rect width="1" height="1" x="7" y="13" fill="#ff0000" fill-opacity="0.15" />
	<rect width="1" height="1" x="7" y="14" fill="#ff0000" fill-opacity="0.15" />
	<rect width="1" height="1" x="7" y="15" fill="#ff0000" fill-opacity="0.15" />
	<rect width="1" height="1" x="8" y="15" fill="#ff0000" fill-opacity="0.15" />
	<rect width="1" height="1" x="9" y="15" fill="#ff0000" fill-opacity="0.15" />
	<rect width="1" height="1" x="9" y="14" fill="#ff0000" fill-opacity="0.15" />
	<rect width="1" height="1" x="8" y="14" fill="#ff0000" fill-opacity="0.15" />
	<rect width="1" height="1" x="8" y="13" fill="#ff0000" fill-opacity="0.15" />
	<rect width="1" height="1" x="8" y="12" fill="#ff0000" fill-opacity="0.15" />
	<rect width="1" height="1" x="8" y="11" fill="#ff0000" fill-opacity="0.15" />
	<rect width="1" height="1" x="7" y="11" fill="#ff0000" fill-opacity="0.15" />
	<rect width="1" height="1" x="7" y="10" fill="#ff0000" fill-opacity="0.15" />
	<rect width="1" height="1" x="8" y="10" fill="#ff0000" fill-opacity="0.15" />
	<rect width="1" height="1" x="9" y="10" fill="#ff0000" fill-opacity="0.15" />
	<rect width="1" height="1" x="10" y="10" fill="#ff0000" fill-opacity="0.15" />
	<rect width="1" height="1" x="10" y="9" fill="#ff0000" fill-opacity="0.15" />
	<rect width="1" height="1" x="10" y="8" fill="#ff0000" fill-opacity="0.15" />
	<rect width="1" height="1" x="9" y="8" fill="#ff0000" fill-opacity="0.15" />
	<rect width="1" height="1" x="9" y="9" fill="#ff0000" fill-opacity="0.15" />
	<rect width="1" height="1" x="8" y="9" fill="#ff0000" fill-opacity="0.15" />
	<rect width="1" height="1" x="7" y="9" fill="#ff0000" fill-opacity="0.15" />
	<rect width="1" height="1" x="6" y="9" fill="#ff0000" fill-opacity="0.15" />
	<rect width="1" height="1" x="5" y="9" fill="#ff0000" fill-opacity="0.15" />
	<rect width="1" height="1" x="4" y="9" fill="#ff0000" fill-opacity="0.15" />
	<rect width="1" height="1" x="3" y="9" fill="#ff0000" fill-opacity="0.15" />
	<rect width="1" height="1" x="3" y="8" fill="#ff0000" fill-opacity="0.15" />
	<rect width="1" height="1" x="2" y="8" fill="#ff0000" fill-opacity="0.15" />
	<rect width="1" height="1" x="2" y="9" fill="#ff0000" fill-opacity="0.15" />
	<rect width="1" height="1" x="2" y="10" fill="#ff0000" fill-opacity="0.15" />
	<rect width="1" height="1" x="3" y="10" fill="#ff0000" fill-opacity="0.15" />
	<rect width="1" height="1" x="3" y="11" fill="#ff0000" fill-opacity="0.15" />
	<rect width="1" height="1" x="2" y="11" fill="#ff0000" fill-opacity="0.15" />
	<rect width="1" height="1" x="2" y="12" fill="#ff0000" fill-opacity="0.15" />
	<rect width="1" height="1" x="3" y="12" fill="#ff0000" fill-opacity="0.15" />
	<rect width="1" height="1" x="3" y="13" fill="#ff0000" fill-opacity="0.15" />
	<rect width="1" height="1" x="2" y="13" fill="#ff0000" fill-opacity="0.15" />
	<rect width="1" height="1" x="1" y="13" fill="#ff0000" fill-opacity="0.15" />
	<rect width="1" height="1" x="1" y="12" fill="#ff0000" fill-opacity="0.15" />
	<rect width="1" height="1" x="1" y="11" fill="#ff0000" fill-opacity="0.15" />
	<rect width="1" height="1" x="1" y="10" fill="#ff0000" fill-opacity="0.15" />
	<rect width="1" height="1" x="1" y="9" fill="#ff0000" fill-opacity="0.15" />
	<rect width="1" height="1" x="1" y="8" fill="#ff0000" fill-opacity="0.15" />
	<rect width="1" height="1" x="1" y="7" fill="#ff0000" fill-opacity="0.15" />
	<rect width="1" height="1" x="2" y="7" fill="#ff0000" fill-opacity="0.15" />
	<rect width="1" height="1" x="2" y="6" fill="#ff0000" fill-opacity="0.15" />
	<rect width="1" height="1" x="3" y="6" fill="#ff0000" fill-opacity="0.15" />
	<rect width="1" height="1" x="3" y="7" fill="#ff0000" fill-opacity="0.15" />
	<rect width="1" height="1" x="4" y="7" fill="#ff0000" fill-opacity="0.15" />
	<rect width="1" height="1" x="4" y="8" fill="#ff0000" fill-opacity="0.15" />
	<rect width="1" height="1" x="5" y="8" fill="#ff0000" fill-opacity="0.15" />
	<rect width="1" height="1" x="5" y="7" fill="#ff0000" fill-opacity="0.15" />
	<rect width="1" height="1" x="5" y="6" fill="#ff0000" fill-opacity="0.15" />
	<rect width="1" height="1" x="4" y="6" fill="#ff0000" fill-opacity="0.15" />
	<rect width="1" height="1" x="4" y="5" fill="#ff0000" fill-opacity="0.15" />
	<rect width="1" height="1" x="5" y="5" fill="#ff0000" fill-opacity="0.15" />
	<rect width="1" height="1" x="5" y="4" fill="#ff0000" fill-opacity="0.15" />
	<rect width="1" height="1" x="4" y="4" fill="#ff0000" fill-opacity="0.15" />
	<rect width="1" height="1" x="4" y="3" fill="#ff0000" fill-opacity="0.15" />
	<rect width="1" height="1" x="5" y="3" fill="#ff0000" fill-opacity="0.15" />
	<rect width="1" height="1" x="5" y="2" fill="#ff0000" fill-opacity="0.15" />
	<rect width="1" height="1" x="6" y="2" fill="#ff0000" fill-opacity="0.15" />
	<rect width="1" height="1" x="6" y="3" fill="#ff0000" fill-opacity="0.15" />
	<rect width="1" height="1" x="6" y="4" fill="#ff0000" fill-opacity="0.15" />
	<rect width="1" height="1" x="6" y="5" fill="#ff0000" fill-opacity="0.15" />
	<rect width="1" height="1" x="6" y="6" fill="#ff0000" fill-opacity="0.15" />
	<rect width="1" height="1" x="7" y="6" fill="#ff0000" fill-opacity="0.15" />
	<rect width="1" height="1" x="7" y="7" fill="#ff0000" fill-opacity="0.15" />
	<rect width="1" height="1" x="6" y="7" fill="#ff0000" fill-opacity="0.15" />
	<rect width="1" height="1" x="6" y="8" fill="#ff0000" fill-opacity="0.15" />
	<rect width="1" height="1" x="7" y="8" fill="#ff0000" fill-opacity="0.15" />
	<rect width="1" height="1" x="8" y="8" fill="#ff0000" fill-opacity="0.15" />
	<rect width="1" height="1" x="8" y="7" fill="#ff0000" fill-opacity="0.15" />
	<rect width="1" height="1" x="9" y="7" fill="#ff0000" fill-opacity="0.15" />
	<rect width="1" height="1" x="9" y="6" fill="#ff0000" fill-opacity="0.15" />
	<rect width="1" height="1" x="8" y="6" fill="#ff0000" fill-opacity="0.15" />
	<rect width="1" height="1" x="8" y="5" fill="#ff0000" fill-opacity="0.15" />
	<rect width="1" height="1" x="7" y="5" fill="#ff0000" fill-opacity="0.15" />
	<rect width="1" height="1" x="7" y="4" fill="#ff0000" fill-opacity="0.15" />
	<rect width="1" height="1" x="8" y="4" fill="#ff0000" fill-opacity="0.15" />
	<rect width="1" height="1" x="8" y="3" fill="#ff0000" fill-opacity="0.15" />
	<rect width="1" height="1" x="7" y="3" fill="#ff0000" fill-opacity="0.15" />
	<rect width="1" height="1" x="7" y="2" fill="#ff0000" fill-opacity="0.15" />
	<rect width="1" height="1" x="8" y="2" fill="#ff0000" fill-opacity="0.15" />
	<rect width="1" height="1" x="9" y="2" fill="#ff0000" fill-opacity="0.15" />
	<rect width="1" height="1" x="10" y="2" fill="#ff0000" fill-opacity="0.15" />
	<rect width="1" height="1" x="11" y="2" fill="#ff0000" fill-opacity="0.15" />
	<rect width="1" height="1" x="11" y="1" fill="#ff0000" fill-opacity="0.15" />
	<rect width="1" height="1" x="10" y="1" fill="#ff0000" fill-opacity="0.15" />
	<rect width="1" height="1" x="9" y="1" fill="#ff0000" fill-opacity="0.15" />
	<rect width="1" height="1" x="8" y="1" fill="#ff0000" fill-opacity="0.15" />
	<rect width="1" height="1" x="7" y="1" fill="#ff0000" fill-opacity="0.15" />
	<rect width="1" height="1" x="6" y="1" fill="#ff0000" fill-opacity="0.15" />
	<rect width="1" height="1" x="5" y="1" fill="#ff0000" fill-opacity="0.15" />
	<rect width="1" height="1" x="4" y="1" fill="#ff0000" fill-opacity="0.15" />
	<rect width="1" height="1" x="4" y="2" fill="#ff0000" fill-opacity="0.15" />
	<rect width="1" height="1" x="3" y="2" fill="#ff0000" fill-opacity="0.15" />
	<rect width="1" height="1" x="2" y="2" fill="#ff0000" fill-opacity="0.15" />
	<rect width="1" height="1" x="1" y="2" fill="#ff0000" fill-opacity="0.15" />
	<rect width="1" height="1" x="1" y="1" fill="#ff0000" fill-opacity="0.15" />
	<rect width="1" height="1" x="1" y="0" fill="#ff0000" fill-opacity="0.15" />
	<rect width="1" height="1" x="2" y="0" fill="#ff0000" fill-opacity="0.15" />
	<rect width="1" height="1" x="2" y="1" fill="#ff0000" fill-opacity="0.15" />
	<rect width="1" height="1" x="3" y="1" fill="#ff0000" fill-opacity="0.15" />
	<rect width="1" height="1" x="3" y="0" fill="#ff0000" fill-opacity="0.15" />
	<rect width="1" height="1" x="4" y="0" fill="#ff0000" fill-opacity="0.15" />
	<rect width="1" height="1" x="5" y="0" fill="#ff0000" fill-opacity="0.15" />
	<rect width="1" height="1" x="6" y="0" fill="#ff0000" fill-opacity="0.15" />
	<rect width="1" height="1" x="7" y="0" fill="#ff0000" fill-opacity="0.15" />
	<rect width="1" height="1" x="8" y="0" fill="#ff0000" fill-opacity="0.15" />
	<rect width="1" height="1" x="9" y="0" fill="#ff0000" fill-opacity="0.15" />
	<rect width="1" height="1" x="10" y="0" fill="#ff0000" fill-opacity="0.15" />
	<rect width="1" height="1" x="11" y="0" fill="#ff0000" fill-opacity="0.15" />
	<rect width="1" height="1" x="12" y="0" fill="#ff0000" fill-opacity="0.15" />
	<rect width="1" height="1" x="13" y="0" fill="#ff0000" fill-opacity="0.15" />
	<rect width="1" height="1" x="14" y="0" fill="#ff0000" fill-opacity="0.15" />
	<rect width="1" height="1" x="15" y="0" fill="#ff0000" fill-opacity="0.15" />
	<rect width="1" height="1" x="16" y="0" fill="#ff0000" fill-opacity="0.15" />
	<rect width="1" height="1" x="17" y="0" fill="#ff0000" fill-opacity="0.15" />
	<rect width="1" height="1" x="17" y="1" fill="#ff0000" fill-opacity="0.15" />
	<rect width="1" height="1" x="16" y="1" fill="#ff0000" fill-opacity="0.15" />
	<rect width="1" height="1" x="16" y="2" fill="#ff0000" fill-opacity="0.15" />
	<rect width="1" height="1" x="16" y="3" fill="#ff0000" fill-opacity="0.15" />
	<rect width="1" height="1" x="17" y="3" fill="#ff0000" fill-opacity="0.15" />
	<rect width="1" height="1" x="17" y="2" fill="#ff0000" fill-opacity="0.15" />
	<rect width="1" height="1" x="18" y="2" fill="#ff0000" fill-opacity="0.15" />
	<rect width="1" height="1" x="18" y="1" fill="#ff0000" fill-opacity="0.15" />
	<rect width="1" height="1" x="18" y="0" fill="#ff0000" fill-opacity="0.15" />
	<rect width="1" height="1" x="19" y="0" fill="#ff0000" fill-opacity="0.15" />
	<rect width="1" height="1" x="20" y="0" fill="#ff0000" fill-opacity="0.15" />
	<rect width="1" height="1" x="20" y="1" fill="#ff0000" fill-opacity="0.15" />
	<rect width="1" height="1" x="19" y="1" fill="#ff0000" fill-opacity="0.15" />
	<rect width="1" height="1" x="19" y="2" fill="#ff0000" fill-opacity="0.15" />
	<rect width="1" height="1" x="20" y="2" fill="#ff0000" fill-opacity="0.15" />
	<rect width="1" height="1" x="20" y="3" fill="#ff0000" fill-opacity="0.15" />
	<rect width="1" height="1" x="20" y="4" fill="#ff0000" fill-opacity="0.15" />
	<rect width="1" height="1" x="19" y="4" fill="#ff0000" fill-opacity="0.15" />
	<rect width="1" height="1" x="19" y="3" fill="#ff0000" fill-opacity="0.15" />
	<rect width="1" height="1" x="18" y="3" fill="#ff0000" fill-opacity="0.15" />
	<rect width="1" height="1" x="18" y="4" fill="#ff0000" fill-opacity="0.15" />
	<rect width="1" height="1" x="17" y="4" fill="#ff0000" fill-opacity="0.15" />
	<rect width="1" height="1" x="16" y="4" fill="#ff0000" fill-opacity="0.15" />
	<rect width="1" height="1" x="16" y="5" fill="#ff0000" fill-opacity="0.15" />
	<rect width="1" height="1" x="16" y="6" fill="#ff0000" fill-opacity="0.15" />
	<rect width="1" height="1" x="16" y="7" fill="#ff0000" fill-opacity="0.15" />
	<rect width="1" height="1" x="17" y="7" fill="#ff0000" fill-opacity="0.15" />
	<rect width="1" height="1" x="18" y="7" fill="#ff0000" fill-opacity="0.15" />
	<rect width="1" height="1" x="18" y="8" fill="#ff0000" fill-opacity="0.15" />
	<rect width="1" height="1" x="18" y="9" fill="#ff0000" fill-opacity="0.15" />
	<rect width="1" height="1" x="17" y="9" fill="#ff0000" fill-opacity="0.15" />
	<rect width="1" height="1" x="17" y="8" fill="#ff0000" fill-opacity="0.15" />
	<rect width="1" height="1" x="16" y="8" fill="#ff0000" fill-opacity="0.15" />
	<rect width="1" height="1" x="15" y="8" fill="#ff0000" fill-opacity="0.15" />
	<rect width="1" height="1" x="15" y="9" fill="#ff0000" fill-opacity="0.15" />
	<rect width="1" height="1" x="16" y="9" fill="#ff0000" fill-opacity="0.15" />
	<rect width="1" height="1" x="16" y="10" fill="#ff0000" fill-opacity="0.15" />
	<rect width="1" height="1" x="15" y="10" fill="#ff0000" fill-opacity="0.15" />
	<rect width="1" height="1" x="15" y="11" fill="#ff0000" fill-opacity="0.15" />
	<rect width="1" height="1" x="15" y="12" fill="#ff0000" fill-opacity="0.15" />
	<rect width="1" height="1" x="15" y="13" fill="#ff0000" fill-opacity="0.15" />
	<rect width="1" height="1" x="16" y="13" fill="#ff0000" fill-opacity="0.15" />
	<rect width="1" height="1" x="17" y="13" fill="#ff0000" fill-opacity="0.15" />
	<rect width="1" height="1" x="18" y="13" fill="#ff0000" fill-opacity="0.15" />
	<rect width="1" height="1" x="18" y="12" fill="#ff0000" fill-opacity="0.15" />
	<rect width="1" height="1" x="17" y="12" fill="#ff0000" fill-opacity="0.15" />
	<rect width="1" height="1" x="16" y="12" fill="#ff0000" fill-opacity="0.15" />
	<rect width="1" height="1" x="16" y="11" fill="#ff0000" fill-opacity="0.15" />
	<rect width="1" height="1" x="17" y="11" fill="#ff0000" fill-opacity="0.15" />
	<rect width="1" height="1" x="17" y="10" fill="#ff0000" fill-opacity="0.15" />
	<rect width="1" height="1" x="18" y="10" fill="#ff0000" fill-opacity="0.15" />
	<rect width="1" height="1" x="18" y="11" fill="#ff0000" fill-opacity="0.15" />
	<rect width="1" height="1" x="19" y="11" fill="#ff0000" fill-opacity="0.15" />
	<rect width="1" height="1" x="19" y="10" fill="#ff0000" fill-opacity="0.15" />
	<rect width="1" height="1" x="19" y="9" fill="#ff0000" fill-opacity="0.15" />
	<rect width="1" height="1" x="19" y="8" fill="#ff0000" fill-opacity="0.15" />
	<rect width="1" height="1" x="19" y="7" fill="#ff0000" fill-opacity="0.15" />
	<rect width="1" height="1" x="19" y="6" fill="#ff0000" fill-opacity="0.15" />
	<rect width="1" height="1" x="18" y="6" fill="#ff0000" fill-opacity="0.15" />
	<rect width="1" height="1" x="17" y="6" fill="#ff0000" fill-opacity="0.15" />
	<rect width="1" height="1" x="17" y="5" fill="#ff0000" fill-opacity="0.15" />
	<rect width="1" height="1" x="18" y="5" fill="#ff0000" fill-opacity="0.15" />
	<rect width="1" height="1" x="19" y="5" fill="#ff0000" fill-opacity="0.15" />
	<rect width="1" height="1" x="20" y="5" fill="#ff0000" fill-opacity="0.15" />
	<rect width="1" height="1" x="20" y="6" fill="#ff0000" fill-opacity="0.15" />
	<rect width="1" height="1" x="20" y="7" fill="#ff0000" fill-opacity="0.15" />
	<rect width="1" height="1" x="20" y="8" fill="#ff0000" fill-opacity="0.15" />
	<rect width="1" height="1" x="20" y="9" fill="#ff0000" fill-opacity="0.15" />
	<rect width="1" height="1" x="20" y="10" fill="#ff0000" fill-opacity="0.15" />
	<rect width="1" height="1" x="20" y="11" fill="#ff0000" fill-opacity="0.15" />
	<rect width="1" height="1" x="20" y="12" fill="#ff0000" fill-opacity="0.15" />
	<rect width="1" height="1" x="19" y="12" fill="#ff0000" fill-opacity="0.15" />
	<rect width="1" height="1" x="19" y="13" fill="#ff0000" fill-opacity="0.15" />
	<rect width="1" height="1" x="20" y="13" fill="#ff0000" fill-opacity="0.15" />
	<rect width="1" height="1" x="20" y="14" fill="#ff0000" fill-opacity="0.15" />
	<rect width="1" height="1" x="20" y="15" fill="#ff0000" fill-opacity="0.15" />
	<rect width="1" height="1" x="20" y="16" fill="#ff0000" fill-opacity="0.15" />
	<rect width="1" height="1" x="20" y="17" fill="#ff0000" fill-opacity="0.15" />
	<rect width="1" height="1" x="19" y="17" fill="#ff0000" fill-opacity="0.15" />
	<rect width="1" height="1" x="18" y="17" fill="#ff0000" fill-opacity="0.15" />
	<rect width="1" height="1" x="18" y="16" fill="#ff0000" fill-opacity="0.15" />
	<rect width="1" height="1" x="19" y="16" fill="#ff0000" fill-opacity="0.15" />
	<rect width="1" height="1" x="19" y="15" fill="#ff0000" fill-opacity="0.15" />
	<rect width="1" height="1" x="19" y="14" fill="#ff0000" fill-opacity="0.15" />
	<rect width="1" height="1" x="18" y="14" fill="#ff0000" fill-opacity="0.15" />
	<rect width="1" height="1" x="18" y="15" fill="#ff0000" fill-opacity="0.15" />
	<rect width="1" height="1" x="17" y="15" fill="#ff0000" fill-opacity="0.15" />
	<rect width="1" height="1" x="17" y="14" fill="#ff0000" fill-opacity="0.15" />
	<rect width="1" height="1" x="16" y="14" fill="#ff0000" fill-opacity="0.15" />
	<rect width="1" height="1" x="15" y="14" fill="#ff0000" fill-opacity="0.15" />
	<rect width="1" height="1" x="14" y="14" fill="#ff0000" fill-opacity="0.15" />
	<rect width="1" height="1" x="13" y="14" fill="#ff0000" fill-opacity="0.15" />
	<rect width="1" height="1" x="12" y="14" fill="#ff0000" fill-opacity="0.15" />
	<rect width="1" height="1" x="12" y="13" fill="#ff0000" fill-opacity="0.15" />
	<rect width="1" height="1" x="11" y="13" fill="#ff0000" fill-opacity="0.15" />
	<rect width="1" height="1" x="11" y="12" fill="#996600" fill-opacity="0.25" />
	<rect width="1" height="1" x="10" y="14" fill="#00ff00" fill-opacity="0.4" />
	<rect width="1" height="1" x="13" y="12" fill="#0000ff" fill-opacity="0.15" />
	<rect width="1" height="1" x="13" y="13" fill="#0000ff" fill-opacity="0.15" />
	<rect width="1" height="1" x="14" y="13" fill="#0000ff" fill-opacity="0.15" />
	<rect width="1" height="1" x="14" y="12" fill="#0000ff" fill-opacity="0.15" />
	<rect width="1" height="1" x="14" y="11" fill="#0000ff" fill-opacity="0.15" />
	<rect width="1" height="1" x="10" y="3" fill="#0000ff" fill-opacity="0.15" />
	<rect width="1" height="1" x="9" y="3" fill="#0000ff" fill-opacity="0.15" />
	<rect width="1" height="1" x="9" y="4" fill="#0000ff" fill-opacity="0.15" />
	<rect width="1" height="1" x="9" y="5" fill="#0000ff" fill-opacity="0.15" />
	<rect width="1" height="1" x="10" y="5" fill="#0000ff" fill-opacity="0.15" />
	<rect width="1" height="1" x="10" y="11" fill="#0000ff" fill-opacity="0.15" />
	<rect width="1" height="1" x="9" y="11" fill="#0000ff" fill-opacity="0.15" />
	<rect width="1" height="1" x="9" y="12" fill="#0000ff" fill-opacity="0.15" />
	<rect width="1" height="1" x="9" y="13" fill="#0000ff" fill-opacity="0.15" />
	<rect width="1" height="1" x="10" y="13" fill="#0000ff" fill-opacity="0.15" />
	<rect width="1" height="1" x="10" y="12" fill="#000000" fill-opacity="0.1" />
	<path fill="transparent" stroke="gray" stroke-width="0.02" d="M 1 0 v 21" />
	<path fill="transparent" stroke="gray" stroke-width="0.02" d="M 0 1 h 21" />
	<path fill="transparent" stroke="gray" stroke-width="0.02" d="M 2 0 v 21" />
	<path fill="transparent" stroke="gray" stroke-width="0.02" d="M 0 2 h 21" />
	<path fill="transparent" stroke="gray" stroke-width="0.02" d="M 3 0 v 21" />
	<path fill="transparent" stroke="gray" stroke-width="0.02" d="M 0 3 h 21" />
	<path fill="transparent" stroke="gray" stroke-width="0.02" d="M 4 0 v 21" />
	<path fill="transparent" stroke="gray" stroke-width="0.02" d="M 0 4 h 21" />
	<path fill="transparent" stroke="gray" stroke-width="0.02" d="M 5 0 v 21" />
	<path fill="transparent" stroke="gray" stroke-width="0.02" d="M 0 5 h 21" />
	<path fill="transparent" stroke="gray" stroke-width="0.02" d="M 6 0 v 21" />
	<path fill="transparent" stroke="gray" stroke-width="0.02" d="M 0 6 h 21" />
	<path fill="transparent" stroke="gray" stroke-width="0.02" d="M 7 0 v 21" />
	<path fill="transparent" stroke="gray" stroke-width="0.02" d="M 0 7 h 21" />
	<path fill="transparent" stroke="gray" stroke-width="0.02" d="M 8 0 v 21" />
	<path fill="transparent" stroke="gray" stroke-width="0.02" d="M 0 8 h 21" />
	<path fill="transparent" stroke="gray" stroke-width="0.02" d="M 9 0 v 21" />
	<path fill="transparent" stroke="gray" stroke-width="0.02" d="M 0 9 h 21" />
	<path fill="transparent" stroke="gray" stroke-width="0.02" d="M 10 0 v 21" />
	<path fill="transparent" stroke="gray" stroke-width="0.02" d="M 0 10 h 21" />
	<path fill="transparent" stroke="gray" stroke-width="0.02" d="M 11 0 v 21" />
	<path fill="transparent" stroke="gray" stroke-width="0.02" d="M 0 11 h 21" />
	<path fill="transparent" stroke="gray" stroke-width="0.02" d="M 12 0 v 21" />
	<path fill="transparent" stroke="gray" stroke-width="0.02" d="M 0 12 h 21" />
	<path fill="transparent" stroke="gray" stroke-width="0.02" d="M 13 0 v 21" />
	<path fill="transparent" stroke="gray" stroke-width="0.02" d="M 0 13 h 21" />
	<path fill="transparent" stroke="gray" stroke-width="0.02" d="M 14 0 v 21" />
	<path fill="transparent" stroke="gray" stroke-width="0.02" d="M 0 14 h 21" />
	<path fill="transparent" stroke="gray" stroke-width="0.02" d="M 15 0 v 21" />
	<path fill="transparent" stroke="gray" stroke-width="0.02" d="M 0 15 h 21" />
	<path fill="transparent" stroke="gray" stroke-width="0.02" d="M 16 0 v 21" />
	<path fill="transparent" stroke="gray" stroke-width="0.02" d="M 0 16 h 21" />
	<path fill="transparent" stroke="gray" stroke-width="0.02" d="M 17 0 v 21" />
	<path fill="transparent" stroke="gray" stroke-width="0.02" d="M 0 17 h 21" />
	<path fill="transparent" stroke="gray" stroke-width="0.02" d="M 18 0 v 21" />
	<path fill="transparent" stroke="gray" stroke-width="0.02" d="M 0 18 h 21" />
	<path fill="transparent" stroke="gray" stroke-width="0.02" d="M 19 0 v 21" />
	<path fill="transparent" stroke="gray" stroke-width="0.02" d="M 0 19 h 21" />
	<path fill="transparent" stroke="gray" stroke-width="0.02" d="M 20 0 v 21" />
	<path fill="transparent" stroke="gray" stroke-width="0.02" d="M 0 20 h 21" />
	<path d="M 0.5 0.5
L 0.5 1
L 0.5 2
L 0.5 3
A 0.5 0.5 0 0 0 1 3.5
L 2 3.5
L 3 3.5
A 0.5 0.5 0 0 1 3.5 4
L 3.5 5
A 0.5 0.5 0 0 1 3 5.5
A 0.5 0.5 0 0 1 2.5 5
A 0.5 0.5 0 0 0 2 4.5
L 1 4.5
A 0.5 0.5 0 0 0 0.5 5
A 0.5 0.5 0 0 0 1 5.5
A 0.5 0.5 0 0 1 1.5 6
A 0.5 0.5 0 0 1 1 6.5
A 0.5 0.5 0 0 0 0.5 7
L 0.5 8
L 0.5 9
L 0.5 10
L 0.5 11
L 0.5 12
L 0.5 13
L 0.5 14
A 0.5 0.5 0 0 0 1 14.5
L 2 14.5
L 3 14.5
L 4 14.5
A 0.5 0.5 0 0 0 4.5 14
L 4.5 13
L 4.5 12
L 4.5 11
A 0.5 0.5 0 0 1 5 10.5
L 6 10.5
A 0.5 0.5 0 0 1 6.5 11
A 0.5 0.5 0 0 1 6 11.5
A 0.5 0.5 0 0 0 5.5 12
L 5.5 13
L 5.5 14
A 0.5 0.5 0 0 0 6 14.5
A 0.5 0.5 0 0 0 6.5 14
L 6.5 13
A 0.5 0.5 0 0 1 7 12.5
A 0.5 0.5 0 0 1 7.5 13
L 7.5 14
L 7.5 15
A 0.5 0.5 0 0 0 8 15.5
L 9 15.5
A 0.5 0.5 0 0 0 9.5 15
A 0.5 0.5 0 0 0 9 14.5
A 0.5 0.5 0 0 1 8.5 14
L 8.5 13
L 8.5 12
A 0.5 0.5 0 0 0 8 11.5
A 0.5 0.5 0 0 1 7.5 11
A 0.5 0.5 0 0 1 8 10.5
L 9 10.5
L 10 10.5
A 0.5 0.5 0 0 0 10.5 10
L 10.5 9
A 0.5 0.5 0 0 0 10 8.5
A 0.5 0.5 0 0 0 9.5 9
A 0.5 0.5 0 0 1 9 9.5
L 8 9.5
L 7 9.5
L 6 9.5
L 5 9.5
L 4 9.5
A 0.5 0.5 0 0 1 3.5 9
A 0.5 0.5 0 0 0 3 8.5
A 0.5 0.5 0 0 0 2.5 9
L 2.5 10
A 0.5 0.5 0 0 0 3 10.5
A 0.5 0.5 0 0 1 3.5 11
A 0.5 0.5 0 0 1 3 11.5
A 0.5 0.5 0 0 0 2.5 12
A 0.5 0.5 0 0 0 3 12.5
A 0.5 0.5 0 0 1 3.5 13
A 0.5 0.5 0 0 1 3 13.5
L 2 13.5
A 0.5 0.5 0 0 1 1.5 13
L 1.5 12
L 1.5 11
L 1.5 10
L 1.5 9
L 1.5 8
A 0.5 0.5 0 0 1 2 7.5
A 0.5 0.5 0 0 0 2.5 7
A 0.5 0.5 0 0 1 3 6.5
A 0.5 0.5 0 0 1 3.5 7
A 0.5 0.5 0 0 0 4 7.5
A 0.5 0.5 0 0 1 4.5 8
A 0.5 0.5 0 0 0 5 8.5
A 0.5 0.5 0 0 0 5.5 8
L 5.5 7
A 0.5 0.5 0 0 0 5 6.5
A 0.5 0.5 0 0 1 4.5 6
A 0.5 0.5 0 0 1 5 5.5
A 0.5 0.5 0 0 0 5.5 5
A 0.5 0.5 0 0 0 5 4.5
A 0.5 0.5 0 0 1 4.5 4
A 0.5 0.5 0 0 1 5 3.5
A 0.5 0.5 0 0 0 5.5 3
A 0.5 0.5 0 0 1 6 2.5
A 0.5 0.5 0 0 1 6.5 3
L 6.5 4
L 6.5 5
L 6.5 6
A 0.5 0.5 0 0 0 7 6.5
A 0.5 0.5 0 0 1 7.5 7
A 0.5 0.5 0 0 1 7 7.5
A 0.5 0.5 0 0 0 6.5 8
A 0.5 0.5 0 0 0 7 8.5
L 8 8.5
A 0.5 0.5 0 0 0 8.5 8
A 0.5 0.5 0 0 1 9 7.5
A 0.5 0.5 0 0 0 9.5 7
A 0.5 0.5 0 0 0 9 6.5
A 0.5 0.5 0 0 1 8.5 6
A 0.5 0.5 0 0 0 8 5.5
A 0.5 0.5 0 0 1 7.5 5
A 0.5 0.5 0 0 1 8 4.5
A 0.5 0.5 0 0 0 8.5 4
A 0.5 0.5 0 0 0 8 3.5
A 0.5 0.5 0 0 1 7.5 3
A 0.5 0.5 0 0 1 8 2.5
L 9 2.5
L 10 2.5
L 11 2.5
A 0.5 0.5 0 0 0 11.5 2
A 0.5 0.5 0 0 0 11 1.5
L 10 1.5
L 9 1.5
L 8 1.5
L 7 1.5
L 6 1.5
L 5 1.5
A 0.5 0.5 0 0 0 4.5 2
A 0.5 0.5 0 0 1 4 2.5
L 3 2.5
L 2 2.5
A 0.5 0.5 0 0 1 1.5 2
L 1.5 1
A 0.5 0.5 0 0 1 2 0.5
A 0.5 0.5 0 0 1 2.5 1
A 0.5 0.5 0 0 0 3 1.5
A 0.5 0.5 0 0 0 3.5 1
A 0.5 0.5 0 0 1 4 0.5
L 5 0.5
L 6 0.5
L 7 0.5
L 8 0.5
L 9 0.5
L 10 0.5
L 11 0.5
L 12 0.5
L 13 0.5
L 14 0.5
L 15 0.5
L 16 0.5
L 17 0.5
A 0.5 0.5 0 0 1 17.5 1
A 0.5 0.5 0 0 1 17 1.5
A 0.5 0.5 0 0 0 16.5 2
L 16.5 3
A 0.5 0.5 0 0 0 17 3.5
A 0.5 0.5 0 0 0 17.5 3
A 0.5 0.5 0 0 1 18 2.5
A 0.5 0.5 0 0 0 18.5 2
L 18.5 1
A 0.5 0.5 0 0 1 19 0.5
L 20 0.5
A 0.5 0.5 0 0 1 20.5 1
A 0.5 0.5 0 0 1 20 1.5
A 0.5 0.5 0 0 0 19.5 2
A 0.5 0.5 0 0 0 20 2.5
A 0.5 0.5 0 0 1 20.5 3
L 20.5 4
A 0.5 0.5 0 0 1 20 4.5
A 0.5 0.5 0 0 1 19.5 4
A 0.5 0.5 0 0 0 19 3.5
A 0.5 0.5 0 0 0 18.5 4
A 0.5 0.5 0 0 1 18 4.5
L 17 4.5
A 0.5 0.5 0 0 0 16.5 5
L 16.5 6
L 16.5 7
A 0.5 0.5 0 0 0 17 7.5
L 18 7.5
A 0.5 0.5 0 0 1 18.5 8
L 18.5 9
A 0.5 0.5 0 0 1 18 9.5
A 0.5 0.5 0 0 1 17.5 9
A 0.5 0.5 0 0 0 17 8.5
L 16 8.5
A 0.5 0.5 0 0 0 15.5 9
A 0.5 0.5 0 0 0 16 9.5
A 0.5 0.5 0 0 1 16.5 10
A 0.5 0.5 0 0 1 16 10.5
A 0.5 0.5 0 0 0 15.5 11
L 15.5 12
L 15.5 13
A 0.5 0.5 0 0 0 16 13.5
L 17 13.5
L 18 13.5
A 0.5 0.5 0 0 0 18.5 13
A 0.5 0.5 0 0 0 18 12.5
L 17 12.5
A 0.5 0.5 0 0 1 16.5 12
A 0.5 0.5 0 0 1 17 11.5
A 0.5 0.5 0 0 0 17.5 11
A 0.5 0.5 0 0 1 18 10.5
A 0.5 0.5 0 0 1 18.5 11
A 0.5 0.5 0 0 0 19 11.5
A 0.5 0.5 0 0 0 19.5 11
L 19.5 10
L 19.5 9
L 19.5 8
L 19.5 7
A 0.5 0.5 0 0 0 19 6.5
L 18 6.5
A 0.5 0.5 0 0 1 17.5 6
A 0.5 0.5 0 0 1 18 5.5
L 19 5.5
L 20 5.5
A 0.5 0.5 0 0 1 20.5 6
L 20.5 7
L 20.5 8
L 20.5 9
L 20.5 10
L 20.5 11
L 20.5 12
A 0.5 0.5 0 0 1 20 12.5
A 0.5 0.5 0 0 0 19.5 13
A 0.5 0.5 0 0 0 20 13.5
A 0.5 0.5 0 0 1 20.5 14
L 20.5 15
L 20.5 16
L 20.5 17
A 0.5 0.5 0 0 1 20 17.5
L 19 17.5
A 0.5 0.5 0 0 1 18.5 17
A 0.5 0.5 0 0 1 19 16.5
A 0.5 0.5 0 0 0 19.5 16
L 19.5 15
A 0.5 0.5 0 0 0 19 14.5
A 0.5 0.5 0 0 0 18.5 15
A 0.5 0.5 0 0 1 18 15.5
A 0.5 0.5 0 0 1 17.5 15
A 0.5 0.5 0 0 0 17 14.5
L 16 14.5
L 15 14.5
L 14 14.5
L 13 14.5
A 0.5 0.5 0 0 1 12.5 14
A 0.5 0.5 0 0 0 12 13.5
A 0.5 0.5 0 0 1 11.5 13
L 11.5 12.5" fill="white" fill-opacity="0" stroke="black" stroke-width="0.05" />
	<path d="M 13.5 12.5
L 13.5 13
A 0.5 0.5 0 0 0 14 13.5
A 0.5 0.5 0 0 0 14.5 13
L 14.5 12
L 14.5 11.5
" fill="white" fill-opacity="0" stroke="blue" stroke-width="0.05" />
	<path d="M 10.5 3.5
L 10 3.5
A 0.5 0.5 0 0 0 9.5 4
L 9.5 5
A 0.5 0.5 0 0 0 10 5.5
L 10.5 5.5
" fill="white" fill-opacity="0" stroke="blue" stroke-width="0.05" />
	<path d="M 10.5 11.5
L 10 11.5
A 0.5 0.5 0 0 0 9.5 12
L 9.5 13
A 0.5 0.5 0 0 0 10 13.5
L 10.5 13.5
" fill="white" fill-opacity="0" stroke="blue" stroke-width="0.05" />
</svg>