<svg xmlns="http://www.w3.org/2000/svg" viewBox="0 0 9 9">
	<path d="M0,0 h9 v9 h-9 z" fill="#dddddd" />
	<rect width="1" height="1" x="0" y="0" fill="#ff0000" fill-opacity="0.15" />
	<rect width="1" height="1" x="1" y="0" fill="#ff0000" fill-opacity="0.15" />
	<rect width="1" height="1" x="2" y="0" fill="#ff0000" fill-opacity="0.15" />
	<rect width="1" height="1" x="3" y="0" fill="#ff0000" fill-opacity="0.15" />
	<rect width="1" height="1" x="4" y="0" fill="#ff0000" fill-opacity="0.15" />
	<rect width="1" height="1" x="5" y="0" fill="#ff0000" fill-opacity="0.15" />
	<rect width="1" height="1" x="6" y="0" fill="#ff0000" fill-opacity="0.15" />
	<rect width="1" height="1" x="7" y="0" fill="#ff0000" fill-opacity="0.15" />
	<rect width="1" height="1" x="8" y="0" fill="#ff0000" fill-opacity="0.15" />
	<rect width="1" height="1" x="8" y="1" fill="#ff0000" fill-opacity="0.15" />
	<rect width="1" height="1" x="8" y="2" fill="#ff0000" fill-opacity="0.15" />
	<rect width="1" height="1" x="8" y="3" fill="#ff0000" fill-opacity="0.15" />
	<rect width="1" height="1" x="8" y="4" fill="#ff0000" fill-opacity="0.15" />
	<rect width="1" height="1" x="8" y="5" fill="#ff0000" fill-opacity="0.15" />
	<rect width="1" height="1" x="8" y="6" fill="#ff0000" fill-opacity="0.15" />
	<rect width="1" height="1" x="8" y="7" fill="#ff0000" fill-opacity="0.15" />
	<rect width="1" height="1" x="7" y="7" fill="#ff0000" fill-opacity="0.15" />
	<rect width="1" height="1" x="6" y="7" fill="#ff0000" fill-opacity="0.15" />
	<rect width="1" height="1" x="5" y="7" fill="#ff0000" fill-opacity="0.15" />
	<rect width="1" height="1" x="4" y="7" fill="#ff0000" fill-opacity="0.15" />
	<rect width="1" height="1" x="3" y="7" fill="#ff0000" fill-opacity="0.15" />
	<rect width="1" height="1" x="2" y="7" fill="#ff0000" fill-opacity="0.15" />
	<rect width="1" height="1" x="1" y="7" fill="#ff0000" fill-opacity="0.15" />
	<rect width="1" height="1" x="1" y="6" fill="#996600" fill-opacity="0.25" />
	<rect width="1" height="1" x="2" y="6" fill="#996600" fill-opacity="0.25" />
	<rect width="1" height="1" x="2" y="5" fill="#996600" fill-opacity="0.25" />
	<rect width="1" height="1" x="2" y="4" fill="#996600" fill-opacity="0.25" />
	<rect width="1" height="1" x="7" y="8" fill="#00ff00" fill-opacity="0.4" />
	<rect width="1" height="1" x="0" y="6" fill="#00ff00" fill-opacity="0.4" />
	<rect width="1" height="1" x="2" y="3" fill="#000000" fill-opacity="0.1" />
	<rect width="1" height="1" x="3" y="4" fill="#000000" fill-opacity="0.1" />
	<path fill="transparent" stroke="gray" stroke-width="0.02" d="M 1 0 v 9" />
	<path fill="transparent" stroke="gray" stroke-width="0.02" d="M 0 1 h 9" />
	<path fill="transparent" stroke="gray" stroke-width="0.02" d="M 2 0 v 9" />
	<path fill="transparent" stroke="gray" stroke-width="0.02" d="M 0 2 h 9" />
	<path fill="transparent" stroke="gray" stroke-width="0.02" d="M 3 0 v 9" />
	<path fill="transparent" stroke="gray" stroke-width="0.02" d="M 0 3 h 9" />
	<path fill="transparent" stroke="gray" stroke-width="0.02" d="M 4 0 v 9" />
	<path fill="transparent" stroke="gray" stroke-width="0.02" d="M 0 4 h 9" />
	<path fill="transparent" stroke="gray" stroke-width="0.02" d="M 5 0 v 9" />
	<path fill="transparent" stroke="gray" stroke-width="0.02" d="M 0 5 h 9" />
	<path fill="transparent" stroke="gray" stroke-width="0.02" d="M 6 0 v 9" />
	<path fill="transparent" stroke="gray" stroke-width="0.02" d="M 0 6 h 9" />
	<path fill="transparent" stroke="gray" stroke-width="0.02" d="M 7 0 v 9" />
	<path fill="transparent" stroke="gray" stroke-width="0.02" d="M 0 7 h 9" />
	<path fill="transparent" stroke="gray" stroke-width="0.02" d="M 8 0 v 9" />
	<path fill="transparent" stroke="gray" stroke-width="0.02" d="M 0 8 h 9" />
	<path d="M 0.5 0.5
L 1 0.5
L 2 0.5
L 3 0.5
L 4 0.5
L 5 0.5
L 6 0.5
L 7 0.5
L 8 0.5
A 0.5 0.5 0 0 1 8.5 1
L 8.5 2
L 8.5 3
L 8.5 4
L 8.5 5
L 8.5 6
L 8.5 7
A 0.5 0.5 0 0 1 8 7.5
L 7 7.5
L 6 7.5
L 5 7.5
L 4 7.5
L 3 7.5
L 2 7.5
A 0.5 0.5 0 0 1 1.5 7
A 0.5 0.5 0 0 1 2 6.5
A 0.5 0.5 0 0 0 2.5 6
L 2.5 5
L 2.5 4.5" fill="white" fill-opacity="0" stroke="black" stroke-width="0.05" />
</svg>