<svg xmlns="http://www.w3.org/2000/svg" viewBox="0 0 11 11">
	<path d="M0,0 h11 v11 h-11 z" fill="#dddddd" />
	<rect width="1" height="1" x="0" y="0" fill="#ff0000" fill-opacity="0.15" />
	<rect width="1" height="1" x="0" y="1" fill="#ff0000" fill-opacity="0.15" />
	<rect width="1" height="1" x="0" y="2" fill="#ff0000" fill-opacity="0.15" />
	<rect width="1" height="1" x="0" y="3" fill="#ff0000" fill-opacity="0.15" />
	<rect width="1" height="1" x="0" y="4" fill="#ff0000" fill-opacity="0.15" />
	<rect width="1" height="1" x="0" y="5" fill="#ff0000" fill-opacity="0.15" />
	<rect width="1" height="1" x="0" y="6" fill="#ff0000" fill-opacity="0.15" />
	<rect width="1" height="1" x="0" y="7" fill="#ff0000" fill-opacity="0.15" />
	<rect width="1" height="1" x="1" y="7" fill="#ff0000" fill-opacity="0.15" />
	<rect width="1" height="1" x="2" y="7" fill="#ff0000" fill-opacity="0.15" />
	<rect width="1" height="1" x="2" y="6" fill="#ff0000" fill-opacity="0.15" />
	<rect width="1" height="1" x="1" y="6" fill="#ff0000" fill-opacity="0.15" />
	<rect width="1" height="1" x="1" y="5" fill="#ff0000" fill-opacity="0.15" />
	<rect width="1" height="1" x="2" y="5" fill="#ff0000" fill-opacity="0.15" />
	<rect width="1" height="1" x="3" y="5" fill="#ff0000" fill-opacity="0.15" />
	<rect width="1" height="1" x="3" y="6" fill="#ff0000" fill-opacity="0.15" />
	<rect width="1" height="1" x="4" y="6" fill="#ff0000" fill-opacity="0.15" />
	<rect width="1" height="1" x="5" y="6" fill="#ff0000" fill-opacity="0.15" />
	<rect width="1" height="1" x="6" y="6" fill="#ff0000" fill-opacity="0.15" />
	<rect width="1" height="1" x="7" y="6" fill="#ff0000" fill-opacity="0.15" />
	<rect width="1" height="1" x="7" y="7" fill="#ff0000" fill-opacity="0.15" />
	<rect width="1" height="1" x="7" y="8" fill="#ff0000" fill-opacity="0.15" />
	<rect width="1" height="1" x="6" y="8" fill="#ff0000" fill-opacity="0.15" />
	<rect width="1" height="1" x="6" y="7" fill="#ff0000" fill-opacity="0.15" />
	<rect width="1" height="1" x="5" y="7" fill="#ff0000" fill-opacity="0.15" />
	<rect width="1" height="1" x="4" y="7" fill="#ff0000" fill-opacity="0.15" />
	<rect width="1" height="1" x="3" y="7" fill="#ff0000" fill-opacity="0.15" />
	<rect width="1" height="1" x="3" y="8" fill="#ff0000" fill-opacity="0.15" />
	<rect width="1" height="1" x="2" y="8" fill="#ff0000" fill-opacity="0.15" />
	<rect width="1" height="1" x="2" y="9" fill="#ff0000" fill-opacity="0.15" />
	<rect width="1" height="1" x="1" y="9" fill="#0000ff" fill-opacity="0.15" />
	<rect width="1" height="1" x="1" y="8" fill="#0000ff" fill-opacity="0.15" />
	<rect width="1" height="1" x="0" y="8" fill="#0000ff" fill-opacity="0.15" />
	<rect width="1" height="1" x="0" y="9" fill="#0000ff" fill-opacity="0.15" />
	<rect width="1" height="1" x="0" y="10" fill="#0000ff" fill-opacity="0.15" />
	<rect width="1" height="1" x="1" y="10" fill="#0000ff" fill-opacity="0.15" />
	<rect width="1" height="1" x="2" y="10" fill="#0000ff" fill-opacity="0.15" />
	<rect width="1" height="1" x="3" y="10" fill="#0000ff" fill-opacity="0.15" />
	<rect width="1" height="1" x="3" y="9" fill="#0000ff" fill-opacity="0.15" />
	<rect width="1" height="1" x="4" y="9" fill="#0000ff" fill-opacity="0.15" />
	<rect width="1" height="1" x="4" y="8" fill="#0000ff" fill-opacity="0.15" />
	<rect width="1" height="1" x="5" y="8" fill="#0000ff" fill-opacity="0.15" />
	<rect width="1" height="1" x="5" y="9" fill="#0000ff" fill-opacity="0.15" />
	<rect width="1" height="1" x="1" y="9" fill="#000000" fill-opacity="0.1" />
	<path fill="transparent" stroke="gray" stroke-width="0.02" d="M 1 0 v 11" />
	<path fill="transparent" stroke="gray" stroke-width="0.02" d="M 0 1 h 11" />
	<path fill="transparent" stroke="gray" stroke-width="0.02" d="M 2 0 v 11" />
	<path fill="transparent" stroke="gray" stroke-width="0.02" d="M 0 2 h 11" />
	<path fill="transparent" stroke="gray" stroke-width="0.02" d="M 3 0 v 11" />
	<path fill="transparent" stroke="gray" stroke-width="0.02" d="M 0 3 h 11" />
	<path fill="transparent" stroke="gray" stroke-width="0.02" d="M 4 0 v 11" />
	<path fill="transparent" stroke="gray" stroke-width="0.02" d="M 0 4 h 11" />
	<path fill="transparent" stroke="gray" stroke-width="0.02" d="M 5 0 v 11" />
	<path fill="transparent" stroke="gray" stroke-width="0.02" d="M 0 5 h 11" />
	<path fill="transparent" stroke="gray" stroke-width="0.02" d="M 6 0 v 11" />
	<path fill="transparent" stroke="gray" stroke-width="0.02" d="M 0 6 h 11" />
	<path fill="transparent" stroke="gray" stroke-width="0.02" d="M 7 0 v 11" />
	<path fill="transparent" stroke="gray" stroke-width="0.02" d="M 0 7 h 11" />
	<path fill="transparent" stroke="gray" stroke-width="0.02" d="M 8 0 v 11" />
	<path fill="transparent" stroke="gray" stroke-width="0.02" d="M 0 8 h 11" />
	<path fill="transparent" stroke="gray" stroke-width="0.02" d="M 9 0 v 11" />
	<path fill="transparent" stroke="gray" stroke-width="0.02" d="M 0 9 h 11" />
	<path fill="transparent" stroke="gray" stroke-width="0.02" d="M 10 0 v 11" />
	<path fill="transparent" stroke="gray" stroke-width="0.02" d="M 0 10 h 11" />
	<path d="M 0.5 0.5
L 0.5 1
L 0.5 2
L 0.5 3
L 0.5 4
L 0.5 5
L 0.5 6
L 0.5 7
A 0.5 0.5 0 0 0 1 7.5
L 2 7.5
A 0.5 0.5 0 0 0 2.5 7
A 0.5 0.5 0 0 0 2 6.5
A 0.5 0.5 0 0 1 1.5 6
A 0.5 0.5 0 0 1 2 5.5
L 3 5.5
A 0.5 0.5 0 0 1 3.5 6
A 0.5 0.5 0 0 0 4 6.5
L 5 6.5
L 6 6.5
L 7 6.5
A 0.5 0.5 0 0 1 7.5 7
L 7.5 8
A 0.5 0.5 0 0 1 7 8.5
A 0.5 0.5 0 0 1 6.5 8
A 0.5 0.5 0 0 0 6 7.5
L 5 7.5
L 4 7.5
A 0.5 0.5 0 0 0 3.5 8
A 0.5 0.5 0 0 1 3 8.5
A 0.5 0.5 0 0 0 2.5 9
L 2.5 9.5" fill="white" fill-opacity="0" stroke="black" stroke-width="0.05" />
	<path d="M 1.5 9.5
L 1.5 9
A 0.5 0.5 0 0 0 1 8.5
A 0.5 0.5 0 0 0 0.5 9
L 0.5 10
A 0.5 0.5 0 0 0 1 10.5
L 2 10.5
L 3 10.5
A 0.5 0.5 0 0 0 3.5 10
A 0.5 0.5 0 0 1 4 9.5
A 0.5 0.5 0 0 0 4.5 9
A 0.5 0.5 0 0 1 5 8.5
A 0.5 0.5 0 0 1 5.5 9
L 5.5 9.5
" fill="white" fill-opacity="0" stroke="blue" stroke-width="0.05" />
</svg>