<svg xmlns="http://www.w3.org/2000/svg" viewBox="0 0 11 11">
	<path d="M0,0 h11 v11 h-11 z" fill="#dddddd" />
	<rect width="1" height="1" x="0" y="0" fill="#ff0000" fill-opacity="0.15" />
	<rect width="1" height="1" x="1" y="0" fill="#ff0000" fill-opacity="0.15" />
	<rect width="1" height="1" x="1" y="1" fill="#ff0000" fill-opacity="0.15" />
	<rect width="1" height="1" x="0" y="1" fill="#ff0000" fill-opacity="0.15" />
	<rect width="1" height="1" x="0" y="2" fill="#ff0000" fill-opacity="0.15" />
	<rect width="1" height="1" x="0" y="3" fill="#ff0000" fill-opacity="0.15" />
	<rect width="1" height="1" x="0" y="4" fill="#ff0000" fill-opacity="0.15" />
	<rect width="1" height="1" x="0" y="5" fill="#ff0000" fill-opacity="0.15" />
	<rect width="1" height="1" x="0" y="6" fill="#ff0000" fill-opacity="0.15" />
	<rect width="1" height="1" x="1" y="6" fill="#ff0000" fill-opacity="0.15" />
	<rect width="1" height="1" x="1" y="7" fill="#ff0000" fill-opacity="0.15" />
	<rect width="1" height="1" x="0" y="7" fill="#ff0000" fill-opacity="0.15" />
	<rect width="1" height="1" x="0" y="8" fill="#ff0000" fill-opacity="0.15" />
	<rect width="1" height="1" x="1" y="8" fill="#ff0000" fill-opacity="0.15" />
	<rect width="1" height="1" x="1" y="9" fill="#ff0000" fill-opacity="0.15" />
	<rect width="1" height="1" x="0" y="9" fill="#ff0000" fill-opacity="0.15" />
	<rect width="1" height="1" x="0" y="10" fill="#ff0000" fill-opacity="0.15" />
	<rect width="1" height="1" x="1" y="10" fill="#ff0000" fill-opacity="0.15" />
	<rect width="1" height="1" x="2" y="10" fill="#ff0000" fill-opacity="0.15" />
	<rect width="1" height="1" x="2" y="9" fill="#ff0000" fill-opacity="0.15" />
	<rect width="1" height="1" x="2" y="8" fill="#ff0000" fill-opacity="0.15" />
	<rect width="1" height="1" x="3" y="8" fill="#ff0000" fill-opacity="0.15" />
	<rect width="1" height="1" x="4" y="8" fill="#ff0000" fill-opacity="0.15" />
	<rect width="1" height="1" x="5" y="8" fill="#ff0000" fill-opacity="0.15" />
	<rect width="1" height="1" x="5" y="9" fill="#ff0000" fill-opacity="0.15" />
	<rect width="1" height="1" x="4" y="9" fill="#ff0000" fill-opacity="0.15" />
	<rect width="1" height="1" x="3" y="9" fill="#ff0000" fill-opacity="0.15" />
	<rect width="1" height="1" x="3" y="10" fill="#ff0000" fill-opacity="0.15" />
	<rect width="1" height="1" x="4" y="10" fill="#ff0000" fill-opacity="0.15" />
	<rect width="1" height="1" x="5" y="10" fill="#ff0000" fill-opacity="0.15" />
	<rect width="1" height="1" x="6" y="10" fill="#ff0000" fill-opacity="0.15" />
	<rect width="1" height="1" x="6" y="9" fill="#ff0000" fill-opacity="0.15" />
	<rect width="1" height="1" x="7" y="9" fill="#ff0000" fill-opacity="0.15" />
	<rect width="1" height="1" x="7" y="10" fill="#ff0000" fill-opacity="0.15" />
	<rect width="1" height="1" x="8" y="10" fill="#ff0000" fill-opacity="0.15" />
	<rect width="1" height="1" x="8" y="9" fill="#ff0000" fill-opacity="0.15" />
	<rect width="1" height="1" x="8" y="8" fill="#ff0000" fill-opacity="0.15" />
	<rect width="1" height="1" x="7" y="8" fill="#ff0000" fill-opacity="0.15" />
	<rect width="1" height="1" x="6" y="8" fill="#ff0000" fill-opacity="0.15" />
	<rect width="1" height="1" x="6" y="7" fill="#ff0000" fill-opacity="0.15" />
	<rect width="1" height="1" x="6" y="6" fill="#ff0000" fill-opacity="0.15" />
	<rect width="1" height="1" x="7" y="6" fill="#ff0000" fill-opacity="0.15" />
	<rect width="1" height="1" x="7" y="7" fill="#ff0000" fill-opacity="0.15" />
	<rect width="1" height="1" x="8" y="7" fill="#ff0000" fill-opacity="0.15" />
	<rect width="1" height="1" x="8" y="6" fill="#ff0000" fill-opacity="0.15" />
	<rect width="1" height="1" x="8" y="5" fill="#ff0000" fill-opacity="0.15" />
	<rect width="1" height="1" x="7" y="5" fill="#ff0000" fill-opacity="0.15" />
	<rect width="1" height="1" x="6" y="5" fill="#ff0000" fill-opacity="0.15" />
	<rect width="1" height="1" x="6" y="4" fill="#ff0000" fill-opacity="0.15" />
	<rect width="1" height="1" x="5" y="4" fill="#ff0000" fill-opacity="0.15" />
	<rect width="1" height="1" x="5" y="3" fill="#ff0000" fill-opacity="0.15" />
	<rect width="1" height="1" x="5" y="2" fill="#ff0000" fill-opacity="0.15" />
	<rect width="1" height="1" x="4" y="2" fill="#ff0000" fill-opacity="0.15" />
	<rect width="1" height="1" x="3" y="2" fill="#ff0000" fill-opacity="0.15" />
	<rect width="1" height="1" x="3" y="3" fill="#ff0000" fill-opacity="0.15" />
	<rect width="1" height="1" x="4" y="3" fill="#ff0000" fill-opacity="0.15" />
	<rect width="1" height="1" x="4" y="4" fill="#ff0000" fill-opacity="0.15" />
	<rect width="1" height="1" x="3" y="4" fill="#ff0000" fill-opacity="0.15" />
	<rect width="1" height="1" x="3" y="5" fill="#ff0000" fill-opacity="0.15" />
	<rect width="1" height="1" x="3" y="6" fill="#ff0000" fill-opacity="0.15" />
	<rect width="1" height="1" x="4" y="6" fill="#ff0000" fill-opacity="0.15" />
	<rect width="1" height="1" x="4" y="5" fill="#ff0000" fill-opacity="0.15" />
	<rect width="1" height="1" x="5" y="5" fill="#ff0000" fill-opacity="0.15" />
	<rect width="1" height="1" x="5" y="6" fill="#ff0000" fill-opacity="0.15" />
	<rect width="1" height="1" x="5" y="7" fill="#ff0000" fill-opacity="0.15" />
	<rect width="1" height="1" x="4" y="7" fill="#ff0000" fill-opacity="0.15" />
	<rect width="1" height="1" x="3" y="7" fill="#ff0000" fill-opacity="0.15" />
	<rect width="1" height="1" x="2" y="7" fill="#ff0000" fill-opacity="0.15" />
	<rect width="1" height="1" x="2" y="6" fill="#ff0000" fill-opacity="0.15" />
	<rect width="1" height="1" x="2" y="5" fill="#ff0000" fill-opacity="0.15" />
	<rect width="1" height="1" x="1" y="5" fill="#ff0000" fill-opacity="0.15" />
	<rect width="1" height="1" x="1" y="4" fill="#ff0000" fill-opacity="0.15" />
	<rect width="1" height="1" x="2" y="4" fill="#ff0000" fill-opacity="0.15" />
	<rect width="1" height="1" x="2" y="3" fill="#ff0000" fill-opacity="0.15" />
	<rect width="1" height="1" x="1" y="3" fill="#ff0000" fill-opacity="0.15" />
	<rect width="1" height="1" x="1" y="2" fill="#ff0000" fill-opacity="0.15" />
	<rect width="1" height="1" x="2" y="2" fill="#ff0000" fill-opacity="0.15" />
	<rect width="1" height="1" x="2" y="1" fill="#ff0000" fill-opacity="0.15" />
	<rect width="1" height="1" x="2" y="0" fill="#ff0000" fill-opacity="0.15" />
	<rect width="1" height="1" x="3" y="0" fill="#ff0000" fill-opacity="0.15" />
	<rect width="1" height="1" x="3" y="1" fill="#ff0000" fill-opacity="0.15" />
	<rect width="1" height="1" x="4" y="1" fill="#ff0000" fill-opacity="0.15" />
	<rect width="1" height="1" x="4" y="0" fill="#ff0000" fill-opacity="0.15" />
	<rect width="1" height="1" x="5" y="0" fill="#ff0000" fill-opacity="0.15" />
	<rect width="1" height="1" x="5" y="1" fill="#ff0000" fill-opacity="0.15" />
	<rect width="1" height="1" x="6" y="1" fill="#ff0000" fill-opacity="0.15" />
	<rect width="1" height="1" x="6" y="0" fill="#ff0000" fill-opacity="0.15" />
	<rect width="1" height="1" x="7" y="0" fill="#ff0000" fill-opacity="0.15" />
	<rect width="1" height="1" x="8" y="0" fill="#ff0000" fill-opacity="0.15" />
	<rect width="1" height="1" x="9" y="0" fill="#ff0000" fill-opacity="0.15" />
	<rect width="1" height="1" x="10" y="0" fill="#ff0000" fill-opacity="0.15" />
	<rect width="1" height="1" x="10" y="1" fill="#ff0000" fill-opacity="0.15" />
	<rect width="1" height="1" x="10" y="2" fill="#ff0000" fill-opacity="0.15" />
	<rect width="1" height="1" x="9" y="2" fill="#ff0000" fill-opacity="0.15" />
	<rect width="1" height="1" x="9" y="1" fill="#ff0000" fill-opacity="0.15" />
	<rect width="1" height="1" x="8" y="1" fill="#ff0000" fill-opacity="0.15" />
	<rect width="1" height="1" x="7" y="1" fill="#ff0000" fill-opacity="0.15" />
	<rect width="1" height="1" x="7" y="2" fill="#ff0000" fill-opacity="0.15" />
	<rect width="1" height="1" x="6" y="2" fill="#ff0000" fill-opacity="0.15" />
	<rect width="1" height="1" x="6" y="3" fill="#ff0000" fill-opacity="0.15" />
	<rect width="1" height="1" x="7" y="3" fill="#ff0000" fill-opacity="0.15" />
	<rect width="1" height="1" x="7" y="4" fill="#ff0000" fill-opacity="0.15" />
	<rect width="1" height="1" x="8" y="4" fill="#ff0000" fill-opacity="0.15" />
	<path d="M 10 4 h -1 v -0.25 h 0.75 v -0.75 h 0.25 z" fill="#008000" fill-opacity="0.25" />
	<path d="M 8 4 v -1 h 0.25 v 0.75 h 0.75 v 0.25 z" fill="#008000" fill-opacity="0.25" />
	<path d="M 8 2 h 1 v 0.25 h -0.75 v 0.75 h -0.25 z" fill="#008000" fill-opacity="0.25" />
	<path fill="transparent" stroke="gray" stroke-width="0.02" d="M 1 0 v 11" />
	<path fill="transparent" stroke="gray" stroke-width="0.02" d="M 0 1 h 11" />
	<path fill="transparent" stroke="gray" stroke-width="0.02" d="M 2 0 v 11" />
	<path fill="transparent" stroke="gray" stroke-width="0.02" d="M 0 2 h 11" />
	<path fill="transparent" stroke="gray" stroke-width="0.02" d="M 3 0 v 11" />
	<path fill="transparent" stroke="gray" stroke-width="0.02" d="M 0 3 h 11" />
	<path fill="transparent" stroke="gray" stroke-width="0.02" d="M 4 0 v 11" />
	<path fill="transparent" stroke="gray" stroke-width="0.02" d="M 0 4 h 11" />
	<path fill="transparent" stroke="gray" stroke-width="0.02" d="M 5 0 v 11" />
	<path fill="transparent" stroke="gray" stroke-width="0.02" d="M 0 5 h 11" />
	<path fill="transparent" stroke="gray" stroke-width="0.02" d="M 6 0 v 11" />
	<path fill="transparent" stroke="gray" stroke-width="0.02" d="M 0 6 h 11" />
	<path fill="transparent" stroke="gray" stroke-width="0.02" d="M 7 0 v 11" />
	<path fill="transparent" stroke="gray" stroke-width="0.02" d="M 0 7 h 11" />
	<path fill="transparent" stroke="gray" stroke-width="0.02" d="M 8 0 v 11" />
	<path fill="transparent" stroke="gray" stroke-width="0.02" d="M 0 8 h 11" />
	<path fill="transparent" stroke="gray" stroke-width="0.02" d="M 9 0 v 11" />
	<path fill="transparent" stroke="gray" stroke-width="0.02" d="M 0 9 h 11" />
	<path fill="transparent" stroke="gray" stroke-width="0.02" d="M 10 0 v 11" />
	<path fill="transparent" stroke="gray" stroke-width="0.02" d="M 0 10 h 11" />
	<path d="M 0.5 0.5
L 1 0.5
A 0.5 0.5 0 0 1 1.5 1
A 0.5 0.5 0 0 1 1 1.5
A 0.5 0.5 0 0 0 0.5 2
L 0.5 3
L 0.5 4
L 0.5 5
L 0.5 6
A 0.5 0.5 0 0 0 1 6.5
A 0.5 0.5 0 0 1 1.5 7
A 0.5 0.5 0 0 1 1 7.5
A 0.5 0.5 0 0 0 0.5 8
A 0.5 0.5 0 0 0 1 8.5
A 0.5 0.5 0 0 1 1.5 9
A 0.5 0.5 0 0 1 1 9.5
A 0.5 0.5 0 0 0 0.5 10
A 0.5 0.5 0 0 0 1 10.5
L 2 10.5
A 0.5 0.5 0 0 0 2.5 10
L 2.5 9
A 0.5 0.5 0 0 1 3 8.5
L 4 8.5
L 5 8.5
A 0.5 0.5 0 0 1 5.5 9
A 0.5 0.5 0 0 1 5 9.5
L 4 9.5
A 0.5 0.5 0 0 0 3.5 10
A 0.5 0.5 0 0 0 4 10.5
L 5 10.5
L 6 10.5
A 0.5 0.5 0 0 0 6.5 10
A 0.5 0.5 0 0 1 7 9.5
A 0.5 0.5 0 0 1 7.5 10
A 0.5 0.5 0 0 0 8 10.5
A 0.5 0.5 0 0 0 8.5 10
L 8.5 9
A 0.5 0.5 0 0 0 8 8.5
L 7 8.5
A 0.5 0.5 0 0 1 6.5 8
L 6.5 7
A 0.5 0.5 0 0 1 7 6.5
A 0.5 0.5 0 0 1 7.5 7
A 0.5 0.5 0 0 0 8 7.5
A 0.5 0.5 0 0 0 8.5 7
L 8.5 6
A 0.5 0.5 0 0 0 8 5.5
L 7 5.5
A 0.5 0.5 0 0 1 6.5 5
A 0.5 0.5 0 0 0 6 4.5
A 0.5 0.5 0 0 1 5.5 4
L 5.5 3
A 0.5 0.5 0 0 0 5 2.5
L 4 2.5
A 0.5 0.5 0 0 0 3.5 3
A 0.5 0.5 0 0 0 4 3.5
A 0.5 0.5 0 0 1 4.5 4
A 0.5 0.5 0 0 1 4 4.5
A 0.5 0.5 0 0 0 3.5 5
L 3.5 6
A 0.5 0.5 0 0 0 4 6.5
A 0.5 0.5 0 0 0 4.5 6
A 0.5 0.5 0 0 1 5 5.5
A 0.5 0.5 0 0 1 5.5 6
L 5.5 7
A 0.5 0.5 0 0 1 5 7.5
L 4 7.5
L 3 7.5
A 0.5 0.5 0 0 1 2.5 7
L 2.5 6
A 0.5 0.5 0 0 0 2 5.5
A 0.5 0.5 0 0 1 1.5 5
A 0.5 0.5 0 0 1 2 4.5
A 0.5 0.5 0 0 0 2.5 4
A 0.5 0.5 0 0 0 2 3.5
A 0.5 0.5 0 0 1 1.5 3
A 0.5 0.5 0 0 1 2 2.5
A 0.5 0.5 0 0 0 2.5 2
L 2.5 1
A 0.5 0.5 0 0 1 3 0.5
A 0.5 0.5 0 0 1 3.5 1
A 0.5 0.5 0 0 0 4 1.5
A 0.5 0.5 0 0 0 4.5 1
A 0.5 0.5 0 0 1 5 0.5
A 0.5 0.5 0 0 1 5.5 1
A 0.5 0.5 0 0 0 6 1.5
A 0.5 0.5 0 0 0 6.5 1
A 0.5 0.5 0 0 1 7 0.5
L 8 0.5
L 9 0.5
L 10 0.5
A 0.5 0.5 0 0 1 10.5 1
L 10.5 2
A 0.5 0.5 0 0 1 10 2.5
A 0.5 0.5 0 0 1 9.5 2
A 0.5 0.5 0 0 0 9 1.5
L 8 1.5
A 0.5 0.5 0 0 0 7.5 2
A 0.5 0.5 0 0 1 7 2.5
A 0.5 0.5 0 0 0 6.5 3
A 0.5 0.5 0 0 0 7 3.5
A 0.5 0.5 0 0 1 7.5 4
A 0.5 0.5 0 0 0 8 4.5
L 8.5 4.5" fill="white" fill-opacity="0" stroke="black" stroke-width="0.05" stroke-linecap="round" />
</svg>