<svg xmlns="http://www.w3.org/2000/svg" viewBox="0 0 9 9">
	<path d="M0,0 h9 v9 h-9 z" fill="#dddddd" />
	<rect width="1" height="1" x="0" y="0" fill="#ff0000" fill-opacity="0.15" />
	<rect width="1" height="1" x="1" y="0" fill="#ff0000" fill-opacity="0.15" />
	<rect width="1" height="1" x="2" y="0" fill="#ff0000" fill-opacity="0.15" />
	<rect width="1" height="1" x="3" y="0" fill="#ff0000" fill-opacity="0.15" />
	<rect width="1" height="1" x="4" y="0" fill="#ff0000" fill-opacity="0.15" />
	<rect width="1" height="1" x="5" y="0" fill="#ff0000" fill-opacity="0.15" />
	<rect width="1" height="1" x="6" y="0" fill="#ff0000" fill-opacity="0.15" />
	<rect width="1" height="1" x="7" y="0" fill="#ff0000" fill-opacity="0.15" />
	<rect width="1" height="1" x="8" y="0" fill="#ff0000" fill-opacity="0.15" />
	<rect width="1" height="1" x="8" y="1" fill="#ff0000" fill-opacity="0.15" />
	<rect width="1" height="1" x="8" y="2" fill="#ff0000" fill-opacity="0.15" />
	<rect width="1" height="1" x="8" y="3" fill="#ff0000" fill-opacity="0.15" />
	<rect width="1" height="1" x="7" y="3" fill="#ff0000" fill-opacity="0.15" />
	<rect width="1" height="1" x="7" y="4" fill="#ff0000" fill-opacity="0.15" />
	<rect width="1" height="1" x="8" y="4" fill="#ff0000" fill-opacity="0.15" />
	<rect width="1" height="1" x="8" y="5" fill="#ff0000" fill-opacity="0.15" />
	<rect width="1" height="1" x="7" y="5" fill="#ff0000" fill-opacity="0.15" />
	<rect width="1" height="1" x="6" y="5" fill="#ff0000" fill-opacity="0.15" />
	<rect width="1" height="1" x="6" y="4" fill="#ff0000" fill-opacity="0.15" />
	<rect width="1" height="1" x="5" y="4" fill="#ff0000" fill-opacity="0.15" />
	<rect width="1" height="1" x="4" y="4" fill="#ff0000" fill-opacity="0.15" />
	<rect width="1" height="1" x="4" y="3" fill="#ff0000" fill-opacity="0.15" />
	<rect width="1" height="1" x="4" y="2" fill="#ff0000" fill-opacity="0.15" />
	<rect width="1" height="1" x="5" y="2" fill="#ff0000" fill-opacity="0.15" />
	<rect width="1" height="1" x="5" y="3" fill="#ff0000" fill-opacity="0.15" />
	<rect width="1" height="1" x="6" y="3" fill="#ff0000" fill-opacity="0.15" />
	<rect width="1" height="1" x="6" y="2" fill="#ff0000" fill-opacity="0.15" />
	<rect width="1" height="1" x="7" y="2" fill="#ff0000" fill-opacity="0.15" />
	<rect width="1" height="1" x="7" y="1" fill="#ff0000" fill-opacity="0.15" />
	<rect width="1" height="1" x="6" y="1" fill="#ff0000" fill-opacity="0.15" />
	<rect width="1" height="1" x="5" y="1" fill="#ff0000" fill-opacity="0.15" />
	<rect width="1" height="1" x="4" y="1" fill="#ff0000" fill-opacity="0.15" />
	<rect width="1" height="1" x="3" y="1" fill="#ff0000" fill-opacity="0.15" />
	<rect width="1" height="1" x="2" y="1" fill="#ff0000" fill-opacity="0.15" />
	<rect width="1" height="1" x="1" y="1" fill="#ff0000" fill-opacity="0.15" />
	<rect width="1" height="1" x="0" y="1" fill="#ff0000" fill-opacity="0.15" />
	<rect width="1" height="1" x="0" y="2" fill="#ff0000" fill-opacity="0.15" />
	<rect width="1" height="1" x="0" y="3" fill="#ff0000" fill-opacity="0.15" />
	<rect width="1" height="1" x="0" y="4" fill="#ff0000" fill-opacity="0.15" />
	<rect width="1" height="1" x="0" y="5" fill="#ff0000" fill-opacity="0.15" />
	<rect width="1" height="1" x="0" y="6" fill="#ff0000" fill-opacity="0.15" />
	<rect width="1" height="1" x="0" y="7" fill="#ff0000" fill-opacity="0.15" />
	<rect width="1" height="1" x="0" y="8" fill="#ff0000" fill-opacity="0.15" />
	<rect width="1" height="1" x="1" y="8" fill="#ff0000" fill-opacity="0.15" />
	<rect width="1" height="1" x="1" y="7" fill="#ff0000" fill-opacity="0.15" />
	<rect width="1" height="1" x="2" y="7" fill="#ff0000" fill-opacity="0.15" />
	<rect width="1" height="1" x="2" y="8" fill="#ff0000" fill-opacity="0.15" />
	<rect width="1" height="1" x="3" y="8" fill="#ff0000" fill-opacity="0.15" />
	<rect width="1" height="1" x="3" y="7" fill="#ff0000" fill-opacity="0.15" />
	<rect width="1" height="1" x="1" y="3" fill="#0000ff" fill-opacity="0.15" />
	<rect width="1" height="1" x="1" y="2" fill="#0000ff" fill-opacity="0.15" />
	<rect width="1" height="1" x="2" y="2" fill="#0000ff" fill-opacity="0.15" />
	<rect width="1" height="1" x="3" y="2" fill="#0000ff" fill-opacity="0.15" />
	<rect width="1" height="1" x="3" y="3" fill="#0000ff" fill-opacity="0.15" />
	<path d="M 4 7 h -1 v -0.25 h 0.75 v -0.75 h 0.25 z" fill="#808000" fill-opacity="0.25" />
	<rect width="1" height="0.25" x="2" y="6.75" fill="#808000" fill-opacity="0.25" />
	<path d="M 1 7 v -1 h 0.25 v 0.75 h 0.75 v 0.25 z" fill="#808000" fill-opacity="0.25" />
	<rect width="0.25" height="1" x="1" y="5" fill="#808000" fill-opacity="0.25" />
	<rect width="0.25" height="1" x="1" y="4" fill="#808000" fill-opacity="0.25" />
	<rect width="0.25" height="1" x="1" y="3" fill="#808000" fill-opacity="0.25" />
	<path d="M 1 2 h 1 v 0.25 h -0.75 v 0.75 h -0.25 z" fill="#808000" fill-opacity="0.25" />
	<rect width="1" height="0.25" x="2" y="2" fill="#808000" fill-opacity="0.25" />
	<path d="M 4 2 v 1 h -0.25 v -0.75 h -0.75 v -0.25 z" fill="#808000" fill-opacity="0.25" />
	<rect width="0.25" height="1" x="3.75" y="3" fill="#808000" fill-opacity="0.25" />
	<rect width="0.25" height="1" x="3.75" y="4" fill="#808000" fill-opacity="0.25" />
	<rect width="0.25" height="1" x="3.75" y="5" fill="#808000" fill-opacity="0.25" />
	<path fill="transparent" stroke="gray" stroke-width="0.02" d="M 1 0 v 9" />
	<path fill="transparent" stroke="gray" stroke-width="0.02" d="M 0 1 h 9" />
	<path fill="transparent" stroke="gray" stroke-width="0.02" d="M 2 0 v 9" />
	<path fill="transparent" stroke="gray" stroke-width="0.02" d="M 0 2 h 9" />
	<path fill="transparent" stroke="gray" stroke-width="0.02" d="M 3 0 v 9" />
	<path fill="transparent" stroke="gray" stroke-width="0.02" d="M 0 3 h 9" />
	<path fill="transparent" stroke="gray" stroke-width="0.02" d="M 4 0 v 9" />
	<path fill="transparent" stroke="gray" stroke-width="0.02" d="M 0 4 h 9" />
	<path fill="transparent" stroke="gray" stroke-width="0.02" d="M 5 0 v 9" />
	<path fill="transparent" stroke="gray" stroke-width="0.02" d="M 0 5 h 9" />
	<path fill="transparent" stroke="gray" stroke-width="0.02" d="M 6 0 v 9" />
	<path fill="transparent" stroke="gray" stroke-width="0.02" d="M 0 6 h 9" />
	<path fill="transparent" stroke="gray" stroke-width="0.02" d="M 7 0 v 9" />
	<path fill="transparent" stroke="gray" stroke-width="0.02" d="M 0 7 h 9" />
	<path fill="transparent" stroke="gray" stroke-width="0.02" d="M 8 0 v 9" />
	<path fill="transparent" stroke="gray" stroke-width="0.02" d="M 0 8 h 9" />
	<path d="M 0.5 0.5
L 1 0.5
L 2 0.5
L 3 0.5
L 4 0.5
L 5 0.5
L 6 0.5
L 7 0.5
L 8 0.5
A 0.5 0.5 0 0 1 8.5 1
L 8.5 2
L 8.5 3
A 0.5 0.5 0 0 1 8 3.5
A 0.5 0.5 0 0 0 7.5 4
A 0.5 0.5 0 0 0 8 4.5
A 0.5 0.5 0 0 1 8.5 5
A 0.5 0.5 0 0 1 8 5.5
L 7 5.5
A 0.5 0.5 0 0 1 6.5 5
A 0.5 0.5 0 0 0 6 4.5
L 5 4.5
A 0.5 0.5 0 0 1 4.5 4
L 4.5 3
A 0.5 0.5 0 0 1 5 2.5
A 0.5 0.5 0 0 1 5.5 3
A 0.5 0.5 0 0 0 6 3.5
A 0.5 0.5 0 0 0 6.5 3
A 0.5 0.5 0 0 1 7 2.5
A 0.5 0.5 0 0 0 7.5 2
A 0.5 0.5 0 0 0 7 1.5
L 6 1.5
L 5 1.5
L 4 1.5
L 3 1.5
L 2 1.5
L 1 1.5
A 0.5 0.5 0 0 0 0.5 2
L 0.5 3
L 0.5 4
L 0.5 5
L 0.5 6
L 0.5 7
L 0.5 8
A 0.5 0.5 0 0 0 1 8.5
A 0.5 0.5 0 0 0 1.5 8
A 0.5 0.5 0 0 1 2 7.5
A 0.5 0.5 0 0 1 2.5 8
A 0.5 0.5 0 0 0 3 8.5
A 0.5 0.5 0 0 0 3.5 8
L 3.5 7.5" fill="white" fill-opacity="0" stroke="black" stroke-width="0.05" stroke-linecap="round" />
	<path d="M 1.5 3.5
L 1.5 3
A 0.5 0.5 0 0 1 2 2.5
L 3 2.5
A 0.5 0.5 0 0 1 3.5 3
L 3.5 3.5
" fill="white" fill-opacity="0" stroke="blue" stroke-width="0.05" stroke-linecap="round" />
</svg>