<svg xmlns="http://www.w3.org/2000/svg" viewBox="0 0 11 11">
	<path d="M0,0 h11 v11 h-11 z" fill="#dddddd" />
	<rect width="1" height="1" x="0" y="0" fill="#ff0000" fill-opacity="0.15" />
	<rect width="1" height="1" x="1" y="0" fill="#ff0000" fill-opacity="0.15" />
	<rect width="1" height="1" x="2" y="0" fill="#ff0000" fill-opacity="0.15" />
	<rect width="1" height="1" x="3" y="0" fill="#ff0000" fill-opacity="0.15" />
	<rect width="1" height="1" x="4" y="0" fill="#ff0000" fill-opacity="0.15" />
	<rect width="1" height="1" x="5" y="0" fill="#ff0000" fill-opacity="0.15" />
	<rect width="1" height="1" x="6" y="0" fill="#ff0000" fill-opacity="0.15" />
	<rect width="1" height="1" x="7" y="0" fill="#ff0000" fill-opacity="0.15" />
	<rect width="1" height="1" x="8" y="0" fill="#ff0000" fill-opacity="0.15" />
	<rect width="1" height="1" x="9" y="0" fill="#ff0000" fill-opacity="0.15" />
	<rect width="1" height="1" x="10" y="0" fill="#ff0000" fill-opacity="0.15" />
	<rect width="1" height="1" x="10" y="1" fill="#ff0000" fill-opacity="0.15" />
	<rect width="1" height="1" x="10" y="2" fill="#ff0000" fill-opacity="0.15" />
	<rect width="1" height="1" x="10" y="3" fill="#ff0000" fill-opacity="0.15" />
	<rect width="1" height="1" x="10" y="4" fill="#ff0000" fill-opacity="0.15" />
	<rect width="1" height="1" x="10" y="5" fill="#ff0000" fill-opacity="0.15" />
	<rect width="1" height="1" x="10" y="6" fill="#ff0000" fill-opacity="0.15" />
	<rect width="1" height="1" x="10" y="7" fill="#ff0000" fill-opacity="0.15" />
	<rect width="1" height="1" x="10" y="8" fill="#ff0000" fill-opacity="0.15" />
	<rect width="1" height="1" x="9" y="8" fill="#ff0000" fill-opacity="0.15" />
	<rect width="1" height="1" x="8" y="8" fill="#ff0000" fill-opacity="0.15" />
	<rect width="1" height="1" x="7" y="8" fill="#ff0000" fill-opacity="0.15" />
	<rect width="1" height="1" x="6" y="8" fill="#ff0000" fill-opacity="0.15" />
	<rect width="1" height="1" x="5" y="8" fill="#ff0000" fill-opacity="0.15" />
	<rect width="1" height="1" x="4" y="8" fill="#ff0000" fill-opacity="0.15" />
	<rect width="1" height="1" x="3" y="8" fill="#ff0000" fill-opacity="0.15" />
	<rect width="1" height="1" x="2" y="8" fill="#ff0000" fill-opacity="0.15" />
	<rect width="1" height="1" x="2" y="7" fill="#ff0000" fill-opacity="0.15" />
	<rect width="1" height="1" x="2" y="6" fill="#ff0000" fill-opacity="0.15" />
	<rect width="1" height="1" x="2" y="5" fill="#ff0000" fill-opacity="0.15" />
	<rect width="1" height="1" x="2" y="4" fill="#ff0000" fill-opacity="0.15" />
	<rect width="1" height="1" x="2" y="3" fill="#000000" fill-opacity="0.1" />
	<rect width="1" height="1" x="1" y="4" fill="#000000" fill-opacity="0.1" />
	<rect width="0.25" height="1" x="4" y="2" fill="#008000" fill-opacity="0.25" />
	<rect width="0.25" height="1" x="4" y="3" fill="#008000" fill-opacity="0.25" />
	<rect width="0.25" height="0.25" x="4" y="4" fill="#008000" fill-opacity="0.25" />
	<path d="M 3 4 h 1 v 0.25 h -0.75 v 0.75 h -0.25 z" fill="#008000" fill-opacity="0.25" />
	<rect width="0.25" height="1" x="3" y="5" fill="#008000" fill-opacity="0.25" />
	<rect width="0.25" height="1" x="3" y="6" fill="#008000" fill-opacity="0.25" />
	<path d="M 3 8 v -1 h 0.25 v 0.75 h 0.75 v 0.25 z" fill="#008000" fill-opacity="0.25" />
	<rect width="1" height="0.25" x="4" y="7.75" fill="#008000" fill-opacity="0.25" />
	<rect width="1" height="0.25" x="5" y="7.75" fill="#008000" fill-opacity="0.25" />
	<rect width="1" height="0.25" x="6" y="7.75" fill="#008000" fill-opacity="0.25" />
	<rect width="1" height="0.25" x="7" y="7.75" fill="#008000" fill-opacity="0.25" />
	<rect width="1" height="0.25" x="8" y="7.75" fill="#008000" fill-opacity="0.25" />
	<path d="M 10 8 h -1 v -0.25 h 0.75 v -0.75 h 0.25 z" fill="#008000" fill-opacity="0.25" />
	<rect width="0.25" height="1" x="9.75" y="6" fill="#008000" fill-opacity="0.25" />
	<rect width="0.25" height="1" x="9.75" y="5" fill="#008000" fill-opacity="0.25" />
	<rect width="0.25" height="1" x="9.75" y="4" fill="#008000" fill-opacity="0.25" />
	<rect width="0.25" height="1" x="9.75" y="3" fill="#008000" fill-opacity="0.25" />
	<rect width="0.25" height="1" x="9.75" y="2" fill="#008000" fill-opacity="0.25" />
	<path d="M 10 1 v 1 h -0.25 v -0.75 h -0.75 v -0.25 z" fill="#008000" fill-opacity="0.25" />
	<rect width="1" height="0.25" x="8" y="1" fill="#008000" fill-opacity="0.25" />
	<rect width="1" height="0.25" x="7" y="1" fill="#008000" fill-opacity="0.25" />
	<rect width="1" height="0.25" x="6" y="1" fill="#008000" fill-opacity="0.25" />
	<rect width="1" height="0.25" x="5" y="1" fill="#008000" fill-opacity="0.25" />
	<path d="M 4 1 h 1 v 0.25 h -0.75 v 0.75 h -0.25 z" fill="#008000" fill-opacity="0.25" />
	<path fill="transparent" stroke="gray" stroke-width="0.02" d="M 1 0 v 11" />
	<path fill="transparent" stroke="gray" stroke-width="0.02" d="M 0 1 h 11" />
	<path fill="transparent" stroke="gray" stroke-width="0.02" d="M 2 0 v 11" />
	<path fill="transparent" stroke="gray" stroke-width="0.02" d="M 0 2 h 11" />
	<path fill="transparent" stroke="gray" stroke-width="0.02" d="M 3 0 v 11" />
	<path fill="transparent" stroke="gray" stroke-width="0.02" d="M 0 3 h 11" />
	<path fill="transparent" stroke="gray" stroke-width="0.02" d="M 4 0 v 11" />
	<path fill="transparent" stroke="gray" stroke-width="0.02" d="M 0 4 h 11" />
	<path fill="transparent" stroke="gray" stroke-width="0.02" d="M 5 0 v 11" />
	<path fill="transparent" stroke="gray" stroke-width="0.02" d="M 0 5 h 11" />
	<path fill="transparent" stroke="gray" stroke-width="0.02" d="M 6 0 v 11" />
	<path fill="transparent" stroke="gray" stroke-width="0.02" d="M 0 6 h 11" />
	<path fill="transparent" stroke="gray" stroke-width="0.02" d="M 7 0 v 11" />
	<path fill="transparent" stroke="gray" stroke-width="0.02" d="M 0 7 h 11" />
	<path fill="transparent" stroke="gray" stroke-width="0.02" d="M 8 0 v 11" />
	<path fill="transparent" stroke="gray" stroke-width="0.02" d="M 0 8 h 11" />
	<path fill="transparent" stroke="gray" stroke-width="0.02" d="M 9 0 v 11" />
	<path fill="transparent" stroke="gray" stroke-width="0.02" d="M 0 9 h 11" />
	<path fill="transparent" stroke="gray" stroke-width="0.02" d="M 10 0 v 11" />
	<path fill="transparent" stroke="gray" stroke-width="0.02" d="M 0 10 h 11" />
	<path d="M 0.5 0.5
L 1 0.5
L 2 0.5
L 3 0.5
L 4 0.5
L 5 0.5
L 6 0.5
L 7 0.5
L 8 0.5
L 9 0.5
L 10 0.5
A 0.5 0.5 0 0 1 10.5 1
L 10.5 2
L 10.5 3
L 10.5 4
L 10.5 5
L 10.5 6
L 10.5 7
L 10.5 8
A 0.5 0.5 0 0 1 10 8.5
L 9 8.5
L 8 8.5
L 7 8.5
L 6 8.5
L 5 8.5
L 4 8.5
L 3 8.5
A 0.5 0.5 0 0 1 2.5 8
L 2.5 7
L 2.5 6
L 2.5 5
L 2.5 4.5" fill="white" fill-opacity="0" stroke="black" stroke-width="0.05" stroke-linecap="round" />
</svg>