<svg xmlns="http://www.w3.org/2000/svg" viewBox="0 0 13 13">
	<path d="M0,0 h13 v13 h-13 z" fill="#dddddd" />
	<rect width="1" height="1" x="0" y="0" fill="#ff0000" fill-opacity="0.15" />
	<rect width="1" height="1" x="1" y="0" fill="#ff0000" fill-opacity="0.15" />
	<rect width="1" height="1" x="2" y="0" fill="#ff0000" fill-opacity="0.15" />
	<rect width="1" height="1" x="3" y="0" fill="#ff0000" fill-opacity="0.15" />
	<rect width="1" height="1" x="4" y="0" fill="#ff0000" fill-opacity="0.15" />
	<rect width="1" height="1" x="4" y="1" fill="#ff0000" fill-opacity="0.15" />
	<rect width="1" height="1" x="3" y="1" fill="#ff0000" fill-opacity="0.15" />
	<rect width="1" height="1" x="3" y="2" fill="#ff0000" fill-opacity="0.15" />
	<rect width="1" height="1" x="3" y="3" fill="#ff0000" fill-opacity="0.15" />
	<rect width="1" height="1" x="3" y="4" fill="#ff0000" fill-opacity="0.15" />
	<rect width="1" height="1" x="3" y="5" fill="#ff0000" fill-opacity="0.15" />
	<rect width="1" height="1" x="4" y="5" fill="#ff0000" fill-opacity="0.15" />
	<rect width="1" height="1" x="4" y="6" fill="#ff0000" fill-opacity="0.15" />
	<rect width="1" height="1" x="4" y="7" fill="#ff0000" fill-opacity="0.15" />
	<rect width="1" height="1" x="4" y="8" fill="#ff0000" fill-opacity="0.15" />
	<rect width="1" height="1" x="4" y="9" fill="#ff0000" fill-opacity="0.15" />
	<rect width="1" height="1" x="5" y="9" fill="#ff0000" fill-opacity="0.15" />
	<rect width="1" height="1" x="6" y="9" fill="#ff0000" fill-opacity="0.15" />
	<rect width="1" height="1" x="7" y="9" fill="#ff0000" fill-opacity="0.15" />
	<rect width="1" height="1" x="8" y="9" fill="#ff0000" fill-opacity="0.15" />
	<rect width="1" height="1" x="8" y="8" fill="#ff0000" fill-opacity="0.15" />
	<rect width="1" height="1" x="8" y="7" fill="#ff0000" fill-opacity="0.15" />
	<rect width="1" height="1" x="8" y="6" fill="#ff0000" fill-opacity="0.15" />
	<rect width="1" height="1" x="8" y="5" fill="#ff0000" fill-opacity="0.15" />
	<rect width="1" height="1" x="8" y="4" fill="#ff0000" fill-opacity="0.15" />
	<rect width="1" height="1" x="7" y="4" fill="#ff0000" fill-opacity="0.15" />
	<rect width="1" height="1" x="7" y="7" fill="#0000ff" fill-opacity="0.15" />
	<rect width="1" height="1" x="7" y="8" fill="#0000ff" fill-opacity="0.15" />
	<rect width="1" height="1" x="6" y="8" fill="#0000ff" fill-opacity="0.15" />
	<rect width="1" height="1" x="5" y="8" fill="#0000ff" fill-opacity="0.15" />
	<rect width="1" height="1" x="5" y="7" fill="#0000ff" fill-opacity="0.15" />
	<rect width="1" height="1" x="5" y="4" fill="#0000ff" fill-opacity="0.15" />
	<rect width="1" height="1" x="4" y="4" fill="#0000ff" fill-opacity="0.15" />
	<rect width="1" height="1" x="4" y="3" fill="#0000ff" fill-opacity="0.15" />
	<rect width="1" height="1" x="4" y="2" fill="#0000ff" fill-opacity="0.15" />
	<rect width="1" height="1" x="5" y="2" fill="#0000ff" fill-opacity="0.15" />
	<rect width="1" height="1" x="2" y="2" fill="#0000ff" fill-opacity="0.15" />
	<rect width="1" height="1" x="2" y="1" fill="#0000ff" fill-opacity="0.15" />
	<rect width="1" height="1" x="1" y="1" fill="#0000ff" fill-opacity="0.15" />
	<rect width="1" height="1" x="0" y="1" fill="#0000ff" fill-opacity="0.15" />
	<rect width="1" height="1" x="0" y="2" fill="#0000ff" fill-opacity="0.15" />
	<rect width="1" height="1" x="6" y="4" fill="#000000" fill-opacity="0.1" />
	<rect width="1" height="1" x="7" y="5" fill="#000000" fill-opacity="0.1" />
	<path fill="transparent" stroke="gray" stroke-width="0.02" d="M 0.01 0 v 13" />
	<path fill="transparent" stroke="gray" stroke-width="0.02" d="M 0 0.01 h 13" />
	<path fill="transparent" stroke="gray" stroke-width="0.02" d="M 1 0 v 13" />
	<path fill="transparent" stroke="gray" stroke-width="0.02" d="M 0 1 h 13" />
	<path fill="transparent" stroke="gray" stroke-width="0.02" d="M 2 0 v 13" />
	<path fill="transparent" stroke="gray" stroke-width="0.02" d="M 0 2 h 13" />
	<path fill="transparent" stroke="gray" stroke-width="0.02" d="M 3 0 v 13" />
	<path fill="transparent" stroke="gray" stroke-width="0.02" d="M 0 3 h 13" />
	<path fill="transparent" stroke="gray" stroke-width="0.02" d="M 4 0 v 13" />
	<path fill="transparent" stroke="gray" stroke-width="0.02" d="M 0 4 h 13" />
	<path fill="transparent" stroke="gray" stroke-width="0.02" d="M 5 0 v 13" />
	<path fill="transparent" stroke="gray" stroke-width="0.02" d="M 0 5 h 13" />
	<path fill="transparent" stroke="gray" stroke-width="0.02" d="M 6 0 v 13" />
	<path fill="transparent" stroke="gray" stroke-width="0.02" d="M 0 6 h 13" />
	<path fill="transparent" stroke="gray" stroke-width="0.02" d="M 7 0 v 13" />
	<path fill="transparent" stroke="gray" stroke-width="0.02" d="M 0 7 h 13" />
	<path fill="transparent" stroke="gray" stroke-width="0.02" d="M 8 0 v 13" />
	<path fill="transparent" stroke="gray" stroke-width="0.02" d="M 0 8 h 13" />
	<path fill="transparent" stroke="gray" stroke-width="0.02" d="M 9 0 v 13" />
	<path fill="transparent" stroke="gray" stroke-width="0.02" d="M 0 9 h 13" />
	<path fill="transparent" stroke="gray" stroke-width="0.02" d="M 10 0 v 13" />
	<path fill="transparent" stroke="gray" stroke-width="0.02" d="M 0 10 h 13" />
	<path fill="transparent" stroke="gray" stroke-width="0.02" d="M 11 0 v 13" />
	<path fill="transparent" stroke="gray" stroke-width="0.02" d="M 0 11 h 13" />
	<path fill="transparent" stroke="gray" stroke-width="0.02" d="M 12 0 v 13" />
	<path fill="transparent" stroke="gray" stroke-width="0.02" d="M 0 12 h 13" />
	<path fill="transparent" stroke="gray" stroke-width="0.02" d="M 12.99 0 v 13" />
	<path fill="transparent" stroke="gray" stroke-width="0.02" d="M 0 12.99 h 13" />
	<path d="M 0.5 0.5
L 1 0.5
L 2 0.5
L 3 0.5
L 4 0.5
A 0.5 0.5 0 0 1 4.5 1
A 0.5 0.5 0 0 1 4 1.5
A 0.5 0.5 0 0 0 3.5 2
L 3.5 3
L 3.5 4
L 3.5 5
A 0.5 0.5 0 0 0 4 5.5
A 0.5 0.5 0 0 1 4.5 6
L 4.5 7
L 4.5 8
L 4.5 9
A 0.5 0.5 0 0 0 5 9.5
L 6 9.5
L 7 9.5
L 8 9.5
A 0.5 0.5 0 0 0 8.5 9
L 8.5 8
L 8.5 7
L 8.5 6
L 8.5 5
A 0.5 0.5 0 0 0 8 4.5
L 7.5 4.5" fill="white" fill-opacity="0" stroke="black" stroke-width="0.05" stroke-linecap="round" />
	<path d="M 7.5 7.5
L 7.5 8
A 0.5 0.5 0 0 1 7 8.5
L 6 8.5
A 0.5 0.5 0 0 1 5.5 8
L 5.5 7.5
" fill="white" fill-opacity="0" stroke="blue" stroke-width="0.05" stroke-linecap="round" />
	<path d="M 5.5 4.5
L 5 4.5
A 0.5 0.5 0 0 1 4.5 4
L 4.5 3
A 0.5 0.5 0 0 1 5 2.5
L 5.5 2.5
" fill="white" fill-opacity="0" stroke="blue" stroke-width="0.05" stroke-linecap="round" />
	<path d="M 2.5 2.5
L 2.5 2
A 0.5 0.5 0 0 0 2 1.5
L 1 1.5
A 0.5 0.5 0 0 0 0.5 2
L 0.5 2.5
" fill="white" fill-opacity="0" stroke="blue" stroke-width="0.05" stroke-linecap="round" />
</svg>