<svg xmlns="http://www.w3.org/2000/svg" viewBox="0 0 25 25">
	<path d="M0,0 h25 v25 h-25 z" fill="#dddddd" />
	<rect width="1" height="1" x="0" y="0" fill="#ff0000" fill-opacity="0.15" />
	<rect width="1" height="1" x="1" y="0" fill="#ff0000" fill-opacity="0.15" />
	<rect width="1" height="1" x="2" y="0" fill="#ff0000" fill-opacity="0.15" />
	<rect width="1" height="1" x="3" y="0" fill="#ff0000" fill-opacity="0.15" />
	<rect width="1" height="1" x="4" y="0" fill="#ff0000" fill-opacity="0.15" />
	<rect width="1" height="1" x="5" y="0" fill="#ff0000" fill-opacity="0.15" />
	<rect width="1" height="1" x="6" y="0" fill="#ff0000" fill-opacity="0.15" />
	<rect width="1" height="1" x="7" y="0" fill="#ff0000" fill-opacity="0.15" />
	<rect width="1" height="1" x="8" y="0" fill="#ff0000" fill-opacity="0.15" />
	<rect width="1" height="1" x="8" y="1" fill="#ff0000" fill-opacity="0.15" />
	<rect width="1" height="1" x="8" y="2" fill="#ff0000" fill-opacity="0.15" />
	<rect width="1" height="1" x="8" y="3" fill="#ff0000" fill-opacity="0.15" />
	<rect width="1" height="1" x="8" y="4" fill="#ff0000" fill-opacity="0.15" />
	<rect width="1" height="1" x="8" y="5" fill="#ff0000" fill-opacity="0.15" />
	<rect width="1" height="1" x="7" y="5" fill="#ff0000" fill-opacity="0.15" />
	<rect width="1" height="1" x="6" y="5" fill="#ff0000" fill-opacity="0.15" />
	<rect width="1" height="1" x="6" y="6" fill="#ff0000" fill-opacity="0.15" />
	<rect width="1" height="1" x="5" y="6" fill="#ff0000" fill-opacity="0.15" />
	<rect width="1" height="1" x="5" y="7" fill="#ff0000" fill-opacity="0.15" />
	<rect width="1" height="1" x="5" y="8" fill="#ff0000" fill-opacity="0.15" />
	<rect width="1" height="1" x="5" y="9" fill="#ff0000" fill-opacity="0.15" />
	<rect width="1" height="1" x="4" y="9" fill="#ff0000" fill-opacity="0.15" />
	<rect width="1" height="1" x="4" y="10" fill="#ff0000" fill-opacity="0.15" />
	<rect width="1" height="1" x="4" y="11" fill="#ff0000" fill-opacity="0.15" />
	<rect width="1" height="1" x="4" y="12" fill="#ff0000" fill-opacity="0.15" />
	<rect width="1" height="1" x="4" y="13" fill="#ff0000" fill-opacity="0.15" />
	<rect width="1" height="1" x="5" y="13" fill="#ff0000" fill-opacity="0.15" />
	<rect width="1" height="1" x="6" y="13" fill="#ff0000" fill-opacity="0.15" />
	<rect width="1" height="1" x="7" y="13" fill="#ff0000" fill-opacity="0.15" />
	<rect width="1" height="1" x="8" y="13" fill="#ff0000" fill-opacity="0.15" />
	<rect width="1" height="1" x="9" y="13" fill="#ff0000" fill-opacity="0.15" />
	<rect width="1" height="1" x="9" y="12" fill="#ff0000" fill-opacity="0.15" />
	<rect width="1" height="1" x="9" y="11" fill="#ff0000" fill-opacity="0.15" />
	<rect width="1" height="1" x="10" y="11" fill="#ff0000" fill-opacity="0.15" />
	<rect width="1" height="1" x="11" y="11" fill="#ff0000" fill-opacity="0.15" />
	<rect width="1" height="1" x="12" y="11" fill="#ff0000" fill-opacity="0.15" />
	<rect width="1" height="1" x="13" y="11" fill="#ff0000" fill-opacity="0.15" />
	<rect width="1" height="1" x="14" y="11" fill="#ff0000" fill-opacity="0.15" />
	<rect width="1" height="1" x="15" y="11" fill="#ff0000" fill-opacity="0.15" />
	<rect width="1" height="1" x="15" y="12" fill="#ff0000" fill-opacity="0.15" />
	<rect width="1" height="1" x="15" y="13" fill="#ff0000" fill-opacity="0.15" />
	<rect width="1" height="1" x="16" y="13" fill="#ff0000" fill-opacity="0.15" />
	<rect width="1" height="1" x="17" y="13" fill="#ff0000" fill-opacity="0.15" />
	<rect width="1" height="1" x="18" y="13" fill="#ff0000" fill-opacity="0.15" />
	<rect width="1" height="1" x="19" y="13" fill="#ff0000" fill-opacity="0.15" />
	<rect width="1" height="1" x="20" y="13" fill="#ff0000" fill-opacity="0.15" />
	<rect width="1" height="1" x="20" y="12" fill="#ff0000" fill-opacity="0.15" />
	<rect width="1" height="1" x="20" y="11" fill="#ff0000" fill-opacity="0.15" />
	<rect width="1" height="1" x="20" y="10" fill="#ff0000" fill-opacity="0.15" />
	<rect width="1" height="1" x="20" y="9" fill="#ff0000" fill-opacity="0.15" />
	<rect width="1" height="1" x="19" y="9" fill="#ff0000" fill-opacity="0.15" />
	<rect width="1" height="1" x="19" y="8" fill="#ff0000" fill-opacity="0.15" />
	<rect width="1" height="1" x="19" y="7" fill="#ff0000" fill-opacity="0.15" />
	<rect width="1" height="1" x="19" y="6" fill="#ff0000" fill-opacity="0.15" />
	<rect width="1" height="1" x="18" y="6" fill="#ff0000" fill-opacity="0.15" />
	<rect width="1" height="1" x="18" y="5" fill="#ff0000" fill-opacity="0.15" />
	<rect width="1" height="1" x="17" y="5" fill="#ff0000" fill-opacity="0.15" />
	<rect width="1" height="1" x="16" y="5" fill="#ff0000" fill-opacity="0.15" />
	<rect width="1" height="1" x="16" y="4" fill="#ff0000" fill-opacity="0.15" />
	<rect width="1" height="1" x="15" y="4" fill="#ff0000" fill-opacity="0.15" />
	<rect width="1" height="1" x="14" y="4" fill="#ff0000" fill-opacity="0.15" />
	<rect width="1" height="1" x="13" y="4" fill="#ff0000" fill-opacity="0.15" />
	<rect width="1" height="1" x="12" y="4" fill="#ff0000" fill-opacity="0.15" />
	<rect width="1" height="1" x="12" y="5" fill="#ff0000" fill-opacity="0.15" />
	<rect width="1" height="1" x="12" y="6" fill="#ff0000" fill-opacity="0.15" />
	<rect width="1" height="1" x="12" y="7" fill="#ff0000" fill-opacity="0.15" />
	<rect width="1" height="1" x="12" y="8" fill="#ff0000" fill-opacity="0.15" />
	<rect width="1" height="1" x="13" y="8" fill="#ff0000" fill-opacity="0.15" />
	<rect width="1" height="1" x="13" y="7" fill="#ff0000" fill-opacity="0.15" />
	<rect width="1" height="1" x="13" y="6" fill="#ff0000" fill-opacity="0.15" />
	<rect width="1" height="1" x="13" y="5" fill="#ff0000" fill-opacity="0.15" />
	<rect width="1" height="1" x="14" y="5" fill="#ff0000" fill-opacity="0.15" />
	<rect width="1" height="1" x="15" y="5" fill="#ff0000" fill-opacity="0.15" />
	<rect width="1" height="1" x="15" y="6" fill="#ff0000" fill-opacity="0.15" />
	<rect width="1" height="1" x="14" y="6" fill="#ff0000" fill-opacity="0.15" />
	<rect width="1" height="1" x="14" y="7" fill="#ff0000" fill-opacity="0.15" />
	<rect width="1" height="1" x="14" y="8" fill="#ff0000" fill-opacity="0.15" />
	<rect width="1" height="1" x="15" y="8" fill="#ff0000" fill-opacity="0.15" />
	<rect width="1" height="1" x="15" y="7" fill="#ff0000" fill-opacity="0.15" />
	<rect width="1" height="1" x="16" y="7" fill="#ff0000" fill-opacity="0.15" />
	<rect width="1" height="1" x="16" y="6" fill="#ff0000" fill-opacity="0.15" />
	<rect width="1" height="1" x="17" y="6" fill="#ff0000" fill-opacity="0.15" />
	<rect width="1" height="1" x="17" y="7" fill="#ff0000" fill-opacity="0.15" />
	<rect width="1" height="1" x="18" y="7" fill="#ff0000" fill-opacity="0.15" />
	<rect width="1" height="1" x="18" y="8" fill="#ff0000" fill-opacity="0.15" />
	<rect width="1" height="1" x="18" y="9" fill="#ff0000" fill-opacity="0.15" />
	<rect width="1" height="1" x="18" y="10" fill="#ff0000" fill-opacity="0.15" />
	<rect width="1" height="1" x="19" y="10" fill="#ff0000" fill-opacity="0.15" />
	<rect width="1" height="1" x="19" y="11" fill="#ff0000" fill-opacity="0.15" />
	<rect width="1" height="1" x="19" y="12" fill="#ff0000" fill-opacity="0.15" />
	<rect width="1" height="1" x="18" y="12" fill="#ff0000" fill-opacity="0.15" />
	<rect width="1" height="1" x="18" y="11" fill="#ff0000" fill-opacity="0.15" />
	<rect width="1" height="1" x="17" y="11" fill="#ff0000" fill-opacity="0.15" />
	<rect width="1" height="1" x="17" y="12" fill="#ff0000" fill-opacity="0.15" />
	<rect width="1" height="1" x="16" y="12" fill="#ff0000" fill-opacity="0.15" />
	<rect width="1" height="1" x="16" y="11" fill="#ff0000" fill-opacity="0.15" />
	<rect width="1" height="1" x="16" y="10" fill="#ff0000" fill-opacity="0.15" />
	<rect width="1" height="1" x="17" y="10" fill="#ff0000" fill-opacity="0.15" />
	<rect width="1" height="1" x="17" y="9" fill="#ff0000" fill-opacity="0.15" />
	<rect width="1" height="1" x="17" y="8" fill="#ff0000" fill-opacity="0.15" />
	<rect width="1" height="1" x="16" y="8" fill="#ff0000" fill-opacity="0.15" />
	<rect width="1" height="1" x="16" y="9" fill="#ff0000" fill-opacity="0.15" />
	<rect width="1" height="1" x="15" y="9" fill="#ff0000" fill-opacity="0.15" />
	<rect width="1" height="1" x="15" y="10" fill="#ff0000" fill-opacity="0.15" />
	<rect width="1" height="1" x="14" y="10" fill="#ff0000" fill-opacity="0.15" />
	<rect width="1" height="1" x="14" y="9" fill="#ff0000" fill-opacity="0.15" />
	<rect width="1" height="1" x="13" y="9" fill="#ff0000" fill-opacity="0.15" />
	<rect width="1" height="1" x="13" y="10" fill="#ff0000" fill-opacity="0.15" />
	<rect width="1" height="1" x="12" y="10" fill="#ff0000" fill-opacity="0.15" />
	<rect width="1" height="1" x="12" y="9" fill="#ff0000" fill-opacity="0.15" />
	<rect width="1" height="1" x="11" y="9" fill="#ff0000" fill-opacity="0.15" />
	<rect width="1" height="1" x="11" y="10" fill="#ff0000" fill-opacity="0.15" />
	<rect width="1" height="1" x="10" y="10" fill="#ff0000" fill-opacity="0.15" />
	<rect width="1" height="1" x="9" y="10" fill="#ff0000" fill-opacity="0.15" />
	<rect width="1" height="1" x="8" y="10" fill="#ff0000" fill-opacity="0.15" />
	<rect width="1" height="1" x="8" y="11" fill="#ff0000" fill-opacity="0.15" />
	<rect width="1" height="1" x="8" y="12" fill="#ff0000" fill-opacity="0.15" />
	<rect width="1" height="1" x="7" y="12" fill="#ff0000" fill-opacity="0.15" />
	<rect width="1" height="1" x="6" y="12" fill="#ff0000" fill-opacity="0.15" />
	<rect width="1" height="1" x="5" y="12" fill="#0000ff" fill-opacity="0.15" />
	<rect width="1" height="1" x="5" y="11" fill="#0000ff" fill-opacity="0.15" />
	<rect width="1" height="1" x="5" y="10" fill="#0000ff" fill-opacity="0.15" />
	<rect width="1" height="1" x="6" y="10" fill="#0000ff" fill-opacity="0.15" />
	<path fill="transparent" stroke="gray" stroke-width="0.02" d="M 0.01 0 v 25" />
	<path fill="transparent" stroke="gray" stroke-width="0.02" d="M 0 0.01 h 25" />
	<path fill="transparent" stroke="gray" stroke-width="0.02" d="M 1 0 v 25" />
	<path fill="transparent" stroke="gray" stroke-width="0.02" d="M 0 1 h 25" />
	<path fill="transparent" stroke="gray" stroke-width="0.02" d="M 2 0 v 25" />
	<path fill="transparent" stroke="gray" stroke-width="0.02" d="M 0 2 h 25" />
	<path fill="transparent" stroke="gray" stroke-width="0.02" d="M 3 0 v 25" />
	<path fill="transparent" stroke="gray" stroke-width="0.02" d="M 0 3 h 25" />
	<path fill="transparent" stroke="gray" stroke-width="0.02" d="M 4 0 v 25" />
	<path fill="transparent" stroke="gray" stroke-width="0.02" d="M 0 4 h 25" />
	<path fill="transparent" stroke="gray" stroke-width="0.02" d="M 5 0 v 25" />
	<path fill="transparent" stroke="gray" stroke-width="0.02" d="M 0 5 h 25" />
	<path fill="transparent" stroke="gray" stroke-width="0.02" d="M 6 0 v 25" />
	<path fill="transparent" stroke="gray" stroke-width="0.02" d="M 0 6 h 25" />
	<path fill="transparent" stroke="gray" stroke-width="0.02" d="M 7 0 v 25" />
	<path fill="transparent" stroke="gray" stroke-width="0.02" d="M 0 7 h 25" />
	<path fill="transparent" stroke="gray" stroke-width="0.02" d="M 8 0 v 25" />
	<path fill="transparent" stroke="gray" stroke-width="0.02" d="M 0 8 h 25" />
	<path fill="transparent" stroke="gray" stroke-width="0.02" d="M 9 0 v 25" />
	<path fill="transparent" stroke="gray" stroke-width="0.02" d="M 0 9 h 25" />
	<path fill="transparent" stroke="gray" stroke-width="0.02" d="M 10 0 v 25" />
	<path fill="transparent" stroke="gray" stroke-width="0.02" d="M 0 10 h 25" />
	<path fill="transparent" stroke="gray" stroke-width="0.02" d="M 11 0 v 25" />
	<path fill="transparent" stroke="gray" stroke-width="0.02" d="M 0 11 h 25" />
	<path fill="transparent" stroke="gray" stroke-width="0.02" d="M 12 0 v 25" />
	<path fill="transparent" stroke="gray" stroke-width="0.02" d="M 0 12 h 25" />
	<path fill="transparent" stroke="gray" stroke-width="0.02" d="M 13 0 v 25" />
	<path fill="transparent" stroke="gray" stroke-width="0.02" d="M 0 13 h 25" />
	<path fill="transparent" stroke="gray" stroke-width="0.02" d="M 14 0 v 25" />
	<path fill="transparent" stroke="gray" stroke-width="0.02" d="M 0 14 h 25" />
	<path fill="transparent" stroke="gray" stroke-width="0.02" d="M 15 0 v 25" />
	<path fill="transparent" stroke="gray" stroke-width="0.02" d="M 0 15 h 25" />
	<path fill="transparent" stroke="gray" stroke-width="0.02" d="M 16 0 v 25" />
	<path fill="transparent" stroke="gray" stroke-width="0.02" d="M 0 16 h 25" />
	<path fill="transparent" stroke="gray" stroke-width="0.02" d="M 17 0 v 25" />
	<path fill="transparent" stroke="gray" stroke-width="0.02" d="M 0 17 h 25" />
	<path fill="transparent" stroke="gray" stroke-width="0.02" d="M 18 0 v 25" />
	<path fill="transparent" stroke="gray" stroke-width="0.02" d="M 0 18 h 25" />
	<path fill="transparent" stroke="gray" stroke-width="0.02" d="M 19 0 v 25" />
	<path fill="transparent" stroke="gray" stroke-width="0.02" d="M 0 19 h 25" />
	<path fill="transparent" stroke="gray" stroke-width="0.02" d="M 20 0 v 25" />
	<path fill="transparent" stroke="gray" stroke-width="0.02" d="M 0 20 h 25" />
	<path fill="transparent" stroke="gray" stroke-width="0.02" d="M 21 0 v 25" />
	<path fill="transparent" stroke="gray" stroke-width="0.02" d="M 0 21 h 25" />
	<path fill="transparent" stroke="gray" stroke-width="0.02" d="M 22 0 v 25" />
	<path fill="transparent" stroke="gray" stroke-width="0.02" d="M 0 22 h 25" />
	<path fill="transparent" stroke="gray" stroke-width="0.02" d="M 23 0 v 25" />
	<path fill="transparent" stroke="gray" stroke-width="0.02" d="M 0 23 h 25" />
	<path fill="transparent" stroke="gray" stroke-width="0.02" d="M 24 0 v 25" />
	<path fill="transparent" stroke="gray" stroke-width="0.02" d="M 0 24 h 25" />
	<path fill="transparent" stroke="gray" stroke-width="0.02" d="M 24.99 0 v 25" />
	<path fill="transparent" stroke="gray" stroke-width="0.02" d="M 0 24.99 h 25" />
	<path d="M 0.5 0.5
L 1 0.5
L 2 0.5
L 3 0.5
L 4 0.5
L 5 0.5
L 6 0.5
L 7 0.5
L 8 0.5
A 0.5 0.5 0 0 1 8.5 1
L 8.5 2
L 8.5 3
L 8.5 4
L 8.5 5
A 0.5 0.5 0 0 1 8 5.5
L 7 5.5
A 0.5 0.5 0 0 0 6.5 6
A 0.5 0.5 0 0 1 6 6.5
A 0.5 0.5 0 0 0 5.5 7
L 5.5 8
L 5.5 9
A 0.5 0.5 0 0 1 5 9.5
A 0.5 0.5 0 0 0 4.5 10
L 4.5 11
L 4.5 12
L 4.5 13
A 0.5 0.5 0 0 0 5 13.5
L 6 13.5
L 7 13.5
L 8 13.5
L 9 13.5
A 0.5 0.5 0 0 0 9.5 13
L 9.5 12
A 0.5 0.5 0 0 1 10 11.5
L 11 11.5
L 12 11.5
L 13 11.5
L 14 11.5
L 15 11.5
A 0.5 0.5 0 0 1 15.5 12
L 15.5 13
A 0.5 0.5 0 0 0 16 13.5
L 17 13.5
L 18 13.5
L 19 13.5
L 20 13.5
A 0.5 0.5 0 0 0 20.5 13
L 20.5 12
L 20.5 11
L 20.5 10
A 0.5 0.5 0 0 0 20 9.5
A 0.5 0.5 0 0 1 19.5 9
L 19.5 8
L 19.5 7
A 0.5 0.5 0 0 0 19 6.5
A 0.5 0.5 0 0 1 18.5 6
A 0.5 0.5 0 0 0 18 5.5
L 17 5.5
A 0.5 0.5 0 0 1 16.5 5
A 0.5 0.5 0 0 0 16 4.5
L 15 4.5
L 14 4.5
L 13 4.5
A 0.5 0.5 0 0 0 12.5 5
L 12.5 6
L 12.5 7
L 12.5 8
A 0.5 0.5 0 0 0 13 8.5
A 0.5 0.5 0 0 0 13.5 8
L 13.5 7
L 13.5 6
A 0.5 0.5 0 0 1 14 5.5
L 15 5.5
A 0.5 0.5 0 0 1 15.5 6
A 0.5 0.5 0 0 1 15 6.5
A 0.5 0.5 0 0 0 14.5 7
L 14.5 8
A 0.5 0.5 0 0 0 15 8.5
A 0.5 0.5 0 0 0 15.5 8
A 0.5 0.5 0 0 1 16 7.5
A 0.5 0.5 0 0 0 16.5 7
A 0.5 0.5 0 0 1 17 6.5
A 0.5 0.5 0 0 1 17.5 7
A 0.5 0.5 0 0 0 18 7.5
A 0.5 0.5 0 0 1 18.5 8
L 18.5 9
L 18.5 10
A 0.5 0.5 0 0 0 19 10.5
A 0.5 0.5 0 0 1 19.5 11
L 19.5 12
A 0.5 0.5 0 0 1 19 12.5
A 0.5 0.5 0 0 1 18.5 12
A 0.5 0.5 0 0 0 18 11.5
A 0.5 0.5 0 0 0 17.5 12
A 0.5 0.5 0 0 1 17 12.5
A 0.5 0.5 0 0 1 16.5 12
L 16.5 11
A 0.5 0.5 0 0 1 17 10.5
A 0.5 0.5 0 0 0 17.5 10
L 17.5 9
A 0.5 0.5 0 0 0 17 8.5
A 0.5 0.5 0 0 0 16.5 9
A 0.5 0.5 0 0 1 16 9.5
A 0.5 0.5 0 0 0 15.5 10
A 0.5 0.5 0 0 1 15 10.5
A 0.5 0.5 0 0 1 14.5 10
A 0.5 0.5 0 0 0 14 9.5
A 0.5 0.5 0 0 0 13.5 10
A 0.5 0.5 0 0 1 13 10.5
A 0.5 0.5 0 0 1 12.5 10
A 0.5 0.5 0 0 0 12 9.5
A 0.5 0.5 0 0 0 11.5 10
A 0.5 0.5 0 0 1 11 10.5
L 10 10.5
L 9 10.5
A 0.5 0.5 0 0 0 8.5 11
L 8.5 12
A 0.5 0.5 0 0 1 8 12.5
L 7 12.5
L 6.5 12.5" fill="white" fill-opacity="0" stroke="black" stroke-width="0.05" stroke-linecap="round" />
	<path d="M 5.5 12.5
L 5.5 12
L 5.5 11
A 0.5 0.5 0 0 1 6 10.5
L 6.5 10.5
" fill="white" fill-opacity="0" stroke="blue" stroke-width="0.05" stroke-linecap="round" />
</svg>