<svg xmlns="http://www.w3.org/2000/svg" viewBox="0 0 11 11">
	<path d="M0,0 h11 v11 h-11 z" fill="#dddddd" />
	<rect width="1" height="1" x="0" y="0" fill="#ff0000" fill-opacity="0.15" />
	<rect width="1" height="1" x="0" y="1" fill="#ff0000" fill-opacity="0.15" />
	<rect width="1" height="1" x="1" y="1" fill="#ff0000" fill-opacity="0.15" />
	<rect width="1" height="1" x="1" y="0" fill="#ff0000" fill-opacity="0.15" />
	<rect width="1" height="1" x="2" y="0" fill="#ff0000" fill-opacity="0.15" />
	<rect width="1" height="1" x="3" y="0" fill="#ff0000" fill-opacity="0.15" />
	<rect width="1" height="1" x="4" y="0" fill="#ff0000" fill-opacity="0.15" />
	<rect width="1" height="1" x="5" y="0" fill="#ff0000" fill-opacity="0.15" />
	<rect width="1" height="1" x="5" y="1" fill="#ff0000" fill-opacity="0.15" />
	<rect width="1" height="1" x="5" y="2" fill="#ff0000" fill-opacity="0.15" />
	<rect width="1" height="1" x="6" y="2" fill="#ff0000" fill-opacity="0.15" />
	<rect width="1" height="1" x="7" y="2" fill="#ff0000" fill-opacity="0.15" />
	<rect width="1" height="1" x="8" y="2" fill="#ff0000" fill-opacity="0.15" />
	<rect width="1" height="1" x="8" y="3" fill="#ff0000" fill-opacity="0.15" />
	<rect width="1" height="1" x="8" y="4" fill="#ff0000" fill-opacity="0.15" />
	<rect width="1" height="1" x="8" y="5" fill="#ff0000" fill-opacity="0.15" />
	<rect width="1" height="1" x="8" y="6" fill="#ff0000" fill-opacity="0.15" />
	<rect width="1" height="1" x="8" y="7" fill="#ff0000" fill-opacity="0.15" />
	<rect width="1" height="1" x="7" y="7" fill="#ff0000" fill-opacity="0.15" />
	<rect width="1" height="1" x="6" y="7" fill="#ff0000" fill-opacity="0.15" />
	<rect width="1" height="1" x="5" y="7" fill="#ff0000" fill-opacity="0.15" />
	<rect width="1" height="1" x="4" y="7" fill="#ff0000" fill-opacity="0.15" />
	<rect width="1" height="1" x="3" y="7" fill="#ff0000" fill-opacity="0.15" />
	<rect width="1" height="1" x="3" y="6" fill="#ff0000" fill-opacity="0.15" />
	<rect width="1" height="1" x="3" y="5" fill="#ff0000" fill-opacity="0.15" />
	<rect width="1" height="1" x="3" y="4" fill="#ff0000" fill-opacity="0.15" />
	<rect width="1" height="1" x="9" y="8" fill="#0000ff" fill-opacity="0.15" />
	<rect width="1" height="1" x="9" y="7" fill="#0000ff" fill-opacity="0.15" />
	<rect width="1" height="1" x="9" y="6" fill="#0000ff" fill-opacity="0.15" />
	<rect width="1" height="1" x="9" y="5" fill="#0000ff" fill-opacity="0.15" />
	<rect width="1" height="1" x="9" y="4" fill="#0000ff" fill-opacity="0.15" />
	<rect width="1" height="1" x="9" y="3" fill="#0000ff" fill-opacity="0.15" />
	<rect width="1" height="1" x="9" y="2" fill="#0000ff" fill-opacity="0.15" />
	<rect width="1" height="1" x="9" y="1" fill="#0000ff" fill-opacity="0.15" />
	<rect width="1" height="1" x="8" y="1" fill="#0000ff" fill-opacity="0.15" />
	<rect width="1" height="1" x="7" y="1" fill="#0000ff" fill-opacity="0.15" />
	<rect width="1" height="1" x="6" y="1" fill="#0000ff" fill-opacity="0.15" />
	<rect width="1" height="1" x="6" y="0" fill="#0000ff" fill-opacity="0.15" />
	<rect width="1" height="1" x="7" y="0" fill="#0000ff" fill-opacity="0.15" />
	<rect width="1" height="1" x="8" y="0" fill="#0000ff" fill-opacity="0.15" />
	<rect width="1" height="1" x="9" y="0" fill="#0000ff" fill-opacity="0.15" />
	<rect width="1" height="1" x="10" y="0" fill="#0000ff" fill-opacity="0.15" />
	<rect width="1" height="1" x="10" y="1" fill="#0000ff" fill-opacity="0.15" />
	<rect width="1" height="1" x="10" y="2" fill="#0000ff" fill-opacity="0.15" />
	<rect width="1" height="1" x="10" y="3" fill="#0000ff" fill-opacity="0.15" />
	<rect width="1" height="1" x="10" y="4" fill="#0000ff" fill-opacity="0.15" />
	<rect width="1" height="1" x="10" y="5" fill="#0000ff" fill-opacity="0.15" />
	<rect width="1" height="1" x="10" y="6" fill="#0000ff" fill-opacity="0.15" />
	<rect width="1" height="1" x="10" y="7" fill="#0000ff" fill-opacity="0.15" />
	<rect width="1" height="1" x="10" y="8" fill="#0000ff" fill-opacity="0.15" />
	<rect width="1" height="1" x="10" y="9" fill="#0000ff" fill-opacity="0.15" />
	<rect width="1" height="1" x="4" y="2" fill="#0000ff" fill-opacity="0.15" />
	<rect width="1" height="1" x="4" y="1" fill="#0000ff" fill-opacity="0.15" />
	<rect width="1" height="1" x="3" y="1" fill="#0000ff" fill-opacity="0.15" />
	<rect width="1" height="1" x="2" y="1" fill="#0000ff" fill-opacity="0.15" />
	<rect width="1" height="1" x="2" y="2" fill="#0000ff" fill-opacity="0.15" />
	<path fill="transparent" stroke="gray" stroke-width="0.02" d="M 0.01 0 v 11" />
	<path fill="transparent" stroke="gray" stroke-width="0.02" d="M 0 0.01 h 11" />
	<path fill="transparent" stroke="gray" stroke-width="0.02" d="M 1 0 v 11" />
	<path fill="transparent" stroke="gray" stroke-width="0.02" d="M 0 1 h 11" />
	<path fill="transparent" stroke="gray" stroke-width="0.02" d="M 2 0 v 11" />
	<path fill="transparent" stroke="gray" stroke-width="0.02" d="M 0 2 h 11" />
	<path fill="transparent" stroke="gray" stroke-width="0.02" d="M 3 0 v 11" />
	<path fill="transparent" stroke="gray" stroke-width="0.02" d="M 0 3 h 11" />
	<path fill="transparent" stroke="gray" stroke-width="0.02" d="M 4 0 v 11" />
	<path fill="transparent" stroke="gray" stroke-width="0.02" d="M 0 4 h 11" />
	<path fill="transparent" stroke="gray" stroke-width="0.02" d="M 5 0 v 11" />
	<path fill="transparent" stroke="gray" stroke-width="0.02" d="M 0 5 h 11" />
	<path fill="transparent" stroke="gray" stroke-width="0.02" d="M 6 0 v 11" />
	<path fill="transparent" stroke="gray" stroke-width="0.02" d="M 0 6 h 11" />
	<path fill="transparent" stroke="gray" stroke-width="0.02" d="M 7 0 v 11" />
	<path fill="transparent" stroke="gray" stroke-width="0.02" d="M 0 7 h 11" />
	<path fill="transparent" stroke="gray" stroke-width="0.02" d="M 8 0 v 11" />
	<path fill="transparent" stroke="gray" stroke-width="0.02" d="M 0 8 h 11" />
	<path fill="transparent" stroke="gray" stroke-width="0.02" d="M 9 0 v 11" />
	<path fill="transparent" stroke="gray" stroke-width="0.02" d="M 0 9 h 11" />
	<path fill="transparent" stroke="gray" stroke-width="0.02" d="M 10 0 v 11" />
	<path fill="transparent" stroke="gray" stroke-width="0.02" d="M 0 10 h 11" />
	<path fill="transparent" stroke="gray" stroke-width="0.02" d="M 10.99 0 v 11" />
	<path fill="transparent" stroke="gray" stroke-width="0.02" d="M 0 10.99 h 11" />
	<path d="M 0.5 0.5
L 0.5 1
A 0.5 0.5 0 0 0 1 1.5
A 0.5 0.5 0 0 0 1.5 1
A 0.5 0.5 0 0 1 2 0.5
L 3 0.5
L 4 0.5
L 5 0.5
A 0.5 0.5 0 0 1 5.5 1
L 5.5 2
A 0.5 0.5 0 0 0 6 2.5
L 7 2.5
L 8 2.5
A 0.5 0.5 0 0 1 8.5 3
L 8.5 4
L 8.5 5
L 8.5 6
L 8.5 7
A 0.5 0.5 0 0 1 8 7.5
L 7 7.5
L 6 7.5
L 5 7.5
L 4 7.5
A 0.5 0.5 0 0 1 3.5 7
L 3.5 6
L 3.5 5
L 3.5 4.5" fill="white" fill-opacity="0" stroke="black" stroke-width="0.05" stroke-linecap="round" />
	<path d="M 9.5 8.5
L 9.5 8
L 9.5 7
L 9.5 6
L 9.5 5
L 9.5 4
L 9.5 3
L 9.5 2
A 0.5 0.5 0 0 0 9 1.5
L 8 1.5
L 7 1.5
A 0.5 0.5 0 0 1 6.5 1
A 0.5 0.5 0 0 1 7 0.5
L 8 0.5
L 9 0.5
L 10 0.5
A 0.5 0.5 0 0 1 10.5 1
L 10.5 2
L 10.5 3
L 10.5 4
L 10.5 5
L 10.5 6
L 10.5 7
L 10.5 8
L 10.5 9
L 10.5 9.5
" fill="white" fill-opacity="0" stroke="blue" stroke-width="0.05" stroke-linecap="round" />
	<path d="M 4.5 2.5
L 4.5 2
A 0.5 0.5 0 0 0 4 1.5
L 3 1.5
A 0.5 0.5 0 0 0 2.5 2
L 2.5 2.5
" fill="white" fill-opacity="0" stroke="blue" stroke-width="0.05" stroke-linecap="round" />
</svg>