<svg xmlns="http://www.w3.org/2000/svg" viewBox="0 0 17 17">
	<path d="M0,0 h17 v17 h-17 z" fill="#dddddd" />
	<rect width="1" height="1" x="0" y="0" fill="#ff0000" fill-opacity="0.15" />
	<rect width="1" height="1" x="1" y="0" fill="#ff0000" fill-opacity="0.15" />
	<rect width="1" height="1" x="2" y="0" fill="#ff0000" fill-opacity="0.15" />
	<rect width="1" height="1" x="3" y="0" fill="#ff0000" fill-opacity="0.15" />
	<rect width="1" height="1" x="4" y="0" fill="#ff0000" fill-opacity="0.15" />
	<rect width="1" height="1" x="5" y="0" fill="#ff0000" fill-opacity="0.15" />
	<rect width="1" height="1" x="6" y="0" fill="#ff0000" fill-opacity="0.15" />
	<rect width="1" height="1" x="7" y="0" fill="#ff0000" fill-opacity="0.15" />
	<rect width="1" height="1" x="8" y="0" fill="#ff0000" fill-opacity="0.15" />
	<rect width="1" height="1" x="9" y="0" fill="#ff0000" fill-opacity="0.15" />
	<rect width="1" height="1" x="10" y="0" fill="#ff0000" fill-opacity="0.15" />
	<rect width="1" height="1" x="11" y="0" fill="#ff0000" fill-opacity="0.15" />
	<rect width="1" height="1" x="12" y="0" fill="#ff0000" fill-opacity="0.15" />
	<rect width="1" height="1" x="13" y="0" fill="#ff0000" fill-opacity="0.15" />
	<rect width="1" height="1" x="14" y="0" fill="#ff0000" fill-opacity="0.15" />
	<rect width="1" height="1" x="15" y="0" fill="#ff0000" fill-opacity="0.15" />
	<rect width="1" height="1" x="16" y="0" fill="#ff0000" fill-opacity="0.15" />
	<rect width="1" height="1" x="16" y="1" fill="#ff0000" fill-opacity="0.15" />
	<rect width="1" height="1" x="16" y="2" fill="#ff0000" fill-opacity="0.15" />
	<rect width="1" height="1" x="16" y="3" fill="#ff0000" fill-opacity="0.15" />
	<rect width="1" height="1" x="16" y="4" fill="#ff0000" fill-opacity="0.15" />
	<rect width="1" height="1" x="16" y="5" fill="#ff0000" fill-opacity="0.15" />
	<rect width="1" height="1" x="16" y="6" fill="#ff0000" fill-opacity="0.15" />
	<rect width="1" height="1" x="16" y="7" fill="#ff0000" fill-opacity="0.15" />
	<rect width="1" height="1" x="16" y="8" fill="#ff0000" fill-opacity="0.15" />
	<rect width="1" height="1" x="16" y="9" fill="#ff0000" fill-opacity="0.15" />
	<rect width="1" height="1" x="15" y="9" fill="#ff0000" fill-opacity="0.15" />
	<rect width="1" height="1" x="14" y="9" fill="#ff0000" fill-opacity="0.15" />
	<rect width="1" height="1" x="13" y="9" fill="#ff0000" fill-opacity="0.15" />
	<rect width="1" height="1" x="13" y="8" fill="#ff0000" fill-opacity="0.15" />
	<rect width="1" height="1" x="12" y="8" fill="#ff0000" fill-opacity="0.15" />
	<rect width="1" height="1" x="12" y="7" fill="#ff0000" fill-opacity="0.15" />
	<rect width="1" height="1" x="11" y="7" fill="#ff0000" fill-opacity="0.15" />
	<rect width="1" height="1" x="11" y="6" fill="#ff0000" fill-opacity="0.15" />
	<rect width="1" height="1" x="10" y="6" fill="#ff0000" fill-opacity="0.15" />
	<rect width="1" height="1" x="10" y="5" fill="#ff0000" fill-opacity="0.15" />
	<rect width="1" height="1" x="9" y="5" fill="#ff0000" fill-opacity="0.15" />
	<rect width="1" height="1" x="8" y="5" fill="#ff0000" fill-opacity="0.15" />
	<rect width="1" height="1" x="7" y="5" fill="#ff0000" fill-opacity="0.15" />
	<rect width="1" height="1" x="7" y="6" fill="#ff0000" fill-opacity="0.15" />
	<rect width="1" height="1" x="6" y="6" fill="#ff0000" fill-opacity="0.15" />
	<rect width="1" height="1" x="6" y="7" fill="#ff0000" fill-opacity="0.15" />
	<rect width="1" height="1" x="6" y="8" fill="#ff0000" fill-opacity="0.15" />
	<rect width="1" height="1" x="6" y="9" fill="#ff0000" fill-opacity="0.15" />
	<rect width="1" height="1" x="6" y="10" fill="#ff0000" fill-opacity="0.15" />
	<rect width="1" height="1" x="6" y="11" fill="#ff0000" fill-opacity="0.15" />
	<rect width="1" height="1" x="6" y="12" fill="#ff0000" fill-opacity="0.15" />
	<rect width="1" height="1" x="7" y="12" fill="#ff0000" fill-opacity="0.15" />
	<rect width="1" height="1" x="8" y="12" fill="#ff0000" fill-opacity="0.15" />
	<rect width="1" height="1" x="9" y="12" fill="#ff0000" fill-opacity="0.15" />
	<rect width="1" height="1" x="9" y="11" fill="#ff0000" fill-opacity="0.15" />
	<rect width="1" height="1" x="8" y="11" fill="#ff0000" fill-opacity="0.15" />
	<rect width="1" height="1" x="7" y="11" fill="#ff0000" fill-opacity="0.15" />
	<rect width="1" height="1" x="7" y="10" fill="#ff0000" fill-opacity="0.15" />
	<rect width="1" height="1" x="7" y="9" fill="#ff0000" fill-opacity="0.15" />
	<rect width="1" height="1" x="7" y="8" fill="#0000ff" fill-opacity="0.15" />
	<rect width="1" height="1" x="7" y="7" fill="#0000ff" fill-opacity="0.15" />
	<rect width="1" height="1" x="8" y="7" fill="#0000ff" fill-opacity="0.15" />
	<rect width="1" height="1" x="8" y="6" fill="#0000ff" fill-opacity="0.15" />
	<rect width="1" height="1" x="9" y="6" fill="#0000ff" fill-opacity="0.15" />
	<rect width="1" height="1" x="9" y="7" fill="#0000ff" fill-opacity="0.15" />
	<rect width="1" height="1" x="10" y="7" fill="#0000ff" fill-opacity="0.15" />
	<rect width="1" height="1" x="10" y="8" fill="#0000ff" fill-opacity="0.15" />
	<rect width="1" height="1" x="11" y="8" fill="#0000ff" fill-opacity="0.15" />
	<rect width="1" height="1" x="11" y="9" fill="#0000ff" fill-opacity="0.15" />
	<rect width="1" height="1" x="12" y="9" fill="#0000ff" fill-opacity="0.15" />
	<rect width="1" height="1" x="12" y="10" fill="#0000ff" fill-opacity="0.15" />
	<rect width="1" height="1" x="13" y="4" fill="#0000ff" fill-opacity="0.15" />
	<rect width="1" height="1" x="13" y="5" fill="#0000ff" fill-opacity="0.15" />
	<rect width="1" height="1" x="12" y="5" fill="#0000ff" fill-opacity="0.15" />
	<rect width="1" height="1" x="12" y="6" fill="#0000ff" fill-opacity="0.15" />
	<rect width="1" height="1" x="13" y="6" fill="#0000ff" fill-opacity="0.15" />
	<rect width="1" height="1" x="13" y="7" fill="#0000ff" fill-opacity="0.15" />
	<rect width="1" height="1" x="14" y="7" fill="#0000ff" fill-opacity="0.15" />
	<rect width="1" height="1" x="14" y="8" fill="#0000ff" fill-opacity="0.15" />
	<rect width="1" height="1" x="15" y="8" fill="#0000ff" fill-opacity="0.15" />
	<rect width="1" height="1" x="15" y="7" fill="#0000ff" fill-opacity="0.15" />
	<rect width="1" height="1" x="15" y="6" fill="#0000ff" fill-opacity="0.15" />
	<rect width="1" height="1" x="14" y="6" fill="#0000ff" fill-opacity="0.15" />
	<rect width="1" height="1" x="14" y="5" fill="#0000ff" fill-opacity="0.15" />
	<rect width="1" height="1" x="15" y="5" fill="#0000ff" fill-opacity="0.15" />
	<rect width="1" height="1" x="15" y="4" fill="#0000ff" fill-opacity="0.15" />
	<rect width="1" height="1" x="8" y="9" fill="#000000" fill-opacity="0.1" />
	<rect width="1" height="1" x="7" y="8" fill="#000000" fill-opacity="0.1" />
	<path fill="transparent" stroke="gray" stroke-width="0.02" d="M 0.01 0 v 17" />
	<path fill="transparent" stroke="gray" stroke-width="0.02" d="M 0 0.01 h 17" />
	<path fill="transparent" stroke="gray" stroke-width="0.02" d="M 1 0 v 17" />
	<path fill="transparent" stroke="gray" stroke-width="0.02" d="M 0 1 h 17" />
	<path fill="transparent" stroke="gray" stroke-width="0.02" d="M 2 0 v 17" />
	<path fill="transparent" stroke="gray" stroke-width="0.02" d="M 0 2 h 17" />
	<path fill="transparent" stroke="gray" stroke-width="0.02" d="M 3 0 v 17" />
	<path fill="transparent" stroke="gray" stroke-width="0.02" d="M 0 3 h 17" />
	<path fill="transparent" stroke="gray" stroke-width="0.02" d="M 4 0 v 17" />
	<path fill="transparent" stroke="gray" stroke-width="0.02" d="M 0 4 h 17" />
	<path fill="transparent" stroke="gray" stroke-width="0.02" d="M 5 0 v 17" />
	<path fill="transparent" stroke="gray" stroke-width="0.02" d="M 0 5 h 17" />
	<path fill="transparent" stroke="gray" stroke-width="0.02" d="M 6 0 v 17" />
	<path fill="transparent" stroke="gray" stroke-width="0.02" d="M 0 6 h 17" />
	<path fill="transparent" stroke="gray" stroke-width="0.02" d="M 7 0 v 17" />
	<path fill="transparent" stroke="gray" stroke-width="0.02" d="M 0 7 h 17" />
	<path fill="transparent" stroke="gray" stroke-width="0.02" d="M 8 0 v 17" />
	<path fill="transparent" stroke="gray" stroke-width="0.02" d="M 0 8 h 17" />
	<path fill="transparent" stroke="gray" stroke-width="0.02" d="M 9 0 v 17" />
	<path fill="transparent" stroke="gray" stroke-width="0.02" d="M 0 9 h 17" />
	<path fill="transparent" stroke="gray" stroke-width="0.02" d="M 10 0 v 17" />
	<path fill="transparent" stroke="gray" stroke-width="0.02" d="M 0 10 h 17" />
	<path fill="transparent" stroke="gray" stroke-width="0.02" d="M 11 0 v 17" />
	<path fill="transparent" stroke="gray" stroke-width="0.02" d="M 0 11 h 17" />
	<path fill="transparent" stroke="gray" stroke-width="0.02" d="M 12 0 v 17" />
	<path fill="transparent" stroke="gray" stroke-width="0.02" d="M 0 12 h 17" />
	<path fill="transparent" stroke="gray" stroke-width="0.02" d="M 13 0 v 17" />
	<path fill="transparent" stroke="gray" stroke-width="0.02" d="M 0 13 h 17" />
	<path fill="transparent" stroke="gray" stroke-width="0.02" d="M 14 0 v 17" />
	<path fill="transparent" stroke="gray" stroke-width="0.02" d="M 0 14 h 17" />
	<path fill="transparent" stroke="gray" stroke-width="0.02" d="M 15 0 v 17" />
	<path fill="transparent" stroke="gray" stroke-width="0.02" d="M 0 15 h 17" />
	<path fill="transparent" stroke="gray" stroke-width="0.02" d="M 16 0 v 17" />
	<path fill="transparent" stroke="gray" stroke-width="0.02" d="M 0 16 h 17" />
	<path fill="transparent" stroke="gray" stroke-width="0.02" d="M 16.99 0 v 17" />
	<path fill="transparent" stroke="gray" stroke-width="0.02" d="M 0 16.99 h 17" />
	<path d="M 0.5 0.5
L 1 0.5
L 2 0.5
L 3 0.5
L 4 0.5
L 5 0.5
L 6 0.5
L 7 0.5
L 8 0.5
L 9 0.5
L 10 0.5
L 11 0.5
L 12 0.5
L 13 0.5
L 14 0.5
L 15 0.5
L 16 0.5
A 0.5 0.5 0 0 1 16.5 1
L 16.5 2
L 16.5 3
L 16.5 4
L 16.5 5
L 16.5 6
L 16.5 7
L 16.5 8
L 16.5 9
A 0.5 0.5 0 0 1 16 9.5
L 15 9.5
L 14 9.5
A 0.5 0.5 0 0 1 13.5 9
A 0.5 0.5 0 0 0 13 8.5
A 0.5 0.5 0 0 1 12.5 8
A 0.5 0.5 0 0 0 12 7.5
A 0.5 0.5 0 0 1 11.5 7
A 0.5 0.5 0 0 0 11 6.5
A 0.5 0.5 0 0 1 10.5 6
A 0.5 0.5 0 0 0 10 5.5
L 9 5.5
L 8 5.5
A 0.5 0.5 0 0 0 7.5 6
A 0.5 0.5 0 0 1 7 6.5
A 0.5 0.5 0 0 0 6.5 7
L 6.5 8
L 6.5 9
L 6.5 10
L 6.5 11
L 6.5 12
A 0.5 0.5 0 0 0 7 12.5
L 8 12.5
L 9 12.5
A 0.5 0.5 0 0 0 9.5 12
A 0.5 0.5 0 0 0 9 11.5
L 8 11.5
A 0.5 0.5 0 0 1 7.5 11
L 7.5 10
L 7.5 9.5" fill="white" fill-opacity="0" stroke="black" stroke-width="0.05" stroke-linecap="round" />
	<path d="M 7.5 8.5
L 7.5 8
A 0.5 0.5 0 0 1 8 7.5
A 0.5 0.5 0 0 0 8.5 7
A 0.5 0.5 0 0 1 9 6.5
A 0.5 0.5 0 0 1 9.5 7
A 0.5 0.5 0 0 0 10 7.5
A 0.5 0.5 0 0 1 10.5 8
A 0.5 0.5 0 0 0 11 8.5
A 0.5 0.5 0 0 1 11.5 9
A 0.5 0.5 0 0 0 12 9.5
A 0.5 0.5 0 0 1 12.5 10
L 12.5 10.5
" fill="white" fill-opacity="0" stroke="blue" stroke-width="0.05" stroke-linecap="round" />
	<path d="M 13.5 4.5
L 13.5 5
A 0.5 0.5 0 0 1 13 5.5
A 0.5 0.5 0 0 0 12.5 6
A 0.5 0.5 0 0 0 13 6.5
A 0.5 0.5 0 0 1 13.5 7
A 0.5 0.5 0 0 0 14 7.5
A 0.5 0.5 0 0 1 14.5 8
A 0.5 0.5 0 0 0 15 8.5
A 0.5 0.5 0 0 0 15.5 8
L 15.5 7
A 0.5 0.5 0 0 0 15 6.5
A 0.5 0.5 0 0 1 14.5 6
A 0.5 0.5 0 0 1 15 5.5
A 0.5 0.5 0 0 0 15.5 5
L 15.5 4.5
" fill="white" fill-opacity="0" stroke="blue" stroke-width="0.05" stroke-linecap="round" />
</svg>