<svg xmlns="http://www.w3.org/2000/svg" viewBox="0 0 15 15">
	<path d="M0,0 h15 v15 h-15 z" fill="#dddddd" />
	<rect width="1" height="1" x="0" y="0" fill="#ff0000" fill-opacity="0.15" />
	<rect width="1" height="1" x="1" y="0" fill="#ff0000" fill-opacity="0.15" />
	<rect width="1" height="1" x="2" y="0" fill="#ff0000" fill-opacity="0.15" />
	<rect width="1" height="1" x="3" y="0" fill="#ff0000" fill-opacity="0.15" />
	<rect width="1" height="1" x="4" y="0" fill="#ff0000" fill-opacity="0.15" />
	<rect width="1" height="1" x="5" y="0" fill="#ff0000" fill-opacity="0.15" />
	<rect width="1" height="1" x="6" y="0" fill="#ff0000" fill-opacity="0.15" />
	<rect width="1" height="1" x="7" y="0" fill="#ff0000" fill-opacity="0.15" />
	<rect width="1" height="1" x="8" y="0" fill="#ff0000" fill-opacity="0.15" />
	<rect width="1" height="1" x="9" y="0" fill="#ff0000" fill-opacity="0.15" />
	<rect width="1" height="1" x="10" y="0" fill="#ff0000" fill-opacity="0.15" />
	<rect width="1" height="1" x="11" y="0" fill="#ff0000" fill-opacity="0.15" />
	<rect width="1" height="1" x="12" y="0" fill="#ff0000" fill-opacity="0.15" />
	<rect width="1" height="1" x="13" y="0" fill="#ff0000" fill-opacity="0.15" />
	<rect width="1" height="1" x="14" y="0" fill="#ff0000" fill-opacity="0.15" />
	<rect width="1" height="1" x="14" y="1" fill="#ff0000" fill-opacity="0.15" />
	<rect width="1" height="1" x="14" y="2" fill="#ff0000" fill-opacity="0.15" />
	<rect width="1" height="1" x="14" y="3" fill="#ff0000" fill-opacity="0.15" />
	<rect width="1" height="1" x="14" y="4" fill="#ff0000" fill-opacity="0.15" />
	<rect width="1" height="1" x="14" y="5" fill="#ff0000" fill-opacity="0.15" />
	<rect width="1" height="1" x="14" y="6" fill="#ff0000" fill-opacity="0.15" />
	<rect width="1" height="1" x="14" y="7" fill="#ff0000" fill-opacity="0.15" />
	<rect width="1" height="1" x="13" y="7" fill="#ff0000" fill-opacity="0.15" />
	<rect width="1" height="1" x="12" y="7" fill="#ff0000" fill-opacity="0.15" />
	<rect width="1" height="1" x="11" y="7" fill="#ff0000" fill-opacity="0.15" />
	<rect width="1" height="1" x="11" y="6" fill="#ff0000" fill-opacity="0.15" />
	<rect width="1" height="1" x="10" y="6" fill="#ff0000" fill-opacity="0.15" />
	<rect width="1" height="1" x="10" y="5" fill="#ff0000" fill-opacity="0.15" />
	<rect width="1" height="1" x="9" y="5" fill="#ff0000" fill-opacity="0.15" />
	<rect width="1" height="1" x="9" y="4" fill="#ff0000" fill-opacity="0.15" />
	<rect width="1" height="1" x="11" y="4" fill="#0000ff" fill-opacity="0.15" />
	<rect width="1" height="1" x="11" y="5" fill="#0000ff" fill-opacity="0.15" />
	<rect width="1" height="1" x="12" y="5" fill="#0000ff" fill-opacity="0.15" />
	<rect width="1" height="1" x="12" y="6" fill="#0000ff" fill-opacity="0.15" />
	<rect width="1" height="1" x="13" y="6" fill="#0000ff" fill-opacity="0.15" />
	<rect width="1" height="1" x="13" y="5" fill="#0000ff" fill-opacity="0.15" />
	<rect width="1" height="1" x="13" y="4" fill="#0000ff" fill-opacity="0.15" />
	<rect width="0.25" height="1" x="10" y="2" fill="#808000" fill-opacity="0.25" />
	<rect width="0.25" height="1" x="10" y="3" fill="#808000" fill-opacity="0.25" />
	<path d="M 10 5 v -1 h 0.25 v 0.75 h 0.75 v 0.25 z" fill="#808000" fill-opacity="0.25" />
	<rect width="0.25" height="0.25" x="11" y="4.75" fill="#808000" fill-opacity="0.25" />
	<path d="M 11 6 v -1 h 0.25 v 0.75 h 0.75 v 0.25 z" fill="#808000" fill-opacity="0.25" />
	<rect width="0.25" height="0.25" x="12" y="5.75" fill="#808000" fill-opacity="0.25" />
	<path d="M 12 7 v -1 h 0.25 v 0.75 h 0.75 v 0.25 z" fill="#808000" fill-opacity="0.25" />
	<path d="M 14 7 h -1 v -0.25 h 0.75 v -0.75 h 0.25 z" fill="#808000" fill-opacity="0.25" />
	<rect width="0.25" height="1" x="13.75" y="5" fill="#808000" fill-opacity="0.25" />
	<rect width="0.25" height="1" x="13.75" y="4" fill="#808000" fill-opacity="0.25" />
	<rect width="0.25" height="1" x="13.75" y="3" fill="#808000" fill-opacity="0.25" />
	<rect width="0.25" height="1" x="13.75" y="2" fill="#808000" fill-opacity="0.25" />
	<path d="M 14 1 v 1 h -0.25 v -0.75 h -0.75 v -0.25 z" fill="#808000" fill-opacity="0.25" />
	<rect width="1" height="0.25" x="12" y="1" fill="#808000" fill-opacity="0.25" />
	<rect width="1" height="0.25" x="11" y="1" fill="#808000" fill-opacity="0.25" />
	<path d="M 10 1 h 1 v 0.25 h -0.75 v 0.75 h -0.25 z" fill="#808000" fill-opacity="0.25" />
	<rect width="0.25" height="1" x="10" y="2" fill="#FF4000" fill-opacity="0.25" />
	<rect width="0.25" height="1" x="10" y="3" fill="#FF4000" fill-opacity="0.25" />
	<path d="M 10 5 v -1 h 0.25 v 0.75 h 0.75 v 0.25 z" fill="#FF4000" fill-opacity="0.25" />
	<rect width="0.25" height="0.25" x="11" y="4.75" fill="#FF4000" fill-opacity="0.25" />
	<path d="M 11 6 v -1 h 0.25 v 0.75 h 0.75 v 0.25 z" fill="#FF4000" fill-opacity="0.25" />
	<rect width="0.25" height="0.25" x="12" y="5.75" fill="#FF4000" fill-opacity="0.25" />
	<path d="M 12 7 v -1 h 0.25 v 0.75 h 0.75 v 0.25 z" fill="#FF4000" fill-opacity="0.25" />
	<path d="M 14 7 h -1 v -0.25 h 0.75 v -0.75 h 0.25 z" fill="#FF4000" fill-opacity="0.25" />
	<rect width="0.25" height="1" x="13.75" y="5" fill="#FF4000" fill-opacity="0.25" />
	<rect width="0.25" height="1" x="13.75" y="4" fill="#FF4000" fill-opacity="0.25" />
	<rect width="0.25" height="1" x="13.75" y="3" fill="#FF4000" fill-opacity="0.25" />
	<rect width="0.25" height="1" x="13.75" y="2" fill="#FF4000" fill-opacity="0.25" />
	<path d="M 14 1 v 1 h -0.25 v -0.75 h -0.75 v -0.25 z" fill="#FF4000" fill-opacity="0.25" />
	<rect width="1" height="0.25" x="12" y="1" fill="#FF4000" fill-opacity="0.25" />
	<rect width="1" height="0.25" x="11" y="1" fill="#FF4000" fill-opacity="0.25" />
	<path d="M 10 1 h 1 v 0.25 h -0.75 v 0.75 h -0.25 z" fill="#FF4000" fill-opacity="0.25" />
	<rect width="0.25" height="1" x="12" y="2" fill="#FF4000" fill-opacity="0.25" />
	<rect width="0.25" height="0.25" x="12" y="3" fill="#FF4000" fill-opacity="0.25" />
	<rect width="1" height="0.25" x="11" y="3" fill="#FF4000" fill-opacity="0.25" />
	<path d="M 10 3 h 1 v 0.25 h -0.75 v 0.75 h -0.25 z" fill="#FF4000" fill-opacity="0.25" />
	<path d="M 10 5 v -1 h 0.25 v 0.75 h 0.75 v 0.25 z" fill="#FF4000" fill-opacity="0.25" />
	<rect width="0.25" height="0.25" x="11" y="4.75" fill="#FF4000" fill-opacity="0.25" />
	<path d="M 11 6 v -1 h 0.25 v 0.75 h 0.75 v 0.25 z" fill="#FF4000" fill-opacity="0.25" />
	<rect width="0.25" height="0.25" x="12" y="5.75" fill="#FF4000" fill-opacity="0.25" />
	<path d="M 12 7 v -1 h 0.25 v 0.75 h 0.75 v 0.25 z" fill="#FF4000" fill-opacity="0.25" />
	<path d="M 14 7 h -1 v -0.25 h 0.75 v -0.75 h 0.25 z" fill="#FF4000" fill-opacity="0.25" />
	<rect width="0.25" height="1" x="13.75" y="5" fill="#FF4000" fill-opacity="0.25" />
	<rect width="0.25" height="1" x="13.75" y="4" fill="#FF4000" fill-opacity="0.25" />
	<rect width="0.25" height="1" x="13.75" y="3" fill="#FF4000" fill-opacity="0.25" />
	<rect width="0.25" height="1" x="13.75" y="2" fill="#FF4000" fill-opacity="0.25" />
	<path d="M 14 1 v 1 h -0.25 v -0.75 h -0.75 v -0.25 z" fill="#FF4000" fill-opacity="0.25" />
	<path d="M 12 1 h 1 v 0.25 h -0.75 v 0.75 h -0.25 z" fill="#FF4000" fill-opacity="0.25" />
	<path fill="transparent" stroke="gray" stroke-width="0.02" d="M 0.01 0 v 15" />
	<path fill="transparent" stroke="gray" stroke-width="0.02" d="M 0 0.01 h 15" />
	<path fill="transparent" stroke="gray" stroke-width="0.02" d="M 1 0 v 15" />
	<path fill="transparent" stroke="gray" stroke-width="0.02" d="M 0 1 h 15" />
	<path fill="transparent" stroke="gray" stroke-width="0.02" d="M 2 0 v 15" />
	<path fill="transparent" stroke="gray" stroke-width="0.02" d="M 0 2 h 15" />
	<path fill="transparent" stroke="gray" stroke-width="0.02" d="M 3 0 v 15" />
	<path fill="transparent" stroke="gray" stroke-width="0.02" d="M 0 3 h 15" />
	<path fill="transparent" stroke="gray" stroke-width="0.02" d="M 4 0 v 15" />
	<path fill="transparent" stroke="gray" stroke-width="0.02" d="M 0 4 h 15" />
	<path fill="transparent" stroke="gray" stroke-width="0.02" d="M 5 0 v 15" />
	<path fill="transparent" stroke="gray" stroke-width="0.02" d="M 0 5 h 15" />
	<path fill="transparent" stroke="gray" stroke-width="0.02" d="M 6 0 v 15" />
	<path fill="transparent" stroke="gray" stroke-width="0.02" d="M 0 6 h 15" />
	<path fill="transparent" stroke="gray" stroke-width="0.02" d="M 7 0 v 15" />
	<path fill="transparent" stroke="gray" stroke-width="0.02" d="M 0 7 h 15" />
	<path fill="transparent" stroke="gray" stroke-width="0.02" d="M 8 0 v 15" />
	<path fill="transparent" stroke="gray" stroke-width="0.02" d="M 0 8 h 15" />
	<path fill="transparent" stroke="gray" stroke-width="0.02" d="M 9 0 v 15" />
	<path fill="transparent" stroke="gray" stroke-width="0.02" d="M 0 9 h 15" />
	<path fill="transparent" stroke="gray" stroke-width="0.02" d="M 10 0 v 15" />
	<path fill="transparent" stroke="gray" stroke-width="0.02" d="M 0 10 h 15" />
	<path fill="transparent" stroke="gray" stroke-width="0.02" d="M 11 0 v 15" />
	<path fill="transparent" stroke="gray" stroke-width="0.02" d="M 0 11 h 15" />
	<path fill="transparent" stroke="gray" stroke-width="0.02" d="M 12 0 v 15" />
	<path fill="transparent" stroke="gray" stroke-width="0.02" d="M 0 12 h 15" />
	<path fill="transparent" stroke="gray" stroke-width="0.02" d="M 13 0 v 15" />
	<path fill="transparent" stroke="gray" stroke-width="0.02" d="M 0 13 h 15" />
	<path fill="transparent" stroke="gray" stroke-width="0.02" d="M 14 0 v 15" />
	<path fill="transparent" stroke="gray" stroke-width="0.02" d="M 0 14 h 15" />
	<path fill="transparent" stroke="gray" stroke-width="0.02" d="M 14.99 0 v 15" />
	<path fill="transparent" stroke="gray" stroke-width="0.02" d="M 0 14.99 h 15" />
	<path d="M 0.5 0.5
L 1 0.5
L 2 0.5
L 3 0.5
L 4 0.5
L 5 0.5
L 6 0.5
L 7 0.5
L 8 0.5
L 9 0.5
L 10 0.5
L 11 0.5
L 12 0.5
L 13 0.5
L 14 0.5
A 0.5 0.5 0 0 1 14.5 1
L 14.5 2
L 14.5 3
L 14.5 4
L 14.5 5
L 14.5 6
L 14.5 7
A 0.5 0.5 0 0 1 14 7.5
L 13 7.5
L 12 7.5
A 0.5 0.5 0 0 1 11.5 7
A 0.5 0.5 0 0 0 11 6.5
A 0.5 0.5 0 0 1 10.5 6
A 0.5 0.5 0 0 0 10 5.5
A 0.5 0.5 0 0 1 9.5 5
L 9.5 4.5" fill="white" fill-opacity="0" stroke="black" stroke-width="0.05" stroke-linecap="round" />
	<path d="M 11.5 4.5
L 11.5 5
A 0.5 0.5 0 0 0 12 5.5
A 0.5 0.5 0 0 1 12.5 6
A 0.5 0.5 0 0 0 13 6.5
A 0.5 0.5 0 0 0 13.5 6
L 13.5 5
L 13.5 4.5
" fill="white" fill-opacity="0" stroke="blue" stroke-width="0.05" stroke-linecap="round" />
</svg>