<svg xmlns="http://www.w3.org/2000/svg" viewBox="0 0 13 13">
	<path d="M0,0 h13 v13 h-13 z" fill="#dddddd" />
	<rect width="1" height="1" x="0" y="0" fill="#e2bcbc" fill-opacity="1" />
	<rect width="1" height="1" x="1" y="0" fill="#e2bcbc" fill-opacity="1" />
	<rect width="1" height="1" x="2" y="0" fill="#e2bcbc" fill-opacity="1" />
	<rect width="1" height="1" x="2" y="1" fill="#e2bcbc" fill-opacity="1" />
	<rect width="1" height="1" x="3" y="1" fill="#e2bcbc" fill-opacity="1" />
	<rect width="1" height="1" x="3" y="0" fill="#e2bcbc" fill-opacity="1" />
	<rect width="1" height="1" x="4" y="0" fill="#e2bcbc" fill-opacity="1" />
	<rect width="1" height="1" x="5" y="0" fill="#e2bcbc" fill-opacity="1" />
	<rect width="1" height="1" x="6" y="0" fill="#e2bcbc" fill-opacity="1" />
	<rect width="1" height="1" x="7" y="0" fill="#e2bcbc" fill-opacity="1" />
	<rect width="1" height="1" x="8" y="0" fill="#e2bcbc" fill-opacity="1" />
	<rect width="1" height="1" x="8" y="1" fill="#e2bcbc" fill-opacity="1" />
	<rect width="1" height="1" x="9" y="1" fill="#e2bcbc" fill-opacity="1" />
	<rect width="1" height="1" x="9" y="0" fill="#e2bcbc" fill-opacity="1" />
	<rect width="1" height="1" x="10" y="0" fill="#e2bcbc" fill-opacity="1" />
	<rect width="1" height="1" x="10" y="1" fill="#e2bcbc" fill-opacity="1" />
	<rect width="1" height="1" x="11" y="1" fill="#e2bcbc" fill-opacity="1" />
	<rect width="1" height="1" x="11" y="0" fill="#e2bcbc" fill-opacity="1" />
	<rect width="1" height="1" x="12" y="0" fill="#e2bcbc" fill-opacity="1" />
	<rect width="1" height="1" x="12" y="1" fill="#e2bcbc" fill-opacity="1" />
	<rect width="1" height="1" x="12" y="2" fill="#e2bcbc" fill-opacity="1" />
	<rect width="1" height="1" x="11" y="2" fill="#e2bcbc" fill-opacity="1" />
	<rect width="1" height="1" x="10" y="2" fill="#e2bcbc" fill-opacity="1" />
	<rect width="1" height="1" x="9" y="2" fill="#e2bcbc" fill-opacity="1" />
	<rect width="1" height="1" x="9" y="3" fill="#e2bcbc" fill-opacity="1" />
	<rect width="1" height="1" x="8" y="3" fill="#e2bcbc" fill-opacity="1" />
	<rect width="1" height="1" x="8" y="2" fill="#e2bcbc" fill-opacity="1" />
	<rect width="1" height="1" x="7" y="2" fill="#e2bcbc" fill-opacity="1" />
	<rect width="1" height="1" x="7" y="1" fill="#e2bcbc" fill-opacity="1" />
	<rect width="1" height="1" x="6" y="1" fill="#e2bcbc" fill-opacity="1" />
	<rect width="1" height="1" x="6" y="2" fill="#e2bcbc" fill-opacity="1" />
	<rect width="1" height="1" x="6" y="3" fill="#e2bcbc" fill-opacity="1" />
	<rect width="1" height="1" x="7" y="3" fill="#e2bcbc" fill-opacity="1" />
	<rect width="1" height="1" x="7" y="4" fill="#e2bcbc" fill-opacity="1" />
	<rect width="1" height="1" x="8" y="4" fill="#e2bcbc" fill-opacity="1" />
	<rect width="1" height="1" x="8" y="5" fill="#e2bcbc" fill-opacity="1" />
	<rect width="1" height="1" x="7" y="5" fill="#e2bcbc" fill-opacity="1" />
	<rect width="1" height="1" x="6" y="5" fill="#e2bcbc" fill-opacity="1" />
	<rect width="1" height="1" x="6" y="4" fill="#e2bcbc" fill-opacity="1" />
	<rect width="1" height="1" x="5" y="4" fill="#e2bcbc" fill-opacity="1" />
	<rect width="1" height="1" x="4" y="4" fill="#e2bcbc" fill-opacity="1" />
	<rect width="1" height="1" x="4" y="3" fill="#e2bcbc" fill-opacity="1" />
	<rect width="1" height="1" x="5" y="3" fill="#e2bcbc" fill-opacity="1" />
	<rect width="1" height="1" x="5" y="2" fill="#e2bcbc" fill-opacity="1" />
	<rect width="1" height="1" x="5" y="1" fill="#e2bcbc" fill-opacity="1" />
	<rect width="1" height="1" x="4" y="1" fill="#e2bcbc" fill-opacity="1" />
	<rect width="1" height="1" x="4" y="2" fill="#e2bcbc" fill-opacity="1" />
	<rect width="1" height="1" x="3" y="2" fill="#e2bcbc" fill-opacity="1" />
	<rect width="1" height="1" x="2" y="2" fill="#e2bcbc" fill-opacity="1" />
	<rect width="1" height="1" x="1" y="2" fill="#e2bcbc" fill-opacity="1" />
	<rect width="1" height="1" x="1" y="1" fill="#e2bcbc" fill-opacity="1" />
	<rect width="1" height="1" x="0" y="1" fill="#e2bcbc" fill-opacity="1" />
	<rect width="1" height="1" x="0" y="2" fill="#e2bcbc" fill-opacity="1" />
	<rect width="1" height="1" x="0" y="3" fill="#e2bcbc" fill-opacity="1" />
	<rect width="1" height="1" x="1" y="3" fill="#e2bcbc" fill-opacity="1" />
	<rect width="1" height="1" x="1" y="4" fill="#e2bcbc" fill-opacity="1" />
	<rect width="1" height="1" x="0" y="4" fill="#e2bcbc" fill-opacity="1" />
	<rect width="1" height="1" x="0" y="5" fill="#e2bcbc" fill-opacity="1" />
	<rect width="1" height="1" x="0" y="6" fill="#e2bcbc" fill-opacity="1" />
	<rect width="1" height="1" x="1" y="6" fill="#e2bcbc" fill-opacity="1" />
	<rect width="1" height="1" x="1" y="5" fill="#e2bcbc" fill-opacity="1" />
	<rect width="1" height="1" x="2" y="5" fill="#e2bcbc" fill-opacity="1" />
	<rect width="1" height="1" x="2" y="4" fill="#e2bcbc" fill-opacity="1" />
	<rect width="1" height="1" x="2" y="3" fill="#e2bcbc" fill-opacity="1" />
	<rect width="1" height="1" x="3" y="3" fill="#e2bcbc" fill-opacity="1" />
	<rect width="1" height="1" x="3" y="4" fill="#e2bcbc" fill-opacity="1" />
	<rect width="1" height="1" x="3" y="5" fill="#e2bcbc" fill-opacity="1" />
	<rect width="1" height="1" x="3" y="6" fill="#e2bcbc" fill-opacity="1" />
	<rect width="1" height="1" x="2" y="6" fill="#e2bcbc" fill-opacity="1" />
	<rect width="1" height="1" x="2" y="7" fill="#e2bcbc" fill-opacity="1" />
	<rect width="1" height="1" x="1" y="7" fill="#e2bcbc" fill-opacity="1" />
	<rect width="1" height="1" x="0" y="7" fill="#e2bcbc" fill-opacity="1" />
	<rect width="1" height="1" x="0" y="8" fill="#e2bcbc" fill-opacity="1" />
	<rect width="1" height="1" x="1" y="8" fill="#e2bcbc" fill-opacity="1" />
	<rect width="1" height="1" x="1" y="9" fill="#e2bcbc" fill-opacity="1" />
	<rect width="1" height="1" x="0" y="9" fill="#e2bcbc" fill-opacity="1" />
	<rect width="1" height="1" x="0" y="10" fill="#e2bcbc" fill-opacity="1" />
	<rect width="1" height="1" x="1" y="10" fill="#e2bcbc" fill-opacity="1" />
	<rect width="1" height="1" x="2" y="10" fill="#e2bcbc" fill-opacity="1" />
	<rect width="1" height="1" x="2" y="11" fill="#e2bcbc" fill-opacity="1" />
	<rect width="1" height="1" x="1" y="11" fill="#e2bcbc" fill-opacity="1" />
	<rect width="1" height="1" x="0" y="11" fill="#e2bcbc" fill-opacity="1" />
	<rect width="1" height="1" x="0" y="12" fill="#e2bcbc" fill-opacity="1" />
	<rect width="1" height="1" x="1" y="12" fill="#e2bcbc" fill-opacity="1" />
	<rect width="1" height="1" x="2" y="12" fill="#e2bcbc" fill-opacity="1" />
	<rect width="1" height="1" x="3" y="12" fill="#e2bcbc" fill-opacity="1" />
	<rect width="1" height="1" x="3" y="11" fill="#e2bcbc" fill-opacity="1" />
	<rect width="1" height="1" x="4" y="11" fill="#e2bcbc" fill-opacity="1" />
	<rect width="1" height="1" x="4" y="12" fill="#e2bcbc" fill-opacity="1" />
	<rect width="1" height="1" x="5" y="12" fill="#e2bcbc" fill-opacity="1" />
	<rect width="1" height="1" x="6" y="12" fill="#e2bcbc" fill-opacity="1" />
	<rect width="1" height="1" x="7" y="12" fill="#e2bcbc" fill-opacity="1" />
	<rect width="1" height="1" x="7" y="11" fill="#e2bcbc" fill-opacity="1" />
	<rect width="1" height="1" x="8" y="11" fill="#e2bcbc" fill-opacity="1" />
	<rect width="1" height="1" x="8" y="12" fill="#e2bcbc" fill-opacity="1" />
	<rect width="1" height="1" x="9" y="12" fill="#e2bcbc" fill-opacity="1" />
	<rect width="1" height="1" x="9" y="11" fill="#e2bcbc" fill-opacity="1" />
	<rect width="1" height="1" x="10" y="11" fill="#e2bcbc" fill-opacity="1" />
	<rect width="1" height="1" x="10" y="12" fill="#e2bcbc" fill-opacity="1" />
	<rect width="1" height="1" x="11" y="12" fill="#e2bcbc" fill-opacity="1" />
	<rect width="1" height="1" x="11" y="11" fill="#e2bcbc" fill-opacity="1" />
	<rect width="1" height="1" x="11" y="10" fill="#e2bcbc" fill-opacity="1" />
	<rect width="1" height="1" x="10" y="10" fill="#e2bcbc" fill-opacity="1" />
	<rect width="1" height="1" x="10" y="9" fill="#e2bcbc" fill-opacity="1" />
	<rect width="1" height="1" x="10" y="8" fill="#e2bcbc" fill-opacity="1" />
	<rect width="1" height="1" x="9" y="8" fill="#e2bcbc" fill-opacity="1" />
	<rect width="1" height="1" x="9" y="9" fill="#e2bcbc" fill-opacity="1" />
	<rect width="1" height="1" x="9" y="10" fill="#e2bcbc" fill-opacity="1" />
	<rect width="1" height="1" x="8" y="10" fill="#e2bcbc" fill-opacity="1" />
	<rect width="1" height="1" x="7" y="10" fill="#e2bcbc" fill-opacity="1" />
	<rect width="1" height="1" x="7" y="9" fill="#e2bcbc" fill-opacity="1" />
	<rect width="1" height="1" x="8" y="9" fill="#e2bcbc" fill-opacity="1" />
	<rect width="1" height="1" x="8" y="8" fill="#e2bcbc" fill-opacity="1" />
	<rect width="1" height="1" x="7" y="8" fill="#e2bcbc" fill-opacity="1" />
	<rect width="1" height="1" x="6" y="8" fill="#e2bcbc" fill-opacity="1" />
	<rect width="1" height="1" x="6" y="9" fill="#e2bcbc" fill-opacity="1" />
	<rect width="1" height="1" x="6" y="10" fill="#e2bcbc" fill-opacity="1" />
	<rect width="1" height="1" x="6" y="11" fill="#e2bcbc" fill-opacity="1" />
	<rect width="1" height="1" x="5" y="11" fill="#e2bcbc" fill-opacity="1" />
	<rect width="1" height="1" x="5" y="10" fill="#e2bcbc" fill-opacity="1" />
	<rect width="1" height="1" x="5" y="9" fill="#000000" fill-opacity="0.1" />
	<path fill="transparent" stroke="gray" stroke-width="0.02" d="M 0.01 0 v 13" />
	<path fill="transparent" stroke="gray" stroke-width="0.02" d="M 0 0.01 h 13" />
	<path fill="transparent" stroke="gray" stroke-width="0.02" d="M 1 0 v 13" />
	<path fill="transparent" stroke="gray" stroke-width="0.02" d="M 0 1 h 13" />
	<path fill="transparent" stroke="gray" stroke-width="0.02" d="M 2 0 v 13" />
	<path fill="transparent" stroke="gray" stroke-width="0.02" d="M 0 2 h 13" />
	<path fill="transparent" stroke="gray" stroke-width="0.02" d="M 3 0 v 13" />
	<path fill="transparent" stroke="gray" stroke-width="0.02" d="M 0 3 h 13" />
	<path fill="transparent" stroke="gray" stroke-width="0.02" d="M 4 0 v 13" />
	<path fill="transparent" stroke="gray" stroke-width="0.02" d="M 0 4 h 13" />
	<path fill="transparent" stroke="gray" stroke-width="0.02" d="M 5 0 v 13" />
	<path fill="transparent" stroke="gray" stroke-width="0.02" d="M 0 5 h 13" />
	<path fill="transparent" stroke="gray" stroke-width="0.02" d="M 6 0 v 13" />
	<path fill="transparent" stroke="gray" stroke-width="0.02" d="M 0 6 h 13" />
	<path fill="transparent" stroke="gray" stroke-width="0.02" d="M 7 0 v 13" />
	<path fill="transparent" stroke="gray" stroke-width="0.02" d="M 0 7 h 13" />
	<path fill="transparent" stroke="gray" stroke-width="0.02" d="M 8 0 v 13" />
	<path fill="transparent" stroke="gray" stroke-width="0.02" d="M 0 8 h 13" />
	<path fill="transparent" stroke="gray" stroke-width="0.02" d="M 9 0 v 13" />
	<path fill="transparent" stroke="gray" stroke-width="0.02" d="M 0 9 h 13" />
	<path fill="transparent" stroke="gray" stroke-width="0.02" d="M 10 0 v 13" />
	<path fill="transparent" stroke="gray" stroke-width="0.02" d="M 0 10 h 13" />
	<path fill="transparent" stroke="gray" stroke-width="0.02" d="M 11 0 v 13" />
	<path fill="transparent" stroke="gray" stroke-width="0.02" d="M 0 11 h 13" />
	<path fill="transparent" stroke="gray" stroke-width="0.02" d="M 12 0 v 13" />
	<path fill="transparent" stroke="gray" stroke-width="0.02" d="M 0 12 h 13" />
	<path fill="transparent" stroke="gray" stroke-width="0.02" d="M 12.99 0 v 13" />
	<path fill="transparent" stroke="gray" stroke-width="0.02" d="M 0 12.99 h 13" />
	<path d="M 0.5 0.5
L 1 0.5
L 2 0.5
A 0.5 0.5 0 0 1 2.5 1
A 0.5 0.5 0 0 0 3 1.5
A 0.5 0.5 0 0 0 3.5 1
A 0.5 0.5 0 0 1 4 0.5
L 5 0.5
L 6 0.5
L 7 0.5
L 8 0.5
A 0.5 0.5 0 0 1 8.5 1
A 0.5 0.5 0 0 0 9 1.5
A 0.5 0.5 0 0 0 9.5 1
A 0.5 0.5 0 0 1 10 0.5
A 0.5 0.5 0 0 1 10.5 1
A 0.5 0.5 0 0 0 11 1.5
A 0.5 0.5 0 0 0 11.5 1
A 0.5 0.5 0 0 1 12 0.5
A 0.5 0.5 0 0 1 12.5 1
L 12.5 2
A 0.5 0.5 0 0 1 12 2.5
L 11 2.5
L 10 2.5
A 0.5 0.5 0 0 0 9.5 3
A 0.5 0.5 0 0 1 9 3.5
A 0.5 0.5 0 0 1 8.5 3
A 0.5 0.5 0 0 0 8 2.5
A 0.5 0.5 0 0 1 7.5 2
A 0.5 0.5 0 0 0 7 1.5
A 0.5 0.5 0 0 0 6.5 2
L 6.5 3
A 0.5 0.5 0 0 0 7 3.5
A 0.5 0.5 0 0 1 7.5 4
A 0.5 0.5 0 0 0 8 4.5
A 0.5 0.5 0 0 1 8.5 5
A 0.5 0.5 0 0 1 8 5.5
L 7 5.5
A 0.5 0.5 0 0 1 6.5 5
A 0.5 0.5 0 0 0 6 4.5
L 5 4.5
A 0.5 0.5 0 0 1 4.5 4
A 0.5 0.5 0 0 1 5 3.5
A 0.5 0.5 0 0 0 5.5 3
L 5.5 2
A 0.5 0.5 0 0 0 5 1.5
A 0.5 0.5 0 0 0 4.5 2
A 0.5 0.5 0 0 1 4 2.5
L 3 2.5
L 2 2.5
A 0.5 0.5 0 0 1 1.5 2
A 0.5 0.5 0 0 0 1 1.5
A 0.5 0.5 0 0 0 0.5 2
L 0.5 3
A 0.5 0.5 0 0 0 1 3.5
A 0.5 0.5 0 0 1 1.5 4
A 0.5 0.5 0 0 1 1 4.5
A 0.5 0.5 0 0 0 0.5 5
L 0.5 6
A 0.5 0.5 0 0 0 1 6.5
A 0.5 0.5 0 0 0 1.5 6
A 0.5 0.5 0 0 1 2 5.5
A 0.5 0.5 0 0 0 2.5 5
L 2.5 4
A 0.5 0.5 0 0 1 3 3.5
A 0.5 0.5 0 0 1 3.5 4
L 3.5 5
L 3.5 6
A 0.5 0.5 0 0 1 3 6.5
A 0.5 0.5 0 0 0 2.5 7
A 0.5 0.5 0 0 1 2 7.5
L 1 7.5
A 0.5 0.5 0 0 0 0.5 8
A 0.5 0.5 0 0 0 1 8.5
A 0.5 0.5 0 0 1 1.5 9
A 0.5 0.5 0 0 1 1 9.5
A 0.5 0.5 0 0 0 0.5 10
A 0.5 0.5 0 0 0 1 10.5
L 2 10.5
A 0.5 0.5 0 0 1 2.5 11
A 0.5 0.5 0 0 1 2 11.5
L 1 11.5
A 0.5 0.5 0 0 0 0.5 12
A 0.5 0.5 0 0 0 1 12.5
L 2 12.5
L 3 12.5
A 0.5 0.5 0 0 0 3.5 12
A 0.5 0.5 0 0 1 4 11.5
A 0.5 0.5 0 0 1 4.5 12
A 0.5 0.5 0 0 0 5 12.5
L 6 12.5
L 7 12.5
A 0.5 0.5 0 0 0 7.5 12
A 0.5 0.5 0 0 1 8 11.5
A 0.5 0.5 0 0 1 8.5 12
A 0.5 0.5 0 0 0 9 12.5
A 0.5 0.5 0 0 0 9.5 12
A 0.5 0.5 0 0 1 10 11.5
A 0.5 0.5 0 0 1 10.5 12
A 0.5 0.5 0 0 0 11 12.5
A 0.5 0.5 0 0 0 11.5 12
L 11.5 11
A 0.5 0.5 0 0 0 11 10.5
A 0.5 0.5 0 0 1 10.5 10
L 10.5 9
A 0.5 0.5 0 0 0 10 8.5
A 0.5 0.5 0 0 0 9.5 9
L 9.5 10
A 0.5 0.5 0 0 1 9 10.5
L 8 10.5
A 0.5 0.5 0 0 1 7.5 10
A 0.5 0.5 0 0 1 8 9.5
A 0.5 0.5 0 0 0 8.5 9
A 0.5 0.5 0 0 0 8 8.5
L 7 8.5
A 0.5 0.5 0 0 0 6.5 9
L 6.5 10
L 6.5 11
A 0.5 0.5 0 0 1 6 11.5
A 0.5 0.5 0 0 1 5.5 11
L 5.5 10.5" fill="white" fill-opacity="0" stroke="black" stroke-width="0.05" stroke-linecap="round" />
</svg>