<svg xmlns="http://www.w3.org/2000/svg" viewBox="0 0 15 15">
	<path d="M0,0 h15 v15 h-15 z" fill="#dddddd" />
	<rect width="1" height="1" x="0" y="0" fill="#e2bcbc" fill-opacity="1" />
	<rect width="1" height="1" x="1" y="0" fill="#e2bcbc" fill-opacity="1" />
	<rect width="1" height="1" x="2" y="0" fill="#e2bcbc" fill-opacity="1" />
	<rect width="1" height="1" x="3" y="0" fill="#e2bcbc" fill-opacity="1" />
	<rect width="1" height="1" x="4" y="0" fill="#e2bcbc" fill-opacity="1" />
	<rect width="1" height="1" x="5" y="0" fill="#e2bcbc" fill-opacity="1" />
	<rect width="1" height="1" x="6" y="0" fill="#e2bcbc" fill-opacity="1" />
	<rect width="1" height="1" x="7" y="0" fill="#e2bcbc" fill-opacity="1" />
	<rect width="1" height="1" x="8" y="0" fill="#e2bcbc" fill-opacity="1" />
	<rect width="1" height="1" x="9" y="0" fill="#e2bcbc" fill-opacity="1" />
	<rect width="1" height="1" x="10" y="0" fill="#e2bcbc" fill-opacity="1" />
	<rect width="1" height="1" x="11" y="0" fill="#e2bcbc" fill-opacity="1" />
	<rect width="1" height="1" x="11" y="1" fill="#e2bcbc" fill-opacity="1" />
	<rect width="1" height="1" x="11" y="2" fill="#e2bcbc" fill-opacity="1" />
	<rect width="1" height="1" x="10" y="2" fill="#e2bcbc" fill-opacity="1" />
	<rect width="1" height="1" x="10" y="1" fill="#e2bcbc" fill-opacity="1" />
	<rect width="1" height="1" x="9" y="1" fill="#e2bcbc" fill-opacity="1" />
	<rect width="1" height="1" x="8" y="1" fill="#e2bcbc" fill-opacity="1" />
	<rect width="1" height="1" x="7" y="1" fill="#e2bcbc" fill-opacity="1" />
	<rect width="1" height="1" x="7" y="2" fill="#e2bcbc" fill-opacity="1" />
	<rect width="1" height="1" x="7" y="3" fill="#e2bcbc" fill-opacity="1" />
	<rect width="1" height="1" x="6" y="3" fill="#e2bcbc" fill-opacity="1" />
	<rect width="1" height="1" x="5" y="3" fill="#e2bcbc" fill-opacity="1" />
	<rect width="1" height="1" x="4" y="3" fill="#e2bcbc" fill-opacity="1" />
	<rect width="1" height="1" x="4" y="4" fill="#e2bcbc" fill-opacity="1" />
	<rect width="1" height="1" x="4" y="5" fill="#e2bcbc" fill-opacity="1" />
	<rect width="1" height="1" x="4" y="6" fill="#e2bcbc" fill-opacity="1" />
	<rect width="1" height="1" x="4" y="7" fill="#e2bcbc" fill-opacity="1" />
	<rect width="1" height="1" x="4" y="8" fill="#e2bcbc" fill-opacity="1" />
	<rect width="1" height="1" x="4" y="9" fill="#e2bcbc" fill-opacity="1" />
	<rect width="1" height="1" x="4" y="10" fill="#e2bcbc" fill-opacity="1" />
	<rect width="1" height="1" x="5" y="10" fill="#e2bcbc" fill-opacity="1" />
	<rect width="1" height="1" x="6" y="10" fill="#e2bcbc" fill-opacity="1" />
	<rect width="1" height="1" x="7" y="10" fill="#e2bcbc" fill-opacity="1" />
	<rect width="1" height="1" x="8" y="10" fill="#e2bcbc" fill-opacity="1" />
	<rect width="1" height="1" x="9" y="10" fill="#e2bcbc" fill-opacity="1" />
	<rect width="1" height="1" x="9" y="9" fill="#e2bcbc" fill-opacity="1" />
	<rect width="1" height="1" x="9" y="8" fill="#e2bcbc" fill-opacity="1" />
	<rect width="1" height="1" x="9" y="7" fill="#e2bcbc" fill-opacity="1" />
	<rect width="1" height="1" x="9" y="6" fill="#e2bcbc" fill-opacity="1" />
	<rect width="1" height="1" x="9" y="5" fill="#000000" fill-opacity="0.1" />
	<rect width="1" height="1" x="10" y="6" fill="#000000" fill-opacity="0.1" />
	<rect width="1" height="1" x="8" y="6" fill="#000000" fill-opacity="0.1" />
	<path fill="transparent" stroke="gray" stroke-width="0.02" d="M 0.01 0 v 15" />
	<path fill="transparent" stroke="gray" stroke-width="0.02" d="M 0 0.01 h 15" />
	<path fill="transparent" stroke="gray" stroke-width="0.02" d="M 1 0 v 15" />
	<path fill="transparent" stroke="gray" stroke-width="0.02" d="M 0 1 h 15" />
	<path fill="transparent" stroke="gray" stroke-width="0.02" d="M 2 0 v 15" />
	<path fill="transparent" stroke="gray" stroke-width="0.02" d="M 0 2 h 15" />
	<path fill="transparent" stroke="gray" stroke-width="0.02" d="M 3 0 v 15" />
	<path fill="transparent" stroke="gray" stroke-width="0.02" d="M 0 3 h 15" />
	<path fill="transparent" stroke="gray" stroke-width="0.02" d="M 4 0 v 15" />
	<path fill="transparent" stroke="gray" stroke-width="0.02" d="M 0 4 h 15" />
	<path fill="transparent" stroke="gray" stroke-width="0.02" d="M 5 0 v 15" />
	<path fill="transparent" stroke="gray" stroke-width="0.02" d="M 0 5 h 15" />
	<path fill="transparent" stroke="gray" stroke-width="0.02" d="M 6 0 v 15" />
	<path fill="transparent" stroke="gray" stroke-width="0.02" d="M 0 6 h 15" />
	<path fill="transparent" stroke="gray" stroke-width="0.02" d="M 7 0 v 15" />
	<path fill="transparent" stroke="gray" stroke-width="0.02" d="M 0 7 h 15" />
	<path fill="transparent" stroke="gray" stroke-width="0.02" d="M 8 0 v 15" />
	<path fill="transparent" stroke="gray" stroke-width="0.02" d="M 0 8 h 15" />
	<path fill="transparent" stroke="gray" stroke-width="0.02" d="M 9 0 v 15" />
	<path fill="transparent" stroke="gray" stroke-width="0.02" d="M 0 9 h 15" />
	<path fill="transparent" stroke="gray" stroke-width="0.02" d="M 10 0 v 15" />
	<path fill="transparent" stroke="gray" stroke-width="0.02" d="M 0 10 h 15" />
	<path fill="transparent" stroke="gray" stroke-width="0.02" d="M 11 0 v 15" />
	<path fill="transparent" stroke="gray" stroke-width="0.02" d="M 0 11 h 15" />
	<path fill="transparent" stroke="gray" stroke-width="0.02" d="M 12 0 v 15" />
	<path fill="transparent" stroke="gray" stroke-width="0.02" d="M 0 12 h 15" />
	<path fill="transparent" stroke="gray" stroke-width="0.02" d="M 13 0 v 15" />
	<path fill="transparent" stroke="gray" stroke-width="0.02" d="M 0 13 h 15" />
	<path fill="transparent" stroke="gray" stroke-width="0.02" d="M 14 0 v 15" />
	<path fill="transparent" stroke="gray" stroke-width="0.02" d="M 0 14 h 15" />
	<path fill="transparent" stroke="gray" stroke-width="0.02" d="M 14.99 0 v 15" />
	<path fill="transparent" stroke="gray" stroke-width="0.02" d="M 0 14.99 h 15" />
	<path d="M 0.5 0.5
L 1 0.5
L 2 0.5
L 3 0.5
L 4 0.5
L 5 0.5
L 6 0.5
L 7 0.5
L 8 0.5
L 9 0.5
L 10 0.5
L 11 0.5
A 0.5 0.5 0 0 1 11.5 1
L 11.5 2
A 0.5 0.5 0 0 1 11 2.5
A 0.5 0.5 0 0 1 10.5 2
A 0.5 0.5 0 0 0 10 1.5
L 9 1.5
L 8 1.5
A 0.5 0.5 0 0 0 7.5 2
L 7.5 3
A 0.5 0.5 0 0 1 7 3.5
L 6 3.5
L 5 3.5
A 0.5 0.5 0 0 0 4.5 4
L 4.5 5
L 4.5 6
L 4.5 7
L 4.5 8
L 4.5 9
L 4.5 10
A 0.5 0.5 0 0 0 5 10.5
L 6 10.5
L 7 10.5
L 8 10.5
L 9 10.5
A 0.5 0.5 0 0 0 9.5 10
L 9.5 9
L 9.5 8
L 9.5 7
L 9.5 6.5" fill="white" fill-opacity="0" stroke="black" stroke-width="0.05" stroke-linecap="round" />
</svg>