<svg xmlns="http://www.w3.org/2000/svg" viewBox="0 0 21 21">
	<path d="M0,0 h21 v21 h-21 z" fill="#dddddd" />
	<rect width="1" height="1" x="0" y="0" fill="#e2bcbc" fill-opacity="1" />
	<rect width="1" height="1" x="0" y="1" fill="#e2bcbc" fill-opacity="1" />
	<rect width="1" height="1" x="0" y="2" fill="#e2bcbc" fill-opacity="1" />
	<rect width="1" height="1" x="0" y="3" fill="#e2bcbc" fill-opacity="1" />
	<rect width="1" height="1" x="0" y="4" fill="#e2bcbc" fill-opacity="1" />
	<rect width="1" height="1" x="0" y="5" fill="#e2bcbc" fill-opacity="1" />
	<rect width="1" height="1" x="0" y="6" fill="#e2bcbc" fill-opacity="1" />
	<rect width="1" height="1" x="0" y="7" fill="#e2bcbc" fill-opacity="1" />
	<rect width="1" height="1" x="0" y="8" fill="#e2bcbc" fill-opacity="1" />
	<rect width="1" height="1" x="0" y="9" fill="#e2bcbc" fill-opacity="1" />
	<rect width="1" height="1" x="0" y="10" fill="#e2bcbc" fill-opacity="1" />
	<rect width="1" height="1" x="0" y="11" fill="#e2bcbc" fill-opacity="1" />
	<rect width="1" height="1" x="0" y="12" fill="#e2bcbc" fill-opacity="1" />
	<rect width="1" height="1" x="0" y="13" fill="#e2bcbc" fill-opacity="1" />
	<rect width="1" height="1" x="0" y="14" fill="#e2bcbc" fill-opacity="1" />
	<rect width="1" height="1" x="0" y="15" fill="#e2bcbc" fill-opacity="1" />
	<rect width="1" height="1" x="1" y="15" fill="#e2bcbc" fill-opacity="1" />
	<rect width="1" height="1" x="2" y="15" fill="#e2bcbc" fill-opacity="1" />
	<rect width="1" height="1" x="3" y="15" fill="#e2bcbc" fill-opacity="1" />
	<rect width="1" height="1" x="4" y="15" fill="#e2bcbc" fill-opacity="1" />
	<rect width="1" height="1" x="5" y="15" fill="#e2bcbc" fill-opacity="1" />
	<rect width="1" height="1" x="6" y="15" fill="#e2bcbc" fill-opacity="1" />
	<rect width="1" height="1" x="7" y="15" fill="#e2bcbc" fill-opacity="1" />
	<rect width="1" height="1" x="7" y="14" fill="#e2bcbc" fill-opacity="1" />
	<rect width="1" height="1" x="7" y="13" fill="#e2bcbc" fill-opacity="1" />
	<rect width="1" height="1" x="7" y="12" fill="#e2bcbc" fill-opacity="1" />
	<rect width="1" height="1" x="6" y="12" fill="#e2bcbc" fill-opacity="1" />
	<rect width="1" height="1" x="6" y="11" fill="#e2bcbc" fill-opacity="1" />
	<rect width="1" height="1" x="6" y="10" fill="#e2bcbc" fill-opacity="1" />
	<rect width="1" height="1" x="5" y="10" fill="#e2bcbc" fill-opacity="1" />
	<rect width="1" height="1" x="5" y="9" fill="#e2bcbc" fill-opacity="1" />
	<rect width="1" height="1" x="5" y="8" fill="#e2bcbc" fill-opacity="1" />
	<rect width="1" height="1" x="4" y="8" fill="#e2bcbc" fill-opacity="1" />
	<rect width="1" height="1" x="4" y="7" fill="#e2bcbc" fill-opacity="1" />
	<rect width="1" height="1" x="4" y="6" fill="#e2bcbc" fill-opacity="1" />
	<rect width="1" height="1" x="4" y="5" fill="#e2bcbc" fill-opacity="1" />
	<rect width="1" height="1" x="4" y="4" fill="#e2bcbc" fill-opacity="1" />
	<rect width="1" height="1" x="4" y="3" fill="#e2bcbc" fill-opacity="1" />
	<rect width="1" height="1" x="5" y="3" fill="#e2bcbc" fill-opacity="1" />
	<rect width="1" height="1" x="6" y="3" fill="#e2bcbc" fill-opacity="1" />
	<rect width="1" height="1" x="7" y="3" fill="#e2bcbc" fill-opacity="1" />
	<rect width="1" height="1" x="8" y="3" fill="#e2bcbc" fill-opacity="1" />
	<rect width="1" height="1" x="9" y="3" fill="#e2bcbc" fill-opacity="1" />
	<rect width="1" height="1" x="10" y="3" fill="#e2bcbc" fill-opacity="1" />
	<rect width="1" height="1" x="11" y="3" fill="#e2bcbc" fill-opacity="1" />
	<rect width="1" height="1" x="12" y="3" fill="#e2bcbc" fill-opacity="1" />
	<rect width="1" height="1" x="13" y="3" fill="#e2bcbc" fill-opacity="1" />
	<rect width="1" height="1" x="14" y="3" fill="#e2bcbc" fill-opacity="1" />
	<rect width="1" height="1" x="15" y="3" fill="#e2bcbc" fill-opacity="1" />
	<rect width="1" height="1" x="16" y="3" fill="#e2bcbc" fill-opacity="1" />
	<rect width="1" height="1" x="16" y="4" fill="#e2bcbc" fill-opacity="1" />
	<rect width="1" height="1" x="16" y="5" fill="#e2bcbc" fill-opacity="1" />
	<rect width="1" height="1" x="16" y="6" fill="#e2bcbc" fill-opacity="1" />
	<rect width="1" height="1" x="16" y="7" fill="#e2bcbc" fill-opacity="1" />
	<rect width="1" height="1" x="16" y="8" fill="#e2bcbc" fill-opacity="1" />
	<rect width="1" height="1" x="16" y="9" fill="#e2bcbc" fill-opacity="1" />
	<rect width="1" height="1" x="16" y="10" fill="#e2bcbc" fill-opacity="1" />
	<rect width="1" height="1" x="16" y="11" fill="#e2bcbc" fill-opacity="1" />
	<rect width="1" height="1" x="16" y="12" fill="#e2bcbc" fill-opacity="1" />
	<rect width="1" height="1" x="15" y="12" fill="#e2bcbc" fill-opacity="1" />
	<rect width="1" height="1" x="14" y="12" fill="#e2bcbc" fill-opacity="1" />
	<rect width="1" height="1" x="13" y="12" fill="#e2bcbc" fill-opacity="1" />
	<rect width="1" height="1" x="12" y="12" fill="#e2bcbc" fill-opacity="1" />
	<rect width="1" height="1" x="11" y="12" fill="#e2bcbc" fill-opacity="1" />
	<rect width="1" height="1" x="11" y="11" fill="#e2bcbc" fill-opacity="1" />
	<rect width="1" height="1" x="11" y="10" fill="#e2bcbc" fill-opacity="1" />
	<rect width="1" height="1" x="10" y="10" fill="#e2bcbc" fill-opacity="1" />
	<rect width="1" height="1" x="10" y="9" fill="#e2bcbc" fill-opacity="1" />
	<rect width="1" height="1" x="10" y="8" fill="#e2bcbc" fill-opacity="1" />
	<rect width="1" height="1" x="9" y="8" fill="#e2bcbc" fill-opacity="1" />
	<rect width="1" height="1" x="9" y="7" fill="#e2bcbc" fill-opacity="1" />
	<rect width="1" height="1" x="9" y="6" fill="#e2bcbc" fill-opacity="1" />
	<rect width="1" height="1" x="8" y="6" fill="#e2bcbc" fill-opacity="1" />
	<rect width="1" height="1" x="8" y="5" fill="#e2bcbc" fill-opacity="1" />
	<rect width="1" height="1" x="9" y="5" fill="#e2bcbc" fill-opacity="1" />
	<rect width="1" height="1" x="10" y="5" fill="#e2bcbc" fill-opacity="1" />
	<rect width="1" height="1" x="10" y="6" fill="#e2bcbc" fill-opacity="1" />
	<rect width="1" height="1" x="10" y="7" fill="#e2bcbc" fill-opacity="1" />
	<rect width="1" height="1" x="11" y="7" fill="#e2bcbc" fill-opacity="1" />
	<rect width="1" height="1" x="11" y="8" fill="#e2bcbc" fill-opacity="1" />
	<rect width="1" height="1" x="11" y="9" fill="#e2bcbc" fill-opacity="1" />
	<rect width="1" height="1" x="12" y="9" fill="#e2bcbc" fill-opacity="1" />
	<rect width="1" height="1" x="13" y="9" fill="#e2bcbc" fill-opacity="1" />
	<rect width="1" height="1" x="13" y="8" fill="#e2bcbc" fill-opacity="1" />
	<rect width="1" height="1" x="12" y="8" fill="#e2bcbc" fill-opacity="1" />
	<rect width="1" height="1" x="12" y="7" fill="#e2bcbc" fill-opacity="1" />
	<rect width="1" height="1" x="12" y="6" fill="#e2bcbc" fill-opacity="1" />
	<rect width="1" height="1" x="11" y="6" fill="#e2bcbc" fill-opacity="1" />
	<rect width="1" height="1" x="11" y="5" fill="#e2bcbc" fill-opacity="1" />
	<rect width="1" height="1" x="12" y="5" fill="#e2bcbc" fill-opacity="1" />
	<rect width="1" height="1" x="13" y="5" fill="#e2bcbc" fill-opacity="1" />
	<rect width="1" height="1" x="14" y="5" fill="#e2bcbc" fill-opacity="1" />
	<rect width="1" height="1" x="14" y="6" fill="#e2bcbc" fill-opacity="1" />
	<rect width="1" height="1" x="13" y="6" fill="#e2bcbc" fill-opacity="1" />
	<rect width="1" height="1" x="13" y="7" fill="#e2bcbc" fill-opacity="1" />
	<rect width="1" height="1" x="14" y="7" fill="#e2bcbc" fill-opacity="1" />
	<rect width="1" height="1" x="14" y="8" fill="#e2bcbc" fill-opacity="1" />
	<rect width="1" height="1" x="14" y="9" fill="#e2bcbc" fill-opacity="1" />
	<rect width="1" height="1" x="14" y="10" fill="#e2bcbc" fill-opacity="1" />
	<rect width="1" height="1" x="13" y="10" fill="#e2bcbc" fill-opacity="1" />
	<rect width="1" height="1" x="12" y="10" fill="#e2bcbc" fill-opacity="1" />
	<rect width="1" height="1" x="12" y="11" fill="#e2bcbc" fill-opacity="1" />
	<rect width="1" height="1" x="13" y="11" fill="#e2bcbc" fill-opacity="1" />
	<rect width="1" height="1" x="14" y="11" fill="#e2bcbc" fill-opacity="1" />
	<rect width="1" height="1" x="15" y="11" fill="#e2bcbc" fill-opacity="1" />
	<rect width="1" height="1" x="15" y="10" fill="#e2bcbc" fill-opacity="1" />
	<rect width="1" height="1" x="15" y="9" fill="#e2bcbc" fill-opacity="1" />
	<rect width="1" height="1" x="15" y="8" fill="#e2bcbc" fill-opacity="1" />
	<rect width="1" height="1" x="15" y="7" fill="#e2bcbc" fill-opacity="1" />
	<rect width="1" height="1" x="15" y="6" fill="#e2bcbc" fill-opacity="1" />
	<rect width="1" height="1" x="15" y="5" fill="#e2bcbc" fill-opacity="1" />
	<rect width="1" height="1" x="15" y="4" fill="#e2bcbc" fill-opacity="1" />
	<rect width="1" height="1" x="14" y="4" fill="#e2bcbc" fill-opacity="1" />
	<rect width="1" height="1" x="13" y="4" fill="#e2bcbc" fill-opacity="1" />
	<rect width="1" height="1" x="12" y="4" fill="#e2bcbc" fill-opacity="1" />
	<rect width="1" height="1" x="11" y="4" fill="#e2bcbc" fill-opacity="1" />
	<rect width="1" height="1" x="10" y="4" fill="#e2bcbc" fill-opacity="1" />
	<rect width="1" height="1" x="9" y="4" fill="#e2bcbc" fill-opacity="1" />
	<rect width="1" height="1" x="8" y="4" fill="#e2bcbc" fill-opacity="1" />
	<rect width="1" height="1" x="7" y="4" fill="#e2bcbc" fill-opacity="1" />
	<rect width="1" height="1" x="6" y="4" fill="#e2bcbc" fill-opacity="1" />
	<rect width="1" height="1" x="5" y="4" fill="#e2bcbc" fill-opacity="1" />
	<rect width="1" height="1" x="5" y="5" fill="#e2bcbc" fill-opacity="1" />
	<rect width="1" height="1" x="5" y="6" fill="#bcbce2" fill-opacity="1" />
	<rect width="1" height="1" x="5" y="7" fill="#bcbce2" fill-opacity="1" />
	<rect width="1" height="1" x="6" y="7" fill="#bcbce2" fill-opacity="1" />
	<rect width="1" height="1" x="6" y="6" fill="#bcbce2" fill-opacity="1" />
	<rect width="1" height="1" x="6" y="5" fill="#bcbce2" fill-opacity="1" />
	<rect width="1" height="1" x="7" y="5" fill="#bcbce2" fill-opacity="1" />
	<rect width="1" height="1" x="7" y="6" fill="#bcbce2" fill-opacity="1" />
	<rect width="1" height="1" x="7" y="7" fill="#bcbce2" fill-opacity="1" />
	<rect width="1" height="1" x="8" y="7" fill="#bcbce2" fill-opacity="1" />
	<rect width="1" height="1" x="8" y="8" fill="#bcbce2" fill-opacity="1" />
	<rect width="1" height="1" x="7" y="8" fill="#bcbce2" fill-opacity="1" />
	<rect width="1" height="1" x="6" y="8" fill="#bcbce2" fill-opacity="1" />
	<rect width="1" height="1" x="6" y="9" fill="#bcbce2" fill-opacity="1" />
	<rect width="1" height="1" x="7" y="9" fill="#bcbce2" fill-opacity="1" />
	<rect width="1" height="1" x="8" y="9" fill="#000000" fill-opacity="0.1" />
	<rect width="1" height="1" x="7" y="10" fill="#000000" fill-opacity="0.1" />
	<path fill="transparent" stroke="gray" stroke-width="0.02" d="M 0.01 0 v 21" />
	<path fill="transparent" stroke="gray" stroke-width="0.02" d="M 0 0.01 h 21" />
	<path fill="transparent" stroke="gray" stroke-width="0.02" d="M 1 0 v 21" />
	<path fill="transparent" stroke="gray" stroke-width="0.02" d="M 0 1 h 21" />
	<path fill="transparent" stroke="gray" stroke-width="0.02" d="M 2 0 v 21" />
	<path fill="transparent" stroke="gray" stroke-width="0.02" d="M 0 2 h 21" />
	<path fill="transparent" stroke="gray" stroke-width="0.02" d="M 3 0 v 21" />
	<path fill="transparent" stroke="gray" stroke-width="0.02" d="M 0 3 h 21" />
	<path fill="transparent" stroke="gray" stroke-width="0.02" d="M 4 0 v 21" />
	<path fill="transparent" stroke="gray" stroke-width="0.02" d="M 0 4 h 21" />
	<path fill="transparent" stroke="gray" stroke-width="0.02" d="M 5 0 v 21" />
	<path fill="transparent" stroke="gray" stroke-width="0.02" d="M 0 5 h 21" />
	<path fill="transparent" stroke="gray" stroke-width="0.02" d="M 6 0 v 21" />
	<path fill="transparent" stroke="gray" stroke-width="0.02" d="M 0 6 h 21" />
	<path fill="transparent" stroke="gray" stroke-width="0.02" d="M 7 0 v 21" />
	<path fill="transparent" stroke="gray" stroke-width="0.02" d="M 0 7 h 21" />
	<path fill="transparent" stroke="gray" stroke-width="0.02" d="M 8 0 v 21" />
	<path fill="transparent" stroke="gray" stroke-width="0.02" d="M 0 8 h 21" />
	<path fill="transparent" stroke="gray" stroke-width="0.02" d="M 9 0 v 21" />
	<path fill="transparent" stroke="gray" stroke-width="0.02" d="M 0 9 h 21" />
	<path fill="transparent" stroke="gray" stroke-width="0.02" d="M 10 0 v 21" />
	<path fill="transparent" stroke="gray" stroke-width="0.02" d="M 0 10 h 21" />
	<path fill="transparent" stroke="gray" stroke-width="0.02" d="M 11 0 v 21" />
	<path fill="transparent" stroke="gray" stroke-width="0.02" d="M 0 11 h 21" />
	<path fill="transparent" stroke="gray" stroke-width="0.02" d="M 12 0 v 21" />
	<path fill="transparent" stroke="gray" stroke-width="0.02" d="M 0 12 h 21" />
	<path fill="transparent" stroke="gray" stroke-width="0.02" d="M 13 0 v 21" />
	<path fill="transparent" stroke="gray" stroke-width="0.02" d="M 0 13 h 21" />
	<path fill="transparent" stroke="gray" stroke-width="0.02" d="M 14 0 v 21" />
	<path fill="transparent" stroke="gray" stroke-width="0.02" d="M 0 14 h 21" />
	<path fill="transparent" stroke="gray" stroke-width="0.02" d="M 15 0 v 21" />
	<path fill="transparent" stroke="gray" stroke-width="0.02" d="M 0 15 h 21" />
	<path fill="transparent" stroke="gray" stroke-width="0.02" d="M 16 0 v 21" />
	<path fill="transparent" stroke="gray" stroke-width="0.02" d="M 0 16 h 21" />
	<path fill="transparent" stroke="gray" stroke-width="0.02" d="M 17 0 v 21" />
	<path fill="transparent" stroke="gray" stroke-width="0.02" d="M 0 17 h 21" />
	<path fill="transparent" stroke="gray" stroke-width="0.02" d="M 18 0 v 21" />
	<path fill="transparent" stroke="gray" stroke-width="0.02" d="M 0 18 h 21" />
	<path fill="transparent" stroke="gray" stroke-width="0.02" d="M 19 0 v 21" />
	<path fill="transparent" stroke="gray" stroke-width="0.02" d="M 0 19 h 21" />
	<path fill="transparent" stroke="gray" stroke-width="0.02" d="M 20 0 v 21" />
	<path fill="transparent" stroke="gray" stroke-width="0.02" d="M 0 20 h 21" />
	<path fill="transparent" stroke="gray" stroke-width="0.02" d="M 20.99 0 v 21" />
	<path fill="transparent" stroke="gray" stroke-width="0.02" d="M 0 20.99 h 21" />
	<path d="M 0.5 0.5
L 0.5 1
L 0.5 2
L 0.5 3
L 0.5 4
L 0.5 5
L 0.5 6
L 0.5 7
L 0.5 8
L 0.5 9
L 0.5 10
L 0.5 11
L 0.5 12
L 0.5 13
L 0.5 14
L 0.5 15
A 0.5 0.5 0 0 0 1 15.5
L 2 15.5
L 3 15.5
L 4 15.5
L 5 15.5
L 6 15.5
L 7 15.5
A 0.5 0.5 0 0 0 7.5 15
L 7.5 14
L 7.5 13
A 0.5 0.5 0 0 0 7 12.5
A 0.5 0.5 0 0 1 6.5 12
L 6.5 11
A 0.5 0.5 0 0 0 6 10.5
A 0.5 0.5 0 0 1 5.5 10
L 5.5 9
A 0.5 0.5 0 0 0 5 8.5
A 0.5 0.5 0 0 1 4.5 8
L 4.5 7
L 4.5 6
L 4.5 5
L 4.5 4
A 0.5 0.5 0 0 1 5 3.5
L 6 3.5
L 7 3.5
L 8 3.5
L 9 3.5
L 10 3.5
L 11 3.5
L 12 3.5
L 13 3.5
L 14 3.5
L 15 3.5
L 16 3.5
A 0.5 0.5 0 0 1 16.5 4
L 16.5 5
L 16.5 6
L 16.5 7
L 16.5 8
L 16.5 9
L 16.5 10
L 16.5 11
L 16.5 12
A 0.5 0.5 0 0 1 16 12.5
L 15 12.5
L 14 12.5
L 13 12.5
L 12 12.5
A 0.5 0.5 0 0 1 11.5 12
L 11.5 11
A 0.5 0.5 0 0 0 11 10.5
A 0.5 0.5 0 0 1 10.5 10
L 10.5 9
A 0.5 0.5 0 0 0 10 8.5
A 0.5 0.5 0 0 1 9.5 8
L 9.5 7
A 0.5 0.5 0 0 0 9 6.5
A 0.5 0.5 0 0 1 8.5 6
A 0.5 0.5 0 0 1 9 5.5
L 10 5.5
A 0.5 0.5 0 0 1 10.5 6
L 10.5 7
A 0.5 0.5 0 0 0 11 7.5
A 0.5 0.5 0 0 1 11.5 8
L 11.5 9
A 0.5 0.5 0 0 0 12 9.5
L 13 9.5
A 0.5 0.5 0 0 0 13.5 9
A 0.5 0.5 0 0 0 13 8.5
A 0.5 0.5 0 0 1 12.5 8
L 12.5 7
A 0.5 0.5 0 0 0 12 6.5
A 0.5 0.5 0 0 1 11.5 6
A 0.5 0.5 0 0 1 12 5.5
L 13 5.5
L 14 5.5
A 0.5 0.5 0 0 1 14.5 6
A 0.5 0.5 0 0 1 14 6.5
A 0.5 0.5 0 0 0 13.5 7
A 0.5 0.5 0 0 0 14 7.5
A 0.5 0.5 0 0 1 14.5 8
L 14.5 9
L 14.5 10
A 0.5 0.5 0 0 1 14 10.5
L 13 10.5
A 0.5 0.5 0 0 0 12.5 11
A 0.5 0.5 0 0 0 13 11.5
L 14 11.5
L 15 11.5
A 0.5 0.5 0 0 0 15.5 11
L 15.5 10
L 15.5 9
L 15.5 8
L 15.5 7
L 15.5 6
L 15.5 5
A 0.5 0.5 0 0 0 15 4.5
L 14 4.5
L 13 4.5
L 12 4.5
L 11 4.5
L 10 4.5
L 9 4.5
L 8 4.5
L 7 4.5
L 6 4.5
A 0.5 0.5 0 0 0 5.5 5
L 5.5 6
L 5.5 7
A 0.5 0.5 0 0 0 6 7.5
A 0.5 0.5 0 0 0 6.5 7
L 6.5 6
A 0.5 0.5 0 0 1 7 5.5
A 0.5 0.5 0 0 1 7.5 6
L 7.5 7
A 0.5 0.5 0 0 0 8 7.5
A 0.5 0.5 0 0 1 8.5 8
A 0.5 0.5 0 0 1 8 8.5
L 7 8.5
A 0.5 0.5 0 0 0 6.5 9
A 0.5 0.5 0 0 0 7 9.5
L 7.5 9.5" fill="white" fill-opacity="0" stroke="black" stroke-width="0.05" stroke-linecap="round" />
</svg>