<svg xmlns="http://www.w3.org/2000/svg" viewBox="0 0 15 15">
	<path d="M0,0 h15 v15 h-15 z" fill="#dddddd" />
	<rect x="0.25" y="1.25" width="0.5" height="0.5" fill="black" fill-opacity="0.5"  />
	<rect x="2.25" y="1.25" width="0.5" height="0.5" fill="black" fill-opacity="0.5"  />
	<rect x="4.25" y="1.25" width="0.5" height="0.5" fill="black" fill-opacity="0.5"  />
	<rect x="6.25" y="1.25" width="0.5" height="0.5" fill="black" fill-opacity="0.5"  />
	<rect x="8.25" y="1.25" width="0.5" height="0.5" fill="black" fill-opacity="0.5"  />
	<rect x="10.25" y="1.25" width="0.5" height="0.5" fill="black" fill-opacity="0.5"  />
	<rect x="12.25" y="1.25" width="0.5" height="0.5" fill="black" fill-opacity="0.5"  />
	<rect x="1.25" y="2.25" width="0.5" height="0.5" fill="black" fill-opacity="0.5"  />
	<rect x="3.25" y="2.25" width="0.5" height="0.5" fill="black" fill-opacity="0.5"  />
	<rect x="5.25" y="2.25" width="0.5" height="0.5" fill="black" fill-opacity="0.5"  />
	<rect x="7.25" y="2.25" width="0.5" height="0.5" fill="black" fill-opacity="0.5"  />
	<rect x="9.25" y="2.25" width="0.5" height="0.5" fill="black" fill-opacity="0.5"  />
	<rect x="11.25" y="2.25" width="0.5" height="0.5" fill="black" fill-opacity="0.5"  />
	<rect x="13.25" y="2.25" width="0.5" height="0.5" fill="black" fill-opacity="0.5"  />
	<rect x="0.25" y="3.25" width="0.5" height="0.5" fill="black" fill-opacity="0.5"  />
	<rect x="2.25" y="3.25" width="0.5" height="0.5" fill="black" fill-opacity="0.5"  />
	<rect x="4.25" y="3.25" width="0.5" height="0.5" fill="black" fill-opacity="0.5"  />
	<rect x="6.25" y="3.25" width="0.5" height="0.5" fill="black" fill-opacity="0.5"  />
	<rect x="8.25" y="3.25" width="0.5" height="0.5" fill="black" fill-opacity="0.5"  />
	<rect x="10.25" y="3.25" width="0.5" height="0.5" fill="black" fill-opacity="0.5"  />
	<rect x="12.25" y="3.25" width="0.5" height="0.5" fill="black" fill-opacity="0.5"  />
	<rect x="1.25" y="4.25" width="0.5" height="0.5" fill="black" fill-opacity="0.5"  />
	<rect x="3.25" y="4.25" width="0.5" height="0.5" fill="black" fill-opacity="0.5"  />
	<rect x="5.25" y="4.25" width="0.5" height="0.5" fill="black" fill-opacity="0.5"  />
	<rect x="7.25" y="4.25" width="0.5" height="0.5" fill="black" fill-opacity="0.5"  />
	<rect x="9.25" y="4.25" width="0.5" height="0.5" fill="black" fill-opacity="0.5"  />
	<rect x="11.25" y="4.25" width="0.5" height="0.5" fill="black" fill-opacity="0.5"  />
	<rect x="13.25" y="4.25" width="0.5" height="0.5" fill="black" fill-opacity="0.5"  />
	<rect x="0.25" y="5.25" width="0.5" height="0.5" fill="black" fill-opacity="0.5"  />
	<rect x="2.25" y="5.25" width="0.5" height="0.5" fill="black" fill-opacity="0.5"  />
	<rect x="4.25" y="5.25" width="0.5" height="0.5" fill="black" fill-opacity="0.5"  />
	<rect x="6.25" y="5.25" width="0.5" height="0.5" fill="black" fill-opacity="0.5"  />
	<rect x="8.25" y="5.25" width="0.5" height="0.5" fill="black" fill-opacity="0.5"  />
	<rect x="10.25" y="5.25" width="0.5" height="0.5" fill="black" fill-opacity="0.5"  />
	<rect x="12.25" y="5.25" width="0.5" height="0.5" fill="black" fill-opacity="0.5"  />
	<rect x="1.25" y="6.25" width="0.5" height="0.5" fill="black" fill-opacity="0.5"  />
	<rect x="3.25" y="6.25" width="0.5" height="0.5" fill="black" fill-opacity="0.5"  />
	<rect x="5.25" y="6.25" width="0.5" height="0.5" fill="black" fill-opacity="0.5"  />
	<rect x="7.25" y="6.25" width="0.5" height="0.5" fill="black" fill-opacity="0.5"  />
	<rect x="9.25" y="6.25" width="0.5" height="0.5" fill="black" fill-opacity="0.5"  />
	<rect x="11.25" y="6.25" width="0.5" height="0.5" fill="black" fill-opacity="0.5"  />
	<rect x="13.25" y="6.25" width="0.5" height="0.5" fill="black" fill-opacity="0.5"  />
	<rect x="0.25" y="7.25" width="0.5" height="0.5" fill="black" fill-opacity="0.5"  />
	<rect x="2.25" y="7.25" width="0.5" height="0.5" fill="black" fill-opacity="0.5"  />
	<rect x="4.25" y="7.25" width="0.5" height="0.5" fill="black" fill-opacity="0.5"  />
	<rect x="6.25" y="7.25" width="0.5" height="0.5" fill="black" fill-opacity="0.5"  />
	<rect x="8.25" y="7.25" width="0.5" height="0.5" fill="black" fill-opacity="0.5"  />
	<rect x="10.25" y="7.25" width="0.5" height="0.5" fill="black" fill-opacity="0.5"  />
	<rect x="12.25" y="7.25" width="0.5" height="0.5" fill="black" fill-opacity="0.5"  />
	<rect x="1.25" y="8.25" width="0.5" height="0.5" fill="black" fill-opacity="0.5"  />
	<rect x="3.25" y="8.25" width="0.5" height="0.5" fill="black" fill-opacity="0.5"  />
	<rect x="5.25" y="8.25" width="0.5" height="0.5" fill="black" fill-opacity="0.5"  />
	<rect x="7.25" y="8.25" width="0.5" height="0.5" fill="black" fill-opacity="0.5"  />
	<rect x="9.25" y="8.25" width="0.5" height="0.5" fill="black" fill-opacity="0.5"  />
	<rect x="11.25" y="8.25" width="0.5" height="0.5" fill="black" fill-opacity="0.5"  />
	<rect x="13.25" y="8.25" width="0.5" height="0.5" fill="black" fill-opacity="0.5"  />
	<rect x="0.25" y="9.25" width="0.5" height="0.5" fill="black" fill-opacity="0.5"  />
	<rect x="2.25" y="9.25" width="0.5" height="0.5" fill="black" fill-opacity="0.5"  />
	<rect x="4.25" y="9.25" width="0.5" height="0.5" fill="black" fill-opacity="0.5"  />
	<rect x="6.25" y="9.25" width="0.5" height="0.5" fill="black" fill-opacity="0.5"  />
	<rect x="8.25" y="9.25" width="0.5" height="0.5" fill="black" fill-opacity="0.5"  />
	<rect x="10.25" y="9.25" width="0.5" height="0.5" fill="black" fill-opacity="0.5"  />
	<rect x="12.25" y="9.25" width="0.5" height="0.5" fill="black" fill-opacity="0.5"  />
	<rect x="1.25" y="10.25" width="0.5" height="0.5" fill="black" fill-opacity="0.5"  />
	<rect x="3.25" y="10.25" width="0.5" height="0.5" fill="black" fill-opacity="0.5"  />
	<rect x="5.25" y="10.25" width="0.5" height="0.5" fill="black" fill-opacity="0.5"  />
	<rect x="7.25" y="10.25" width="0.5" height="0.5" fill="black" fill-opacity="0.5"  />
	<rect x="9.25" y="10.25" width="0.5" height="0.5" fill="black" fill-opacity="0.5"  />
	<rect x="11.25" y="10.25" width="0.5" height="0.5" fill="black" fill-opacity="0.5"  />
	<rect x="13.25" y="10.25" width="0.5" height="0.5" fill="black" fill-opacity="0.5"  />
	<rect x="0.25" y="11.25" width="0.5" height="0.5" fill="black" fill-opacity="0.5"  />
	<rect x="2.25" y="11.25" width="0.5" height="0.5" fill="black" fill-opacity="0.5"  />
	<rect x="4.25" y="11.25" width="0.5" height="0.5" fill="black" fill-opacity="0.5"  />
	<rect x="6.25" y="11.25" width="0.5" height="0.5" fill="black" fill-opacity="0.5"  />
	<rect x="8.25" y="11.25" width="0.5" height="0.5" fill="black" fill-opacity="0.5"  />
	<rect x="10.25" y="11.25" width="0.5" height="0.5" fill="black" fill-opacity="0.5"  />
	<rect x="12.25" y="11.25" width="0.5" height="0.5" fill="black" fill-opacity="0.5"  />
	<rect x="1.25" y="12.25" width="0.5" height="0.5" fill="black" fill-opacity="0.5"  />
	<rect x="3.25" y="12.25" width="0.5" height="0.5" fill="black" fill-opacity="0.5"  />
	<rect x="5.25" y="12.25" width="0.5" height="0.5" fill="black" fill-opacity="0.5"  />
	<rect x="7.25" y="12.25" width="0.5" height="0.5" fill="black" fill-opacity="0.5"  />
	<rect x="9.25" y="12.25" width="0.5" height="0.5" fill="black" fill-opacity="0.5"  />
	<rect x="11.25" y="12.25" width="0.5" height="0.5" fill="black" fill-opacity="0.5"  />
	<rect x="13.25" y="12.25" width="0.5" height="0.5" fill="black" fill-opacity="0.5"  />
	<rect x="0.25" y="13.25" width="0.5" height="0.5" fill="black" fill-opacity="0.5"  />
	<rect x="2.25" y="13.25" width="0.5" height="0.5" fill="black" fill-opacity="0.5"  />
	<rect x="4.25" y="13.25" width="0.5" height="0.5" fill="black" fill-opacity="0.5"  />
	<rect x="6.25" y="13.25" width="0.5" height="0.5" fill="black" fill-opacity="0.5"  />
	<rect x="8.25" y="13.25" width="0.5" height="0.5" fill="black" fill-opacity="0.5"  />
	<rect x="10.25" y="13.25" width="0.5" height="0.5" fill="black" fill-opacity="0.5"  />
	<rect x="12.25" y="13.25" width="0.5" height="0.5" fill="black" fill-opacity="0.5"  />
	<rect x="1.25" y="14.25" width="0.5" height="0.5" fill="black" fill-opacity="0.5"  />
	<rect x="3.25" y="14.25" width="0.5" height="0.5" fill="black" fill-opacity="0.5"  />
	<rect x="5.25" y="14.25" width="0.5" height="0.5" fill="black" fill-opacity="0.5"  />
	<rect x="7.25" y="14.25" width="0.5" height="0.5" fill="black" fill-opacity="0.5"  />
	<rect x="9.25" y="14.25" width="0.5" height="0.5" fill="black" fill-opacity="0.5"  />
	<rect x="11.25" y="14.25" width="0.5" height="0.5" fill="black" fill-opacity="0.5"  />
	<rect x="13.25" y="14.25" width="0.5" height="0.5" fill="black" fill-opacity="0.5"  />
	<rect width="1" height="1" x="0" y="0" fill="#e2bcbc" fill-opacity="1" />
	<rect width="1" height="1" x="1" y="0" fill="#e2bcbc" fill-opacity="1" />
	<rect width="1" height="1" x="2" y="0" fill="#e2bcbc" fill-opacity="1" />
	<rect width="1" height="1" x="3" y="0" fill="#e2bcbc" fill-opacity="1" />
	<rect width="1" height="1" x="4" y="0" fill="#e2bcbc" fill-opacity="1" />
	<rect width="1" height="1" x="5" y="0" fill="#e2bcbc" fill-opacity="1" />
	<rect width="1" height="1" x="6" y="0" fill="#e2bcbc" fill-opacity="1" />
	<rect width="1" height="1" x="7" y="0" fill="#e2bcbc" fill-opacity="1" />
	<rect width="1" height="1" x="8" y="0" fill="#e2bcbc" fill-opacity="1" />
	<rect width="1" height="1" x="9" y="0" fill="#e2bcbc" fill-opacity="1" />
	<rect width="1" height="1" x="10" y="0" fill="#e2bcbc" fill-opacity="1" />
	<rect width="1" height="1" x="11" y="0" fill="#e2bcbc" fill-opacity="1" />
	<rect width="1" height="1" x="12" y="0" fill="#e2bcbc" fill-opacity="1" />
	<rect width="1" height="1" x="13" y="0" fill="#e2bcbc" fill-opacity="1" />
	<rect width="1" height="1" x="14" y="0" fill="#e2bcbc" fill-opacity="1" />
	<rect width="1" height="1" x="14" y="1" fill="#e2bcbc" fill-opacity="1" />
	<rect width="1" height="1" x="14" y="2" fill="#e2bcbc" fill-opacity="1" />
	<rect width="1" height="1" x="14" y="3" fill="#e2bcbc" fill-opacity="1" />
	<rect width="1" height="1" x="14" y="4" fill="#e2bcbc" fill-opacity="1" />
	<rect width="1" height="1" x="14" y="5" fill="#e2bcbc" fill-opacity="1" />
	<rect width="1" height="1" x="14" y="6" fill="#e2bcbc" fill-opacity="1" />
	<rect width="1" height="1" x="14" y="7" fill="#e2bcbc" fill-opacity="1" />
	<rect width="1" height="1" x="14" y="8" fill="#e2bcbc" fill-opacity="1" />
	<rect width="1" height="1" x="14" y="9" fill="#e2bcbc" fill-opacity="1" />
	<rect width="1" height="1" x="14" y="10" fill="#e2bcbc" fill-opacity="1" />
	<rect width="1" height="1" x="14" y="11" fill="#e2bcbc" fill-opacity="1" />
	<rect width="1" height="1" x="13" y="11" fill="#e2bcbc" fill-opacity="1" />
	<rect width="0.25" height="1" x="13.75" y="13" fill="#FF4000" fill-opacity="0.25" />
	<path d="M 14 12 v 1 h -0.25 v -0.75 h -0.75 v -0.25 z" fill="#FF4000" fill-opacity="0.25" />
	<rect width="0.25" height="0.25" x="12.75" y="12" fill="#FF4000" fill-opacity="0.25" />
	<rect width="0.25" height="1" x="12.75" y="11" fill="#FF4000" fill-opacity="0.25" />
	<rect width="0.25" height="0.25" x="12.75" y="10.75" fill="#FF4000" fill-opacity="0.25" />
	<path d="M 14 11 h -1 v -0.25 h 0.75 v -0.75 h 0.25 z" fill="#FF4000" fill-opacity="0.25" />
	<rect width="0.25" height="1" x="13.75" y="9" fill="#FF4000" fill-opacity="0.25" />
	<rect width="0.25" height="1" x="13.75" y="8" fill="#FF4000" fill-opacity="0.25" />
	<rect width="0.25" height="1" x="13.75" y="7" fill="#FF4000" fill-opacity="0.25" />
	<rect width="0.25" height="1" x="13.75" y="6" fill="#FF4000" fill-opacity="0.25" />
	<rect width="0.25" height="1" x="13.75" y="5" fill="#FF4000" fill-opacity="0.25" />
	<rect width="0.25" height="1" x="13.75" y="4" fill="#FF4000" fill-opacity="0.25" />
	<rect width="0.25" height="1" x="13.75" y="3" fill="#FF4000" fill-opacity="0.25" />
	<rect width="0.25" height="1" x="13.75" y="2" fill="#FF4000" fill-opacity="0.25" />
	<path d="M 14 1 v 1 h -0.25 v -0.75 h -0.75 v -0.25 z" fill="#FF4000" fill-opacity="0.25" />
	<rect width="1" height="0.25" x="12" y="1" fill="#FF4000" fill-opacity="0.25" />
	<rect width="1" height="0.25" x="11" y="1" fill="#FF4000" fill-opacity="0.25" />
	<rect width="1" height="0.25" x="10" y="1" fill="#FF4000" fill-opacity="0.25" />
	<rect width="1" height="0.25" x="9" y="1" fill="#FF4000" fill-opacity="0.25" />
	<rect width="1" height="0.25" x="8" y="1" fill="#FF4000" fill-opacity="0.25" />
	<rect width="1" height="0.25" x="7" y="1" fill="#FF4000" fill-opacity="0.25" />
	<rect width="1" height="0.25" x="6" y="1" fill="#FF4000" fill-opacity="0.25" />
	<rect width="1" height="0.25" x="5" y="1" fill="#FF4000" fill-opacity="0.25" />
	<rect width="1" height="0.25" x="4" y="1" fill="#FF4000" fill-opacity="0.25" />
	<rect width="1" height="0.25" x="3" y="1" fill="#FF4000" fill-opacity="0.25" />
	<rect width="1" height="0.25" x="2" y="1" fill="#FF4000" fill-opacity="0.25" />
	<rect width="1" height="0.25" x="1" y="1" fill="#FF4000" fill-opacity="0.25" />
	<path d="M 0 1 h 1 v 0.25 h -0.75 v 0.75 h -0.25 z" fill="#FF4000" fill-opacity="0.25" />
	<rect width="0.25" height="1" x="0" y="2" fill="#FF4000" fill-opacity="0.25" />
	<rect width="0.25" height="1" x="0" y="3" fill="#FF4000" fill-opacity="0.25" />
	<rect width="0.25" height="1" x="0" y="4" fill="#FF4000" fill-opacity="0.25" />
	<rect width="0.25" height="1" x="0" y="5" fill="#FF4000" fill-opacity="0.25" />
	<rect width="0.25" height="1" x="0" y="6" fill="#FF4000" fill-opacity="0.25" />
	<rect width="0.25" height="1" x="0" y="7" fill="#FF4000" fill-opacity="0.25" />
	<rect width="0.25" height="1" x="0" y="8" fill="#FF4000" fill-opacity="0.25" />
	<rect width="0.25" height="1" x="0" y="9" fill="#FF4000" fill-opacity="0.25" />
	<rect width="0.25" height="1" x="0" y="10" fill="#FF4000" fill-opacity="0.25" />
	<rect width="0.25" height="1" x="0" y="11" fill="#FF4000" fill-opacity="0.25" />
	<rect width="0.25" height="1" x="0" y="12" fill="#FF4000" fill-opacity="0.25" />
	<rect width="0.25" height="1" x="0" y="13" fill="#FF4000" fill-opacity="0.25" />
	<path d="M 0 15 v -1 h 0.25 v 0.75 h 0.75 v 0.25 z" fill="#FF4000" fill-opacity="0.25" />
	<rect width="1" height="0.25" x="1" y="14.75" fill="#FF4000" fill-opacity="0.25" />
	<rect width="1" height="0.25" x="2" y="14.75" fill="#FF4000" fill-opacity="0.25" />
	<rect width="1" height="0.25" x="3" y="14.75" fill="#FF4000" fill-opacity="0.25" />
	<rect width="1" height="0.25" x="4" y="14.75" fill="#FF4000" fill-opacity="0.25" />
	<rect width="1" height="0.25" x="5" y="14.75" fill="#FF4000" fill-opacity="0.25" />
	<rect width="1" height="0.25" x="6" y="14.75" fill="#FF4000" fill-opacity="0.25" />
	<rect width="1" height="0.25" x="7" y="14.75" fill="#FF4000" fill-opacity="0.25" />
	<rect width="1" height="0.25" x="8" y="14.75" fill="#FF4000" fill-opacity="0.25" />
	<rect width="1" height="0.25" x="9" y="14.75" fill="#FF4000" fill-opacity="0.25" />
	<rect width="1" height="0.25" x="10" y="14.75" fill="#FF4000" fill-opacity="0.25" />
	<rect width="1" height="0.25" x="11" y="14.75" fill="#FF4000" fill-opacity="0.25" />
	<rect width="1" height="0.25" x="12" y="14.75" fill="#FF4000" fill-opacity="0.25" />
	<path d="M 14 15 h -1 v -0.25 h 0.75 v -0.75 h 0.25 z" fill="#FF4000" fill-opacity="0.25" />
	<path fill="transparent" stroke="gray" stroke-width="0.02" d="M 0.01 0 v 15" />
	<path fill="transparent" stroke="gray" stroke-width="0.02" d="M 0 0.01 h 15" />
	<path fill="transparent" stroke="gray" stroke-width="0.02" d="M 1 0 v 15" />
	<path fill="transparent" stroke="gray" stroke-width="0.02" d="M 0 1 h 15" />
	<path fill="transparent" stroke="gray" stroke-width="0.02" d="M 2 0 v 15" />
	<path fill="transparent" stroke="gray" stroke-width="0.02" d="M 0 2 h 15" />
	<path fill="transparent" stroke="gray" stroke-width="0.02" d="M 3 0 v 15" />
	<path fill="transparent" stroke="gray" stroke-width="0.02" d="M 0 3 h 15" />
	<path fill="transparent" stroke="gray" stroke-width="0.02" d="M 4 0 v 15" />
	<path fill="transparent" stroke="gray" stroke-width="0.02" d="M 0 4 h 15" />
	<path fill="transparent" stroke="gray" stroke-width="0.02" d="M 5 0 v 15" />
	<path fill="transparent" stroke="gray" stroke-width="0.02" d="M 0 5 h 15" />
	<path fill="transparent" stroke="gray" stroke-width="0.02" d="M 6 0 v 15" />
	<path fill="transparent" stroke="gray" stroke-width="0.02" d="M 0 6 h 15" />
	<path fill="transparent" stroke="gray" stroke-width="0.02" d="M 7 0 v 15" />
	<path fill="transparent" stroke="gray" stroke-width="0.02" d="M 0 7 h 15" />
	<path fill="transparent" stroke="gray" stroke-width="0.02" d="M 8 0 v 15" />
	<path fill="transparent" stroke="gray" stroke-width="0.02" d="M 0 8 h 15" />
	<path fill="transparent" stroke="gray" stroke-width="0.02" d="M 9 0 v 15" />
	<path fill="transparent" stroke="gray" stroke-width="0.02" d="M 0 9 h 15" />
	<path fill="transparent" stroke="gray" stroke-width="0.02" d="M 10 0 v 15" />
	<path fill="transparent" stroke="gray" stroke-width="0.02" d="M 0 10 h 15" />
	<path fill="transparent" stroke="gray" stroke-width="0.02" d="M 11 0 v 15" />
	<path fill="transparent" stroke="gray" stroke-width="0.02" d="M 0 11 h 15" />
	<path fill="transparent" stroke="gray" stroke-width="0.02" d="M 12 0 v 15" />
	<path fill="transparent" stroke="gray" stroke-width="0.02" d="M 0 12 h 15" />
	<path fill="transparent" stroke="gray" stroke-width="0.02" d="M 13 0 v 15" />
	<path fill="transparent" stroke="gray" stroke-width="0.02" d="M 0 13 h 15" />
	<path fill="transparent" stroke="gray" stroke-width="0.02" d="M 14 0 v 15" />
	<path fill="transparent" stroke="gray" stroke-width="0.02" d="M 0 14 h 15" />
	<path fill="transparent" stroke="gray" stroke-width="0.02" d="M 14.99 0 v 15" />
	<path fill="transparent" stroke="gray" stroke-width="0.02" d="M 0 14.99 h 15" />
	<path d="M 0.5 0.5
L 1 0.5
L 2 0.5
L 3 0.5
L 4 0.5
L 5 0.5
L 6 0.5
L 7 0.5
L 8 0.5
L 9 0.5
L 10 0.5
L 11 0.5
L 12 0.5
L 13 0.5
L 14 0.5
A 0.5 0.5 0 0 1 14.5 1
L 14.5 2
L 14.5 3
L 14.5 4
L 14.5 5
L 14.5 6
L 14.5 7
L 14.5 8
L 14.5 9
L 14.5 10
L 14.5 11
A 0.5 0.5 0 0 1 14 11.5
L 13.5 11.5" fill="white" fill-opacity="0" stroke="black" stroke-width="0.05" stroke-linecap="round" />
</svg>