<svg xmlns="http://www.w3.org/2000/svg" viewBox="3 2 10 9">
	<path d="M0,0 h19 v19 h-19 z" fill="#dddddd" />
	<rect width="1" height="1" x="0" y="0" fill="#e2bcbc" fill-opacity="1" />
	<rect width="1" height="1" x="1" y="0" fill="#e2bcbc" fill-opacity="1" />
	<rect width="1" height="1" x="2" y="0" fill="#e2bcbc" fill-opacity="1" />
	<rect width="1" height="1" x="2" y="1" fill="#e2bcbc" fill-opacity="1" />
	<rect width="1" height="1" x="2" y="2" fill="#e2bcbc" fill-opacity="1" />
	<rect width="1" height="1" x="2" y="3" fill="#e2bcbc" fill-opacity="1" />
	<rect width="1" height="1" x="2" y="4" fill="#e2bcbc" fill-opacity="1" />
	<rect width="1" height="1" x="3" y="4" fill="#e2bcbc" fill-opacity="1" />
	<rect width="1" height="1" x="3" y="3" fill="#e2bcbc" fill-opacity="1" />
	<rect width="1" height="1" x="3" y="2" fill="#e2bcbc" fill-opacity="1" />
	<rect width="1" height="1" x="4" y="2" fill="#e2bcbc" fill-opacity="1" />
	<rect width="1" height="1" x="5" y="2" fill="#e2bcbc" fill-opacity="1" />
	<rect width="1" height="1" x="6" y="2" fill="#e2bcbc" fill-opacity="1" />
	<rect width="1" height="1" x="7" y="2" fill="#e2bcbc" fill-opacity="1" />
	<rect width="1" height="1" x="8" y="2" fill="#e2bcbc" fill-opacity="1" />
	<rect width="1" height="1" x="9" y="2" fill="#e2bcbc" fill-opacity="1" />
	<rect width="1" height="1" x="10" y="2" fill="#e2bcbc" fill-opacity="1" />
	<rect width="1" height="1" x="11" y="2" fill="#e2bcbc" fill-opacity="1" />
	<rect width="1" height="1" x="11" y="3" fill="#e2bcbc" fill-opacity="1" />
	<rect width="1" height="1" x="12" y="3" fill="#e2bcbc" fill-opacity="1" />
	<rect width="1" height="1" x="12" y="4" fill="#e2bcbc" fill-opacity="1" />
	<rect width="1" height="1" x="12" y="5" fill="#e2bcbc" fill-opacity="1" />
	<rect width="1" height="1" x="12" y="6" fill="#e2bcbc" fill-opacity="1" />
	<rect width="1" height="1" x="12" y="7" fill="#e2bcbc" fill-opacity="1" />
	<rect width="1" height="1" x="12" y="8" fill="#e2bcbc" fill-opacity="1" />
	<rect width="1" height="1" x="12" y="9" fill="#e2bcbc" fill-opacity="1" />
	<rect width="1" height="1" x="11" y="9" fill="#e2bcbc" fill-opacity="1" />
	<rect width="1" height="1" x="11" y="10" fill="#e2bcbc" fill-opacity="1" />
	<rect width="1" height="1" x="10" y="10" fill="#e2bcbc" fill-opacity="1" />
	<rect width="1" height="1" x="9" y="10" fill="#e2bcbc" fill-opacity="1" />
	<rect width="1" height="1" x="8" y="10" fill="#e2bcbc" fill-opacity="1" />
	<rect width="1" height="1" x="7" y="10" fill="#e2bcbc" fill-opacity="1" />
	<rect width="1" height="1" x="6" y="10" fill="#e2bcbc" fill-opacity="1" />
	<rect width="1" height="1" x="6" y="9" fill="#e2bcbc" fill-opacity="1" />
	<rect width="1" height="1" x="6" y="8" fill="#e2bcbc" fill-opacity="1" />
	<rect width="1" height="1" x="7" y="8" fill="#e2bcbc" fill-opacity="1" />
	<rect width="1" height="1" x="7" y="9" fill="#e2bcbc" fill-opacity="1" />
	<rect width="1" height="1" x="8" y="9" fill="#e2bcbc" fill-opacity="1" />
	<rect width="1" height="1" x="8" y="8" fill="#e2bcbc" fill-opacity="1" />
	<rect width="1" height="1" x="8" y="7" fill="#e2bcbc" fill-opacity="1" />
	<rect width="1" height="1" x="7" y="7" fill="#e2bcbc" fill-opacity="1" />
	<rect width="1" height="1" x="7" y="6" fill="#e2bcbc" fill-opacity="1" />
	<rect width="1" height="1" x="6" y="6" fill="#bcbce2" fill-opacity="1" />
	<path fill="transparent" stroke="gray" stroke-width="0.02" d="M 0.01 0 v 19" />
	<path fill="transparent" stroke="gray" stroke-width="0.02" d="M 0 0.01 h 19" />
	<path fill="transparent" stroke="gray" stroke-width="0.02" d="M 1 0 v 19" />
	<path fill="transparent" stroke="gray" stroke-width="0.02" d="M 0 1 h 19" />
	<path fill="transparent" stroke="gray" stroke-width="0.02" d="M 2 0 v 19" />
	<path fill="transparent" stroke="gray" stroke-width="0.02" d="M 0 2 h 19" />
	<path fill="transparent" stroke="gray" stroke-width="0.02" d="M 3 0 v 19" />
	<path fill="transparent" stroke="gray" stroke-width="0.02" d="M 0 3 h 19" />
	<path fill="transparent" stroke="gray" stroke-width="0.02" d="M 4 0 v 19" />
	<path fill="transparent" stroke="gray" stroke-width="0.02" d="M 0 4 h 19" />
	<path fill="transparent" stroke="gray" stroke-width="0.02" d="M 5 0 v 19" />
	<path fill="transparent" stroke="gray" stroke-width="0.02" d="M 0 5 h 19" />
	<path fill="transparent" stroke="gray" stroke-width="0.02" d="M 6 0 v 19" />
	<path fill="transparent" stroke="gray" stroke-width="0.02" d="M 0 6 h 19" />
	<path fill="transparent" stroke="gray" stroke-width="0.02" d="M 7 0 v 19" />
	<path fill="transparent" stroke="gray" stroke-width="0.02" d="M 0 7 h 19" />
	<path fill="transparent" stroke="gray" stroke-width="0.02" d="M 8 0 v 19" />
	<path fill="transparent" stroke="gray" stroke-width="0.02" d="M 0 8 h 19" />
	<path fill="transparent" stroke="gray" stroke-width="0.02" d="M 9 0 v 19" />
	<path fill="transparent" stroke="gray" stroke-width="0.02" d="M 0 9 h 19" />
	<path fill="transparent" stroke="gray" stroke-width="0.02" d="M 10 0 v 19" />
	<path fill="transparent" stroke="gray" stroke-width="0.02" d="M 0 10 h 19" />
	<path fill="transparent" stroke="gray" stroke-width="0.02" d="M 11 0 v 19" />
	<path fill="transparent" stroke="gray" stroke-width="0.02" d="M 0 11 h 19" />
	<path fill="transparent" stroke="gray" stroke-width="0.02" d="M 12 0 v 19" />
	<path fill="transparent" stroke="gray" stroke-width="0.02" d="M 0 12 h 19" />
	<path fill="transparent" stroke="gray" stroke-width="0.02" d="M 13 0 v 19" />
	<path fill="transparent" stroke="gray" stroke-width="0.02" d="M 0 13 h 19" />
	<path fill="transparent" stroke="gray" stroke-width="0.02" d="M 14 0 v 19" />
	<path fill="transparent" stroke="gray" stroke-width="0.02" d="M 0 14 h 19" />
	<path fill="transparent" stroke="gray" stroke-width="0.02" d="M 15 0 v 19" />
	<path fill="transparent" stroke="gray" stroke-width="0.02" d="M 0 15 h 19" />
	<path fill="transparent" stroke="gray" stroke-width="0.02" d="M 16 0 v 19" />
	<path fill="transparent" stroke="gray" stroke-width="0.02" d="M 0 16 h 19" />
	<path fill="transparent" stroke="gray" stroke-width="0.02" d="M 17 0 v 19" />
	<path fill="transparent" stroke="gray" stroke-width="0.02" d="M 0 17 h 19" />
	<path fill="transparent" stroke="gray" stroke-width="0.02" d="M 18 0 v 19" />
	<path fill="transparent" stroke="gray" stroke-width="0.02" d="M 0 18 h 19" />
	<path fill="transparent" stroke="gray" stroke-width="0.02" d="M 18.99 0 v 19" />
	<path fill="transparent" stroke="gray" stroke-width="0.02" d="M 0 18.99 h 19" />
	<path d="M 0.5 0.5
L 1 0.5
L 2 0.5
A 0.5 0.5 0 0 1 2.5 1
L 2.5 2
L 2.5 3
L 2.5 4
A 0.5 0.5 0 0 0 3 4.5
A 0.5 0.5 0 0 0 3.5 4
L 3.5 3
A 0.5 0.5 0 0 1 4 2.5
L 5 2.5
L 6 2.5
L 7 2.5
L 8 2.5
L 9 2.5
L 10 2.5
L 11 2.5
A 0.5 0.5 0 0 1 11.5 3
A 0.5 0.5 0 0 0 12 3.5
A 0.5 0.5 0 0 1 12.5 4
L 12.5 5
L 12.5 6
L 12.5 7
L 12.5 8
L 12.5 9
A 0.5 0.5 0 0 1 12 9.5
A 0.5 0.5 0 0 0 11.5 10
A 0.5 0.5 0 0 1 11 10.5
L 10 10.5
L 9 10.5
L 8 10.5
L 7 10.5
A 0.5 0.5 0 0 1 6.5 10
L 6.5 9
A 0.5 0.5 0 0 1 7 8.5
A 0.5 0.5 0 0 1 7.5 9
A 0.5 0.5 0 0 0 8 9.5
A 0.5 0.5 0 0 0 8.5 9
L 8.5 8
A 0.5 0.5 0 0 0 8 7.5
A 0.5 0.5 0 0 1 7.5 7
A 0.5 0.5 0 0 0 7 6.5
L 6.5 6.5" fill="white" fill-opacity="0" stroke="black" stroke-width="0.05" stroke-linecap="round" />
</svg>