<svg xmlns="http://www.w3.org/2000/svg" viewBox="0 0 11 11">
	<path d="M0,0 h11 v11 h-11 z" fill="#dddddd" />
	<rect x="4.25" y="6.25" width="0.5" height="0.5" fill="black" fill-opacity="0.5"  />
	<rect x="4.25" y="8.25" width="0.5" height="0.5" fill="black" fill-opacity="0.5"  />
	<rect x="4.25" y="8.25" width="0.5" height="0.5" fill="black" fill-opacity="0.5"  />
	<rect x="5.25" y="7.25" width="0.5" height="0.5" fill="black" fill-opacity="0.5"  />
	<rect x="4.25" y="6.25" width="0.5" height="0.5" fill="black" fill-opacity="0.5"  />
	<rect width="1" height="1" x="0" y="0" fill="#e2bcbc" fill-opacity="1" />
	<rect width="1" height="1" x="1" y="0" fill="#e2bcbc" fill-opacity="1" />
	<rect width="1" height="1" x="2" y="0" fill="#e2bcbc" fill-opacity="1" />
	<rect width="1" height="1" x="2" y="1" fill="#e2bcbc" fill-opacity="1" />
	<rect width="1" height="1" x="3" y="1" fill="#e2bcbc" fill-opacity="1" />
	<rect width="1" height="1" x="3" y="0" fill="#e2bcbc" fill-opacity="1" />
	<rect width="1" height="1" x="4" y="0" fill="#e2bcbc" fill-opacity="1" />
	<rect width="1" height="1" x="4" y="1" fill="#e2bcbc" fill-opacity="1" />
	<rect width="1" height="1" x="5" y="1" fill="#e2bcbc" fill-opacity="1" />
	<rect width="1" height="1" x="5" y="0" fill="#e2bcbc" fill-opacity="1" />
	<rect width="1" height="1" x="6" y="0" fill="#e2bcbc" fill-opacity="1" />
	<rect width="1" height="1" x="6" y="1" fill="#e2bcbc" fill-opacity="1" />
	<rect width="1" height="1" x="7" y="1" fill="#e2bcbc" fill-opacity="1" />
	<rect width="1" height="1" x="7" y="0" fill="#e2bcbc" fill-opacity="1" />
	<rect width="1" height="1" x="8" y="0" fill="#e2bcbc" fill-opacity="1" />
	<rect width="1" height="1" x="9" y="0" fill="#e2bcbc" fill-opacity="1" />
	<rect width="1" height="1" x="10" y="0" fill="#e2bcbc" fill-opacity="1" />
	<rect width="1" height="1" x="10" y="1" fill="#e2bcbc" fill-opacity="1" />
	<rect width="1" height="1" x="10" y="2" fill="#e2bcbc" fill-opacity="1" />
	<rect width="1" height="1" x="10" y="3" fill="#e2bcbc" fill-opacity="1" />
	<rect width="1" height="1" x="10" y="4" fill="#e2bcbc" fill-opacity="1" />
	<rect width="1" height="1" x="9" y="4" fill="#e2bcbc" fill-opacity="1" />
	<rect width="1" height="1" x="9" y="5" fill="#e2bcbc" fill-opacity="1" />
	<rect width="1" height="1" x="10" y="5" fill="#e2bcbc" fill-opacity="1" />
	<rect width="1" height="1" x="10" y="6" fill="#e2bcbc" fill-opacity="1" />
	<rect width="1" height="1" x="10" y="7" fill="#e2bcbc" fill-opacity="1" />
	<rect width="1" height="1" x="10" y="8" fill="#e2bcbc" fill-opacity="1" />
	<rect width="1" height="1" x="9" y="8" fill="#e2bcbc" fill-opacity="1" />
	<rect width="1" height="1" x="8" y="8" fill="#e2bcbc" fill-opacity="1" />
	<rect width="1" height="1" x="8" y="7" fill="#e2bcbc" fill-opacity="1" />
	<rect width="1" height="1" x="9" y="7" fill="#e2bcbc" fill-opacity="1" />
	<rect width="1" height="1" x="9" y="6" fill="#e2bcbc" fill-opacity="1" />
	<rect width="1" height="1" x="8" y="6" fill="#e2bcbc" fill-opacity="1" />
	<rect width="1" height="1" x="8" y="5" fill="#e2bcbc" fill-opacity="1" />
	<rect width="1" height="1" x="7" y="5" fill="#e2bcbc" fill-opacity="1" />
	<rect width="1" height="1" x="7" y="4" fill="#e2bcbc" fill-opacity="1" />
	<rect width="1" height="1" x="8" y="4" fill="#e2bcbc" fill-opacity="1" />
	<rect width="1" height="1" x="8" y="3" fill="#e2bcbc" fill-opacity="1" />
	<rect width="1" height="1" x="9" y="3" fill="#e2bcbc" fill-opacity="1" />
	<rect width="1" height="1" x="9" y="2" fill="#e2bcbc" fill-opacity="1" />
	<rect width="1" height="1" x="9" y="1" fill="#e2bcbc" fill-opacity="1" />
	<rect width="1" height="1" x="8" y="1" fill="#e2bcbc" fill-opacity="1" />
	<rect width="1" height="1" x="8" y="2" fill="#e2bcbc" fill-opacity="1" />
	<rect width="1" height="1" x="7" y="2" fill="#e2bcbc" fill-opacity="1" />
	<rect width="1" height="1" x="7" y="3" fill="#e2bcbc" fill-opacity="1" />
	<rect width="1" height="1" x="6" y="3" fill="#e2bcbc" fill-opacity="1" />
	<rect width="1" height="1" x="6" y="2" fill="#e2bcbc" fill-opacity="1" />
	<rect width="1" height="1" x="5" y="2" fill="#e2bcbc" fill-opacity="1" />
	<rect width="1" height="1" x="5" y="3" fill="#e2bcbc" fill-opacity="1" />
	<rect width="1" height="1" x="4" y="3" fill="#e2bcbc" fill-opacity="1" />
	<rect width="1" height="1" x="4" y="2" fill="#e2bcbc" fill-opacity="1" />
	<rect width="1" height="1" x="3" y="2" fill="#e2bcbc" fill-opacity="1" />
	<rect width="1" height="1" x="3" y="3" fill="#e2bcbc" fill-opacity="1" />
	<rect width="1" height="1" x="2" y="3" fill="#e2bcbc" fill-opacity="1" />
	<rect width="1" height="1" x="2" y="2" fill="#e2bcbc" fill-opacity="1" />
	<rect width="1" height="1" x="1" y="2" fill="#e2bcbc" fill-opacity="1" />
	<rect width="1" height="1" x="1" y="1" fill="#e2bcbc" fill-opacity="1" />
	<rect width="1" height="1" x="0" y="1" fill="#e2bcbc" fill-opacity="1" />
	<rect width="1" height="1" x="0" y="2" fill="#e2bcbc" fill-opacity="1" />
	<rect width="1" height="1" x="0" y="3" fill="#e2bcbc" fill-opacity="1" />
	<rect width="1" height="1" x="1" y="3" fill="#e2bcbc" fill-opacity="1" />
	<rect width="1" height="1" x="1" y="4" fill="#e2bcbc" fill-opacity="1" />
	<rect width="1" height="1" x="0" y="4" fill="#e2bcbc" fill-opacity="1" />
	<rect width="1" height="1" x="0" y="5" fill="#e2bcbc" fill-opacity="1" />
	<rect width="1" height="1" x="0" y="6" fill="#e2bcbc" fill-opacity="1" />
	<rect width="1" height="1" x="1" y="6" fill="#e2bcbc" fill-opacity="1" />
	<rect width="1" height="1" x="1" y="5" fill="#e2bcbc" fill-opacity="1" />
	<rect width="1" height="1" x="2" y="5" fill="#e2bcbc" fill-opacity="1" />
	<rect width="1" height="1" x="2" y="4" fill="#e2bcbc" fill-opacity="1" />
	<rect width="1" height="1" x="3" y="4" fill="#e2bcbc" fill-opacity="1" />
	<rect width="1" height="1" x="4" y="4" fill="#e2bcbc" fill-opacity="1" />
	<rect width="1" height="1" x="4" y="5" fill="#e2bcbc" fill-opacity="1" />
	<rect width="1" height="1" x="3" y="5" fill="#e2bcbc" fill-opacity="1" />
	<rect width="1" height="1" x="3" y="6" fill="#e2bcbc" fill-opacity="1" />
	<rect width="1" height="1" x="2" y="6" fill="#e2bcbc" fill-opacity="1" />
	<rect width="1" height="1" x="2" y="7" fill="#e2bcbc" fill-opacity="1" />
	<rect width="1" height="1" x="3" y="7" fill="#e2bcbc" fill-opacity="1" />
	<rect width="1" height="1" x="3" y="8" fill="#bcbce2" fill-opacity="1" />
	<rect width="1" height="1" x="2" y="8" fill="#bcbce2" fill-opacity="1" />
	<rect width="1" height="1" x="2" y="9" fill="#bcbce2" fill-opacity="1" />
	<rect width="1" height="1" x="1" y="9" fill="#bcbce2" fill-opacity="1" />
	<rect width="1" height="1" x="1" y="8" fill="#bcbce2" fill-opacity="1" />
	<rect width="1" height="1" x="1" y="7" fill="#bcbce2" fill-opacity="1" />
	<rect width="1" height="1" x="0" y="7" fill="#bcbce2" fill-opacity="1" />
	<rect width="1" height="1" x="0" y="8" fill="#bcbce2" fill-opacity="1" />
	<rect width="1" height="1" x="0" y="9" fill="#bcbce2" fill-opacity="1" />
	<rect width="1" height="1" x="0" y="10" fill="#bcbce2" fill-opacity="1" />
	<rect width="1" height="1" x="1" y="10" fill="#bcbce2" fill-opacity="1" />
	<rect width="1" height="1" x="2" y="10" fill="#bcbce2" fill-opacity="1" />
	<rect width="1" height="1" x="3" y="10" fill="#bcbce2" fill-opacity="1" />
	<rect width="1" height="1" x="3" y="9" fill="#bcbce2" fill-opacity="1" />
	<rect width="1" height="1" x="4" y="9" fill="#bcbce2" fill-opacity="1" />
	<rect width="1" height="1" x="4" y="10" fill="#bcbce2" fill-opacity="1" />
	<rect width="1" height="1" x="5" y="10" fill="#bcbce2" fill-opacity="1" />
	<rect width="1" height="1" x="5" y="9" fill="#bcbce2" fill-opacity="1" />
	<rect width="0.25" height="1" x="4.75" y="7" fill="#FF4000" fill-opacity="0.25" />
	<path d="M 5 9 v -1 h -0.25 v 0.75 h -0.5 v -0.75 h -0.25 v 1 z" fill="#FF4000" fill-opacity="0.25" />
	<rect width="0.25" height="1" x="4" y="7" fill="#FF4000" fill-opacity="0.25" />
	<path d="M 4 6 v 1 h 0.25 v -0.75 h 0.5 v 0.75 h 0.25 v -1 z" fill="#FF4000" fill-opacity="0.25" />
	<rect width="0.25" height="1" x="5.75" y="7" fill="#FF4000" fill-opacity="0.25" />
	<path d="M 6 9 h -1 v -0.25 h 0.75 v -0.75 h 0.25 z" fill="#FF4000" fill-opacity="0.25" />
	<path d="M 4 9 v -1 h 0.25 v 0.75 h 0.75 v 0.25 z" fill="#FF4000" fill-opacity="0.25" />
	<rect width="0.25" height="1" x="4" y="7" fill="#FF4000" fill-opacity="0.25" />
	<path d="M 4 6 h 1 v 0.25 h -0.75 v 0.75 h -0.25 z" fill="#FF4000" fill-opacity="0.25" />
	<path d="M 6 6 v 1 h -0.25 v -0.75 h -0.75 v -0.25 z" fill="#FF4000" fill-opacity="0.25" />
	<path fill="transparent" stroke="gray" stroke-width="0.02" d="M 0.01 0 v 11" />
	<path fill="transparent" stroke="gray" stroke-width="0.02" d="M 0 0.01 h 11" />
	<path fill="transparent" stroke="gray" stroke-width="0.02" d="M 1 0 v 11" />
	<path fill="transparent" stroke="gray" stroke-width="0.02" d="M 0 1 h 11" />
	<path fill="transparent" stroke="gray" stroke-width="0.02" d="M 2 0 v 11" />
	<path fill="transparent" stroke="gray" stroke-width="0.02" d="M 0 2 h 11" />
	<path fill="transparent" stroke="gray" stroke-width="0.02" d="M 3 0 v 11" />
	<path fill="transparent" stroke="gray" stroke-width="0.02" d="M 0 3 h 11" />
	<path fill="transparent" stroke="gray" stroke-width="0.02" d="M 4 0 v 11" />
	<path fill="transparent" stroke="gray" stroke-width="0.02" d="M 0 4 h 11" />
	<path fill="transparent" stroke="gray" stroke-width="0.02" d="M 5 0 v 11" />
	<path fill="transparent" stroke="gray" stroke-width="0.02" d="M 0 5 h 11" />
	<path fill="transparent" stroke="gray" stroke-width="0.02" d="M 6 0 v 11" />
	<path fill="transparent" stroke="gray" stroke-width="0.02" d="M 0 6 h 11" />
	<path fill="transparent" stroke="gray" stroke-width="0.02" d="M 7 0 v 11" />
	<path fill="transparent" stroke="gray" stroke-width="0.02" d="M 0 7 h 11" />
	<path fill="transparent" stroke="gray" stroke-width="0.02" d="M 8 0 v 11" />
	<path fill="transparent" stroke="gray" stroke-width="0.02" d="M 0 8 h 11" />
	<path fill="transparent" stroke="gray" stroke-width="0.02" d="M 9 0 v 11" />
	<path fill="transparent" stroke="gray" stroke-width="0.02" d="M 0 9 h 11" />
	<path fill="transparent" stroke="gray" stroke-width="0.02" d="M 10 0 v 11" />
	<path fill="transparent" stroke="gray" stroke-width="0.02" d="M 0 10 h 11" />
	<path fill="transparent" stroke="gray" stroke-width="0.02" d="M 10.99 0 v 11" />
	<path fill="transparent" stroke="gray" stroke-width="0.02" d="M 0 10.99 h 11" />
	<path d="M 0.5 0.5
L 1 0.5
L 2 0.5
A 0.5 0.5 0 0 1 2.5 1
A 0.5 0.5 0 0 0 3 1.5
A 0.5 0.5 0 0 0 3.5 1
A 0.5 0.5 0 0 1 4 0.5
A 0.5 0.5 0 0 1 4.5 1
A 0.5 0.5 0 0 0 5 1.5
A 0.5 0.5 0 0 0 5.5 1
A 0.5 0.5 0 0 1 6 0.5
A 0.5 0.5 0 0 1 6.5 1
A 0.5 0.5 0 0 0 7 1.5
A 0.5 0.5 0 0 0 7.5 1
A 0.5 0.5 0 0 1 8 0.5
L 9 0.5
L 10 0.5
A 0.5 0.5 0 0 1 10.5 1
L 10.5 2
L 10.5 3
L 10.5 4
A 0.5 0.5 0 0 1 10 4.5
A 0.5 0.5 0 0 0 9.5 5
A 0.5 0.5 0 0 0 10 5.5
A 0.5 0.5 0 0 1 10.5 6
L 10.5 7
L 10.5 8
A 0.5 0.5 0 0 1 10 8.5
L 9 8.5
A 0.5 0.5 0 0 1 8.5 8
A 0.5 0.5 0 0 1 9 7.5
A 0.5 0.5 0 0 0 9.5 7
A 0.5 0.5 0 0 0 9 6.5
A 0.5 0.5 0 0 1 8.5 6
A 0.5 0.5 0 0 0 8 5.5
A 0.5 0.5 0 0 1 7.5 5
A 0.5 0.5 0 0 1 8 4.5
A 0.5 0.5 0 0 0 8.5 4
A 0.5 0.5 0 0 1 9 3.5
A 0.5 0.5 0 0 0 9.5 3
L 9.5 2
A 0.5 0.5 0 0 0 9 1.5
A 0.5 0.5 0 0 0 8.5 2
A 0.5 0.5 0 0 1 8 2.5
A 0.5 0.5 0 0 0 7.5 3
A 0.5 0.5 0 0 1 7 3.5
A 0.5 0.5 0 0 1 6.5 3
A 0.5 0.5 0 0 0 6 2.5
A 0.5 0.5 0 0 0 5.5 3
A 0.5 0.5 0 0 1 5 3.5
A 0.5 0.5 0 0 1 4.5 3
A 0.5 0.5 0 0 0 4 2.5
A 0.5 0.5 0 0 0 3.5 3
A 0.5 0.5 0 0 1 3 3.5
A 0.5 0.5 0 0 1 2.5 3
A 0.5 0.5 0 0 0 2 2.5
A 0.5 0.5 0 0 1 1.5 2
A 0.5 0.5 0 0 0 1 1.5
A 0.5 0.5 0 0 0 0.5 2
L 0.5 3
A 0.5 0.5 0 0 0 1 3.5
A 0.5 0.5 0 0 1 1.5 4
A 0.5 0.5 0 0 1 1 4.5
A 0.5 0.5 0 0 0 0.5 5
L 0.5 6
A 0.5 0.5 0 0 0 1 6.5
A 0.5 0.5 0 0 0 1.5 6
A 0.5 0.5 0 0 1 2 5.5
A 0.5 0.5 0 0 0 2.5 5
A 0.5 0.5 0 0 1 3 4.5
L 4 4.5
A 0.5 0.5 0 0 1 4.5 5
A 0.5 0.5 0 0 1 4 5.5
A 0.5 0.5 0 0 0 3.5 6
A 0.5 0.5 0 0 1 3 6.5
A 0.5 0.5 0 0 0 2.5 7
A 0.5 0.5 0 0 0 3 7.5
A 0.5 0.5 0 0 1 3.5 8
A 0.5 0.5 0 0 1 3 8.5
A 0.5 0.5 0 0 0 2.5 9
A 0.5 0.5 0 0 1 2 9.5
A 0.5 0.5 0 0 1 1.5 9
L 1.5 8
A 0.5 0.5 0 0 0 1 7.5
A 0.5 0.5 0 0 0 0.5 8
L 0.5 9
L 0.5 10
A 0.5 0.5 0 0 0 1 10.5
L 2 10.5
L 3 10.5
A 0.5 0.5 0 0 0 3.5 10
A 0.5 0.5 0 0 1 4 9.5
A 0.5 0.5 0 0 1 4.5 10
A 0.5 0.5 0 0 0 5 10.5
A 0.5 0.5 0 0 0 5.5 10
L 5.5 9.5" fill="white" fill-opacity="0" stroke="black" stroke-width="0.05" stroke-linecap="round" />
</svg>