<svg xmlns="http://www.w3.org/2000/svg" viewBox="5 3 10 9">
	<path d="M0,0 h25 v25 h-25 z" fill="#dddddd" />
	<rect x="10.25" y="4.25" width="0.5" height="0.5" fill="black" fill-opacity="0.5"  />
	<rect x="12.25" y="4.25" width="0.5" height="0.5" fill="black" fill-opacity="0.5"  />
	<rect x="11.25" y="5.25" width="0.5" height="0.5" fill="black" fill-opacity="0.5"  />
	<rect x="13.25" y="5.25" width="0.5" height="0.5" fill="black" fill-opacity="0.5"  />
	<rect x="10.25" y="6.25" width="0.5" height="0.5" fill="black" fill-opacity="0.5"  />
	<rect x="12.25" y="6.25" width="0.5" height="0.5" fill="black" fill-opacity="0.5"  />
	<rect x="11.25" y="7.25" width="0.5" height="0.5" fill="black" fill-opacity="0.5"  />
	<rect x="13.25" y="7.25" width="0.5" height="0.5" fill="black" fill-opacity="0.5"  />
	<rect x="12.25" y="8.25" width="0.5" height="0.5" fill="black" fill-opacity="0.5"  />
	<rect x="11.25" y="9.25" width="0.5" height="0.5" fill="black" fill-opacity="0.5"  />
	<rect x="13.25" y="9.25" width="0.5" height="0.5" fill="black" fill-opacity="0.5"  />
	<rect x="12.25" y="10.25" width="0.5" height="0.5" fill="black" fill-opacity="0.5"  />

	<rect x="6.25" y="4.25" width="0.5" height="0.5" fill="black" fill-opacity="0.5"  />
	<rect x="6.25" y="6.25" width="0.5" height="0.5" fill="black" fill-opacity="0.5"  />
	<rect x="7.25" y="5.25" width="0.5" height="0.5" fill="black" fill-opacity="0.5"  />
	<rect x="8.25" y="4.25" width="0.5" height="0.5" fill="black" fill-opacity="0.5"  />
	<rect x="8.25" y="6.25" width="0.5" height="0.5" fill="black" fill-opacity="0.5"  />
	<rect x="9.25" y="5.25" width="0.5" height="0.5" fill="black" fill-opacity="0.5"  />

	<rect width="1" height="1" x="0" y="0" fill="#e2bcbc" fill-opacity="1" />
	<rect width="1" height="1" x="0" y="1" fill="#e2bcbc" fill-opacity="1" />
	<rect width="1" height="1" x="0" y="2" fill="#e2bcbc" fill-opacity="1" />
	<rect width="1" height="1" x="0" y="3" fill="#e2bcbc" fill-opacity="1" />
	<rect width="1" height="1" x="0" y="4" fill="#e2bcbc" fill-opacity="1" />
	<rect width="1" height="1" x="0" y="5" fill="#e2bcbc" fill-opacity="1" />
	<rect width="1" height="1" x="1" y="5" fill="#e2bcbc" fill-opacity="1" />
	<rect width="1" height="1" x="2" y="5" fill="#e2bcbc" fill-opacity="1" />
	<rect width="1" height="1" x="3" y="5" fill="#e2bcbc" fill-opacity="1" />
	<rect width="1" height="1" x="4" y="5" fill="#e2bcbc" fill-opacity="1" />
	<rect width="1" height="1" x="5" y="5" fill="#e2bcbc" fill-opacity="1" />
	<rect width="1" height="1" x="5" y="4" fill="#e2bcbc" fill-opacity="1" />
	<rect width="1" height="1" x="5" y="3" fill="#e2bcbc" fill-opacity="1" />
	<rect width="1" height="1" x="6" y="3" fill="#e2bcbc" fill-opacity="1" />
	<rect width="1" height="1" x="7" y="3" fill="#e2bcbc" fill-opacity="1" />
	<rect width="1" height="1" x="8" y="3" fill="#e2bcbc" fill-opacity="1" />
	<rect width="1" height="1" x="9" y="3" fill="#e2bcbc" fill-opacity="1" />
	<rect width="1" height="1" x="10" y="3" fill="#e2bcbc" fill-opacity="1" />
	<rect width="1" height="1" x="11" y="3" fill="#e2bcbc" fill-opacity="1" />
	<rect width="1" height="1" x="12" y="3" fill="#e2bcbc" fill-opacity="1" />
	<rect width="1" height="1" x="13" y="3" fill="#e2bcbc" fill-opacity="1" />
	<rect width="1" height="1" x="13" y="4" fill="#e2bcbc" fill-opacity="1" />
	<rect width="1" height="1" x="14" y="4" fill="#e2bcbc" fill-opacity="1" />
	<rect width="1" height="1" x="14" y="5" fill="#e2bcbc" fill-opacity="1" />
	<rect width="1" height="1" x="14" y="6" fill="#e2bcbc" fill-opacity="1" />
	<rect width="1" height="1" x="14" y="7" fill="#e2bcbc" fill-opacity="1" />
	<rect width="1" height="1" x="14" y="8" fill="#e2bcbc" fill-opacity="1" />
	<rect width="1" height="1" x="14" y="9" fill="#e2bcbc" fill-opacity="1" />
	<rect width="1" height="1" x="14" y="10" fill="#e2bcbc" fill-opacity="1" />
	<rect width="1" height="1" x="13" y="10" fill="#e2bcbc" fill-opacity="1" />
	<rect width="1" height="1" x="13" y="11" fill="#e2bcbc" fill-opacity="1" />
	<rect width="1" height="1" x="12" y="11" fill="#e2bcbc" fill-opacity="1" />
	<rect width="1" height="1" x="11" y="11" fill="#e2bcbc" fill-opacity="1" />
	<rect width="1" height="1" x="10" y="11" fill="#e2bcbc" fill-opacity="1" />
	<rect width="1" height="1" x="9" y="11" fill="#e2bcbc" fill-opacity="1" />
	<rect width="1" height="1" x="8" y="11" fill="#e2bcbc" fill-opacity="1" />
	<rect width="1" height="1" x="8" y="10" fill="#e2bcbc" fill-opacity="1" />
	<rect width="1" height="1" x="8" y="9" fill="#e2bcbc" fill-opacity="1" />
	<rect width="1" height="1" x="9" y="9" fill="#e2bcbc" fill-opacity="1" />
	<rect width="1" height="1" x="9" y="10" fill="#e2bcbc" fill-opacity="1" />
	<rect width="1" height="1" x="10" y="10" fill="#e2bcbc" fill-opacity="1" />
	<rect width="1" height="1" x="10" y="9" fill="#e2bcbc" fill-opacity="1" />
	<rect width="1" height="1" x="10" y="8" fill="#e2bcbc" fill-opacity="1" />
	<rect width="1" height="1" x="9" y="8" fill="#e2bcbc" fill-opacity="1" />
	<rect width="1" height="1" x="9" y="7" fill="#e2bcbc" fill-opacity="1" />
	<rect width="1" height="1" x="9" y="6" fill="#000000" fill-opacity="0.1" />
	<rect width="1" height="1" x="8" y="7" fill="#000000" fill-opacity="0.1" />
	<rect width="0.25" height="1" x="10" y="5" fill="#FF4000" fill-opacity="0.25" />
	<rect width="0.25" height="1" x="10" y="6" fill="#FF4000" fill-opacity="0.25" />
	<path d="M 10 8 v -1 h 0.25 v 0.75 h 0.75 v 0.25 z" fill="#FF4000" fill-opacity="0.25" />
	<rect width="0.25" height="0.25" x="11" y="7.75" fill="#FF4000" fill-opacity="0.25" />
	<rect width="0.25" height="1" x="11" y="8" fill="#FF4000" fill-opacity="0.25" />
	<rect width="0.25" height="1" x="11" y="9" fill="#FF4000" fill-opacity="0.25" />
	<path d="M 11 11 v -1 h 0.25 v 0.75 h 0.75 v 0.25 z" fill="#FF4000" fill-opacity="0.25" />
	<path d="M 13 11 h -1 v -0.25 h 0.75 v -0.75 h 0.25 z" fill="#FF4000" fill-opacity="0.25" />
	<rect width="0.25" height="0.25" x="12.75" y="9.75" fill="#FF4000" fill-opacity="0.25" />
	<path d="M 14 10 h -1 v -0.25 h 0.75 v -0.75 h 0.25 z" fill="#FF4000" fill-opacity="0.25" />
	<rect width="0.25" height="1" x="13.75" y="8" fill="#FF4000" fill-opacity="0.25" />
	<rect width="0.25" height="1" x="13.75" y="7" fill="#FF4000" fill-opacity="0.25" />
	<rect width="0.25" height="1" x="13.75" y="6" fill="#FF4000" fill-opacity="0.25" />
	<path d="M 14 5 v 1 h -0.25 v -0.75 h -0.75 v -0.25 z" fill="#FF4000" fill-opacity="0.25" />
	<rect width="0.25" height="0.25" x="12.75" y="5" fill="#FF4000" fill-opacity="0.25" />
	<path d="M 13 4 v 1 h -0.25 v -0.75 h -0.75 v -0.25 z" fill="#FF4000" fill-opacity="0.25" />
	<rect width="1" height="0.25" x="11" y="4" fill="#FF4000" fill-opacity="0.25" />
	<path d="M 10 4 h 1 v 0.25 h -0.75 v 0.75 h -0.25 z" fill="#FF4000" fill-opacity="0.25" />
	<path fill="transparent" stroke="gray" stroke-width="0.02" d="M 0.01 0 v 25" />
	<path fill="transparent" stroke="gray" stroke-width="0.02" d="M 0 0.01 h 25" />
	<path fill="transparent" stroke="gray" stroke-width="0.02" d="M 1 0 v 25" />
	<path fill="transparent" stroke="gray" stroke-width="0.02" d="M 0 1 h 25" />
	<path fill="transparent" stroke="gray" stroke-width="0.02" d="M 2 0 v 25" />
	<path fill="transparent" stroke="gray" stroke-width="0.02" d="M 0 2 h 25" />
	<path fill="transparent" stroke="gray" stroke-width="0.02" d="M 3 0 v 25" />
	<path fill="transparent" stroke="gray" stroke-width="0.02" d="M 0 3 h 25" />
	<path fill="transparent" stroke="gray" stroke-width="0.02" d="M 4 0 v 25" />
	<path fill="transparent" stroke="gray" stroke-width="0.02" d="M 0 4 h 25" />
	<path fill="transparent" stroke="gray" stroke-width="0.02" d="M 5 0 v 25" />
	<path fill="transparent" stroke="gray" stroke-width="0.02" d="M 0 5 h 25" />
	<path fill="transparent" stroke="gray" stroke-width="0.02" d="M 6 0 v 25" />
	<path fill="transparent" stroke="gray" stroke-width="0.02" d="M 0 6 h 25" />
	<path fill="transparent" stroke="gray" stroke-width="0.02" d="M 7 0 v 25" />
	<path fill="transparent" stroke="gray" stroke-width="0.02" d="M 0 7 h 25" />
	<path fill="transparent" stroke="gray" stroke-width="0.02" d="M 8 0 v 25" />
	<path fill="transparent" stroke="gray" stroke-width="0.02" d="M 0 8 h 25" />
	<path fill="transparent" stroke="gray" stroke-width="0.02" d="M 9 0 v 25" />
	<path fill="transparent" stroke="gray" stroke-width="0.02" d="M 0 9 h 25" />
	<path fill="transparent" stroke="gray" stroke-width="0.02" d="M 10 0 v 25" />
	<path fill="transparent" stroke="gray" stroke-width="0.02" d="M 0 10 h 25" />
	<path fill="transparent" stroke="gray" stroke-width="0.02" d="M 11 0 v 25" />
	<path fill="transparent" stroke="gray" stroke-width="0.02" d="M 0 11 h 25" />
	<path fill="transparent" stroke="gray" stroke-width="0.02" d="M 12 0 v 25" />
	<path fill="transparent" stroke="gray" stroke-width="0.02" d="M 0 12 h 25" />
	<path fill="transparent" stroke="gray" stroke-width="0.02" d="M 13 0 v 25" />
	<path fill="transparent" stroke="gray" stroke-width="0.02" d="M 0 13 h 25" />
	<path fill="transparent" stroke="gray" stroke-width="0.02" d="M 14 0 v 25" />
	<path fill="transparent" stroke="gray" stroke-width="0.02" d="M 0 14 h 25" />
	<path fill="transparent" stroke="gray" stroke-width="0.02" d="M 15 0 v 25" />
	<path fill="transparent" stroke="gray" stroke-width="0.02" d="M 0 15 h 25" />
	<path fill="transparent" stroke="gray" stroke-width="0.02" d="M 16 0 v 25" />
	<path fill="transparent" stroke="gray" stroke-width="0.02" d="M 0 16 h 25" />
	<path fill="transparent" stroke="gray" stroke-width="0.02" d="M 17 0 v 25" />
	<path fill="transparent" stroke="gray" stroke-width="0.02" d="M 0 17 h 25" />
	<path fill="transparent" stroke="gray" stroke-width="0.02" d="M 18 0 v 25" />
	<path fill="transparent" stroke="gray" stroke-width="0.02" d="M 0 18 h 25" />
	<path fill="transparent" stroke="gray" stroke-width="0.02" d="M 19 0 v 25" />
	<path fill="transparent" stroke="gray" stroke-width="0.02" d="M 0 19 h 25" />
	<path fill="transparent" stroke="gray" stroke-width="0.02" d="M 20 0 v 25" />
	<path fill="transparent" stroke="gray" stroke-width="0.02" d="M 0 20 h 25" />
	<path fill="transparent" stroke="gray" stroke-width="0.02" d="M 21 0 v 25" />
	<path fill="transparent" stroke="gray" stroke-width="0.02" d="M 0 21 h 25" />
	<path fill="transparent" stroke="gray" stroke-width="0.02" d="M 22 0 v 25" />
	<path fill="transparent" stroke="gray" stroke-width="0.02" d="M 0 22 h 25" />
	<path fill="transparent" stroke="gray" stroke-width="0.02" d="M 23 0 v 25" />
	<path fill="transparent" stroke="gray" stroke-width="0.02" d="M 0 23 h 25" />
	<path fill="transparent" stroke="gray" stroke-width="0.02" d="M 24 0 v 25" />
	<path fill="transparent" stroke="gray" stroke-width="0.02" d="M 0 24 h 25" />
	<path fill="transparent" stroke="gray" stroke-width="0.02" d="M 24.99 0 v 25" />
	<path fill="transparent" stroke="gray" stroke-width="0.02" d="M 0 24.99 h 25" />
	<path d="M 0.5 0.5
L 0.5 1
L 0.5 2
L 0.5 3
L 0.5 4
L 0.5 5
A 0.5 0.5 0 0 0 1 5.5
L 2 5.5
L 3 5.5
L 4 5.5
L 5 5.5
A 0.5 0.5 0 0 0 5.5 5
L 5.5 4
A 0.5 0.5 0 0 1 6 3.5
L 7 3.5
L 8 3.5
L 9 3.5
L 10 3.5
L 11 3.5
L 12 3.5
L 13 3.5
A 0.5 0.5 0 0 1 13.5 4
A 0.5 0.5 0 0 0 14 4.5
A 0.5 0.5 0 0 1 14.5 5
L 14.5 6
L 14.5 7
L 14.5 8
L 14.5 9
L 14.5 10
A 0.5 0.5 0 0 1 14 10.5
A 0.5 0.5 0 0 0 13.5 11
A 0.5 0.5 0 0 1 13 11.5
L 12 11.5
L 11 11.5
L 10 11.5
L 9 11.5
A 0.5 0.5 0 0 1 8.5 11
L 8.5 10
A 0.5 0.5 0 0 1 9 9.5
A 0.5 0.5 0 0 1 9.5 10
A 0.5 0.5 0 0 0 10 10.5
A 0.5 0.5 0 0 0 10.5 10
L 10.5 9
A 0.5 0.5 0 0 0 10 8.5
A 0.5 0.5 0 0 1 9.5 8
L 9.5 7.5" fill="white" fill-opacity="0" stroke="black" stroke-width="0.05" stroke-linecap="round" />
</svg>