<svg xmlns="http://www.w3.org/2000/svg" viewBox="0 0 6 10">
	<style>
		svg { background-color: white; }
	</style>
	<!-- 1 1 4 -->
	<path d="M 0 0 h 1 v 1 h -1 z" fill="#ff0000" fill-opacity="0.15" />
	<path d="M 0.8 0.5 h -0.6 l 0.2 -0.2 l -0.2 0.2 l 0.2 0.2" fill="white" fill-opacity="0" stroke="black" stroke-width="0.05" stroke-linecap="round" />
	<!-- 6 10 1 -->
	<path d="M 5 9 h 1 v 1 h -1 z" fill="#ff0000" fill-opacity="0.15" />
	<path d="M 5.5 10 v -0.5" fill="white" fill-opacity="0" stroke="black" stroke-width="0.05" stroke-linecap="round" />
	<path d="M 5 10 h 1 v 1 h -1 z" fill="#ff0000" fill-opacity="0.15" />
	<path d="M 5.5 10 v 0.5" fill="white" fill-opacity="0" stroke="black" stroke-width="0.05" stroke-linecap="round" />
	<!-- 5 9 8 -->
	<path d="M 4 8 h 1 v 1 h -1 z" fill="#000000" fill-opacity="1" />
	<!-- 2 6 8 -->
	<path d="M 1 5 h 1 v 1 h -1 z" fill="#000000" fill-opacity="1" />
	<!-- 2 5 2 -->
	<path d="M 1 4 h 1 v 1 h -1 z" fill="#dddddd" fill-opacity="1" />
	<!-- 2 2 8 -->
	<path d="M 1 1 h 1 v 1 h -1 z" fill="#dddddd" fill-opacity="1" />
	<!--1-->
	<!--2-->
	<!--3-->
	<path fill="transparent" stroke="gray" stroke-width="0.02" d="M 0.01 0 v 10" />
	<path fill="transparent" stroke="gray" stroke-width="0.02" d="M 1 0 v 10" />
	<path fill="transparent" stroke="gray" stroke-width="0.02" d="M 2 0 v 10" />
	<path fill="transparent" stroke="gray" stroke-width="0.02" d="M 3 0 v 10" />
	<path fill="transparent" stroke="gray" stroke-width="0.02" d="M 4 0 v 10" />
	<path fill="transparent" stroke="gray" stroke-width="0.02" d="M 5 0 v 10" />
	<path fill="transparent" stroke="gray" stroke-width="0.02" d="M 5.99 0 v 10" />
	<path fill="transparent" stroke="gray" stroke-width="0.02" d="M 0 0.01 h 6" />
	<path fill="transparent" stroke="gray" stroke-width="0.02" d="M 0 1 h 6" />
	<path fill="transparent" stroke="gray" stroke-width="0.02" d="M 0 2 h 6" />
	<path fill="transparent" stroke="gray" stroke-width="0.02" d="M 0 3 h 6" />
	<path fill="transparent" stroke="gray" stroke-width="0.02" d="M 0 4 h 6" />
	<path fill="transparent" stroke="gray" stroke-width="0.02" d="M 0 5 h 6" />
	<path fill="transparent" stroke="gray" stroke-width="0.02" d="M 0 6 h 6" />
	<path fill="transparent" stroke="gray" stroke-width="0.02" d="M 0 7 h 6" />
	<path fill="transparent" stroke="gray" stroke-width="0.02" d="M 0 8 h 6" />
	<path fill="transparent" stroke="gray" stroke-width="0.02" d="M 0 9 h 6" />
	<path fill="transparent" stroke="gray" stroke-width="0.02" d="M 0 9.99 h 6" />

	<path fill="transparent" stroke="black" stroke-width="0.06" stroke-linecap="round" d="M 2 6 h 1 v 1 h 1 v 1" />

	<path fill="transparent" stroke="black" stroke-width="0.1" stroke-linecap="round" d="M 1 9.2 h 4" />
	<path fill="transparent" stroke="black" stroke-width="0.1" stroke-linecap="round" d="M 0.8 1 v 3.8" />
	<path fill="transparent" stroke="black" stroke-width="0.1" stroke-linecap="round" d="M 0.8 5.2 v 3.8" />

	<text x="2.75" y="9.85" style="font: 0.7px sans-serif;">x</text>
	<text x="1.1" y="3.25" style="font: 0.7px sans-serif;">2n+1</text>	
	<text x="0.2" y="7.25" style="font: 0.7px sans-serif;">x</text>
</svg>