<svg xmlns="http://www.w3.org/2000/svg" viewBox="0 0 10 6">
	<style>
		svg { background-color: white; }
	</style>
	<!-- 10 6 1 -->
	<path d="M 9 5 h 1 v 1 h -1 z" fill="#ff0000" fill-opacity="0.15" />
	<path d="M 9.5 6 v -0.5" fill="white" fill-opacity="0" stroke="black" stroke-width="0.05" stroke-linecap="round" />
	<path d="M 9 6 h 1 v 1 h -1 z" fill="#ff0000" fill-opacity="0.15" />
	<path d="M 9.5 6 v 0.5" fill="white" fill-opacity="0" stroke="black" stroke-width="0.05" stroke-linecap="round" />
	<!-- 1 1 4 -->
	<path d="M 0 0 h 1 v 1 h -1 z" fill="#ff0000" fill-opacity="0.15" />
	<path d="M 0.8 0.5 h -0.6 l 0.2 -0.2 l -0.2 0.2 l 0.2 0.2" fill="white" fill-opacity="0" stroke="black" stroke-width="0.05" stroke-linecap="round" />
	<!-- 2 2 8 -->
	<path d="M 1 1 h 1 v 1 h -1 z" fill="#000000" fill-opacity="1" />
	<!-- 5 5 8 -->
	<path d="M 4 4 h 1 v 1 h -1 z" fill="#000000" fill-opacity="1" />
	<!-- 6 5 2 -->
	<path d="M 5 4 h 1 v 1 h -1 z" fill="#dddddd" fill-opacity="1" />
	<!-- 8 5 2 -->
	<path d="M 7 4 h 1 v 1 h -1 z" fill="#dddddd" fill-opacity="1" />
	<!-- 7 5 8 -->
	<path d="M 6 4 h 1 v 1 h -1 z" fill="#000000" fill-opacity="1" />
	<!-- 9 5 8 -->
	<path d="M 8 4 h 1 v 1 h -1 z" fill="#000000" fill-opacity="1" />
	<!-- 9 6 2 -->
	<path d="M 8 5 h 1 v 1 h -1 z" fill="#dddddd" fill-opacity="1" />
	<!--1-->
	<!--2-->
	<!--3-->
	<path fill="transparent" stroke="gray" stroke-width="0.02" d="M 0.01 0 v 6" />
	<path fill="transparent" stroke="gray" stroke-width="0.02" d="M 1 0 v 6" />
	<path fill="transparent" stroke="gray" stroke-width="0.02" d="M 2 0 v 6" />
	<path fill="transparent" stroke="gray" stroke-width="0.02" d="M 3 0 v 6" />
	<path fill="transparent" stroke="gray" stroke-width="0.02" d="M 4 0 v 6" />
	<path fill="transparent" stroke="gray" stroke-width="0.02" d="M 5 0 v 6" />
	<path fill="transparent" stroke="gray" stroke-width="0.02" d="M 6 0 v 6" />
	<path fill="transparent" stroke="gray" stroke-width="0.02" d="M 7 0 v 6" />
	<path fill="transparent" stroke="gray" stroke-width="0.02" d="M 8 0 v 6" />
	<path fill="transparent" stroke="gray" stroke-width="0.02" d="M 9 0 v 6" />
	<path fill="transparent" stroke="gray" stroke-width="0.02" d="M 9.99 0 v 6" />
	<path fill="transparent" stroke="gray" stroke-width="0.02" d="M 0 0.01 h 10" />
	<path fill="transparent" stroke="gray" stroke-width="0.02" d="M 0 1 h 10" />
	<path fill="transparent" stroke="gray" stroke-width="0.02" d="M 0 2 h 10" />
	<path fill="transparent" stroke="gray" stroke-width="0.02" d="M 0 3 h 10" />
	<path fill="transparent" stroke="gray" stroke-width="0.02" d="M 0 4 h 10" />
	<path fill="transparent" stroke="gray" stroke-width="0.02" d="M 0 5 h 10" />
	<path fill="transparent" stroke="gray" stroke-width="0.02" d="M 0 5.99 h 10" />

	<path fill="transparent" stroke="black" stroke-width="0.06" stroke-linecap="round" d="M 2 2 h 1 v 1 h 1 v 1" />
</svg>