<svg xmlns="http://www.w3.org/2000/svg" viewBox="0 0 6 12">
	<style>
		svg { background-color: white; }
	</style>
	<!-- 1 1 4 -->
	<path d="M 0 0 h 1 v 1 h -1 z" fill="#ff0000" fill-opacity="0.15" />
	<path d="M 0.8 0.5 h -0.6 l 0.2 -0.2 l -0.2 0.2 l 0.2 0.2" fill="white" fill-opacity="0" stroke="black" stroke-width="0.05" stroke-linecap="round" />
	<!-- 6 12 1 -->
	<path d="M 5 11 h 1 v 1 h -1 z" fill="#ff0000" fill-opacity="0.15" />
	<path d="M 5.5 12 v -0.5" fill="white" fill-opacity="0" stroke="black" stroke-width="0.05" stroke-linecap="round" />
	<path d="M 5 12 h 1 v 1 h -1 z" fill="#ff0000" fill-opacity="0.15" />
	<path d="M 5.5 12 v 0.5" fill="white" fill-opacity="0" stroke="black" stroke-width="0.05" stroke-linecap="round" />
	<!-- 5 11 8 -->
	<path d="M 4 10 h 1 v 1 h -1 z" fill="#000000" fill-opacity="1" />
	<!-- 2 8 8 -->
	<path d="M 1 7 h 1 v 1 h -1 z" fill="#000000" fill-opacity="1" />
	<!-- 2 7 2 -->
	<path d="M 1 6 h 1 v 1 h -1 z" fill="#dddddd" fill-opacity="1" />
	<!-- 2 6 8 -->
	<path d="M 1 5 h 1 v 1 h -1 z" fill="#000000" fill-opacity="1" />
	<!-- 2 5 2 -->
	<path d="M 1 4 h 1 v 1 h -1 z" fill="#dddddd" fill-opacity="1" />
	<!-- 2 4 8 -->
	<path d="M 1 3 h 1 v 1 h -1 z" fill="#000000" fill-opacity="1" />
	<!-- 2 3 2 -->
	<path d="M 1 2 h 1 v 1 h -1 z" fill="#dddddd" fill-opacity="1" />
	<!-- 2 2 8 -->
	<path d="M 1 1 h 1 v 1 h -1 z" fill="#000000" fill-opacity="1" />
	<!-- 5 12 2 -->
	<path d="M 4 11 h 1 v 1 h -1 z" fill="#dddddd" fill-opacity="1" />
	<!--1-->
	<!--2-->
	<!--3-->
	<path fill="transparent" stroke="gray" stroke-width="0.02" d="M 0.01 0 v 12" />
	<path fill="transparent" stroke="gray" stroke-width="0.02" d="M 1 0 v 12" />
	<path fill="transparent" stroke="gray" stroke-width="0.02" d="M 2 0 v 12" />
	<path fill="transparent" stroke="gray" stroke-width="0.02" d="M 3 0 v 12" />
	<path fill="transparent" stroke="gray" stroke-width="0.02" d="M 4 0 v 12" />
	<path fill="transparent" stroke="gray" stroke-width="0.02" d="M 5 0 v 12" />
	<path fill="transparent" stroke="gray" stroke-width="0.02" d="M 5.99 0 v 12" />
	<path fill="transparent" stroke="gray" stroke-width="0.02" d="M 0 0.01 h 6" />
	<path fill="transparent" stroke="gray" stroke-width="0.02" d="M 0 1 h 6" />
	<path fill="transparent" stroke="gray" stroke-width="0.02" d="M 0 2 h 6" />
	<path fill="transparent" stroke="gray" stroke-width="0.02" d="M 0 3 h 6" />
	<path fill="transparent" stroke="gray" stroke-width="0.02" d="M 0 4 h 6" />
	<path fill="transparent" stroke="gray" stroke-width="0.02" d="M 0 5 h 6" />
	<path fill="transparent" stroke="gray" stroke-width="0.02" d="M 0 6 h 6" />
	<path fill="transparent" stroke="gray" stroke-width="0.02" d="M 0 7 h 6" />
	<path fill="transparent" stroke="gray" stroke-width="0.02" d="M 0 8 h 6" />
	<path fill="transparent" stroke="gray" stroke-width="0.02" d="M 0 9 h 6" />
	<path fill="transparent" stroke="gray" stroke-width="0.02" d="M 0 10 h 6" />
	<path fill="transparent" stroke="gray" stroke-width="0.02" d="M 0 11 h 6" />
	<path fill="transparent" stroke="gray" stroke-width="0.02" d="M 0 11.99 h 6" />

	<path fill="transparent" stroke="black" stroke-width="0.06" stroke-linecap="round" d="M 2 8 h 1 v 1 h 1 v 1" />
</svg>