<svg xmlns="http://www.w3.org/2000/svg" viewBox="0 0 3 3">
	<path d="M0,0 h3 v3 h-3 z" fill="#dddddd" />
	<rect width="1" height="1" x="0" y="0" fill="#ff0000" fill-opacity="0.15" />
	<rect width="1" height="1" x="1" y="0" fill="#ff0000" fill-opacity="0.15" />
	<rect width="1" height="1" x="2" y="0" fill="#ff0000" fill-opacity="0.15" />
	<rect width="1" height="1" x="2" y="1" fill="#ff0000" fill-opacity="0.15" />
	<rect width="1" height="1" x="1" y="1" fill="#ff0000" fill-opacity="0.15" />
	<rect width="1" height="1" x="0" y="1" fill="#ff0000" fill-opacity="0.15" />
	<rect width="1" height="1" x="0" y="2" fill="#ff0000" fill-opacity="0.15" />
	<rect width="1" height="1" x="1" y="2" fill="#ff0000" fill-opacity="0.15" />
	<rect width="1" height="1" x="2" y="2" fill="#ff0000" fill-opacity="0.15" />
	<path fill="transparent" stroke="gray" stroke-width="0.02" d="M 1 0 v 3" />
	<path fill="transparent" stroke="gray" stroke-width="0.02" d="M 0 1 h 3" />
	<path fill="transparent" stroke="gray" stroke-width="0.02" d="M 2 0 v 3" />
	<path fill="transparent" stroke="gray" stroke-width="0.02" d="M 0 2 h 3" />
	<path d="M 0.5 0.5
L 1 0.5
L 2 0.5
A 0.5 0.5 0 0 1 2.5 1
A 0.5 0.5 0 0 1 2 1.5
L 1 1.5
A 0.5 0.5 0 0 0 0.5 2
A 0.5 0.5 0 0 0 1 2.5
L 2 2.5
L 2.5 2.5" fill="white" fill-opacity="0" stroke="black" stroke-width="0.05" />
</svg>