<!--|False|False|-->
<svg xmlns="http://www.w3.org/2000/svg" viewBox="0 0 6 2">
	<!-- 6 2 1 -->
	<path d="M 5 1 h 1 v 1 h -1 z" fill="#ff0000" fill-opacity="0.15" />
	<path d="M 5.5 2 v -0.5" fill="white" fill-opacity="0" stroke="black" stroke-width="0.05" stroke-linecap="round" /><path d="M 5 2 h 1 v 1 h -1 z" fill="#ff0000" fill-opacity="0.15" />
	<path d="M 5.5 2 v 0.5" fill="white" fill-opacity="0" stroke="black" stroke-width="0.05" stroke-linecap="round" />
	<!-- 1 1 7 -->
	<path d="M 0 0 h 1 v 1 h -1 z" fill="#ff0000" fill-opacity="0.15" />
	<path d="M 0.5 0.19999999 v 0.6 l -0.2 -0.2 l 0.2 0.2 l 0.2 -0.2" fill="white" fill-opacity="0" stroke="black" stroke-width="0.05" stroke-linecap="round" />
	<!-- 2 2 2 -->
	<path d="M 1 1 h 1 v 1 h -1 z" fill="#dddddd" fill-opacity="1" />
	<!-- 5 2 2 -->
	<path d="M 4 1 h 1 v 1 h -1 z" fill="#dddddd" fill-opacity="1" />
	<!--1-->
	<!-- 5 1 19 -->
	<path d="M 4 0 h 1 v 1 h -1 v -0.8 h 0.2 v 0.6 h 0.6 v -0.6 h -0.8 z" fill="#FF4000" fill-opacity="0.25" />
	<path d="M 4.3 0.3 v 0.4 v -0.2 h 0.4 l -0.13 -0.13 l 0.13 0.13 l -0.13 0.13" fill="white" fill-opacity="0" stroke="black" stroke-width="0.05" stroke-linecap="round" stroke-linejoin="round" />
	<!-- 2 1 20 -->
	<path d="M 1 0 h 1 v 1 h -1 v -0.8 h 0.2 v 0.6 h 0.6 v -0.6 h -0.8 z" fill="#FF4000" fill-opacity="0.25" />
	<path d="M 1.3 0.5 h 0.4 l -0.13 -0.13 l 0.13 0.13 l -0.13 0.13 l 0.13 -0.13 v 0.2 v -0.4" fill="white" fill-opacity="0" stroke="black" stroke-width="0.05" stroke-linecap="round" stroke-linejoin="round" />
	<!-- 4 1 21 -->
	<path d="M 3 0 h 1 v 1 h -1 v -0.8 h 0.2 v 0.6 h 0.6 v -0.6 h -0.8 z" fill="#FF4000" fill-opacity="0.25" />
	<!-- 3 1 21 -->
	<path d="M 2 0 h 1 v 1 h -1 v -0.8 h 0.2 v 0.6 h 0.6 v -0.6 h -0.8 z" fill="#FF4000" fill-opacity="0.25" />
	<!--2-->
	<!--3-->
	<path fill="transparent" stroke="gray" stroke-width="0.02" d="M 0.01 0 v 2" />
	<path fill="transparent" stroke="gray" stroke-width="0.02" d="M 1 0 v 2" />
	<path fill="transparent" stroke="gray" stroke-width="0.02" d="M 2 0 v 2" />
	<path fill="transparent" stroke="gray" stroke-width="0.02" d="M 3 0 v 2" />
	<path fill="transparent" stroke="gray" stroke-width="0.02" d="M 4 0 v 2" />
	<path fill="transparent" stroke="gray" stroke-width="0.02" d="M 5 0 v 2" />
	<path fill="transparent" stroke="gray" stroke-width="0.02" d="M 5.99 0 v 2" />
	<path fill="transparent" stroke="gray" stroke-width="0.02" d="M 0 0.01 h 6" />
	<path fill="transparent" stroke="gray" stroke-width="0.02" d="M 0 1 h 6" />
	<path fill="transparent" stroke="gray" stroke-width="0.02" d="M 0 1.99 h 6" />
</svg>