<svg xmlns="http://www.w3.org/2000/svg" viewBox="0 0 7 2">
	<path d="M0,0 h 6 v 1 h 1 v 1 h -2 v -1 h -6 z" fill="#dddddd" />
	<!-- 7 2 1 -->
	<path d="M 6 1 h 1 v 1 h -1 z" fill="#FFD9D9" fill-opacity="1" />
	<path d="M 6.5 2 v -0.5" fill="white" fill-opacity="0" stroke="black" stroke-width="0.05" stroke-linecap="round" />
	<!-- 1 1 7 -->
	<path d="M 0 0 h 1 v 1 h -1 z" fill="#FFD9D9" fill-opacity="1" />
	<path d="M 0.5 0.19999999 v 0.6 l -0.2 -0.2 l 0.2 0.2 l 0.2 -0.2" fill="white" fill-opacity="0" stroke="black" stroke-width="0.05" stroke-linecap="round" />
	<!-- 6 1 8 -->
	<path d="M 5 0 h 1 v 1 h -1 z" fill="#000000" fill-opacity="1" />
	<!-- 4 1 8 -->
	<path d="M 3 0 h 1 v 1 h -1 z" fill="#000000" fill-opacity="1" />
	<!-- 2 1 8 -->
	<path d="M 1 0 h 1 v 1 h -1 z" fill="#000000" fill-opacity="1" />
	<!--1-->
	<!--2-->
	<!--3-->
	<path fill="transparent" stroke="gray" stroke-width="0.02" d="M 0.01 0 v 1" />
	<path fill="transparent" stroke="gray" stroke-width="0.02" d="M 1 0 v 1" />
	<path fill="transparent" stroke="gray" stroke-width="0.02" d="M 2 0 v 1" />
	<path fill="transparent" stroke="gray" stroke-width="0.02" d="M 3 0 v 1" />
	<path fill="transparent" stroke="gray" stroke-width="0.02" d="M 4 0 v 1" />
	<path fill="transparent" stroke="gray" stroke-width="0.02" d="M 5 0 v 2" />
	<path fill="transparent" stroke="gray" stroke-width="0.02" d="M 6 0 v 2" />
	<path fill="transparent" stroke="gray" stroke-width="0.02" d="M 6.99 1 v 1" />
	<path fill="transparent" stroke="gray" stroke-width="0.02" d="M 0 0.01 h 6" />
	<path fill="transparent" stroke="gray" stroke-width="0.02" d="M 0 1 h 7" />
	<path fill="transparent" stroke="gray" stroke-width="0.02" d="M 5 1.99 h 7" />
</svg>