<svg xmlns="http://www.w3.org/2000/svg" viewBox="0 0 2 8">
	<style>
		svg { background-color: white; }
	</style>
	<!-- 2 8 1 -->
	<path d="M 1 7 h 1 v 1 h -1 z" fill="#ff0000" fill-opacity="0.15" />
	<path d="M 1.5 8 v -0.5" fill="white" fill-opacity="0" stroke="black" stroke-width="0.05" stroke-linecap="round" />
	<path d="M 1 8 h 1 v 1 h -1 z" fill="#ff0000" fill-opacity="0.15" />
	<path d="M 1.5 8 v 0.5" fill="white" fill-opacity="0" stroke="black" stroke-width="0.05" stroke-linecap="round" />
	<!-- 1 1 4 -->
	<path d="M 0 0 h 1 v 1 h -1 z" fill="#ff0000" fill-opacity="0.15" />
	<path d="M 0.8 0.5 h -0.6 l 0.2 -0.2 l -0.2 0.2 l 0.2 0.2" fill="white" fill-opacity="0" stroke="black" stroke-width="0.05" stroke-linecap="round" />
	<!-- 1 7 8 -->
	<path d="M 0 6 h 1 v 1 h -1 z" fill="#000000" fill-opacity="1" />
	<!-- 1 5 8 -->
	<path d="M 0 4 h 1 v 1 h -1 z" fill="#000000" fill-opacity="1" />
	<!-- 1 3 8 -->
	<path d="M 0 2 h 1 v 1 h -1 z" fill="#000000" fill-opacity="1" />
	<!-- 1 2 2 -->
	<path d="M 0 1 h 1 v 1 h -1 z" fill="#dddddd" fill-opacity="1" />
	<!-- 1 4 2 -->
	<path d="M 0 3 h 1 v 1 h -1 z" fill="#dddddd" fill-opacity="1" />
	<!-- 1 6 2 -->
	<path d="M 0 5 h 1 v 1 h -1 z" fill="#dddddd" fill-opacity="1" />
	<!-- 1 8 2 -->
	<path d="M 0 7 h 1 v 1 h -1 z" fill="#dddddd" fill-opacity="1" />
	<!--1-->
	<!--2-->
	<!--3-->
	<path fill="transparent" stroke="gray" stroke-width="0.02" d="M 0.01 0 v 8" />
	<path fill="transparent" stroke="gray" stroke-width="0.02" d="M 1 0 v 8" />
	<path fill="transparent" stroke="gray" stroke-width="0.02" d="M 1.99 0 v 8" />
	<path fill="transparent" stroke="gray" stroke-width="0.02" d="M 0 0.01 h 2" />
	<path fill="transparent" stroke="gray" stroke-width="0.02" d="M 0 1 h 2" />
	<path fill="transparent" stroke="gray" stroke-width="0.02" d="M 0 2 h 2" />
	<path fill="transparent" stroke="gray" stroke-width="0.02" d="M 0 3 h 2" />
	<path fill="transparent" stroke="gray" stroke-width="0.02" d="M 0 4 h 2" />
	<path fill="transparent" stroke="gray" stroke-width="0.02" d="M 0 5 h 2" />
	<path fill="transparent" stroke="gray" stroke-width="0.02" d="M 0 6 h 2" />
	<path fill="transparent" stroke="gray" stroke-width="0.02" d="M 0 7 h 2" />
	<path fill="transparent" stroke="gray" stroke-width="0.02" d="M 0 7.99 h 2" />
</svg>