<svg xmlns="http://www.w3.org/2000/svg" viewBox="0 0 8 5">
	<!-- 8 5 1 -->
	<path d="M 7 4 h 1 v 1 h -1 z" fill="#ff0000" fill-opacity="0.15" />
	<path d="M 7.5 5 v -0.5" fill="white" fill-opacity="0" stroke="black" stroke-width="0.05" stroke-linecap="round" />
	<path d="M 7 5 h 1 v 1 h -1 z" fill="#ff0000" fill-opacity="0.15" />
	<path d="M 7.5 5 v 0.5" fill="white" fill-opacity="0" stroke="black" stroke-width="0.05" stroke-linecap="round" />
	<!-- 1 1 4 -->
	<path d="M 0 0 h 1 v 1 h -1 z" fill="#ff0000" fill-opacity="0.15" />
	<path d="M 0.8 0.5 h -0.6 l 0.2 -0.2 l -0.2 0.2 l 0.2 0.2" fill="white" fill-opacity="0" stroke="black" stroke-width="0.05" stroke-linecap="round" />
	<!-- 7 5 2 -->
	<path d="M 6 4 h 1 v 1 h -1 z" fill="#dddddd" fill-opacity="1" />
	<!-- 7 4 8 -->
	<path d="M 6 3 h 1 v 1 h -1 z" fill="#000000" fill-opacity="1" />
	<!-- 6 4 2 -->
	<path d="M 5 3 h 1 v 1 h -1 z" fill="#dddddd" fill-opacity="1" />
	<!-- 5 4 8 -->
	<path d="M 4 3 h 1 v 1 h -1 z" fill="#000000" fill-opacity="1" />
	<!-- 4 4 2 -->
	<path d="M 3 3 h 1 v 1 h -1 z" fill="#dddddd" fill-opacity="1" />
	<!-- 3 3 2 -->
	<path d="M 2 2 h 1 v 1 h -1 z" fill="#dddddd" fill-opacity="1" />
	<!-- 2 2 2 -->
	<path d="M 1 1 h 1 v 1 h -1 z" fill="#dddddd" fill-opacity="1" />
	<!--1-->
	<!--2-->
	<!--3-->
	<path fill="transparent" stroke="gray" stroke-width="0.02" d="M 0.01 0 v 5" />
	<path fill="transparent" stroke="gray" stroke-width="0.02" d="M 1 0 v 5" />
	<path fill="transparent" stroke="gray" stroke-width="0.02" d="M 2 0 v 5" />
	<path fill="transparent" stroke="gray" stroke-width="0.02" d="M 3 0 v 5" />
	<path fill="transparent" stroke="gray" stroke-width="0.02" d="M 4 0 v 5" />
	<path fill="transparent" stroke="gray" stroke-width="0.02" d="M 5 0 v 5" />
	<path fill="transparent" stroke="gray" stroke-width="0.02" d="M 6 0 v 5" />
	<path fill="transparent" stroke="gray" stroke-width="0.02" d="M 7 0 v 5" />
	<path fill="transparent" stroke="gray" stroke-width="0.02" d="M 7.99 0 v 5" />
	<path fill="transparent" stroke="gray" stroke-width="0.02" d="M 0 0.01 h 8" />
	<path fill="transparent" stroke="gray" stroke-width="0.02" d="M 0 1 h 8" />
	<path fill="transparent" stroke="gray" stroke-width="0.02" d="M 0 2 h 8" />
	<path fill="transparent" stroke="gray" stroke-width="0.02" d="M 0 3 h 8" />
	<path fill="transparent" stroke="gray" stroke-width="0.02" d="M 0 4 h 8" />
	<path fill="transparent" stroke="gray" stroke-width="0.02" d="M 0 4.99 h 8" />
</svg>