<svg xmlns="http://www.w3.org/2000/svg" viewBox="0 0 11 7">
	<style>
		svg { background-color: white; }
	</style>
	<!-- 6 7 1 -->
	<path d="M 5 6 h 1 v 1 h -1 z" fill="#ff0000" fill-opacity="0.15" />
	<path d="M 5.5 7 v -0.5" fill="white" fill-opacity="0" stroke="black" stroke-width="0.05" stroke-linecap="round" />
	<path d="M 5 7 h 1 v 1 h -1 z" fill="#ff0000" fill-opacity="0.15" />
	<path d="M 5.5 7 v 0.5" fill="white" fill-opacity="0" stroke="black" stroke-width="0.05" stroke-linecap="round" />
	<!-- 1 6 7 -->
	<path d="M 0 5 h 1 v 1 h -1 z" fill="#00ff00" fill-opacity="0.15" />
	<path d="M 0.5 5.2 v 0.6 l -0.2 -0.2 l 0.2 0.2 l 0.2 -0.2" fill="white" fill-opacity="0" stroke="black" stroke-width="0.05" stroke-linecap="round" />
	<!-- 2 4 4 -->
	<path d="M 1 3 h 1 v 1 h -1 z" fill="#00ff00" fill-opacity="0.15" />
	<path d="M 1.8 3.5 h -0.6 l 0.2 -0.2 l -0.2 0.2 l 0.2 0.2" fill="white" fill-opacity="0" stroke="black" stroke-width="0.05" stroke-linecap="round" />
	<!-- 5 3 4 -->
	<path d="M 4 2 h 1 v 1 h -1 z" fill="#00ff00" fill-opacity="0.15" />
	<path d="M 4.8 2.5 h -0.6 l 0.2 -0.2 l -0.2 0.2 l 0.2 0.2" fill="white" fill-opacity="0" stroke="black" stroke-width="0.05" stroke-linecap="round" />
	<!-- 6 1 4 -->
	<path d="M 5 0 h 1 v 1 h -1 z" fill="#ff0000" fill-opacity="0.15" />
	<path d="M 5.8 0.5 h -0.6 l 0.2 -0.2 l -0.2 0.2 l 0.2 0.2" fill="white" fill-opacity="0" stroke="black" stroke-width="0.05" stroke-linecap="round" />
	<!-- 7 2 4 -->
	<path d="M 6 1 h 1 v 1 h -1 z" fill="#00ff00" fill-opacity="0.15" />
	<path d="M 6.8 1.5 h -0.6 l 0.2 -0.2 l -0.2 0.2 l 0.2 0.2" fill="white" fill-opacity="0" stroke="black" stroke-width="0.05" stroke-linecap="round" />
	<!-- 9 3 4 -->
	<path d="M 8 2 h 1 v 1 h -1 z" fill="#ff0000" fill-opacity="0.15" />
	<path d="M 8.8 2.5 h -0.6 l 0.2 -0.2 l -0.2 0.2 l 0.2 0.2" fill="white" fill-opacity="0" stroke="black" stroke-width="0.05" stroke-linecap="round" />
	<!-- 11 6 6 -->
	<path d="M 10 5 h 1 v 1 h -1 z" fill="#ff0000" fill-opacity="0.15" />
	<path d="M 10.5 5.8 v -0.6 l -0.2 0.2 l 0.2 -0.2 l 0.2 0.2" fill="white" fill-opacity="0" stroke="black" stroke-width="0.05" stroke-linecap="round" />
	<!-- 2 7 7 -->
	<path d="M 1 6 h 1 v 1 h -1 z" fill="#ff0000" fill-opacity="0.15" />
	<path d="M 1.5 6.2 v 0.6 l -0.2 -0.2 l 0.2 0.2 l 0.2 -0.2" fill="white" fill-opacity="0" stroke="black" stroke-width="0.05" stroke-linecap="round" />
	<!-- 10 7 6 -->
	<path d="M 9 6 h 1 v 1 h -1 z" fill="#ff0000" fill-opacity="0.15" />
	<path d="M 9.5 6.8 v -0.6 l -0.2 0.2 l 0.2 -0.2 l 0.2 0.2" fill="white" fill-opacity="0" stroke="black" stroke-width="0.05" stroke-linecap="round" />
	<!--1-->
	<!--2-->
	<!--3-->
	<path fill="transparent" stroke="gray" stroke-width="0.02" d="M 0.01 0 v 7" />
	<path fill="transparent" stroke="gray" stroke-width="0.02" d="M 1 0 v 7" />
	<path fill="transparent" stroke="gray" stroke-width="0.02" d="M 2 0 v 7" />
	<path fill="transparent" stroke="gray" stroke-width="0.02" d="M 3 0 v 7" />
	<path fill="transparent" stroke="gray" stroke-width="0.02" d="M 4 0 v 7" />
	<path fill="transparent" stroke="gray" stroke-width="0.02" d="M 5 0 v 7" />
	<path fill="transparent" stroke="gray" stroke-width="0.02" d="M 6 0 v 7" />
	<path fill="transparent" stroke="gray" stroke-width="0.02" d="M 7 0 v 7" />
	<path fill="transparent" stroke="gray" stroke-width="0.02" d="M 8 0 v 7" />
	<path fill="transparent" stroke="gray" stroke-width="0.02" d="M 9 0 v 7" />
	<path fill="transparent" stroke="gray" stroke-width="0.02" d="M 10 0 v 7" />
	<path fill="transparent" stroke="gray" stroke-width="0.02" d="M 10.99 0 v 7" />
	<path fill="transparent" stroke="gray" stroke-width="0.02" d="M 0 0.01 h 11" />
	<path fill="transparent" stroke="gray" stroke-width="0.02" d="M 0 1 h 11" />
	<path fill="transparent" stroke="gray" stroke-width="0.02" d="M 0 2 h 11" />
	<path fill="transparent" stroke="gray" stroke-width="0.02" d="M 0 3 h 11" />
	<path fill="transparent" stroke="gray" stroke-width="0.02" d="M 0 4 h 11" />
	<path fill="transparent" stroke="gray" stroke-width="0.02" d="M 0 5 h 11" />
	<path fill="transparent" stroke="gray" stroke-width="0.02" d="M 0 6 h 11" />
	<path fill="transparent" stroke="gray" stroke-width="0.02" d="M 0 6.99 h 11" />
</svg>