<svg xmlns="http://www.w3.org/2000/svg" viewBox="0 0 7 6">
	<style>
		svg { background-color: white; }
	</style>
	<!-- 1 6 1 -->
	<path d="M 0 5 h 1 v 1 h -1 z" fill="#ff0000" fill-opacity="0.15" />
	<path d="M 0.5 6 v -0.5" fill="white" fill-opacity="0" stroke="black" stroke-width="0.05" stroke-linecap="round" />
	<path d="M 0 6 h 1 v 1 h -1 z" fill="#ff0000" fill-opacity="0.15" />
	<path d="M 0.5 6 v 0.5" fill="white" fill-opacity="0" stroke="black" stroke-width="0.05" stroke-linecap="round" />
	<!-- 7 3 7 -->
	<path d="M 6 2 h 1 v 1 h -1 z" fill="#ff0000" fill-opacity="0.15" />
	<path d="M 6.5 2.2 v 0.6 l -0.2 -0.2 l 0.2 0.2 l 0.2 -0.2" fill="white" fill-opacity="0" stroke="black" stroke-width="0.05" stroke-linecap="round" />
	<!-- 6 2 2 -->
	<path d="M 5 1 h 1 v 1 h -1 z" fill="#dddddd" fill-opacity="1" />
	<!-- 5 2 2 -->
	<path d="M 4 1 h 1 v 1 h -1 z" fill="#dddddd" fill-opacity="1" />
	<!-- 4 2 2 -->
	<path d="M 3 1 h 1 v 1 h -1 z" fill="#dddddd" fill-opacity="1" />
	<!-- 4 3 2 -->
	<path d="M 3 2 h 1 v 1 h -1 z" fill="#dddddd" fill-opacity="1" />
	<!-- 3 3 2 -->
	<path d="M 2 2 h 1 v 1 h -1 z" fill="#dddddd" fill-opacity="1" />
	<!-- 3 4 2 -->
	<path d="M 2 3 h 1 v 1 h -1 z" fill="#dddddd" fill-opacity="1" />
	<!-- 2 4 2 -->
	<path d="M 1 3 h 1 v 1 h -1 z" fill="#dddddd" fill-opacity="1" />
	<!-- 2 5 2 -->
	<path d="M 1 4 h 1 v 1 h -1 z" fill="#dddddd" fill-opacity="1" />
	<!-- 1 5 2 -->
	<path d="M 0 4 h 1 v 1 h -1 z" fill="#dddddd" fill-opacity="1" />
	<!-- 7 1 4 -->
	<path d="M 6 0 h 1 v 1 h -1 z" fill="#0000ff" fill-opacity="0.15" />
	<path d="M 6.8 0.5 h -0.6 l 0.2 -0.2 l -0.2 0.2 l 0.2 0.2" fill="white" fill-opacity="0" stroke="black" stroke-width="0.05" stroke-linecap="round" />
	<!-- 6 1 4 -->
	<path d="M 5 0 h 1 v 1 h -1 z" fill="#0000ff" fill-opacity="0.15" />
	<path d="M 5.8 0.5 h -0.6 l 0.2 -0.2 l -0.2 0.2 l 0.2 0.2" fill="white" fill-opacity="0" stroke="black" stroke-width="0.05" stroke-linecap="round" />
	<!-- 5 1 4 -->
	<path d="M 4 0 h 1 v 1 h -1 z" fill="#0000ff" fill-opacity="0.15" />
	<path d="M 4.8 0.5 h -0.6 l 0.2 -0.2 l -0.2 0.2 l 0.2 0.2" fill="white" fill-opacity="0" stroke="black" stroke-width="0.05" stroke-linecap="round" />
	<!-- 4 1 4 -->
	<path d="M 3 0 h 1 v 1 h -1 z" fill="#ff0000" fill-opacity="0.15" />
	<path d="M 3.8 0.5 h -0.6 l 0.2 -0.2 l -0.2 0.2 l 0.2 0.2" fill="white" fill-opacity="0" stroke="black" stroke-width="0.05" stroke-linecap="round" />
	<!-- 3 1 4 -->
	<path d="M 2 0 h 1 v 1 h -1 z" fill="#ff0000" fill-opacity="0.15" />
	<path d="M 2.8 0.5 h -0.6 l 0.2 -0.2 l -0.2 0.2 l 0.2 0.2" fill="white" fill-opacity="0" stroke="black" stroke-width="0.05" stroke-linecap="round" />
	<!-- 3 2 4 -->
	<path d="M 2 1 h 1 v 1 h -1 z" fill="#ff0000" fill-opacity="0.15" />
	<path d="M 2.8 1.5 h -0.6 l 0.2 -0.2 l -0.2 0.2 l 0.2 0.2" fill="white" fill-opacity="0" stroke="black" stroke-width="0.05" stroke-linecap="round" />
	<!-- 2 2 4 -->
	<path d="M 1 1 h 1 v 1 h -1 z" fill="#ff0000" fill-opacity="0.15" />
	<path d="M 1.8 1.5 h -0.6 l 0.2 -0.2 l -0.2 0.2 l 0.2 0.2" fill="white" fill-opacity="0" stroke="black" stroke-width="0.05" stroke-linecap="round" />
	<!-- 2 3 4 -->
	<path d="M 1 2 h 1 v 1 h -1 z" fill="#ff0000" fill-opacity="0.15" />
	<path d="M 1.8 2.5 h -0.6 l 0.2 -0.2 l -0.2 0.2 l 0.2 0.2" fill="white" fill-opacity="0" stroke="black" stroke-width="0.05" stroke-linecap="round" />
	<!-- 1 3 4 -->
	<path d="M 0 2 h 1 v 1 h -1 z" fill="#ff0000" fill-opacity="0.15" />
	<path d="M 0.8 2.5 h -0.6 l 0.2 -0.2 l -0.2 0.2 l 0.2 0.2" fill="white" fill-opacity="0" stroke="black" stroke-width="0.05" stroke-linecap="round" />
	<!--1-->
	<!--2-->
	<!--3-->
	<path fill="transparent" stroke="gray" stroke-width="0.02" d="M 0.01 0 v 6" />
	<path fill="transparent" stroke="gray" stroke-width="0.02" d="M 1 0 v 6" />
	<path fill="transparent" stroke="gray" stroke-width="0.02" d="M 2 0 v 6" />
	<path fill="transparent" stroke="gray" stroke-width="0.02" d="M 3 0 v 6" />
	<path fill="transparent" stroke="gray" stroke-width="0.02" d="M 4 0 v 6" />
	<path fill="transparent" stroke="gray" stroke-width="0.02" d="M 5 0 v 6" />
	<path fill="transparent" stroke="gray" stroke-width="0.02" d="M 6 0 v 6" />
	<path fill="transparent" stroke="gray" stroke-width="0.02" d="M 6.99 0 v 6" />
	<path fill="transparent" stroke="gray" stroke-width="0.02" d="M 0 0.01 h 7" />
	<path fill="transparent" stroke="gray" stroke-width="0.02" d="M 0 1 h 7" />
	<path fill="transparent" stroke="gray" stroke-width="0.02" d="M 0 2 h 7" />
	<path fill="transparent" stroke="gray" stroke-width="0.02" d="M 0 3 h 7" />
	<path fill="transparent" stroke="gray" stroke-width="0.02" d="M 0 4 h 7" />
	<path fill="transparent" stroke="gray" stroke-width="0.02" d="M 0 5 h 7" />
	<path fill="transparent" stroke="gray" stroke-width="0.02" d="M 0 5.99 h 7" />

	<path d="
M 2.5 5.5
L 2.5 5
A 0.5 0.5 0 0 1 3 4.5
A 0.5 0.5 0 0 0 3.5 4
A 0.5 0.5 0 0 1 4 3.5
A 0.5 0.5 0 0 0 4.5 3
A 0.5 0.5 0 0 1 5 2.5
L 5.5 2.5" fill="white" fill-opacity="0" stroke="blue" stroke-width="0.05" stroke-linecap="round" />

	<path fill="transparent" stroke="black" stroke-width="0.06" stroke-linecap="round" d="M 1 5 h 1 v -1 h 1 v -1 h 1 v -1 h 2" />
</svg>