<svg xmlns="http://www.w3.org/2000/svg" viewBox="0 0 6 3">
	<style>
		svg { background-color: white; }
	</style>
	<!-- 6 3 1 -->
	<path d="M 5 2 h 1 v 1 h -1 z" fill="#ff0000" fill-opacity="0.15" />
	<path d="M 5.5 3 v -0.5" fill="white" fill-opacity="0" stroke="black" stroke-width="0.05" stroke-linecap="round" />
	<path d="M 5 3 h 1 v 1 h -1 z" fill="#ff0000" fill-opacity="0.15" />
	<path d="M 5.5 3 v 0.5" fill="white" fill-opacity="0" stroke="black" stroke-width="0.05" stroke-linecap="round" />
	<!-- 4 1 3 -->
	<path d="M 3 0 h 1 v 1 h -1 z" fill="#ff0000" fill-opacity="0.15" />
	<path d="M 3.3 0.5 h 0.4 M 3.5 0.3 v 0.4" fill="white" fill-opacity="0" stroke="black" stroke-width="0.05" stroke-linecap="round" />
	<!-- 1 1 3 -->
	<path d="M 0 0 h 1 v 1 h -1 z" fill="#ff0000" fill-opacity="0.15" />
	<path d="M 0.3 0.5 h 0.4 M 0.5 0.3 v 0.4" fill="white" fill-opacity="0" stroke="black" stroke-width="0.05" stroke-linecap="round" />
	<!--1-->
	<!--2-->
	<!--3-->
	<path fill="transparent" stroke="gray" stroke-width="0.02" d="M 0.01 0 v 3" />
	<path fill="transparent" stroke="gray" stroke-width="0.02" d="M 1 0 v 3" />
	<path fill="transparent" stroke="gray" stroke-width="0.02" d="M 2 0 v 3" />
	<path fill="transparent" stroke="gray" stroke-width="0.02" d="M 3 0 v 3" />
	<path fill="transparent" stroke="gray" stroke-width="0.02" d="M 4 0 v 3" />
	<path fill="transparent" stroke="gray" stroke-width="0.02" d="M 5 0 v 3" />
	<path fill="transparent" stroke="gray" stroke-width="0.02" d="M 5.99 0 v 3" />
	<path fill="transparent" stroke="gray" stroke-width="0.02" d="M 0 0.01 h 6" />
	<path fill="transparent" stroke="gray" stroke-width="0.02" d="M 0 1 h 6" />
	<path fill="transparent" stroke="gray" stroke-width="0.02" d="M 0 2 h 6" />
	<path fill="transparent" stroke="gray" stroke-width="0.02" d="M 0 2.99 h 6" />

	<path d="M 2.66 0.5 h -1.33 l 0.25 -0.25 m -0.25 0.25 l 0.25 0.25" fill="white" fill-opacity="0" stroke="black" stroke-width="0.05" stroke-linecap="round" stroke-linejoin="round" />
</svg>