<svg xmlns="http://www.w3.org/2000/svg" viewBox="0 0 9 8">
	<style>
		svg { background-color: white; }
	</style>
	<!-- 5 5 1 -->
	<path d="M 4 4 h 1 v 1 h -1 z" fill="#ff0000" fill-opacity="0.15" />
	<path d="M 4.5 5 v -0.5" fill="white" fill-opacity="0" stroke="black" stroke-width="0.05" stroke-linecap="round" />
	<path d="M 4 5 h 1 v 1 h -1 z" fill="#ff0000" fill-opacity="0.15" />
	<path d="M 4.5 5 v 0.5" fill="white" fill-opacity="0" stroke="black" stroke-width="0.05" stroke-linecap="round" />
	<!-- 8 1 4 -->
	<path d="M 7 0 h 1 v 1 h -1 z" fill="#ff0000" fill-opacity="0.15" />
	<path d="M 7.8 0.5 h -0.6 l 0.2 -0.2 l -0.2 0.2 l 0.2 0.2" fill="white" fill-opacity="0" stroke="black" stroke-width="0.05" stroke-linecap="round" />
	<!-- 1 2 7 -->
	<path d="M 0 1 h 1 v 1 h -1 z" fill="#ff0000" fill-opacity="0.15" />
	<path d="M 0.5 1.2 v 0.6 l -0.2 -0.2 l 0.2 0.2 l 0.2 -0.2" fill="white" fill-opacity="0" stroke="black" stroke-width="0.05" stroke-linecap="round" />
	<!-- 9 8 6 -->
	<path d="M 8 7 h 1 v 1 h -1 z" fill="#ff0000" fill-opacity="0.15" />
	<path d="M 8.5 7.8 v -0.6 l -0.2 0.2 l 0.2 -0.2 l 0.2 0.2" fill="white" fill-opacity="0" stroke="black" stroke-width="0.05" stroke-linecap="round" />
	<!-- 8 8 2 -->
	<path d="M 7 7 h 1 v 1 h -1 z" fill="#dddddd" fill-opacity="1" />
	<!-- 9 7 2 -->
	<path d="M 8 6 h 1 v 1 h -1 z" fill="#dddddd" fill-opacity="1" />
	<!-- 8 2 2 -->
	<path d="M 7 1 h 1 v 1 h -1 z" fill="#dddddd" fill-opacity="1" />
	<!-- 7 1 2 -->
	<path d="M 6 0 h 1 v 1 h -1 z" fill="#dddddd" fill-opacity="1" />
	<!-- 2 2 2 -->
	<path d="M 1 1 h 1 v 1 h -1 z" fill="#dddddd" fill-opacity="1" />
	<!-- 1 3 2 -->
	<path d="M 0 2 h 1 v 1 h -1 z" fill="#dddddd" fill-opacity="1" />
	<!--1-->
	<!--2-->
	<!--3-->
	<path fill="transparent" stroke="gray" stroke-width="0.02" d="M 0.01 0 v 8" />
	<path fill="transparent" stroke="gray" stroke-width="0.02" d="M 1 0 v 8" />
	<path fill="transparent" stroke="gray" stroke-width="0.02" d="M 2 0 v 8" />
	<path fill="transparent" stroke="gray" stroke-width="0.02" d="M 3 0 v 8" />
	<path fill="transparent" stroke="gray" stroke-width="0.02" d="M 4 0 v 8" />
	<path fill="transparent" stroke="gray" stroke-width="0.02" d="M 5 0 v 8" />
	<path fill="transparent" stroke="gray" stroke-width="0.02" d="M 6 0 v 8" />
	<path fill="transparent" stroke="gray" stroke-width="0.02" d="M 7 0 v 8" />
	<path fill="transparent" stroke="gray" stroke-width="0.02" d="M 8 0 v 8" />
	<path fill="transparent" stroke="gray" stroke-width="0.02" d="M 8.99 0 v 8" />
	<path fill="transparent" stroke="gray" stroke-width="0.02" d="M 0 0.01 h 9" />
	<path fill="transparent" stroke="gray" stroke-width="0.02" d="M 0 1 h 9" />
	<path fill="transparent" stroke="gray" stroke-width="0.02" d="M 0 2 h 9" />
	<path fill="transparent" stroke="gray" stroke-width="0.02" d="M 0 3 h 9" />
	<path fill="transparent" stroke="gray" stroke-width="0.02" d="M 0 4 h 9" />
	<path fill="transparent" stroke="gray" stroke-width="0.02" d="M 0 5 h 9" />
	<path fill="transparent" stroke="gray" stroke-width="0.02" d="M 0 6 h 9" />
	<path fill="transparent" stroke="gray" stroke-width="0.02" d="M 0 7 h 9" />
	<path fill="transparent" stroke="gray" stroke-width="0.02" d="M 0 7.99 h 9" />

	<path d="M 5 3.75 h 0.75 v -2 h 1 v -0.75 h 0.25 v 1 h -1 v 2 h -1 z" fill="#FF4000" fill-opacity="0.25" />
	<path d="M 5 3.75 h 0.75 v -2 h 1 v -0.75 h 0.25 v 1 h -1 v 2 h -1 z" fill="#FF4000" fill-opacity="0.25" transform="rotate(90, 4.5, 4.5)"/>
	<path d="M 5 3.75 h 0.75 v -2 h 1 v -0.75 h 0.25 v 1 h -1 v 2 h -1 z" fill="#FF4000" fill-opacity="0.25" transform="rotate(-90, 4.5, 4.5)"/>
</svg>