<svg xmlns="http://www.w3.org/2000/svg" viewBox="0 0 7 7">
	<style>
		svg { background-color: white; }
	</style>
	<!-- 2 7 1 -->
	<path d="M 1 6 h 1 v 1 h -1 z" fill="#ff0000" fill-opacity="0.15" />
	<path d="M 1.5 7 v -0.5" fill="white" fill-opacity="0" stroke="black" stroke-width="0.05" stroke-linecap="round" />
	<path d="M 1 7 h 1 v 1 h -1 z" fill="#ff0000" fill-opacity="0.15" />
	<path d="M 1.5 7 v 0.5" fill="white" fill-opacity="0" stroke="black" stroke-width="0.05" stroke-linecap="round" />
	<!-- 5 1 4 -->
	<path d="M 4 0 h 1 v 1 h -1 z" fill="#ff0000" fill-opacity="0.15" />
	<path d="M 4.8 0.5 h -0.6 l 0.2 -0.2 l -0.2 0.2 l 0.2 0.2" fill="white" fill-opacity="0" stroke="black" stroke-width="0.05" stroke-linecap="round" />
	<!-- 7 4 7 -->
	<path d="M 6 3 h 1 v 1 h -1 z" fill="#0000ff" fill-opacity="0.15" />
	<path d="M 6.5 3.2 v 0.6 l -0.2 -0.2 l 0.2 0.2 l 0.2 -0.2" fill="white" fill-opacity="0" stroke="black" stroke-width="0.05" stroke-linecap="round" />
	<!-- 7 5 7 -->
	<path d="M 6 4 h 1 v 1 h -1 z" fill="#0000ff" fill-opacity="0.15" />
	<path d="M 6.5 4.2 v 0.6 l -0.2 -0.2 l 0.2 0.2 l 0.2 -0.2" fill="white" fill-opacity="0" stroke="black" stroke-width="0.05" stroke-linecap="round" />
	<!-- 6 5 7 -->
	<path d="M 5 4 h 1 v 1 h -1 z" fill="#0000ff" fill-opacity="0.15" />
	<path d="M 5.5 4.2 v 0.6 l -0.2 -0.2 l 0.2 0.2 l 0.2 -0.2" fill="white" fill-opacity="0" stroke="black" stroke-width="0.05" stroke-linecap="round" />
	<!-- 6 6 7 -->
	<path d="M 5 5 h 1 v 1 h -1 z" fill="#0000ff" fill-opacity="0.15" />
	<path d="M 5.5 5.2 v 0.6 l -0.2 -0.2 l 0.2 0.2 l 0.2 -0.2" fill="white" fill-opacity="0" stroke="black" stroke-width="0.05" stroke-linecap="round" />
	<!-- 5 6 7 -->
	<path d="M 4 5 h 1 v 1 h -1 z" fill="#0000ff" fill-opacity="0.15" />
	<path d="M 4.5 5.2 v 0.6 l -0.2 -0.2 l 0.2 0.2 l 0.2 -0.2" fill="white" fill-opacity="0" stroke="black" stroke-width="0.05" stroke-linecap="round" />
	<!-- 5 7 7 -->
	<path d="M 4 6 h 1 v 1 h -1 z" fill="#0000ff" fill-opacity="0.15" />
	<path d="M 4.5 6.2 v 0.6 l -0.2 -0.2 l 0.2 0.2 l 0.2 -0.2" fill="white" fill-opacity="0" stroke="black" stroke-width="0.05" stroke-linecap="round" />
	<!-- 2 6 2 -->
	<path d="M 1 5 h 1 v 1 h -1 z" fill="#dddddd" fill-opacity="1" />
	<!-- 2 5 2 -->
	<path d="M 1 4 h 1 v 1 h -1 z" fill="#dddddd" fill-opacity="1" />
	<!-- 3 7 2 -->
	<path d="M 2 6 h 1 v 1 h -1 z" fill="#dddddd" fill-opacity="1" />
	<!-- 4 6 2 -->
	<path d="M 3 5 h 1 v 1 h -1 z" fill="#dddddd" fill-opacity="1" />
	<!-- 5 5 2 -->
	<path d="M 4 4 h 1 v 1 h -1 z" fill="#dddddd" fill-opacity="1" />
	<!-- 6 4 2 -->
	<path d="M 5 3 h 1 v 1 h -1 z" fill="#dddddd" fill-opacity="1" />
	<!-- 7 3 2 -->
	<path d="M 6 2 h 1 v 1 h -1 z" fill="#dddddd" fill-opacity="1" />
	<!--1-->
	<!--2-->
	<!-- 2 6 12 -->
	<path d="M 1.2 5.2 l 0.6 0.6 M 1.2 5.8 l 0.6 -0.6" fill="white" fill-opacity="0" stroke="red" stroke-width="0.05" stroke-linecap="round" />
	<!-- 1 7 12 -->
	<path d="M 0.2 6.2 l 0.6 0.6 M 0.2 6.8 l 0.6 -0.6" fill="white" fill-opacity="0" stroke="red" stroke-width="0.05" stroke-linecap="round" />
	<!--3-->
	<path fill="transparent" stroke="gray" stroke-width="0.02" d="M 0.01 0 v 7" />
	<path fill="transparent" stroke="gray" stroke-width="0.02" d="M 1 0 v 7" />
	<path fill="transparent" stroke="gray" stroke-width="0.02" d="M 2 0 v 7" />
	<path fill="transparent" stroke="gray" stroke-width="0.02" d="M 3 0 v 7" />
	<path fill="transparent" stroke="gray" stroke-width="0.02" d="M 4 0 v 7" />
	<path fill="transparent" stroke="gray" stroke-width="0.02" d="M 5 0 v 7" />
	<path fill="transparent" stroke="gray" stroke-width="0.02" d="M 6 0 v 7" />
	<path fill="transparent" stroke="gray" stroke-width="0.02" d="M 6.99 0 v 7" />
	<path fill="transparent" stroke="gray" stroke-width="0.02" d="M 0 0.01 h 7" />
	<path fill="transparent" stroke="gray" stroke-width="0.02" d="M 0 1 h 7" />
	<path fill="transparent" stroke="gray" stroke-width="0.02" d="M 0 2 h 7" />
	<path fill="transparent" stroke="gray" stroke-width="0.02" d="M 0 3 h 7" />
	<path fill="transparent" stroke="gray" stroke-width="0.02" d="M 0 4 h 7" />
	<path fill="transparent" stroke="gray" stroke-width="0.02" d="M 0 5 h 7" />
	<path fill="transparent" stroke="gray" stroke-width="0.02" d="M 0 6 h 7" />
	<path fill="transparent" stroke="gray" stroke-width="0.02" d="M 0 6.99 h 7" />

	<path d="M 2.5 6.3 v -0.6 l 0.2 0.2 l -0.2 -0.2 l -0.2 0.2" fill="white" fill-opacity="0" stroke="black" stroke-width="0.05" stroke-linecap="round" />
	<path d="M 3.5 5.3 v -0.6 l 0.2 0.2 l -0.2 -0.2 l -0.2 0.2" fill="white" fill-opacity="0" stroke="black" stroke-width="0.05" stroke-linecap="round" />
	<path d="M 4.5 4.3 v -0.6 l 0.2 0.2 l -0.2 -0.2 l -0.2 0.2" fill="white" fill-opacity="0" stroke="black" stroke-width="0.05" stroke-linecap="round" />

	<path d="
M 1.5 4.5
h 0.5
a 0.5 0.5 0 0 0 0.5 -0.5
a 0.5 0.5 0 0 1 0.5 -0.5
a 0.5 0.5 0 0 0 0.5 -0.5
a 0.5 0.5 0 0 1 0.5 -0.5
a 0.5 0.5 0 0 0 0.5 -0.5
v -0.5" fill="white" fill-opacity="0" stroke="blue" stroke-width="0.05" stroke-linecap="round" />

	<path d="M 2 6 v -1 h 1 v -1 h 1 v -1 h 1 v -2 h -0.25 v 1.75 h -1 v 1 h -1 v 1 h -1 v 1.25 z" fill="#008000" fill-opacity="0.25" />
</svg>