<svg xmlns="http://www.w3.org/2000/svg" viewBox="0 0 4 7">
	<style>
		svg { background-color: white; }
	</style>
	<!-- 2 7 1 -->
	<path d="M 1 6 h 1 v 1 h -1 z" fill="#ff0000" fill-opacity="0.15" />
	<path d="M 1.5 7 v -0.5" fill="white" fill-opacity="0" stroke="black" stroke-width="0.05" stroke-linecap="round" />
	<path d="M 1 7 h 1 v 1 h -1 z" fill="#ff0000" fill-opacity="0.15" />
	<path d="M 1.5 7 v 0.5" fill="white" fill-opacity="0" stroke="black" stroke-width="0.05" stroke-linecap="round" />
	<!-- 2 6 2 -->
	<path d="M 1 5 h 1 v 1 h -1 z" fill="#dddddd" fill-opacity="1" />
	<!-- 2 5 8 -->
	<path d="M 1 4 h 1 v 1 h -1 z" fill="#000000" fill-opacity="1" />
	<!-- 2 4 2 -->
	<path d="M 1 3 h 1 v 1 h -1 z" fill="#dddddd" fill-opacity="1" />
	<!-- 2 3 8 -->
	<path d="M 1 2 h 1 v 1 h -1 z" fill="#000000" fill-opacity="1" />
	<!-- 2 2 2 -->
	<path d="M 1 1 h 1 v 1 h -1 z" fill="#dddddd" fill-opacity="1" />
	<!-- 1 1 4 -->
	<path d="M 0 0 h 1 v 1 h -1 z" fill="#ff0000" fill-opacity="0.15" />
	<path d="M 0.8 0.5 h -0.6 l 0.2 -0.2 l -0.2 0.2 l 0.2 0.2" fill="white" fill-opacity="0" stroke="black" stroke-width="0.05" stroke-linecap="round" />
	<!-- 4 6 6 -->
	<path d="M 3 5 h 1 v 1 h -1 z" fill="#0000ff" fill-opacity="0.15" />
	<path d="M 3.5 5.8 v -0.6 l -0.2 0.2 l 0.2 -0.2 l 0.2 0.2" fill="white" fill-opacity="0" stroke="black" stroke-width="0.05" stroke-linecap="round" />
	<!-- 4 2 6 -->
	<path d="M 3 1 h 1 v 1 h -1 z" fill="#0000ff" fill-opacity="0.15" />
	<path d="M 3.5 1.8 v -0.6 l -0.2 0.2 l 0.2 -0.2 l 0.2 0.2" fill="white" fill-opacity="0" stroke="black" stroke-width="0.05" stroke-linecap="round" />
	<!--1-->
	<!--2-->
	<!--3-->
	<path fill="transparent" stroke="gray" stroke-width="0.02" d="M 0.01 0 v 7" />
	<path fill="transparent" stroke="gray" stroke-width="0.02" d="M 1 0 v 7" />
	<path fill="transparent" stroke="gray" stroke-width="0.02" d="M 2 0 v 7" />
	<path fill="transparent" stroke="gray" stroke-width="0.02" d="M 3 0 v 7" />
	<path fill="transparent" stroke="gray" stroke-width="0.02" d="M 3.99 0 v 7" />
	<path fill="transparent" stroke="gray" stroke-width="0.02" d="M 0 0.01 h 4" />
	<path fill="transparent" stroke="gray" stroke-width="0.02" d="M 0 1 h 4" />
	<path fill="transparent" stroke="gray" stroke-width="0.02" d="M 0 2 h 4" />
	<path fill="transparent" stroke="gray" stroke-width="0.02" d="M 0 3 h 4" />
	<path fill="transparent" stroke="gray" stroke-width="0.02" d="M 0 4 h 4" />
	<path fill="transparent" stroke="gray" stroke-width="0.02" d="M 0 5 h 4" />
	<path fill="transparent" stroke="gray" stroke-width="0.02" d="M 0 6 h 4" />
	<path fill="transparent" stroke="gray" stroke-width="0.02" d="M 0 6.99 h 4" />

	<path d="
	M 1.5 6.5
	v -1.5
	a 0.5 0.5 0 0 0 -0.5 -0.5
	h -0.5
	" fill="white" fill-opacity="0" stroke="white" stroke-width="0.1" stroke-linecap="round" />
	<path d="
	M 1.5 6.5
	v -1.5
	a 0.5 0.5 0 0 0 -0.5 -0.5
	h -0.5
	" fill="white" fill-opacity="0" stroke="blue" stroke-width="0.05" stroke-linecap="round" />
	<path d="
	M 0.5 2.5
	h 0.5
	a 0.5 0.5 0 0 1 0.5 0.5
	a 0.5 0.5 0 0 0 0.5 0.5
	h 0.5
	" fill="white" fill-opacity="0" stroke="white" stroke-width="0.1" stroke-linecap="round" />
	<path d="
	M 0.5 2.5
	h 0.5
	a 0.5 0.5 0 0 1 0.5 0.5
	a 0.5 0.5 0 0 0 0.5 0.5
	h 0.5
	" fill="white" fill-opacity="0" stroke="blue" stroke-width="0.05" stroke-linecap="round" />
	<path d="
	M 2.5 1.5
	h -0.5
	a 0.5 0.5 0 0 1 -0.5 -0.5
	v -0.5
	" fill="white" fill-opacity="0" stroke="white" stroke-width="0.1" stroke-linecap="round" />
	<path d="
	M 2.5 1.5
	h -0.5
	a 0.5 0.5 0 0 1 -0.5 -0.5
	v -0.5
	" fill="white" fill-opacity="0" stroke="blue" stroke-width="0.05" stroke-linecap="round" />
</svg>