<svg xmlns="http://www.w3.org/2000/svg" viewBox="0 0 4 5">
	<style>
		svg { background-color: white; }
	</style>
	<!-- 1 2 4 -->
	<path d="M 0 1 h 1 v 1 h -1 z" fill="#ff0000" fill-opacity="0.15" />
	<path d="M 0.8 1.5 h -0.6 l 0.2 -0.2 l -0.2 0.2 l 0.2 0.2" fill="white" fill-opacity="0" stroke="black" stroke-width="0.05" stroke-linecap="round" />
	<!-- 4 1 6 -->
	<path d="M 3 0 h 1 v 1 h -1 z" fill="#0000ff" fill-opacity="0.15" />
	<path d="M 3.5 0.8 v -0.6 l -0.2 0.2 l 0.2 -0.2 l 0.2 0.2" fill="white" fill-opacity="0" stroke="black" stroke-width="0.05" stroke-linecap="round" />
	<!-- 4 2 6 -->
	<path d="M 3 1 h 1 v 1 h -1 z" fill="#0000ff" fill-opacity="0.15" />
	<path d="M 3.5 1.8 v -0.6 l -0.2 0.2 l 0.2 -0.2 l 0.2 0.2" fill="white" fill-opacity="0" stroke="black" stroke-width="0.05" stroke-linecap="round" />
	<!-- 3 5 1 -->
	<path d="M 2 4 h 1 v 1 h -1 z" fill="#ff0000" fill-opacity="0.15" />
	<path d="M 2.5 5 v -0.5" fill="white" fill-opacity="0" stroke="black" stroke-width="0.05" stroke-linecap="round" />
	<!--1-->
	<!--2-->
	<!-- 2 5 12 -->
	<path d="M 1.2 4.2 l 0.6 0.6 M 1.2 4.8 l 0.6 -0.6" fill="white" fill-opacity="0" stroke="red" stroke-width="0.05" stroke-linecap="round" />
	<!--3-->
	<path fill="transparent" stroke="gray" stroke-width="0.02" d="M 0.01 0 v 5" />
	<path fill="transparent" stroke="gray" stroke-width="0.02" d="M 1 0 v 5" />
	<path fill="transparent" stroke="gray" stroke-width="0.02" d="M 2 0 v 5" />
	<path fill="transparent" stroke="gray" stroke-width="0.02" d="M 3 0 v 5" />
	<path fill="transparent" stroke="gray" stroke-width="0.02" d="M 3.99 0 v 5" />
	<path fill="transparent" stroke="gray" stroke-width="0.02" d="M 0 0.01 h 4" />
	<path fill="transparent" stroke="gray" stroke-width="0.02" d="M 0 1 h 4" />
	<path fill="transparent" stroke="gray" stroke-width="0.02" d="M 0 2 h 4" />
	<path fill="transparent" stroke="gray" stroke-width="0.02" d="M 0 3 h 4" />
	<path fill="transparent" stroke="gray" stroke-width="0.02" d="M 0 4 h 4" />
	<path fill="transparent" stroke="gray" stroke-width="0.02" d="M 0 4.99 h 4" />

	<path d="
M 0.5 2.5
L 1 2.5
A 0.5 0.5 0 0 1 1.5 3
L 1.5 3.5" fill="white" fill-opacity="0" stroke="blue" stroke-width="0.05" stroke-linecap="round" />

	<path d="M 1 2 h 1 v 2 h -0.25 v -1.75 h -0.75 z" fill="#008000" fill-opacity="0.25" />
</svg>