<svg xmlns="http://www.w3.org/2000/svg" viewBox="0 0 6 4">
	<style>
		svg { background-color: white; }
	</style>
	<!-- 6 3 1 -->
	<path d="M 5 2 h 1 v 1 h -1 z" fill="#ff0000" fill-opacity="0.15" />
	<path d="M 5.5 3 v -0.5" fill="white" fill-opacity="0" stroke="black" stroke-width="0.05" stroke-linecap="round" />
	<path d="M 5 3 h 1 v 1 h -1 z" fill="#ff0000" fill-opacity="0.15" />
	<path d="M 5.5 3 v 0.5" fill="white" fill-opacity="0" stroke="black" stroke-width="0.05" stroke-linecap="round" />
	<!-- 2 4 7 -->
	<path d="M 1 3 h 1 v 1 h -1 z" fill="#ff0000" fill-opacity="0.15" />
	<path d="M 1.5 3.2 v 0.6 l -0.2 -0.2 l 0.2 0.2 l 0.2 -0.2" fill="white" fill-opacity="0" stroke="black" stroke-width="0.05" stroke-linecap="round" />
	<!-- 1 1 4 -->
	<path d="M 0 0 h 1 v 1 h -1 z" fill="#ffff00" fill-opacity="0.15" />
	<path d="M 0.8 0.5 h -0.6 l 0.2 -0.2 l -0.2 0.2 l 0.2 0.2" fill="white" fill-opacity="0" stroke="black" stroke-width="0.05" stroke-linecap="round" />
	<!-- 2 1 4 -->
	<path d="M 1 0 h 1 v 1 h -1 z" fill="#ffff00" fill-opacity="0.15" />
	<path d="M 1.8 0.5 h -0.6 l 0.2 -0.2 l -0.2 0.2 l 0.2 0.2" fill="white" fill-opacity="0" stroke="black" stroke-width="0.05" stroke-linecap="round" />
	<!--1-->
	<!--2-->
	<!-- 5 3 12 -->
	<path d="M 4.2 2.2 l 0.6 0.6 M 4.2 2.8 l 0.6 -0.6" fill="white" fill-opacity="0" stroke="red" stroke-width="0.05" stroke-linecap="round" />
	<!--3-->
	<path fill="transparent" stroke="gray" stroke-width="0.02" d="M 0.01 0 v 4" />
	<path fill="transparent" stroke="gray" stroke-width="0.02" d="M 1 0 v 4" />
	<path fill="transparent" stroke="gray" stroke-width="0.02" d="M 2 0 v 4" />
	<path fill="transparent" stroke="gray" stroke-width="0.02" d="M 3 0 v 4" />
	<path fill="transparent" stroke="gray" stroke-width="0.02" d="M 4 0 v 4" />
	<path fill="transparent" stroke="gray" stroke-width="0.02" d="M 5 0 v 4" />
	<path fill="transparent" stroke="gray" stroke-width="0.02" d="M 5.99 0 v 4" />
	<path fill="transparent" stroke="gray" stroke-width="0.02" d="M 0 0.01 h 6" />
	<path fill="transparent" stroke="gray" stroke-width="0.02" d="M 0 1 h 6" />
	<path fill="transparent" stroke="gray" stroke-width="0.02" d="M 0 2 h 6" />
	<path fill="transparent" stroke="gray" stroke-width="0.02" d="M 0 3 h 6" />
	<path fill="transparent" stroke="gray" stroke-width="0.02" d="M 0 3.99 h 6" />

	<path d="
M 2.5 3.5
L 2.5 3
A 0.5 0.5 0 0 1 3 2.5
L 3.5 2.5" fill="white" fill-opacity="0" stroke="blue" stroke-width="0.05" stroke-linecap="round" />

	<path d="M 2 3 v -1 h 3 v 0.25 h -2.75 v 0.75 z" fill="#008000" fill-opacity="0.25" />
</svg>