<svg xmlns="http://www.w3.org/2000/svg" viewBox="0 0 7 8">
	<style>
		svg { background-color: white; }
	</style>
	<!-- 7 3 1 -->
	<path d="M 6 2 h 1 v 1 h -1 z" fill="#ff0000" fill-opacity="0.15" />
	<path d="M 6.5 3 v -0.5" fill="white" fill-opacity="0" stroke="black" stroke-width="0.05" stroke-linecap="round" />
	<path d="M 6 3 h 1 v 1 h -1 z" fill="#ff0000" fill-opacity="0.15" />
	<path d="M 6.5 3 v 0.5" fill="white" fill-opacity="0" stroke="black" stroke-width="0.05" stroke-linecap="round" />
	<!-- 6 5 3 -->
	<path d="M 5 4 h 1 v 1 h -1 z" fill="#ff0000" fill-opacity="0.15" />
	<path d="M 5.3 4.5 h 0.4 M 5.5 4.3 v 0.4" fill="white" fill-opacity="0" stroke="black" stroke-width="0.05" stroke-linecap="round" />
	<!-- 5 6 3 -->
	<path d="M 4 5 h 1 v 1 h -1 z" fill="#ff0000" fill-opacity="0.15" />
	<path d="M 4.3 5.5 h 0.4 M 4.5 5.3 v 0.4" fill="white" fill-opacity="0" stroke="black" stroke-width="0.05" stroke-linecap="round" />
	<!-- 4 7 3 -->
	<path d="M 3 6 h 1 v 1 h -1 z" fill="#ff0000" fill-opacity="0.15" />
	<path d="M 3.3 6.5 h 0.4 M 3.5 6.3 v 0.4" fill="white" fill-opacity="0" stroke="black" stroke-width="0.05" stroke-linecap="round" />
	<!-- 3 7 3 -->
	<path d="M 2 6 h 1 v 1 h -1 z" fill="#ff0000" fill-opacity="0.15" />
	<path d="M 2.3 6.5 h 0.4 M 2.5 6.3 v 0.4" fill="white" fill-opacity="0" stroke="black" stroke-width="0.05" stroke-linecap="round" />
	<!-- 1 6 3 -->
	<path d="M 0 5 h 1 v 1 h -1 z" fill="#ff0000" fill-opacity="0.15" />
	<path d="M 0.3 5.5 h 0.4 M 0.5 5.3 v 0.4" fill="white" fill-opacity="0" stroke="black" stroke-width="0.05" stroke-linecap="round" />
	<!-- 1 3 4 -->
	<path d="M 0 2 h 1 v 1 h -1 z" fill="#ff0000" fill-opacity="0.15" />
	<path d="M 0.8 2.5 h -0.6 l 0.2 -0.2 l -0.2 0.2 l 0.2 0.2" fill="white" fill-opacity="0" stroke="black" stroke-width="0.05" stroke-linecap="round" />
	<!-- 2 2 4 -->
	<path d="M 1 1 h 1 v 1 h -1 z" fill="#ff0000" fill-opacity="0.15" />
	<path d="M 1.8 1.5 h -0.6 l 0.2 -0.2 l -0.2 0.2 l 0.2 0.2" fill="white" fill-opacity="0" stroke="black" stroke-width="0.05" stroke-linecap="round" />
	<!-- 3 1 4 -->
	<path d="M 2 0 h 1 v 1 h -1 z" fill="#ff0000" fill-opacity="0.15" />
	<path d="M 2.8 0.5 h -0.6 l 0.2 -0.2 l -0.2 0.2 l 0.2 0.2" fill="white" fill-opacity="0" stroke="black" stroke-width="0.05" stroke-linecap="round" />
	<!-- 6 3 2 -->
	<path d="M 5 2 h 1 v 1 h -1 z" fill="#dddddd" fill-opacity="1" />
	<!-- 6 4 2 -->
	<path d="M 5 3 h 1 v 1 h -1 z" fill="#dddddd" fill-opacity="1" />
	<!-- 5 5 2 -->
	<path d="M 4 4 h 1 v 1 h -1 z" fill="#dddddd" fill-opacity="1" />
	<!-- 4 6 2 -->
	<path d="M 3 5 h 1 v 1 h -1 z" fill="#dddddd" fill-opacity="1" />
	<!-- 2 6 2 -->
	<path d="M 1 5 h 1 v 1 h -1 z" fill="#dddddd" fill-opacity="1" />
	<!-- 2 5 2 -->
	<path d="M 1 4 h 1 v 1 h -1 z" fill="#dddddd" fill-opacity="1" />
	<!-- 3 4 2 -->
	<path d="M 2 3 h 1 v 1 h -1 z" fill="#dddddd" fill-opacity="1" />
	<!-- 4 3 2 -->
	<path d="M 3 2 h 1 v 1 h -1 z" fill="#dddddd" fill-opacity="1" />
	<!--1-->
	<!--2-->
	<!--3-->
	<path fill="transparent" stroke="gray" stroke-width="0.02" d="M 0.01 0 v 8" />
	<path fill="transparent" stroke="gray" stroke-width="0.02" d="M 1 0 v 8" />
	<path fill="transparent" stroke="gray" stroke-width="0.02" d="M 2 0 v 8" />
	<path fill="transparent" stroke="gray" stroke-width="0.02" d="M 3 0 v 8" />
	<path fill="transparent" stroke="gray" stroke-width="0.02" d="M 4 0 v 8" />
	<path fill="transparent" stroke="gray" stroke-width="0.02" d="M 5 0 v 8" />
	<path fill="transparent" stroke="gray" stroke-width="0.02" d="M 6 0 v 8" />
	<path fill="transparent" stroke="gray" stroke-width="0.02" d="M 6.99 0 v 8" />
	<path fill="transparent" stroke="gray" stroke-width="0.02" d="M 0 0.01 h 7" />
	<path fill="transparent" stroke="gray" stroke-width="0.02" d="M 0 1 h 7" />
	<path fill="transparent" stroke="gray" stroke-width="0.02" d="M 0 2 h 7" />
	<path fill="transparent" stroke="gray" stroke-width="0.02" d="M 0 3 h 7" />
	<path fill="transparent" stroke="gray" stroke-width="0.02" d="M 0 4 h 7" />
	<path fill="transparent" stroke="gray" stroke-width="0.02" d="M 0 5 h 7" />
	<path fill="transparent" stroke="gray" stroke-width="0.02" d="M 0 6 h 7" />
	<path fill="transparent" stroke="gray" stroke-width="0.02" d="M 0 7 h 7" />
	<path fill="transparent" stroke="gray" stroke-width="0.02" d="M 0 7.99 h 7" />

	<path d="
M 5.5 2.5
L 5.5 3
A 0.5 0.5 0 0 1 5 3.5
A 0.5 0.5 0 0 0 4.5 4
A 0.5 0.5 0 0 1 4 4.5
A 0.5 0.5 0 0 0 3.5 5
A 0.5 0.5 0 0 1 3 5.5
L 2 5.5
A 0.5 0.5 0 0 1 1.5 5
A 0.5 0.5 0 0 1 2 4.5
A 0.5 0.5 0 0 0 2.5 4
A 0.5 0.5 0 0 1 3 3.5
A 0.5 0.5 0 0 0 3.5 3
A 0.5 0.5 0 0 1 4 2.5
L 4.5 2.5" fill="white" fill-opacity="0" stroke="blue" stroke-width="0.05" stroke-linecap="round" />

	<path fill="transparent" stroke="red" stroke-width="0.06" stroke-linecap="round" d="M 5 3 h 1 v 2 h -1 v -2" />
	<path fill="transparent" stroke="black" stroke-width="0.06" stroke-linecap="round" d="M 2 6 h 1 v 1.97 h -1 v -1.97" />		
</svg>