<svg xmlns="http://www.w3.org/2000/svg" viewBox="0 0 9 8">
	<style>
		svg { background-color: white; }
	</style>
	<!-- 8 3 1 -->
	<path d="M 7 2 h 1 v 1 h -1 z" fill="#0000ff" fill-opacity="0.15" />
	<path d="M 7.5 3 v -0.5" fill="white" fill-opacity="0" stroke="black" stroke-width="0.05" stroke-linecap="round" />
	<path d="M 7 3 h 1 v 1 h -1 z" fill="#ff0000" fill-opacity="0.15" />
	<path d="M 7.5 3 v 0.5" fill="white" fill-opacity="0" stroke="black" stroke-width="0.05" stroke-linecap="round" />
	<!-- 8 1 3 -->
	<path d="M 7 0 h 1 v 1 h -1 z" fill="#ff0000" fill-opacity="0.15" />
	<path d="M 7.8 0.5 h -0.6 l 0.2 -0.2 l -0.2 0.2 l 0.2 0.2" fill="white" fill-opacity="0" stroke="black" stroke-width="0.05" stroke-linecap="round" />
	<!-- 7 5 3 -->
	<path d="M 6 4 h 1 v 1 h -1 z" fill="#ff0000" fill-opacity="0.15" />
	<path d="M 6.3 4.5 h 0.4 M 6.5 4.3 v 0.4" fill="white" fill-opacity="0" stroke="black" stroke-width="0.05" stroke-linecap="round" />
	<!-- 6 6 3 -->
	<path d="M 5 5 h 1 v 1 h -1 z" fill="#ff0000" fill-opacity="0.15" />
	<path d="M 5.3 5.5 h 0.4 M 5.5 5.3 v 0.4" fill="white" fill-opacity="0" stroke="black" stroke-width="0.05" stroke-linecap="round" />
	<!-- 5 7 3 -->
	<path d="M 4 6 h 1 v 1 h -1 z" fill="#ff0000" fill-opacity="0.15" />
	<path d="M 4.3 6.5 h 0.4 M 4.5 6.3 v 0.4" fill="white" fill-opacity="0" stroke="black" stroke-width="0.05" stroke-linecap="round" />
	<!-- 4 7 3 -->
	<path d="M 3 6 h 1 v 1 h -1 z" fill="#ff0000" fill-opacity="0.15" />
	<path d="M 3.3 6.5 h 0.4 M 3.5 6.3 v 0.4" fill="white" fill-opacity="0" stroke="black" stroke-width="0.05" stroke-linecap="round" />
	<!-- 2 6 3 -->
	<path d="M 1 5 h 1 v 1 h -1 z" fill="#ff0000" fill-opacity="0.15" />
	<path d="M 1.3 5.5 h 0.4 M 1.5 5.3 v 0.4" fill="white" fill-opacity="0" stroke="black" stroke-width="0.05" stroke-linecap="round" />
	<!-- 3 6 2 -->
	<path d="M 2 5 h 1 v 1 h -1 z" fill="#dddddd" fill-opacity="1" />
	<!-- 5 6 2 -->
	<path d="M 4 5 h 1 v 1 h -1 z" fill="#dddddd" fill-opacity="1" />
	<!-- 6 5 2 -->
	<path d="M 5 4 h 1 v 1 h -1 z" fill="#dddddd" fill-opacity="1" />
	<!-- 7 4 2 -->
	<path d="M 6 3 h 1 v 1 h -1 z" fill="#dddddd" fill-opacity="1" />
	<!-- 7 3 2 -->
	<path d="M 6 2 h 1 v 1 h -1 z" fill="#dddddd" fill-opacity="1" />
	<!-- 3 5 2 -->
	<path d="M 2 4 h 1 v 1 h -1 z" fill="#dddddd" fill-opacity="1" />
	<!-- 4 4 2 -->
	<path d="M 3 3 h 1 v 1 h -1 z" fill="#dddddd" fill-opacity="1" />
	<!-- 5 3 2 -->
	<path d="M 4 2 h 1 v 1 h -1 z" fill="#dddddd" fill-opacity="1" />
	<!-- 1 3 4 -->
	<path d="M 0 2 h 1 v 1 h -1 z" fill="#0000ff" fill-opacity="0.15" />
	<path d="M 0.8 2.5 h -0.6 l 0.2 -0.2 l -0.2 0.2 l 0.2 0.2" fill="white" fill-opacity="0" stroke="black" stroke-width="0.05" stroke-linecap="round" />
	<!-- 2 3 4 -->
	<path d="M 1 2 h 1 v 1 h -1 z" fill="#0000ff" fill-opacity="0.15" />
	<path d="M 1.8 2.5 h -0.6 l 0.2 -0.2 l -0.2 0.2 l 0.2 0.2" fill="white" fill-opacity="0" stroke="black" stroke-width="0.05" stroke-linecap="round" />
	<!-- 2 2 4 -->
	<path d="M 1 1 h 1 v 1 h -1 z" fill="#0000ff" fill-opacity="0.15" />
	<path d="M 1.8 1.5 h -0.6 l 0.2 -0.2 l -0.2 0.2 l 0.2 0.2" fill="white" fill-opacity="0" stroke="black" stroke-width="0.05" stroke-linecap="round" />
	<!-- 3 2 4 -->
	<path d="M 2 1 h 1 v 1 h -1 z" fill="#0000ff" fill-opacity="0.15" />
	<path d="M 2.8 1.5 h -0.6 l 0.2 -0.2 l -0.2 0.2 l 0.2 0.2" fill="white" fill-opacity="0" stroke="black" stroke-width="0.05" stroke-linecap="round" />
	<!-- 3 1 4 -->
	<path d="M 2 0 h 1 v 1 h -1 z" fill="#0000ff" fill-opacity="0.15" />
	<path d="M 2.8 0.5 h -0.6 l 0.2 -0.2 l -0.2 0.2 l 0.2 0.2" fill="white" fill-opacity="0" stroke="black" stroke-width="0.05" stroke-linecap="round" />
	<!-- 4 1 4 -->
	<path d="M 3 0 h 1 v 1 h -1 z" fill="#0000ff" fill-opacity="0.15" />
	<path d="M 3.8 0.5 h -0.6 l 0.2 -0.2 l -0.2 0.2 l 0.2 0.2" fill="white" fill-opacity="0" stroke="black" stroke-width="0.05" stroke-linecap="round" />
	<!--1-->
	<!--2-->	
	<!-- 8 3 12 -->
	<path d="M 7.2 2.2 l 0.6 0.6 M 7.2 2.8 l 0.6 -0.6" fill="white" fill-opacity="0" stroke="red" stroke-width="0.05" stroke-linecap="round" />
	<!-- 9 4 12 -->
	<path d="M 8.2 3.2 l 0.6 0.6 M 8.2 3.8 l 0.6 -0.6" fill="white" fill-opacity="0" stroke="red" stroke-width="0.05" stroke-linecap="round" />
	<!--3-->
	<path fill="transparent" stroke="gray" stroke-width="0.02" d="M 0.01 0 v 8" />
	<path fill="transparent" stroke="gray" stroke-width="0.02" d="M 1 0 v 8" />
	<path fill="transparent" stroke="gray" stroke-width="0.02" d="M 2 0 v 8" />
	<path fill="transparent" stroke="gray" stroke-width="0.02" d="M 3 0 v 8" />
	<path fill="transparent" stroke="gray" stroke-width="0.02" d="M 4 0 v 8" />
	<path fill="transparent" stroke="gray" stroke-width="0.02" d="M 5 0 v 8" />
	<path fill="transparent" stroke="gray" stroke-width="0.02" d="M 6 0 v 8" />
	<path fill="transparent" stroke="gray" stroke-width="0.02" d="M 7 0 v 8" />
	<path fill="transparent" stroke="gray" stroke-width="0.02" d="M 8 0 v 8" />
	<path fill="transparent" stroke="gray" stroke-width="0.02" d="M 8.99 0 v 8" />
	<path fill="transparent" stroke="gray" stroke-width="0.02" d="M 0 0.01 h 9" />
	<path fill="transparent" stroke="gray" stroke-width="0.02" d="M 0 1 h 9" />
	<path fill="transparent" stroke="gray" stroke-width="0.02" d="M 0 2 h 9" />
	<path fill="transparent" stroke="gray" stroke-width="0.02" d="M 0 3 h 9" />
	<path fill="transparent" stroke="gray" stroke-width="0.02" d="M 0 4 h 9" />
	<path fill="transparent" stroke="gray" stroke-width="0.02" d="M 0 5 h 9" />
	<path fill="transparent" stroke="gray" stroke-width="0.02" d="M 0 6 h 9" />
	<path fill="transparent" stroke="gray" stroke-width="0.02" d="M 0 7 h 9" />
	<path fill="transparent" stroke="gray" stroke-width="0.02" d="M 0 7.99 h 9" />

	<path d="
M 6.5 2.5
v 0.5
a 0.5 0.5 0 0 1 -0.5 0.5
a 0.5 0.5 0 0 0 -0.5 0.5
a 0.5 0.5 0 0 1 -0.5 0.5
a 0.5 0.5 0 0 0 -0.5 0.5
a 0.5 0.5 0 0 1 -0.5 0.5
h -1
a 0.5 0.5 0 0 1 -0.5 -0.5
a 0.5 0.5 0 0 1 0.5 -0.5
a 0.5 0.5 0 0 0 0.5 -0.5
a 0.5 0.5 0 0 1 0.5 -0.5
a 0.5 0.5 0 0 0 0.5 -0.5
a 0.5 0.5 0 0 1 0.5 -0.5
h 0.5" fill="white" fill-opacity="0" stroke="blue" stroke-width="0.05" stroke-linecap="round" />

	<path fill="transparent" stroke="red" stroke-width="0.06" stroke-linecap="round" d="M 6 3 h 1 v 2 h -1 v -2" />
	<path fill="transparent" stroke="black" stroke-width="0.06" stroke-linecap="round" d="M 3 6 h 1 v 1.97 h -1 v -1.97" />	
</svg>