<svg xmlns="http://www.w3.org/2000/svg" viewBox="0 0 4 6">
	<!-- 1 5 1 -->
	<path d="M 0 4 h 1 v 1 h -1 z" fill="#ff0000" fill-opacity="0.15" />
	<path d="M 0.5 5 v -0.5" fill="white" fill-opacity="0" stroke="black" stroke-width="0.05" stroke-linecap="round" /><path d="M 0 5 h 1 v 1 h -1 z" fill="#ff0000" fill-opacity="0.15" />
	<path d="M 0.5 5 v 0.5" fill="white" fill-opacity="0" stroke="black" stroke-width="0.05" stroke-linecap="round" />
	<!-- 2 6 3 -->
	<path d="M 1 5 h 1 v 1 h -1 z" fill="#ff0000" fill-opacity="0.15" />
	<path d="M 1.3 5.5 h 0.4 M 1.5 5.3 v 0.4" fill="white" fill-opacity="0" stroke="black" stroke-width="0.05" stroke-linecap="round" />
	<!-- 3 6 3 -->
	<path d="M 2 5 h 1 v 1 h -1 z" fill="#ff0000" fill-opacity="0.15" />
	<path d="M 2.3 5.5 h 0.4 M 2.5 5.3 v 0.4" fill="white" fill-opacity="0" stroke="black" stroke-width="0.05" stroke-linecap="round" />
	<!-- 1 4 5 -->
	<path d="M 0 3 h 1 v 1 h -1 z" fill="#0000ff" fill-opacity="0.15" />
	<path d="M 0.2 3.2 v 0.6 v -0.3 h 0.6 l -0.2 -0.2 l 0.2 0.2 l -0.2 0.2" fill="white" fill-opacity="0" stroke="blue" stroke-width="0.05" stroke-linecap="round" stroke-linejoin="round" />
	<!-- 1 2 6 -->
	<path d="M 0 1 h 1 v 1 h -1 z" fill="#0000ff" fill-opacity="0.15" />
	<path d="M 0.2 1.5 h 0.6 l -0.2 -0.2 l 0.2 0.2 l -0.2 0.2 l 0.2 -0.2 v 0.3 v -0.6" fill="white" fill-opacity="0" stroke="blue" stroke-width="0.05" stroke-linecap="round" stroke-linejoin="round" />
	<!-- 2 1 4 -->
	<path d="M 1 0 h 1 v 1 h -1 z" fill="#000000" fill-opacity="0.5" />
	<!-- 4 5 3 -->
	<path d="M 3 4 h 1 v 1 h -1 z" fill="#ff0000" fill-opacity="0.15" />
	<path d="M 3.3 4.5 h 0.4 M 3.5 4.3 v 0.4" fill="white" fill-opacity="0" stroke="black" stroke-width="0.05" stroke-linecap="round" />
	<!-- 3 5 2 -->
	<path d="M 2 4 h 1 v 1 h -1 z" fill="#dddddd" fill-opacity="1" />
	<!--1-->
	<!--2-->
	<!-- 1 4 8 -->
	<path d="M 0.2 3.2 l 0.6 0.6 M 0.2 3.8 l 0.6 -0.6" fill="white" fill-opacity="0" stroke="red" stroke-width="0.05" stroke-linecap="round" />
	<!--3-->
	<path fill="transparent" stroke="gray" stroke-width="0.02" d="M 0.01 0 v 6" />
	<path fill="transparent" stroke="gray" stroke-width="0.02" d="M 1 0 v 6" />
	<path fill="transparent" stroke="gray" stroke-width="0.02" d="M 2 0 v 6" />
	<path fill="transparent" stroke="gray" stroke-width="0.02" d="M 3 0 v 6" />
	<path fill="transparent" stroke="gray" stroke-width="0.02" d="M 3.99 0 v 6" />
	<path fill="transparent" stroke="gray" stroke-width="0.02" d="M 0 0.01 h 4" />
	<path fill="transparent" stroke="gray" stroke-width="0.02" d="M 0 1 h 4" />
	<path fill="transparent" stroke="gray" stroke-width="0.02" d="M 0 2 h 4" />
	<path fill="transparent" stroke="gray" stroke-width="0.02" d="M 0 3 h 4" />
	<path fill="transparent" stroke="gray" stroke-width="0.02" d="M 0 4 h 4" />
	<path fill="transparent" stroke="gray" stroke-width="0.02" d="M 0 5 h 4" />
	<path fill="transparent" stroke="gray" stroke-width="0.02" d="M 0 5.99 h 4" />
</svg>