<svg xmlns="http://www.w3.org/2000/svg" viewBox="0 0 7 6">
	<style>
		svg { background-color: white; }
	</style>
	<!-- 2 6 1 -->
	<path d="M 1 5 h 1 v 1 h -1 z" fill="#ff0000" fill-opacity="0.15" />
	<path d="M 1.5 6 v -0.5" fill="white" fill-opacity="0" stroke="black" stroke-width="0.05" stroke-linecap="round" />
	<path d="M 1 6 h 1 v 1 h -1 z" fill="#ff0000" fill-opacity="0.15" />
	<path d="M 1.5 6 v 0.5" fill="white" fill-opacity="0" stroke="black" stroke-width="0.05" stroke-linecap="round" />
	<!-- 3 5 8 -->
	<path d="M 2 4 h 1 v 1 h -1 z" fill="#000000" fill-opacity="1" />
	<!-- 4 4 8 -->
	<path d="M 3 3 h 1 v 1 h -1 z" fill="#000000" fill-opacity="1" />
	<!-- 6 4 8 -->
	<path d="M 5 3 h 1 v 1 h -1 z" fill="#000000" fill-opacity="1" />
	<!-- 5 4 2 -->
	<path d="M 4 3 h 1 v 1 h -1 z" fill="#dddddd" fill-opacity="1" />
	<!-- 7 5 7 -->
	<path d="M 6 4 h 1 v 1 h -1 z" fill="#ff0000" fill-opacity="0.15" />
	<path d="M 6.5 4.2 v 0.6 l -0.2 -0.2 l 0.2 0.2 l 0.2 -0.2" fill="white" fill-opacity="0" stroke="black" stroke-width="0.05" stroke-linecap="round" />
	<!-- 7 2 5 -->
	<path d="M 6 1 h 1 v 1 h -1 z" fill="#0000ff" fill-opacity="0.15" />
	<path d="M 6.2 1.5 h 0.6 l -0.2 -0.2 l 0.2 0.2 l -0.2 0.2" fill="white" fill-opacity="0" stroke="black" stroke-width="0.05" stroke-linecap="round" />
	<!-- 3 3 2 -->
	<path d="M 2 2 h 1 v 1 h -1 z" fill="#80ff80" fill-opacity="1" />
	<!-- 4 1 5 -->
	<path d="M 3 0 h 1 v 1 h -1 z" fill="#ff0000" fill-opacity="0.15" />
	<path d="M 3.2 0.5 h 0.6 l -0.2 -0.2 l 0.2 0.2 l -0.2 0.2" fill="white" fill-opacity="0" stroke="black" stroke-width="0.05" stroke-linecap="round" />
	<!-- 1 3 7 -->
	<path d="M 0 2 h 1 v 1 h -1 z" fill="#ff0000" fill-opacity="0.15" />
	<path d="M 0.5 2.2 v 0.6 l -0.2 -0.2 l 0.2 0.2 l 0.2 -0.2" fill="white" fill-opacity="0" stroke="black" stroke-width="0.05" stroke-linecap="round" />
	<!--1-->
	<!--2-->
	<!--3-->
	<path fill="transparent" stroke="gray" stroke-width="0.02" d="M 0.01 0 v 6" />
	<path fill="transparent" stroke="gray" stroke-width="0.02" d="M 1 0 v 6" />
	<path fill="transparent" stroke="gray" stroke-width="0.02" d="M 2 0 v 6" />
	<path fill="transparent" stroke="gray" stroke-width="0.02" d="M 3 0 v 6" />
	<path fill="transparent" stroke="gray" stroke-width="0.02" d="M 4 0 v 6" />
	<path fill="transparent" stroke="gray" stroke-width="0.02" d="M 5 0 v 6" />
	<path fill="transparent" stroke="gray" stroke-width="0.02" d="M 6 0 v 6" />
	<path fill="transparent" stroke="gray" stroke-width="0.02" d="M 6.99 0 v 6" />
	<path fill="transparent" stroke="gray" stroke-width="0.02" d="M 0 0.01 h 7" />
	<path fill="transparent" stroke="gray" stroke-width="0.02" d="M 0 1 h 7" />
	<path fill="transparent" stroke="gray" stroke-width="0.02" d="M 0 2 h 7" />
	<path fill="transparent" stroke="gray" stroke-width="0.02" d="M 0 3 h 7" />
	<path fill="transparent" stroke="gray" stroke-width="0.02" d="M 0 4 h 7" />
	<path fill="transparent" stroke="gray" stroke-width="0.02" d="M 0 5 h 7" />
	<path fill="transparent" stroke="gray" stroke-width="0.02" d="M 0 5.99 h 7" />

	<text x="4.25" y="2.75" style="font: 0.7px sans-serif;">A</text>

	<path d="
	M 1.5 3.5
	h 0.5
	a 0.5 0.5 0 0 0 0.5 -0.5
	v -0.5
	" fill="white" fill-opacity="0" stroke="white" stroke-width="0.1" stroke-linecap="round" />
	<path d="
	M 1.5 3.5
	h 0.5
	a 0.5 0.5 0 0 0 0.5 -0.5
	v -0.5
	" fill="white" fill-opacity="0" stroke="blue" stroke-width="0.05" stroke-linecap="round" />
</svg>