<svg xmlns="http://www.w3.org/2000/svg" viewBox="0 0 8 7">
	<style>
		svg { background-color: white; }
	</style>
	<!-- 3 7 1 -->
	<path d="M 2 6 h 1 v 1 h -1 z" fill="#ff0000" fill-opacity="0.15" />
	<path d="M 2.5 7 v -0.5" fill="white" fill-opacity="0" stroke="black" stroke-width="0.05" stroke-linecap="round" />
	<path d="M 2 7 h 1 v 1 h -1 z" fill="#ff0000" fill-opacity="0.15" />
	<path d="M 2.5 7 v 0.5" fill="white" fill-opacity="0" stroke="black" stroke-width="0.05" stroke-linecap="round" />
	<!-- 4 6 8 -->
	<path d="M 3 5 h 1 v 1 h -1 z" fill="#000000" fill-opacity="1" />
	<!-- 5 5 8 -->
	<path d="M 4 4 h 1 v 1 h -1 z" fill="#000000" fill-opacity="1" />
	<!-- 6 4 8 -->
	<path d="M 5 3 h 1 v 1 h -1 z" fill="#000000" fill-opacity="1" />
	<!-- 7 4 2 -->
	<path d="M 6 3 h 1 v 1 h -1 z" fill="#dddddd" fill-opacity="1" />
	<!-- 8 5 7 -->
	<path d="M 7 4 h 1 v 1 h -1 z" fill="#ff0000" fill-opacity="0.15" />
	<path d="M 7.5 4.2 v 0.6 l -0.2 -0.2 l 0.2 0.2 l 0.2 -0.2" fill="white" fill-opacity="0" stroke="black" stroke-width="0.05" stroke-linecap="round" />
	<!-- 8 2 5 -->
	<path d="M 7 1 h 1 v 1 h -1 z" fill="#ff0000" fill-opacity="0.15" />
	<path d="M 7.2 1.5 h 0.6 l -0.2 -0.2 l 0.2 0.2 l -0.2 0.2" fill="white" fill-opacity="0" stroke="black" stroke-width="0.05" stroke-linecap="round" />
	<!-- 5 1 5 -->
	<path d="M 4 0 h 1 v 1 h -1 z" fill="#ff0000" fill-opacity="0.15" />
	<path d="M 4.2 0.5 h 0.6 l -0.2 -0.2 l 0.2 0.2 l -0.2 0.2" fill="white" fill-opacity="0" stroke="black" stroke-width="0.05" stroke-linecap="round" />
	<!-- 2 3 7 -->
	<path d="M 1 2 h 1 v 1 h -1 z" fill="#ff0000" fill-opacity="0.15" />
	<path d="M 1.5 2.2 v 0.6 l -0.2 -0.2 l 0.2 0.2 l 0.2 -0.2" fill="white" fill-opacity="0" stroke="black" stroke-width="0.05" stroke-linecap="round" />
	<!-- 1 6 7 -->
	<path d="M 0 5 h 1 v 1 h -1 z" fill="#ff0000" fill-opacity="0.15" />
	<path d="M 0.5 5.2 v 0.6 l -0.2 -0.2 l 0.2 0.2 l 0.2 -0.2" fill="white" fill-opacity="0" stroke="black" stroke-width="0.05" stroke-linecap="round" />
	<!-- 3 6 2 -->
	<path d="M 2 5 h 1 v 1 h -1 z" fill="#80ff80" fill-opacity="1" />
	<!-- 4 3 2 -->
	<path d="M 3 2 h 1 v 1 h -1 z" fill="#80ff80" fill-opacity="1" />
	<!-- 5 4 8 -->
	<path d="M 4 3 h 1 v 1 h -1 z" fill="#000000" fill-opacity="0.5" />
	<!-- 4 5 8 -->
	<path d="M 3 4 h 1 v 1 h -1 z" fill="#000000" fill-opacity="0.5" />
	<!--1-->
	<!--2-->
	<!--3-->
	<path fill="transparent" stroke="gray" stroke-width="0.02" d="M 0.01 0 v 7" />
	<path fill="transparent" stroke="gray" stroke-width="0.02" d="M 1 0 v 7" />
	<path fill="transparent" stroke="gray" stroke-width="0.02" d="M 2 0 v 7" />
	<path fill="transparent" stroke="gray" stroke-width="0.02" d="M 3 0 v 7" />
	<path fill="transparent" stroke="gray" stroke-width="0.02" d="M 4 0 v 7" />
	<path fill="transparent" stroke="gray" stroke-width="0.02" d="M 5 0 v 7" />
	<path fill="transparent" stroke="gray" stroke-width="0.02" d="M 6 0 v 7" />
	<path fill="transparent" stroke="gray" stroke-width="0.02" d="M 7 0 v 7" />
	<path fill="transparent" stroke="gray" stroke-width="0.02" d="M 7.99 0 v 7" />
	<path fill="transparent" stroke="gray" stroke-width="0.02" d="M 0 0.01 h 8" />
	<path fill="transparent" stroke="gray" stroke-width="0.02" d="M 0 1 h 8" />
	<path fill="transparent" stroke="gray" stroke-width="0.02" d="M 0 2 h 8" />
	<path fill="transparent" stroke="gray" stroke-width="0.02" d="M 0 3 h 8" />
	<path fill="transparent" stroke="gray" stroke-width="0.02" d="M 0 4 h 8" />
	<path fill="transparent" stroke="gray" stroke-width="0.02" d="M 0 5 h 8" />
	<path fill="transparent" stroke="gray" stroke-width="0.02" d="M 0 6 h 8" />
	<path fill="transparent" stroke="gray" stroke-width="0.02" d="M 0 6.99 h 8" />

	<text x="5.25" y="2.75" style="font: 0.7px sans-serif;">A</text>
</svg>