<svg xmlns="http://www.w3.org/2000/svg" viewBox="0 0 5 6">
	<style>
		svg { background-color: white; }
	</style>
	<!-- 3 6 1 -->
	<path d="M 2 5 h 1 v 1 h -1 z" fill="#ff0000" fill-opacity="0.15" />
	<path d="M 2.5 6 v -0.5" fill="white" fill-opacity="0" stroke="black" stroke-width="0.05" stroke-linecap="round" />
	<path d="M 2 6 h 1 v 1 h -1 z" fill="#ff0000" fill-opacity="0.15" />
	<path d="M 2.5 6 v 0.5" fill="white" fill-opacity="0" stroke="black" stroke-width="0.05" stroke-linecap="round" />
	<!-- 4 5 8 -->
	<path d="M 3 4 h 1 v 1 h -1 z" fill="#000000" fill-opacity="0.5" />
	<!-- 4 4 8 -->
	<path d="M 3 3 h 1 v 1 h -1 z" fill="#000000" fill-opacity="0.5" />
	<!-- 5 4 8 -->
	<path d="M 4 3 h 1 v 1 h -1 z" fill="#000000" fill-opacity="0.5" />
	<!-- 1 5 7 -->
	<path d="M 0 4 h 1 v 1 h -1 z" fill="#ff0000" fill-opacity="0.15" />
	<path d="M 0.5 4.2 v 0.6 l -0.2 -0.2 l 0.2 0.2 l 0.2 -0.2" fill="white" fill-opacity="0" stroke="black" stroke-width="0.05" stroke-linecap="round" />
	<!-- 1 3 7 -->
	<path d="M 0 2 h 1 v 1 h -1 z" fill="#ff0000" fill-opacity="0.15" />
	<path d="M 0.5 2.2 v 0.6 l -0.2 -0.2 l 0.2 0.2 l 0.2 -0.2" fill="white" fill-opacity="0" stroke="black" stroke-width="0.05" stroke-linecap="round" />
	<!-- 4 1 5 -->
	<path d="M 3 0 h 1 v 1 h -1 z" fill="#ff0000" fill-opacity="0.15" />
	<path d="M 3.2 0.5 h 0.6 l -0.2 -0.2 l 0.2 0.2 l -0.2 0.2" fill="white" fill-opacity="0" stroke="black" stroke-width="0.05" stroke-linecap="round" />
	<!-- 3 1 2 -->
	<path d="M 2 0 h 1 v 1 h -1 z" fill="#dddddd" fill-opacity="1" />
	<!-- 3 2 2 -->
	<path d="M 2 1 h 1 v 1 h -1 z" fill="#dddddd" fill-opacity="1" />
	<!-- 4 2 2 -->
	<path d="M 3 1 h 1 v 1 h -1 z" fill="#dddddd" fill-opacity="1" />
	<!-- 3 3 2 -->
	<path d="M 2 2 h 1 v 1 h -1 z" fill="#80ff80" fill-opacity="1" />
	<!-- 3 5 2 -->
	<path d="M 2 4 h 1 v 1 h -1 z" fill="#80ff80" fill-opacity="1" />
	<!--1-->
	<!--2-->
	<!--3-->
	<path fill="transparent" stroke="gray" stroke-width="0.02" d="M 0.01 0 v 6" />
	<path fill="transparent" stroke="gray" stroke-width="0.02" d="M 1 0 v 6" />
	<path fill="transparent" stroke="gray" stroke-width="0.02" d="M 2 0 v 6" />
	<path fill="transparent" stroke="gray" stroke-width="0.02" d="M 3 0 v 6" />
	<path fill="transparent" stroke="gray" stroke-width="0.02" d="M 4 0 v 6" />
	<path fill="transparent" stroke="gray" stroke-width="0.02" d="M 4.99 0 v 6" />
	<path fill="transparent" stroke="gray" stroke-width="0.02" d="M 0 0.01 h 5" />
	<path fill="transparent" stroke="gray" stroke-width="0.02" d="M 0 1 h 5" />
	<path fill="transparent" stroke="gray" stroke-width="0.02" d="M 0 2 h 5" />
	<path fill="transparent" stroke="gray" stroke-width="0.02" d="M 0 3 h 5" />
	<path fill="transparent" stroke="gray" stroke-width="0.02" d="M 0 4 h 5" />
	<path fill="transparent" stroke="gray" stroke-width="0.02" d="M 0 5 h 5" />
	<path fill="transparent" stroke="gray" stroke-width="0.02" d="M 0 5.99 h 5" />

	<path d="
	M 2.5 4.5
	h -0.5
	a 0.5 0.5 0 0 1 -0.5 -0.5
    a 0.5 0.5 0 0 1 0.5 -0.5
	a 0.5 0.5 0 0 0 0.5 -0.5
    a 0.5 0.5 0 0 0 -0.5 -0.5
	h -0.5
	" fill="white" fill-opacity="0" stroke="white" stroke-width="0.1" stroke-linecap="round" />
	<path d="
	M 2.5 4.5
	h -0.5
	a 0.5 0.5 0 0 1 -0.5 -0.5
    a 0.5 0.5 0 0 1 0.5 -0.5
	a 0.5 0.5 0 0 0 0.5 -0.5
    a 0.5 0.5 0 0 0 -0.5 -0.5
	h -0.5
	" fill="white" fill-opacity="0" stroke="blue" stroke-width="0.05" stroke-linecap="round" />
	<text x="4.25" y="2.75" style="font: 0.7px sans-serif;">A</text>
</svg>