<svg xmlns="http://www.w3.org/2000/svg" viewBox="0 0 6 2">
	<style>
		svg { background-color: white; }
	</style>
	<!-- 6 2 1 -->
	<path d="M 5 1 h 1 v 1 h -1 z" fill="#ff0000" fill-opacity="0.15" />
	<path d="M 5.5 2 v -0.5" fill="white" fill-opacity="0" stroke="black" stroke-width="0.05" stroke-linecap="round" />
	<path d="M 5 2 h 1 v 1 h -1 z" fill="#ff0000" fill-opacity="0.15" />
	<path d="M 5.5 2 v 0.5" fill="white" fill-opacity="0" stroke="black" stroke-width="0.05" stroke-linecap="round" />
	<!-- 1 2 7 -->
	<path d="M 0 1 h 1 v 1 h -1 z" fill="#ff0000" fill-opacity="0.15" />
	<path d="M 0.5 1.2 v 0.6 l -0.2 -0.2 l 0.2 0.2 l 0.2 -0.2" fill="white" fill-opacity="0" stroke="black" stroke-width="0.05" stroke-linecap="round" />
	<!-- 5 2 2 -->
	<path d="M 4 1 h 1 v 1 h -1 z" fill="#dddddd" fill-opacity="1" />
	<!-- 4 2 8 -->
	<path d="M 3 1 h 1 v 1 h -1 z" fill="#000000" fill-opacity="1" />
	<!-- 3 2 2 -->
	<path d="M 2 1 h 1 v 1 h -1 z" fill="#dddddd" fill-opacity="1" />
	<!-- 2 2 8 -->
	<path d="M 1 1 h 1 v 1 h -1 z" fill="#000000" fill-opacity="1" />
	<!--1-->
	<!--2-->
	<!--3-->
	<path fill="transparent" stroke="gray" stroke-width="0.02" d="M 0.01 0 v 2" />
	<path fill="transparent" stroke="gray" stroke-width="0.02" d="M 1 0 v 2" />
	<path fill="transparent" stroke="gray" stroke-width="0.02" d="M 2 0 v 2" />
	<path fill="transparent" stroke="gray" stroke-width="0.02" d="M 3 0 v 2" />
	<path fill="transparent" stroke="gray" stroke-width="0.02" d="M 4 0 v 2" />
	<path fill="transparent" stroke="gray" stroke-width="0.02" d="M 5 0 v 2" />
	<path fill="transparent" stroke="gray" stroke-width="0.02" d="M 5.99 0 v 2" />
	<path fill="transparent" stroke="gray" stroke-width="0.02" d="M 0 0.01 h 6" />
	<path fill="transparent" stroke="gray" stroke-width="0.02" d="M 0 1 h 6" />
	<path fill="transparent" stroke="gray" stroke-width="0.02" d="M 0 1.99 h 6" />
</svg>