<svg xmlns="http://www.w3.org/2000/svg" viewBox="0 0 6 5">
	<style>
		svg { background-color: white; }
	</style>
	<!-- 6 5 1 -->
	<path d="M 5 4 h 1 v 1 h -1 z" fill="#ff0000" fill-opacity="0.15" />
	<path d="M 5.5 5 v -0.5" fill="white" fill-opacity="0" stroke="black" stroke-width="0.05" stroke-linecap="round" />
	<path d="M 5 5 h 1 v 1 h -1 z" fill="#ff0000" fill-opacity="0.15" />
	<path d="M 5.5 5 v 0.5" fill="white" fill-opacity="0" stroke="black" stroke-width="0.05" stroke-linecap="round" />
	<!-- 1 3 8 -->
	<path d="M 0 2 h 1 v 1 h -1 z" fill="#ff0000" fill-opacity="0.15" />
	<path d="M 0.5 2.2 v 0.6 l -0.2 -0.2 l 0.2 0.2 l 0.2 -0.2" fill="white" fill-opacity="0" stroke="black" stroke-width="0.05" stroke-linecap="round" />
	<!-- 2 3 3 -->
	<path d="M 1 2 h 1 v 1 h -1 z" fill="#000000" fill-opacity="1" />
	<!-- 4 3 3 -->
	<path d="M 3 2 h 1 v 1 h -1 z" fill="#000000" fill-opacity="1" />
	<!-- 3 3 2 -->
	<path d="M 2 2 h 1 v 1 h -1 z" fill="#dddddd" fill-opacity="1" />
	<!-- 5 4 3 -->
	<path d="M 4 3 h 1 v 1 h -1 z" fill="#000000" fill-opacity="1" />
	<!-- 4 1 6 -->
	<path d="M 3 0 h 1 v 1 h -1 z" fill="#ff0000" fill-opacity="0.15" />
	<path d="M 3.2 0.5 h 0.6 l -0.2 -0.2 l 0.2 0.2 l -0.2 0.2" fill="white" fill-opacity="0" stroke="black" stroke-width="0.05" stroke-linecap="round" />
	<!--1-->
	<!--2-->
	<path fill="transparent" stroke="gray" stroke-width="0.02" d="M 0.01 0 v 5" />
	<path fill="transparent" stroke="gray" stroke-width="0.02" d="M 1 0 v 5" />
	<path fill="transparent" stroke="gray" stroke-width="0.02" d="M 2 0 v 5" />
	<path fill="transparent" stroke="gray" stroke-width="0.02" d="M 3 0 v 5" />
	<path fill="transparent" stroke="gray" stroke-width="0.02" d="M 4 0 v 5" />
	<path fill="transparent" stroke="gray" stroke-width="0.02" d="M 5 0 v 5" />
	<path fill="transparent" stroke="gray" stroke-width="0.02" d="M 5.99 0 v 5" />
	<path fill="transparent" stroke="gray" stroke-width="0.02" d="M 0 0.01 h 6" />
	<path fill="transparent" stroke="gray" stroke-width="0.02" d="M 0 1 h 6" />
	<path fill="transparent" stroke="gray" stroke-width="0.02" d="M 0 2 h 6" />
	<path fill="transparent" stroke="gray" stroke-width="0.02" d="M 0 3 h 6" />
	<path fill="transparent" stroke="gray" stroke-width="0.02" d="M 0 4 h 6" />
	<path fill="transparent" stroke="gray" stroke-width="0.02" d="M 0 4.99 h 6" />
<!--3-->
	<!-- 4 2 9 -->
	<path d="M 3.5 1.5
L 3.5 2
A 0.5 0.5 0 0 0 4 2.5
A 0.5 0.5 0 0 1 4.5 3
A 0.5 0.5 0 0 0 5 3.5
L 5.5 3.5
" fill="white" fill-opacity="0" stroke="white" stroke-width="0.1" stroke-linecap="round" />
<path d="M 3.5 1.5
L 3.5 2
A 0.5 0.5 0 0 0 4 2.5
A 0.5 0.5 0 0 1 4.5 3
A 0.5 0.5 0 0 0 5 3.5
L 5.5 3.5
" fill="white" fill-opacity="0" stroke="blue" stroke-width="0.05" stroke-linecap="round" />
	<!-- 3 4 9 -->
	<path d="M 2.5 3.5
L 2.5 3
A 0.5 0.5 0 0 0 2 2.5
A 0.5 0.5 0 0 1 1.5 2
L 1.5 1.5
" fill="white" fill-opacity="0" stroke="white" stroke-width="0.1" stroke-linecap="round" />
<path d="M 2.5 3.5
L 2.5 3
A 0.5 0.5 0 0 0 2 2.5
A 0.5 0.5 0 0 1 1.5 2
L 1.5 1.5
" fill="white" fill-opacity="0" stroke="blue" stroke-width="0.05" stroke-linecap="round" />
</svg>