<svg xmlns="http://www.w3.org/2000/svg" viewBox="0 0 7 8">
	<style>
		svg { background-color: white; }
	</style>
	<!-- 6 8 1 -->
	<path d="M 5 7 h 1 v 1 h -1 z" fill="#ff0000" fill-opacity="0.15" />
	<path d="M 5.5 8 v -0.5" fill="white" fill-opacity="0" stroke="black" stroke-width="0.05" stroke-linecap="round" />
	<path d="M 5 8 h 1 v 1 h -1 z" fill="#ff0000" fill-opacity="0.15" />
	<path d="M 5.5 8 v 0.5" fill="white" fill-opacity="0" stroke="black" stroke-width="0.05" stroke-linecap="round" />
	<!-- 5 7 3 -->
	<path d="M 4 6 h 1 v 1 h -1 z" fill="#000000" fill-opacity="1" />
	<!-- 4 6 3 -->
	<path d="M 3 5 h 1 v 1 h -1 z" fill="#000000" fill-opacity="1" />
	<!-- 3 6 2 -->
	<path d="M 2 5 h 1 v 1 h -1 z" fill="#dddddd" fill-opacity="1" />
	<!-- 2 6 3 -->
	<path d="M 1 5 h 1 v 1 h -1 z" fill="#000000" fill-opacity="1" />
	<!-- 1 6 8 -->
	<path d="M 0 5 h 1 v 1 h -1 z" fill="#ff0000" fill-opacity="0.15" />
	<path d="M 0.5 5.2 v 0.6 l -0.2 -0.2 l 0.2 0.2 l 0.2 -0.2" fill="white" fill-opacity="0" stroke="black" stroke-width="0.05" stroke-linecap="round" />
	<!-- 1 5 4 -->
	<path d="M 0 4 h 1 v 1 h -1 z" fill="#ff0000" fill-opacity="0.15" />
	<path d="M 0.3 4.5 h 0.4 M 0.5 4.3 v 0.4" fill="white" fill-opacity="0" stroke="black" stroke-width="0.05" stroke-linecap="round" />
	<!-- 2 4 4 -->
	<path d="M 1 3 h 1 v 1 h -1 z" fill="#ff0000" fill-opacity="0.15" />
	<path d="M 1.3 3.5 h 0.4 M 1.5 3.3 v 0.4" fill="white" fill-opacity="0" stroke="black" stroke-width="0.05" stroke-linecap="round" />
	<!-- 3 3 4 -->
	<path d="M 2 2 h 1 v 1 h -1 z" fill="#ff0000" fill-opacity="0.15" />
	<path d="M 2.3 2.5 h 0.4 M 2.5 2.3 v 0.4" fill="white" fill-opacity="0" stroke="black" stroke-width="0.05" stroke-linecap="round" />
	<!-- 4 2 4 -->
	<path d="M 3 1 h 1 v 1 h -1 z" fill="#ff0000" fill-opacity="0.15" />
	<path d="M 3.3 1.5 h 0.4 M 3.5 1.3 v 0.4" fill="white" fill-opacity="0" stroke="black" stroke-width="0.05" stroke-linecap="round" />
	<!-- 5 1 4 -->
	<path d="M 4 0 h 1 v 1 h -1 z" fill="#ff0000" fill-opacity="0.15" />
	<path d="M 4.3 0.5 h 0.4 M 4.5 0.3 v 0.4" fill="white" fill-opacity="0" stroke="black" stroke-width="0.05" stroke-linecap="round" />
	<!-- 7 5 8 -->
	<path d="M 6 4 h 1 v 1 h -1 z" fill="#ff0000" fill-opacity="0.15" />
	<path d="M 6.5 4.2 v 0.6 l -0.2 -0.2 l 0.2 0.2 l 0.2 -0.2" fill="white" fill-opacity="0" stroke="black" stroke-width="0.05" stroke-linecap="round" />
	<!--1-->
	<!--2-->
	<path fill="transparent" stroke="gray" stroke-width="0.02" d="M 0.01 0 v 8" />
	<path fill="transparent" stroke="gray" stroke-width="0.02" d="M 1 0 v 8" />
	<path fill="transparent" stroke="gray" stroke-width="0.02" d="M 2 0 v 8" />
	<path fill="transparent" stroke="gray" stroke-width="0.02" d="M 3 0 v 8" />
	<path fill="transparent" stroke="gray" stroke-width="0.02" d="M 4 0 v 8" />
	<path fill="transparent" stroke="gray" stroke-width="0.02" d="M 5 0 v 8" />
	<path fill="transparent" stroke="gray" stroke-width="0.02" d="M 6 0 v 8" />
	<path fill="transparent" stroke="gray" stroke-width="0.02" d="M 6.99 0 v 8" />
	<path fill="transparent" stroke="gray" stroke-width="0.02" d="M 0 0.01 h 7" />
	<path fill="transparent" stroke="gray" stroke-width="0.02" d="M 0 1 h 7" />
	<path fill="transparent" stroke="gray" stroke-width="0.02" d="M 0 2 h 7" />
	<path fill="transparent" stroke="gray" stroke-width="0.02" d="M 0 3 h 7" />
	<path fill="transparent" stroke="gray" stroke-width="0.02" d="M 0 4 h 7" />
	<path fill="transparent" stroke="gray" stroke-width="0.02" d="M 0 5 h 7" />
	<path fill="transparent" stroke="gray" stroke-width="0.02" d="M 0 6 h 7" />
	<path fill="transparent" stroke="gray" stroke-width="0.02" d="M 0 7 h 7" />
	<path fill="transparent" stroke="gray" stroke-width="0.02" d="M 0 7.99 h 7" />

	<!--3-->
	<!-- 3 7 9 -->
	<!--4--><path d="M 2.5 6.5
L 2.5 6
A 0.5 0.5 0 0 0 2 5.5
A 0.5 0.5 0 0 1 1.5 5
A 0.5 0.5 0 0 1 2 4.5
A 0.5 0.5 0 0 0 2.5 4
A 0.5 0.5 0 0 1 3 3.5
A 0.5 0.5 0 0 0 3.5 3
A 0.5 0.5 0 0 1 4 2.5
L 4.5 2.5
" fill="white" fill-opacity="0" stroke="white" stroke-width="0.1" stroke-linecap="round" />
<path d="M 2.5 6.5
L 2.5 6
A 0.5 0.5 0 0 0 2 5.5
A 0.5 0.5 0 0 1 1.5 5
A 0.5 0.5 0 0 1 2 4.5
A 0.5 0.5 0 0 0 2.5 4
A 0.5 0.5 0 0 1 3 3.5
A 0.5 0.5 0 0 0 3.5 3
A 0.5 0.5 0 0 1 4 2.5
L 4.5 2.5
" fill="white" fill-opacity="0" stroke="blue" stroke-width="0.05" stroke-linecap="round" /><!--5-->
</svg>