<svg xmlns="http://www.w3.org/2000/svg" viewBox="0 0 9 6">
	<style>
		svg { background-color: white; }
	</style>
	<!-- 5 5 1 -->
	<path d="M 4 4 h 1 v 1 h -1 z" fill="#ff0000" fill-opacity="0.15" />
	<path d="M 4.5 5 v -0.5" fill="white" fill-opacity="0" stroke="black" stroke-width="0.05" stroke-linecap="round" />
	<path d="M 4 5 h 1 v 1 h -1 z" fill="#ff0000" fill-opacity="0.15" />
	<path d="M 4.5 5 v 0.5" fill="white" fill-opacity="0" stroke="black" stroke-width="0.05" stroke-linecap="round" />
	<!-- 5 1 4 -->
	<path d="M 4 0 h 1 v 1 h -1 z" fill="#ff0000" fill-opacity="0.15" />
	<path d="M 4.8 0.5 h -0.6 l 0.2 -0.2 l -0.2 0.2 l 0.2 0.2" fill="white" fill-opacity="0" stroke="black" stroke-width="0.05" stroke-linecap="round" />
	<!-- 6 2 3 -->
	<path d="M 5 1 h 1 v 1 h -1 z" fill="#ff0000" fill-opacity="0.15" />
	<path d="M 5.3 1.5 h 0.4 M 5.5 1.3 v 0.4" fill="white" fill-opacity="0" stroke="black" stroke-width="0.05" stroke-linecap="round" />
	<!-- 5 2 2 -->
	<path d="M 4 1 h 1 v 1 h -1 z" fill="#dddddd" fill-opacity="1" />
	<!-- 5 3 2 -->
	<path d="M 4 2 h 1 v 1 h -1 z" fill="#dddddd" fill-opacity="1" />
	<!-- 5 4 2 -->
	<path d="M 4 3 h 1 v 1 h -1 z" fill="#dddddd" fill-opacity="1" />
	<!-- 1 5 7 -->
	<path d="M 0 4 h 1 v 1 h -1 z" fill="#ff0000" fill-opacity="0.15" />
	<path d="M 0.5 4.2 v 0.6 l -0.2 -0.2 l 0.2 0.2 l 0.2 -0.2" fill="white" fill-opacity="0" stroke="black" stroke-width="0.05" stroke-linecap="round" />
	<!-- 2 5 2 -->
	<path d="M 1 4 h 1 v 1 h -1 z" fill="#dddddd" fill-opacity="1" />
	<!-- 3 5 2 -->
	<path d="M 2 4 h 1 v 1 h -1 z" fill="#dddddd" fill-opacity="1" />
	<!-- 4 5 2 -->
	<path d="M 3 4 h 1 v 1 h -1 z" fill="#dddddd" fill-opacity="1" />
	<!-- 2 4 3 -->
	<path d="M 1 3 h 1 v 1 h -1 z" fill="#ff0000" fill-opacity="0.15" />
	<path d="M 1.3 3.5 h 0.4 M 1.5 3.3 v 0.4" fill="white" fill-opacity="0" stroke="black" stroke-width="0.05" stroke-linecap="round" />
	<!-- 9 5 6 -->
	<path d="M 8 4 h 1 v 1 h -1 z" fill="#ff0000" fill-opacity="0.15" />
	<path d="M 8.5 4.8 v -0.6 l -0.2 0.2 l 0.2 -0.2 l 0.2 0.2" fill="white" fill-opacity="0" stroke="black" stroke-width="0.05" stroke-linecap="round" />
	<!-- 8 6 3 -->
	<path d="M 7 5 h 1 v 1 h -1 z" fill="#ff0000" fill-opacity="0.15" />
	<path d="M 7.3 5.5 h 0.4 M 7.5 5.3 v 0.4" fill="white" fill-opacity="0" stroke="black" stroke-width="0.05" stroke-linecap="round" />
	<!-- 8 5 2 -->
	<path d="M 7 4 h 1 v 1 h -1 z" fill="#dddddd" fill-opacity="1" />
	<!-- 7 5 2 -->
	<path d="M 6 4 h 1 v 1 h -1 z" fill="#dddddd" fill-opacity="1" />
	<!-- 6 5 2 -->
	<path d="M 5 4 h 1 v 1 h -1 z" fill="#dddddd" fill-opacity="1" />
	<!--1-->
	<!--2-->
	<!--3-->
	<path fill="transparent" stroke="gray" stroke-width="0.02" d="M 0.01 0 v 6" />
	<path fill="transparent" stroke="gray" stroke-width="0.02" d="M 1 0 v 6" />
	<path fill="transparent" stroke="gray" stroke-width="0.02" d="M 2 0 v 6" />
	<path fill="transparent" stroke="gray" stroke-width="0.02" d="M 3 0 v 6" />
	<path fill="transparent" stroke="gray" stroke-width="0.02" d="M 4 0 v 6" />
	<path fill="transparent" stroke="gray" stroke-width="0.02" d="M 5 0 v 6" />
	<path fill="transparent" stroke="gray" stroke-width="0.02" d="M 6 0 v 6" />
	<path fill="transparent" stroke="gray" stroke-width="0.02" d="M 7 0 v 6" />
	<path fill="transparent" stroke="gray" stroke-width="0.02" d="M 8 0 v 6" />
	<path fill="transparent" stroke="gray" stroke-width="0.02" d="M 8.99 0 v 6" />
	<path fill="transparent" stroke="gray" stroke-width="0.02" d="M 0 0.01 h 9" />
	<path fill="transparent" stroke="gray" stroke-width="0.02" d="M 0 1 h 9" />
	<path fill="transparent" stroke="gray" stroke-width="0.02" d="M 0 2 h 9" />
	<path fill="transparent" stroke="gray" stroke-width="0.02" d="M 0 3 h 9" />
	<path fill="transparent" stroke="gray" stroke-width="0.02" d="M 0 4 h 9" />
	<path fill="transparent" stroke="gray" stroke-width="0.02" d="M 0 5 h 9" />
	<path fill="transparent" stroke="gray" stroke-width="0.02" d="M 0 5.99 h 9" />

	<path d="M 3.75 1 h 0.25 v 3 h -0.25 z" fill="#FF4000" fill-opacity="0.25" />
	<path d="M 3.75 1 h 0.25 v 3 h -0.25 z" fill="#FF4000" fill-opacity="0.25" transform="rotate(90, 4.5, 4.5)"/>
	<path d="M 3.75 1 h 0.25 v 3 h -0.25 z" fill="#FF4000" fill-opacity="0.25" transform="rotate(-90, 4.5, 4.5)"/>
</svg>