<svg xmlns="http://www.w3.org/2000/svg" viewBox="0 0 4 6">
	<style>
		svg { background-color: white; }
	</style>
	<!-- 4 6 1 -->
	<path d="M 3 5 h 1 v 1 h -1 z" fill="#ff0000" fill-opacity="0.15" />
	<path d="M 3.5 6 v -0.5" fill="white" fill-opacity="0" stroke="black" stroke-width="0.05" stroke-linecap="round" />
	<path d="M 3 6 h 1 v 1 h -1 z" fill="#ff0000" fill-opacity="0.15" />
	<path d="M 3.5 6 v 0.5" fill="white" fill-opacity="0" stroke="black" stroke-width="0.05" stroke-linecap="round" />
	<!-- 1 5 7 -->
	<path d="M 0 4 h 1 v 1 h -1 z" fill="#ff0000" fill-opacity="0.15" />
	<path d="M 0.5 4.2 v 0.6 l -0.2 -0.2 l 0.2 0.2 l 0.2 -0.2" fill="white" fill-opacity="0" stroke="black" stroke-width="0.05" stroke-linecap="round" />
	<!-- 1 1 7 -->
	<path d="M 0 0 h 1 v 1 h -1 z" fill="#ff0000" fill-opacity="0.15" />
	<path d="M 0.5 0.19999999 v 0.6 l -0.2 -0.2 l 0.2 0.2 l 0.2 -0.2" fill="white" fill-opacity="0" stroke="black" stroke-width="0.05" stroke-linecap="round" />
	<!-- 4 1 4 -->
	<path d="M 3 0 h 1 v 1 h -1 z" fill="#ff0000" fill-opacity="0.15" />
	<path d="M 3.8 0.5 h -0.6 l 0.2 -0.2 l -0.2 0.2 l 0.2 0.2" fill="white" fill-opacity="0" stroke="black" stroke-width="0.05" stroke-linecap="round" />
	<!--1-->
	<!--2-->
	<!--3-->
	<path fill="transparent" stroke="gray" stroke-width="0.02" d="M 0.01 0 v 6" />
	<path fill="transparent" stroke="gray" stroke-width="0.02" d="M 1 0 v 6" />
	<path fill="transparent" stroke="gray" stroke-width="0.02" d="M 2 0 v 6" />
	<path fill="transparent" stroke="gray" stroke-width="0.02" d="M 3 0 v 6" />
	<path fill="transparent" stroke="gray" stroke-width="0.02" d="M 3.99 0 v 6" />
	<path fill="transparent" stroke="gray" stroke-width="0.02" d="M 0 0.01 h 4" />
	<path fill="transparent" stroke="gray" stroke-width="0.02" d="M 0 1 h 4" />
	<path fill="transparent" stroke="gray" stroke-width="0.02" d="M 0 2 h 4" />
	<path fill="transparent" stroke="gray" stroke-width="0.02" d="M 0 3 h 4" />
	<path fill="transparent" stroke="gray" stroke-width="0.02" d="M 0 4 h 4" />
	<path fill="transparent" stroke="gray" stroke-width="0.02" d="M 0 5 h 4" />
	<path fill="transparent" stroke="gray" stroke-width="0.02" d="M 0 5.99 h 4" />

	<path d="
	M 3.5 4.5
	h -0.5
	a 0.5 0.5 0 0 0 -0.5 0.5
	a 0.5 0.5 0 0 1 -0.5 0.5
	a 0.5 0.5 0 0 1 -0.5 -0.5
	v -1
	a 0.5 0.5 0 0 0 -0.5 -0.5
	a 0.5 0.5 0 0 1 -0.5 -0.5
	v -1
	a 0.5 0.5 0 0 1 0.5 -0.5
	a 0.5 0.5 0 0 0 0.5 -0.5
	a 0.5 0.5 0 0 1 0.5 -0.5
	a 0.5 0.5 0 0 1 0.5 0.5
	a 0.5 0.5 0 0 0 0.5 0.5
	h 0.5
	" fill="white" fill-opacity="0" stroke="white" stroke-width="0.1" stroke-linecap="round" />
	<path d="
	M 3.5 4.5
	h -0.5
	a 0.5 0.5 0 0 0 -0.5 0.5
	a 0.5 0.5 0 0 1 -0.5 0.5
	a 0.5 0.5 0 0 1 -0.5 -0.5
	v -1
	a 0.5 0.5 0 0 0 -0.5 -0.5
	a 0.5 0.5 0 0 1 -0.5 -0.5
	v -1
	a 0.5 0.5 0 0 1 0.5 -0.5
	a 0.5 0.5 0 0 0 0.5 -0.5
	a 0.5 0.5 0 0 1 0.5 -0.5
	a 0.5 0.5 0 0 1 0.5 0.5
	a 0.5 0.5 0 0 0 0.5 0.5
	h 0.5" fill="white" fill-opacity="0" stroke="blue" stroke-width="0.05" stroke-linecap="round" />
</svg>