<svg xmlns="http://www.w3.org/2000/svg" viewBox="0 0 9 7">
	<style>
		svg { background-color: white; }
	</style>
	<!-- 5 5 1 -->
	<path d="M 4 4 h 1 v 1 h -1 z" fill="#ff0000" fill-opacity="0.15" />
	<path d="M 4.5 5 v -0.5" fill="white" fill-opacity="0" stroke="black" stroke-width="0.05" stroke-linecap="round" />
	<path d="M 4 5 h 1 v 1 h -1 z" fill="#ff0000" fill-opacity="0.15" />
	<path d="M 4.5 5 v 0.5" fill="white" fill-opacity="0" stroke="black" stroke-width="0.05" stroke-linecap="round" />
	<!-- 1 6 7 -->
	<path d="M 0 5 h 1 v 1 h -1 z" fill="#ff0000" fill-opacity="0.15" />
	<path d="M 0.5 5.2 v 0.6 l -0.2 -0.2 l 0.2 0.2 l 0.2 -0.2" fill="white" fill-opacity="0" stroke="black" stroke-width="0.05" stroke-linecap="round" />
	<!-- 4 1 4 -->
	<path d="M 3 0 h 1 v 1 h -1 z" fill="#ff0000" fill-opacity="0.15" />
	<path d="M 3.8 0.5 h -0.6 l 0.2 -0.2 l -0.2 0.2 l 0.2 0.2" fill="white" fill-opacity="0" stroke="black" stroke-width="0.05" stroke-linecap="round" />
	<!-- 9 4 6 -->
	<path d="M 8 3 h 1 v 1 h -1 z" fill="#ff0000" fill-opacity="0.15" />
	<path d="M 8.5 3.8 v -0.6 l -0.2 0.2 l 0.2 -0.2 l 0.2 0.2" fill="white" fill-opacity="0" stroke="black" stroke-width="0.05" stroke-linecap="round" />
	<!-- 1 3 7 -->
	<path d="M 0 2 h 1 v 1 h -1 z" fill="#ff0000" fill-opacity="0.15" />
	<path d="M 0.5 2.2 v 0.6 l -0.2 -0.2 l 0.2 0.2 l 0.2 -0.2" fill="white" fill-opacity="0" stroke="black" stroke-width="0.05" stroke-linecap="round" />
	<!-- 2 3 7 -->
	<path d="M 1 2 h 1 v 1 h -1 z" fill="#ff0000" fill-opacity="0.15" />
	<path d="M 1.5 2.2 v 0.6 l -0.2 -0.2 l 0.2 0.2 l 0.2 -0.2" fill="white" fill-opacity="0" stroke="black" stroke-width="0.05" stroke-linecap="round" />
	<!-- 7 1 4 -->
	<path d="M 6 0 h 1 v 1 h -1 z" fill="#ff0000" fill-opacity="0.15" />
	<path d="M 6.8 0.5 h -0.6 l 0.2 -0.2 l -0.2 0.2 l 0.2 0.2" fill="white" fill-opacity="0" stroke="black" stroke-width="0.05" stroke-linecap="round" />
	<!-- 7 2 4 -->
	<path d="M 6 1 h 1 v 1 h -1 z" fill="#ff0000" fill-opacity="0.15" />
	<path d="M 6.8 1.5 h -0.6 l 0.2 -0.2 l -0.2 0.2 l 0.2 0.2" fill="white" fill-opacity="0" stroke="black" stroke-width="0.05" stroke-linecap="round" />
	<!-- 9 7 6 -->
	<path d="M 8 6 h 1 v 1 h -1 z" fill="#ff0000" fill-opacity="0.15" />
	<path d="M 8.5 6.8 v -0.6 l -0.2 0.2 l 0.2 -0.2 l 0.2 0.2" fill="white" fill-opacity="0" stroke="black" stroke-width="0.05" stroke-linecap="round" />
	<!-- 8 7 6 -->
	<path d="M 7 6 h 1 v 1 h -1 z" fill="#ff0000" fill-opacity="0.15" />
	<path d="M 7.5 6.8 v -0.6 l -0.2 0.2 l 0.2 -0.2 l 0.2 0.2" fill="white" fill-opacity="0" stroke="black" stroke-width="0.05" stroke-linecap="round" />
	<!-- 4 2 2 -->
	<path d="M 3 1 h 1 v 1 h -1 z" fill="#dddddd" fill-opacity="1" />
	<!-- 4 3 2 -->
	<path d="M 3 2 h 1 v 1 h -1 z" fill="#dddddd" fill-opacity="1" />
	<!-- 4 4 2 -->
	<path d="M 3 3 h 1 v 1 h -1 z" fill="#dddddd" fill-opacity="1" />
	<!-- 5 1 2 -->
	<path d="M 4 0 h 1 v 1 h -1 z" fill="#dddddd" fill-opacity="1" />
	<!-- 2 6 2 -->
	<path d="M 1 5 h 1 v 1 h -1 z" fill="#dddddd" fill-opacity="1" />
	<!-- 3 6 2 -->
	<path d="M 2 5 h 1 v 1 h -1 z" fill="#dddddd" fill-opacity="1" />
	<!-- 4 6 2 -->
	<path d="M 3 5 h 1 v 1 h -1 z" fill="#dddddd" fill-opacity="1" />
	<!-- 1 5 2 -->
	<path d="M 0 4 h 1 v 1 h -1 z" fill="#dddddd" fill-opacity="1" />
	<!-- 6 4 2 -->
	<path d="M 5 3 h 1 v 1 h -1 z" fill="#dddddd" fill-opacity="1" />
	<!-- 7 4 2 -->
	<path d="M 6 3 h 1 v 1 h -1 z" fill="#dddddd" fill-opacity="1" />
	<!-- 8 4 2 -->
	<path d="M 7 3 h 1 v 1 h -1 z" fill="#dddddd" fill-opacity="1" />
	<!-- 9 5 2 -->
	<path d="M 8 4 h 1 v 1 h -1 z" fill="#dddddd" fill-opacity="1" />
	<!--1-->
	<!--2-->
	<!--3-->
	<path fill="transparent" stroke="gray" stroke-width="0.02" d="M 0.01 0 v 7" />
	<path fill="transparent" stroke="gray" stroke-width="0.02" d="M 1 0 v 7" />
	<path fill="transparent" stroke="gray" stroke-width="0.02" d="M 2 0 v 7" />
	<path fill="transparent" stroke="gray" stroke-width="0.02" d="M 3 0 v 7" />
	<path fill="transparent" stroke="gray" stroke-width="0.02" d="M 4 0 v 7" />
	<path fill="transparent" stroke="gray" stroke-width="0.02" d="M 5 0 v 7" />
	<path fill="transparent" stroke="gray" stroke-width="0.02" d="M 6 0 v 7" />
	<path fill="transparent" stroke="gray" stroke-width="0.02" d="M 7 0 v 7" />
	<path fill="transparent" stroke="gray" stroke-width="0.02" d="M 8 0 v 7" />
	<path fill="transparent" stroke="gray" stroke-width="0.02" d="M 8.99 0 v 7" />
	<path fill="transparent" stroke="gray" stroke-width="0.02" d="M 0 0.01 h 9" />
	<path fill="transparent" stroke="gray" stroke-width="0.02" d="M 0 1 h 9" />
	<path fill="transparent" stroke="gray" stroke-width="0.02" d="M 0 2 h 9" />
	<path fill="transparent" stroke="gray" stroke-width="0.02" d="M 0 3 h 9" />
	<path fill="transparent" stroke="gray" stroke-width="0.02" d="M 0 4 h 9" />
	<path fill="transparent" stroke="gray" stroke-width="0.02" d="M 0 5 h 9" />
	<path fill="transparent" stroke="gray" stroke-width="0.02" d="M 0 6 h 9" />
	<path fill="transparent" stroke="gray" stroke-width="0.02" d="M 0 6.99 h 9" />

	<path d="M 4 1 h 1 v 3 h -0.25 v -2.75 h -0.75 z" fill="#FF4000" fill-opacity="0.25" />
	<path d="M 4 1 h 1 v 3 h -0.25 v -2.75 h -0.75 z" fill="#FF4000" fill-opacity="0.25" transform="rotate(90, 4.5, 4.5)"/>
	<path d="M 4 1 h 1 v 3 h -0.25 v -2.75 h -0.75 z" fill="#FF4000" fill-opacity="0.25" transform="rotate(-90, 4.5, 4.5)"/>
</svg>