<svg xmlns="http://www.w3.org/2000/svg" viewBox="0 0 2 3">
	<!-- 2 3 1 -->
	<path d="M 1 2 h 1 v 1 h -1 z" fill="#ff0000" fill-opacity="0.15" />
	<path d="M 1.5 3 v -0.5" fill="white" fill-opacity="0" stroke="black" stroke-width="0.05" stroke-linecap="round" />
	<!-- 2 1 3 -->
	<path d="M 1 0 h 1 v 1 h -1 z" fill="#ff0000" fill-opacity="0.15" />
	<!-- 1 1 3 -->
	<path d="M 0 0 h 1 v 1 h -1 z" fill="#ff0000" fill-opacity="0.15" />
	<!-- 2 2 2 -->
	<path d="M 1 1 h 1 v 1 h -1 z" fill="#dddddd" fill-opacity="1" />
	<!--1-->
	<!--2-->
	<!-- 2 2 8 -->
	<path d="M 1.2 1.2 l 0.6 0.6 M 1.2 1.8 l 0.6 -0.6" fill="white" fill-opacity="0" stroke="red" stroke-width="0.05" stroke-linecap="round" stroke-linejoin="round" />
	<!-- 1 3 8 -->
	<path d="M 0.2 2.2 l 0.6 0.6 M 0.2 2.8 l 0.6 -0.6" fill="white" fill-opacity="0" stroke="red" stroke-width="0.05" stroke-linecap="round" stroke-linejoin="round" />
	<!--3-->
	<path fill="transparent" stroke="gray" stroke-width="0.02" d="M 0.01 0 v 3" />
	<path fill="transparent" stroke="gray" stroke-width="0.02" d="M 1 0 v 3" />
	<path fill="transparent" stroke="gray" stroke-width="0.02" d="M 1.99 0 v 3" />
	<path fill="transparent" stroke="gray" stroke-width="0.02" d="M 0 0.01 h 2" />
	<path fill="transparent" stroke="gray" stroke-width="0.02" d="M 0 1 h 2" />
	<path fill="transparent" stroke="gray" stroke-width="0.02" d="M 0 2 h 2" />
	<path fill="transparent" stroke="gray" stroke-width="0.02" d="M 0 2.99 h 2" />

	<path d="M 0.33 0.5 h 1.33 l -0.25 -0.25 m 0.25 0.25 l -0.25 0.25" fill="white" fill-opacity="0" stroke="black" stroke-width="0.05" stroke-linecap="round" stroke-linejoin="round" />
</svg>