<!--|False|False|False|-->
<svg xmlns="http://www.w3.org/2000/svg" viewBox="0 0 4 5">
	<style>
		svg { background-color: white; }
	</style>
	<!-- 4 3 1 -->
	<path d="M 3 2 h 1 v 1 h -1 z" fill="#ff0000" fill-opacity="0.15" />
	<path d="M 3.5 3 v -0.5" fill="white" fill-opacity="0" stroke="black" stroke-width="0.05" stroke-linecap="round" /><path d="M 3 3 h 1 v 1 h -1 z" fill="#ff0000" fill-opacity="0.15" />
	<path d="M 3.5 3 v 0.5" fill="white" fill-opacity="0" stroke="black" stroke-width="0.05" stroke-linecap="round" />
	<!-- 1 3 3 -->
	<path d="M 0 2 h 1 v 1 h -1 z" fill="#ff0000" fill-opacity="0.15" />
	<!-- 1 4 3 -->
	<path d="M 0 3 h 1 v 1 h -1 z" fill="#ff0000" fill-opacity="0.15" />
	<!-- 3 5 4 -->
	<path d="M 2 4 h 1 v 1 h -1 z" fill="#000000" fill-opacity="0.5" />
	<!-- 3 1 2 -->
	<path d="M 2 0 h 1 v 1 h -1 z" fill="#dddddd" fill-opacity="1" />
	<!-- 3 2 2 -->
	<path d="M 2 1 h 1 v 1 h -1 z" fill="#dddddd" fill-opacity="1" />
	<!-- 3 3 2 -->
	<path d="M 2 2 h 1 v 1 h -1 z" fill="#dddddd" fill-opacity="1" />
	<!-- 3 4 2 -->
	<path d="M 2 3 h 1 v 1 h -1 z" fill="#dddddd" fill-opacity="1" />
	<!--1-->
	<!-- 3 2 9 -->
	<path d="M 2 1 h 1 v 1 h -1 v -0.8 h 0.2 v 0.6 h 0.6 v -0.6 h -0.8 z" fill="#008000" fill-opacity="0.25" />
	<path d="M 2.3 1.3 v 0.4 v -0.2 h 0.4 l -0.13 -0.13 l 0.13 0.13 l -0.13 0.13" fill="white" fill-opacity="0" stroke="black" stroke-width="0.05" stroke-linecap="round" stroke-linejoin="round" />
	<!-- 2 2 10 -->
	<path d="M 1 1 h 1 v 1 h -1 v -0.8 h 0.2 v 0.6 h 0.6 v -0.6 h -0.8 z" fill="#008000" fill-opacity="0.25" />
	<path d="M 1.3 1.5 h 0.4 l -0.13 -0.13 l 0.13 0.13 l -0.13 0.13 l 0.13 -0.13 v 0.2 v -0.4" fill="white" fill-opacity="0" stroke="black" stroke-width="0.05" stroke-linecap="round" stroke-linejoin="round" />
	<!--2-->
	<!-- 3 3 8 -->
	<path d="M 2.2 2.2 l 0.6 0.6 M 2.2 2.8 l 0.6 -0.6" fill="white" fill-opacity="0" stroke="red" stroke-width="0.05" stroke-linecap="round" />
	<!--3-->
	<path fill="transparent" stroke="gray" stroke-width="0.02" d="M 0.01 0 v 5" />
	<path fill="transparent" stroke="gray" stroke-width="0.02" d="M 1 0 v 5" />
	<path fill="transparent" stroke="gray" stroke-width="0.02" d="M 2 0 v 5" />
	<path fill="transparent" stroke="gray" stroke-width="0.02" d="M 3 0 v 5" />
	<path fill="transparent" stroke="gray" stroke-width="0.02" d="M 3.99 0 v 5" />
	<path fill="transparent" stroke="gray" stroke-width="0.02" d="M 0 0.01 h 4" />
	<path fill="transparent" stroke="gray" stroke-width="0.02" d="M 0 1 h 4" />
	<path fill="transparent" stroke="gray" stroke-width="0.02" d="M 0 2 h 4" />
	<path fill="transparent" stroke="gray" stroke-width="0.02" d="M 0 3 h 4" />
	<path fill="transparent" stroke="gray" stroke-width="0.02" d="M 0 4 h 4" />
	<path fill="transparent" stroke="gray" stroke-width="0.02" d="M 0 4.99 h 4" />

	<!-- 1 4 1 3 15 -->
	<path d="M 0.5 3.67 v -1.33 l -0.25 0.25 m 0.25 -0.25 l 0.25 0.25" fill="white" fill-opacity="0" stroke="black" stroke-width="0.05" stroke-linecap="round" stroke-linejoin="round" />
</svg>