<!--|True|False|False|-->
<svg xmlns="http://www.w3.org/2000/svg" viewBox="0 0 4 3">
	<!-- 3 3 1 -->
	<path d="M 2 2 h 1 v 1 h -1 z" fill="#ff0000" fill-opacity="0.15" />
	<path d="M 2.5 3 v -0.5" fill="white" fill-opacity="0" stroke="black" stroke-width="0.05" stroke-linecap="round" />
	<!-- 1 3 5 -->
	<path d="M 0 2 h 1 v 1 h -1 z" fill="#0000ff" fill-opacity="0.15" />
	<path d="M 0.2 2.2 v 0.6 v -0.3 h 0.6 l -0.2 -0.2 l 0.2 0.2 l -0.2 0.2" fill="white" fill-opacity="0" stroke="blue" stroke-width="0.05" stroke-linecap="round" stroke-linejoin="round" />
	<!-- 1 1 6 -->
	<path d="M 0 0 h 1 v 1 h -1 z" fill="#0000ff" fill-opacity="0.15" />
	<path d="M 0.2 0.5 h 0.6 l -0.2 -0.2 l 0.2 0.2 l -0.2 0.2 l 0.2 -0.2 v 0.3 v -0.6" fill="white" fill-opacity="0" stroke="blue" stroke-width="0.05" stroke-linecap="round" stroke-linejoin="round" />
	<!--1-->
	<!--2-->
	<!-- 3 2 8 -->
	<path d="M 2.2 1.2 l 0.6 0.6 M 2.2 1.8 l 0.6 -0.6" fill="white" fill-opacity="0" stroke="red" stroke-width="0.05" stroke-linecap="round" stroke-linejoin="round" />
	<!-- 4 3 8 -->
	<path d="M 3.2 2.2 l 0.6 0.6 M 3.2 2.8 l 0.6 -0.6" fill="white" fill-opacity="0" stroke="red" stroke-width="0.05" stroke-linecap="round" stroke-linejoin="round" />
	<!--3-->
	<path fill="transparent" stroke="gray" stroke-width="0.02" d="M 0.01 0 v 3" />
	<path fill="transparent" stroke="gray" stroke-width="0.02" d="M 1 0 v 3" />
	<path fill="transparent" stroke="gray" stroke-width="0.02" d="M 2 0 v 3" />
	<path fill="transparent" stroke="gray" stroke-width="0.02" d="M 3 0 v 3" />
	<path fill="transparent" stroke="gray" stroke-width="0.02" d="M 3.99 0 v 3" />
	<path fill="transparent" stroke="gray" stroke-width="0.02" d="M 0 0.01 h 4" />
	<path fill="transparent" stroke="gray" stroke-width="0.02" d="M 0 1 h 4" />
	<path fill="transparent" stroke="gray" stroke-width="0.02" d="M 0 2 h 4" />
	<path fill="transparent" stroke="gray" stroke-width="0.02" d="M 0 2.99 h 4" />
</svg>