<svg xmlns="http://www.w3.org/2000/svg" viewBox="0 0 21 21">
	<path d="M0,0 h21 v21 h-21 z" fill="#dddddd" />
	<rect width="1" height="1" x="0" y="0" fill="#e2bcbc" fill-opacity="1" />
	<rect width="1" height="1" x="1" y="0" fill="#e2bcbc" fill-opacity="1" />
	<rect width="1" height="1" x="2" y="0" fill="#e2bcbc" fill-opacity="1" />
	<rect width="1" height="1" x="3" y="0" fill="#e2bcbc" fill-opacity="1" />
	<rect width="1" height="1" x="4" y="0" fill="#e2bcbc" fill-opacity="1" />
	<rect width="1" height="1" x="5" y="0" fill="#e2bcbc" fill-opacity="1" />
	<rect width="1" height="1" x="6" y="0" fill="#e2bcbc" fill-opacity="1" />
	<rect width="1" height="1" x="7" y="0" fill="#e2bcbc" fill-opacity="1" />
	<rect width="1" height="1" x="8" y="0" fill="#e2bcbc" fill-opacity="1" />
	<rect width="1" height="1" x="9" y="0" fill="#e2bcbc" fill-opacity="1" />
	<rect width="1" height="1" x="10" y="0" fill="#e2bcbc" fill-opacity="1" />
	<rect width="1" height="1" x="11" y="0" fill="#e2bcbc" fill-opacity="1" />
	<rect width="1" height="1" x="12" y="0" fill="#e2bcbc" fill-opacity="1" />
	<rect width="1" height="1" x="13" y="0" fill="#e2bcbc" fill-opacity="1" />
	<rect width="1" height="1" x="14" y="0" fill="#e2bcbc" fill-opacity="1" />
	<rect width="1" height="1" x="15" y="0" fill="#e2bcbc" fill-opacity="1" />
	<rect width="1" height="1" x="16" y="0" fill="#e2bcbc" fill-opacity="1" />
	<rect width="1" height="1" x="17" y="0" fill="#e2bcbc" fill-opacity="1" />
	<rect width="1" height="1" x="18" y="0" fill="#e2bcbc" fill-opacity="1" />
	<rect width="1" height="1" x="19" y="0" fill="#e2bcbc" fill-opacity="1" />
	<rect width="1" height="1" x="20" y="0" fill="#e2bcbc" fill-opacity="1" />
	<rect width="1" height="1" x="20" y="1" fill="#e2bcbc" fill-opacity="1" />
	<rect width="1" height="1" x="20" y="2" fill="#e2bcbc" fill-opacity="1" />
	<rect width="1" height="1" x="20" y="3" fill="#e2bcbc" fill-opacity="1" />
	<rect width="1" height="1" x="19" y="3" fill="#e2bcbc" fill-opacity="1" />
	<rect width="1" height="1" x="18" y="3" fill="#e2bcbc" fill-opacity="1" />
	<rect width="1" height="1" x="17" y="3" fill="#e2bcbc" fill-opacity="1" />
	<rect width="1" height="1" x="16" y="3" fill="#e2bcbc" fill-opacity="1" />
	<rect width="1" height="1" x="15" y="3" fill="#e2bcbc" fill-opacity="1" />
	<rect width="1" height="1" x="14" y="3" fill="#e2bcbc" fill-opacity="1" />
	<rect width="1" height="1" x="14" y="4" fill="#e2bcbc" fill-opacity="1" />
	<rect width="1" height="1" x="13" y="4" fill="#e2bcbc" fill-opacity="1" />
	<rect width="1" height="1" x="13" y="5" fill="#e2bcbc" fill-opacity="1" />
	<rect width="1" height="1" x="12" y="5" fill="#e2bcbc" fill-opacity="1" />
	<rect width="1" height="1" x="11" y="5" fill="#e2bcbc" fill-opacity="1" />
	<rect width="1" height="1" x="11" y="6" fill="#e2bcbc" fill-opacity="1" />
	<rect width="1" height="1" x="10" y="6" fill="#e2bcbc" fill-opacity="1" />
	<rect width="1" height="1" x="9" y="6" fill="#e2bcbc" fill-opacity="1" />
	<rect width="1" height="1" x="9" y="7" fill="#e2bcbc" fill-opacity="1" />
	<rect width="1" height="1" x="8" y="7" fill="#e2bcbc" fill-opacity="1" />
	<rect width="1" height="1" x="8" y="8" fill="#e2bcbc" fill-opacity="1" />
	<rect width="1" height="1" x="7" y="8" fill="#e2bcbc" fill-opacity="1" />
	<rect width="1" height="1" x="6" y="8" fill="#e2bcbc" fill-opacity="1" />
	<rect width="1" height="1" x="6" y="9" fill="#e2bcbc" fill-opacity="1" />
	<rect width="1" height="1" x="6" y="10" fill="#e2bcbc" fill-opacity="1" />
	<rect width="1" height="1" x="6" y="11" fill="#e2bcbc" fill-opacity="1" />
	<rect width="1" height="1" x="6" y="12" fill="#e2bcbc" fill-opacity="1" />
	<rect width="1" height="1" x="6" y="13" fill="#e2bcbc" fill-opacity="1" />
	<rect width="1" height="1" x="7" y="13" fill="#e2bcbc" fill-opacity="1" />
	<rect width="1" height="1" x="8" y="13" fill="#e2bcbc" fill-opacity="1" />
	<rect width="1" height="1" x="9" y="13" fill="#e2bcbc" fill-opacity="1" />
	<rect width="1" height="1" x="10" y="13" fill="#e2bcbc" fill-opacity="1" />
	<rect width="1" height="1" x="11" y="13" fill="#e2bcbc" fill-opacity="1" />
	<rect width="1" height="1" x="12" y="13" fill="#e2bcbc" fill-opacity="1" />
	<rect width="1" height="1" x="13" y="13" fill="#e2bcbc" fill-opacity="1" />
	<rect width="1" height="1" x="13" y="12" fill="#e2bcbc" fill-opacity="1" />
	<rect width="1" height="1" x="13" y="11" fill="#e2bcbc" fill-opacity="1" />
	<rect width="1" height="1" x="13" y="10" fill="#e2bcbc" fill-opacity="1" />
	<rect width="1" height="1" x="12" y="10" fill="#e2bcbc" fill-opacity="1" />
	<rect width="1" height="1" x="12" y="11" fill="#e2bcbc" fill-opacity="1" />
	<rect width="1" height="1" x="12" y="12" fill="#e2bcbc" fill-opacity="1" />
	<rect width="1" height="1" x="11" y="12" fill="#e2bcbc" fill-opacity="1" />
	<rect width="1" height="1" x="10" y="12" fill="#e2bcbc" fill-opacity="1" />
	<rect width="1" height="1" x="9" y="12" fill="#e2bcbc" fill-opacity="1" />
	<rect width="1" height="1" x="9" y="11" fill="#e2bcbc" fill-opacity="1" />
	<rect width="1" height="1" x="10" y="11" fill="#000000" fill-opacity="0.1" />
	<rect width="1" height="1" x="8" y="11" fill="#000000" fill-opacity="0.1" />
	<path fill="transparent" stroke="gray" stroke-width="0.02" d="M 0.01 0 v 21" />
	<path fill="transparent" stroke="gray" stroke-width="0.02" d="M 0 0.01 h 21" />
	<path fill="transparent" stroke="gray" stroke-width="0.02" d="M 1 0 v 21" />
	<path fill="transparent" stroke="gray" stroke-width="0.02" d="M 0 1 h 21" />
	<path fill="transparent" stroke="gray" stroke-width="0.02" d="M 2 0 v 21" />
	<path fill="transparent" stroke="gray" stroke-width="0.02" d="M 0 2 h 21" />
	<path fill="transparent" stroke="gray" stroke-width="0.02" d="M 3 0 v 21" />
	<path fill="transparent" stroke="gray" stroke-width="0.02" d="M 0 3 h 21" />
	<path fill="transparent" stroke="gray" stroke-width="0.02" d="M 4 0 v 21" />
	<path fill="transparent" stroke="gray" stroke-width="0.02" d="M 0 4 h 21" />
	<path fill="transparent" stroke="gray" stroke-width="0.02" d="M 5 0 v 21" />
	<path fill="transparent" stroke="gray" stroke-width="0.02" d="M 0 5 h 21" />
	<path fill="transparent" stroke="gray" stroke-width="0.02" d="M 6 0 v 21" />
	<path fill="transparent" stroke="gray" stroke-width="0.02" d="M 0 6 h 21" />
	<path fill="transparent" stroke="gray" stroke-width="0.02" d="M 7 0 v 21" />
	<path fill="transparent" stroke="gray" stroke-width="0.02" d="M 0 7 h 21" />
	<path fill="transparent" stroke="gray" stroke-width="0.02" d="M 8 0 v 21" />
	<path fill="transparent" stroke="gray" stroke-width="0.02" d="M 0 8 h 21" />
	<path fill="transparent" stroke="gray" stroke-width="0.02" d="M 9 0 v 21" />
	<path fill="transparent" stroke="gray" stroke-width="0.02" d="M 0 9 h 21" />
	<path fill="transparent" stroke="gray" stroke-width="0.02" d="M 10 0 v 21" />
	<path fill="transparent" stroke="gray" stroke-width="0.02" d="M 0 10 h 21" />
	<path fill="transparent" stroke="gray" stroke-width="0.02" d="M 11 0 v 21" />
	<path fill="transparent" stroke="gray" stroke-width="0.02" d="M 0 11 h 21" />
	<path fill="transparent" stroke="gray" stroke-width="0.02" d="M 12 0 v 21" />
	<path fill="transparent" stroke="gray" stroke-width="0.02" d="M 0 12 h 21" />
	<path fill="transparent" stroke="gray" stroke-width="0.02" d="M 13 0 v 21" />
	<path fill="transparent" stroke="gray" stroke-width="0.02" d="M 0 13 h 21" />
	<path fill="transparent" stroke="gray" stroke-width="0.02" d="M 14 0 v 21" />
	<path fill="transparent" stroke="gray" stroke-width="0.02" d="M 0 14 h 21" />
	<path fill="transparent" stroke="gray" stroke-width="0.02" d="M 15 0 v 21" />
	<path fill="transparent" stroke="gray" stroke-width="0.02" d="M 0 15 h 21" />
	<path fill="transparent" stroke="gray" stroke-width="0.02" d="M 16 0 v 21" />
	<path fill="transparent" stroke="gray" stroke-width="0.02" d="M 0 16 h 21" />
	<path fill="transparent" stroke="gray" stroke-width="0.02" d="M 17 0 v 21" />
	<path fill="transparent" stroke="gray" stroke-width="0.02" d="M 0 17 h 21" />
	<path fill="transparent" stroke="gray" stroke-width="0.02" d="M 18 0 v 21" />
	<path fill="transparent" stroke="gray" stroke-width="0.02" d="M 0 18 h 21" />
	<path fill="transparent" stroke="gray" stroke-width="0.02" d="M 19 0 v 21" />
	<path fill="transparent" stroke="gray" stroke-width="0.02" d="M 0 19 h 21" />
	<path fill="transparent" stroke="gray" stroke-width="0.02" d="M 20 0 v 21" />
	<path fill="transparent" stroke="gray" stroke-width="0.02" d="M 0 20 h 21" />
	<path fill="transparent" stroke="gray" stroke-width="0.02" d="M 20.99 0 v 21" />
	<path fill="transparent" stroke="gray" stroke-width="0.02" d="M 0 20.99 h 21" />
	<path d="M 0.5 0.5
L 1 0.5
L 2 0.5
L 3 0.5
L 4 0.5
L 5 0.5
L 6 0.5
L 7 0.5
L 8 0.5
L 9 0.5
L 10 0.5
L 11 0.5
L 12 0.5
L 13 0.5
L 14 0.5
L 15 0.5
L 16 0.5
L 17 0.5
L 18 0.5
L 19 0.5
L 20 0.5
A 0.5 0.5 0 0 1 20.5 1
L 20.5 2
L 20.5 3
A 0.5 0.5 0 0 1 20 3.5
L 19 3.5
L 18 3.5
L 17 3.5
L 16 3.5
L 15 3.5
A 0.5 0.5 0 0 0 14.5 4
A 0.5 0.5 0 0 1 14 4.5
A 0.5 0.5 0 0 0 13.5 5
A 0.5 0.5 0 0 1 13 5.5
L 12 5.5
A 0.5 0.5 0 0 0 11.5 6
A 0.5 0.5 0 0 1 11 6.5
L 10 6.5
A 0.5 0.5 0 0 0 9.5 7
A 0.5 0.5 0 0 1 9 7.5
A 0.5 0.5 0 0 0 8.5 8
A 0.5 0.5 0 0 1 8 8.5
L 7 8.5
A 0.5 0.5 0 0 0 6.5 9
L 6.5 10
L 6.5 11
L 6.5 12
L 6.5 13
A 0.5 0.5 0 0 0 7 13.5
L 8 13.5
L 9 13.5
L 10 13.5
L 11 13.5
L 12 13.5
L 13 13.5
A 0.5 0.5 0 0 0 13.5 13
L 13.5 12
L 13.5 11
A 0.5 0.5 0 0 0 13 10.5
A 0.5 0.5 0 0 0 12.5 11
L 12.5 12
A 0.5 0.5 0 0 1 12 12.5
L 11 12.5
L 10 12.5
A 0.5 0.5 0 0 1 9.5 12
L 9.5 11.5" fill="white" fill-opacity="0" stroke="black" stroke-width="0.05" stroke-linecap="round" />
</svg>