<svg xmlns="http://www.w3.org/2000/svg" viewBox="0 0 15 15">
	<path d="M0,0 h15 v15 h-15 z" fill="#dddddd" />
	<rect width="1" height="1" x="0" y="0" fill="#e2bcbc" fill-opacity="1" />
	<rect width="1" height="1" x="0" y="1" fill="#e2bcbc" fill-opacity="1" />
	<rect width="1" height="1" x="0" y="2" fill="#e2bcbc" fill-opacity="1" />
	<rect width="1" height="1" x="0" y="3" fill="#e2bcbc" fill-opacity="1" />
	<rect width="1" height="1" x="0" y="4" fill="#e2bcbc" fill-opacity="1" />
	<rect width="1" height="1" x="0" y="5" fill="#e2bcbc" fill-opacity="1" />
	<rect width="1" height="1" x="0" y="6" fill="#e2bcbc" fill-opacity="1" />
	<rect width="1" height="1" x="0" y="7" fill="#e2bcbc" fill-opacity="1" />
	<rect width="1" height="1" x="0" y="8" fill="#e2bcbc" fill-opacity="1" />
	<rect width="1" height="1" x="0" y="9" fill="#e2bcbc" fill-opacity="1" />
	<rect width="1" height="1" x="0" y="10" fill="#e2bcbc" fill-opacity="1" />
	<rect width="1" height="1" x="0" y="11" fill="#e2bcbc" fill-opacity="1" />
	<rect width="1" height="1" x="0" y="12" fill="#e2bcbc" fill-opacity="1" />
	<rect width="1" height="1" x="0" y="13" fill="#e2bcbc" fill-opacity="1" />
	<rect width="1" height="1" x="0" y="14" fill="#e2bcbc" fill-opacity="1" />
	<rect width="1" height="1" x="1" y="14" fill="#e2bcbc" fill-opacity="1" />
	<rect width="1" height="1" x="2" y="14" fill="#e2bcbc" fill-opacity="1" />
	<rect width="1" height="1" x="3" y="14" fill="#e2bcbc" fill-opacity="1" />
	<rect width="1" height="1" x="4" y="14" fill="#e2bcbc" fill-opacity="1" />
	<rect width="1" height="1" x="5" y="14" fill="#e2bcbc" fill-opacity="1" />
	<rect width="1" height="1" x="6" y="14" fill="#e2bcbc" fill-opacity="1" />
	<rect width="1" height="1" x="7" y="14" fill="#e2bcbc" fill-opacity="1" />
	<rect width="1" height="1" x="8" y="14" fill="#e2bcbc" fill-opacity="1" />
	<rect width="1" height="1" x="9" y="14" fill="#e2bcbc" fill-opacity="1" />
	<rect width="1" height="1" x="10" y="14" fill="#e2bcbc" fill-opacity="1" />
	<rect width="1" height="1" x="11" y="14" fill="#e2bcbc" fill-opacity="1" />
	<rect width="1" height="1" x="12" y="14" fill="#e2bcbc" fill-opacity="1" />
	<rect width="1" height="1" x="13" y="14" fill="#e2bcbc" fill-opacity="1" />
	<rect width="1" height="1" x="13" y="13" fill="#e2bcbc" fill-opacity="1" />
	<rect width="1" height="1" x="13" y="12" fill="#e2bcbc" fill-opacity="1" />
	<rect width="1" height="1" x="13" y="11" fill="#e2bcbc" fill-opacity="1" />
	<rect width="1" height="1" x="13" y="10" fill="#e2bcbc" fill-opacity="1" />
	<rect width="1" height="1" x="13" y="9" fill="#e2bcbc" fill-opacity="1" />
	<rect width="1" height="1" x="13" y="8" fill="#e2bcbc" fill-opacity="1" />
	<rect width="1" height="1" x="13" y="7" fill="#e2bcbc" fill-opacity="1" />
	<rect width="1" height="1" x="13" y="6" fill="#e2bcbc" fill-opacity="1" />
	<rect width="1" height="1" x="13" y="5" fill="#e2bcbc" fill-opacity="1" />
	<rect width="1" height="1" x="13" y="4" fill="#e2bcbc" fill-opacity="1" />
	<rect width="1" height="1" x="13" y="3" fill="#e2bcbc" fill-opacity="1" />
	<rect width="1" height="1" x="13" y="2" fill="#e2bcbc" fill-opacity="1" />
	<rect width="1" height="1" x="13" y="1" fill="#e2bcbc" fill-opacity="1" />
	<rect width="1" height="1" x="12" y="1" fill="#e2bcbc" fill-opacity="1" />
	<rect width="1" height="1" x="12" y="2" fill="#e2bcbc" fill-opacity="1" />
	<rect width="1" height="1" x="12" y="3" fill="#e2bcbc" fill-opacity="1" />
	<rect width="1" height="1" x="12" y="4" fill="#e2bcbc" fill-opacity="1" />
	<rect width="1" height="1" x="12" y="5" fill="#e2bcbc" fill-opacity="1" />
	<rect width="1" height="1" x="12" y="6" fill="#e2bcbc" fill-opacity="1" />
	<rect width="1" height="1" x="12" y="7" fill="#e2bcbc" fill-opacity="1" />
	<rect width="1" height="1" x="12" y="8" fill="#e2bcbc" fill-opacity="1" />
	<rect width="1" height="1" x="11" y="8" fill="#e2bcbc" fill-opacity="1" />
	<rect width="1" height="1" x="10" y="8" fill="#e2bcbc" fill-opacity="1" />
	<rect width="1" height="1" x="10" y="9" fill="#e2bcbc" fill-opacity="1" />
	<rect width="1" height="1" x="10" y="10" fill="#e2bcbc" fill-opacity="1" />
	<rect width="1" height="1" x="10" y="11" fill="#e2bcbc" fill-opacity="1" />
	<rect width="1" height="1" x="9" y="11" fill="#e2bcbc" fill-opacity="1" />
	<rect width="1" height="1" x="8" y="11" fill="#e2bcbc" fill-opacity="1" />
	<rect width="1" height="1" x="7" y="11" fill="#e2bcbc" fill-opacity="1" />
	<rect width="1" height="1" x="6" y="11" fill="#e2bcbc" fill-opacity="1" />
	<rect width="1" height="1" x="5" y="11" fill="#e2bcbc" fill-opacity="1" />
	<rect width="1" height="1" x="4" y="11" fill="#e2bcbc" fill-opacity="1" />
	<rect width="1" height="1" x="3" y="11" fill="#e2bcbc" fill-opacity="1" />
	<rect width="1" height="1" x="3" y="10" fill="#e2bcbc" fill-opacity="1" />
	<rect width="1" height="1" x="3" y="9" fill="#e2bcbc" fill-opacity="1" />
	<rect width="1" height="1" x="3" y="8" fill="#e2bcbc" fill-opacity="1" />
	<rect width="1" height="1" x="3" y="7" fill="#e2bcbc" fill-opacity="1" />
	<rect width="1" height="1" x="3" y="6" fill="#e2bcbc" fill-opacity="1" />
	<rect width="1" height="1" x="3" y="5" fill="#e2bcbc" fill-opacity="1" />
	<rect width="1" height="1" x="3" y="4" fill="#e2bcbc" fill-opacity="1" />
	<rect width="1" height="1" x="3" y="3" fill="#e2bcbc" fill-opacity="1" />
	<rect width="1" height="1" x="3" y="2" fill="#e2bcbc" fill-opacity="1" />
	<rect width="1" height="1" x="4" y="2" fill="#e2bcbc" fill-opacity="1" />
	<rect width="1" height="1" x="5" y="2" fill="#e2bcbc" fill-opacity="1" />
	<rect width="1" height="1" x="6" y="2" fill="#e2bcbc" fill-opacity="1" />
	<rect width="1" height="1" x="7" y="2" fill="#e2bcbc" fill-opacity="1" />
	<rect width="1" height="1" x="8" y="2" fill="#e2bcbc" fill-opacity="1" />
	<rect width="1" height="1" x="9" y="2" fill="#e2bcbc" fill-opacity="1" />
	<rect width="1" height="1" x="9" y="3" fill="#e2bcbc" fill-opacity="1" />
	<rect width="1" height="1" x="9" y="4" fill="#e2bcbc" fill-opacity="1" />
	<rect width="1" height="1" x="8" y="4" fill="#e2bcbc" fill-opacity="1" />
	<rect width="1" height="1" x="8" y="3" fill="#e2bcbc" fill-opacity="1" />
	<rect width="1" height="1" x="7" y="3" fill="#e2bcbc" fill-opacity="1" />
	<rect width="1" height="1" x="7" y="4" fill="#e2bcbc" fill-opacity="1" />
	<rect width="1" height="1" x="7" y="5" fill="#e2bcbc" fill-opacity="1" />
	<rect width="1" height="1" x="6" y="5" fill="#e2bcbc" fill-opacity="1" />
	<rect width="1" height="1" x="6" y="6" fill="#e2bcbc" fill-opacity="1" />
	<rect width="1" height="1" x="5" y="6" fill="#e2bcbc" fill-opacity="1" />
	<rect width="1" height="1" x="5" y="5" fill="#e2bcbc" fill-opacity="1" />
	<rect width="1" height="1" x="5" y="4" fill="#e2bcbc" fill-opacity="1" />
	<rect width="1" height="1" x="6" y="4" fill="#e2bcbc" fill-opacity="1" />
	<rect width="1" height="1" x="6" y="3" fill="#e2bcbc" fill-opacity="1" />
	<rect width="1" height="1" x="5" y="3" fill="#e2bcbc" fill-opacity="1" />
	<rect width="1" height="1" x="4" y="3" fill="#e2bcbc" fill-opacity="1" />
	<rect width="1" height="1" x="4" y="4" fill="#e2bcbc" fill-opacity="1" />
	<rect width="1" height="1" x="4" y="5" fill="#e2bcbc" fill-opacity="1" />
	<rect width="1" height="1" x="4" y="6" fill="#e2bcbc" fill-opacity="1" />
	<rect width="1" height="1" x="4" y="7" fill="#e2bcbc" fill-opacity="1" />
	<rect width="1" height="1" x="5" y="7" fill="#e2bcbc" fill-opacity="1" />
	<rect width="1" height="1" x="5" y="8" fill="#e2bcbc" fill-opacity="1" />
	<rect width="1" height="1" x="4" y="8" fill="#e2bcbc" fill-opacity="1" />
	<rect width="1" height="1" x="4" y="9" fill="#e2bcbc" fill-opacity="1" />
	<rect width="1" height="1" x="4" y="10" fill="#e2bcbc" fill-opacity="1" />
	<rect width="1" height="1" x="5" y="10" fill="#e2bcbc" fill-opacity="1" />
	<rect width="1" height="1" x="5" y="9" fill="#e2bcbc" fill-opacity="1" />
	<rect width="1" height="1" x="6" y="9" fill="#e2bcbc" fill-opacity="1" />
	<rect width="1" height="1" x="6" y="10" fill="#e2bcbc" fill-opacity="1" />
	<rect width="1" height="1" x="7" y="10" fill="#e2bcbc" fill-opacity="1" />
	<rect width="1" height="1" x="7" y="9" fill="#e2bcbc" fill-opacity="1" />
	<rect width="1" height="1" x="7" y="8" fill="#000000" fill-opacity="0.1" />
	<rect width="1" height="1" x="8" y="9" fill="#000000" fill-opacity="0.1" />
	<path fill="transparent" stroke="gray" stroke-width="0.02" d="M 0.01 0 v 15" />
	<path fill="transparent" stroke="gray" stroke-width="0.02" d="M 0 0.01 h 15" />
	<path fill="transparent" stroke="gray" stroke-width="0.02" d="M 1 0 v 15" />
	<path fill="transparent" stroke="gray" stroke-width="0.02" d="M 0 1 h 15" />
	<path fill="transparent" stroke="gray" stroke-width="0.02" d="M 2 0 v 15" />
	<path fill="transparent" stroke="gray" stroke-width="0.02" d="M 0 2 h 15" />
	<path fill="transparent" stroke="gray" stroke-width="0.02" d="M 3 0 v 15" />
	<path fill="transparent" stroke="gray" stroke-width="0.02" d="M 0 3 h 15" />
	<path fill="transparent" stroke="gray" stroke-width="0.02" d="M 4 0 v 15" />
	<path fill="transparent" stroke="gray" stroke-width="0.02" d="M 0 4 h 15" />
	<path fill="transparent" stroke="gray" stroke-width="0.02" d="M 5 0 v 15" />
	<path fill="transparent" stroke="gray" stroke-width="0.02" d="M 0 5 h 15" />
	<path fill="transparent" stroke="gray" stroke-width="0.02" d="M 6 0 v 15" />
	<path fill="transparent" stroke="gray" stroke-width="0.02" d="M 0 6 h 15" />
	<path fill="transparent" stroke="gray" stroke-width="0.02" d="M 7 0 v 15" />
	<path fill="transparent" stroke="gray" stroke-width="0.02" d="M 0 7 h 15" />
	<path fill="transparent" stroke="gray" stroke-width="0.02" d="M 8 0 v 15" />
	<path fill="transparent" stroke="gray" stroke-width="0.02" d="M 0 8 h 15" />
	<path fill="transparent" stroke="gray" stroke-width="0.02" d="M 9 0 v 15" />
	<path fill="transparent" stroke="gray" stroke-width="0.02" d="M 0 9 h 15" />
	<path fill="transparent" stroke="gray" stroke-width="0.02" d="M 10 0 v 15" />
	<path fill="transparent" stroke="gray" stroke-width="0.02" d="M 0 10 h 15" />
	<path fill="transparent" stroke="gray" stroke-width="0.02" d="M 11 0 v 15" />
	<path fill="transparent" stroke="gray" stroke-width="0.02" d="M 0 11 h 15" />
	<path fill="transparent" stroke="gray" stroke-width="0.02" d="M 12 0 v 15" />
	<path fill="transparent" stroke="gray" stroke-width="0.02" d="M 0 12 h 15" />
	<path fill="transparent" stroke="gray" stroke-width="0.02" d="M 13 0 v 15" />
	<path fill="transparent" stroke="gray" stroke-width="0.02" d="M 0 13 h 15" />
	<path fill="transparent" stroke="gray" stroke-width="0.02" d="M 14 0 v 15" />
	<path fill="transparent" stroke="gray" stroke-width="0.02" d="M 0 14 h 15" />
	<path fill="transparent" stroke="gray" stroke-width="0.02" d="M 14.99 0 v 15" />
	<path fill="transparent" stroke="gray" stroke-width="0.02" d="M 0 14.99 h 15" />
	<path d="M 0.5 0.5
L 0.5 1
L 0.5 2
L 0.5 3
L 0.5 4
L 0.5 5
L 0.5 6
L 0.5 7
L 0.5 8
L 0.5 9
L 0.5 10
L 0.5 11
L 0.5 12
L 0.5 13
L 0.5 14
A 0.5 0.5 0 0 0 1 14.5
L 2 14.5
L 3 14.5
L 4 14.5
L 5 14.5
L 6 14.5
L 7 14.5
L 8 14.5
L 9 14.5
L 10 14.5
L 11 14.5
L 12 14.5
L 13 14.5
A 0.5 0.5 0 0 0 13.5 14
L 13.5 13
L 13.5 12
L 13.5 11
L 13.5 10
L 13.5 9
L 13.5 8
L 13.5 7
L 13.5 6
L 13.5 5
L 13.5 4
L 13.5 3
L 13.5 2
A 0.5 0.5 0 0 0 13 1.5
A 0.5 0.5 0 0 0 12.5 2
L 12.5 3
L 12.5 4
L 12.5 5
L 12.5 6
L 12.5 7
L 12.5 8
A 0.5 0.5 0 0 1 12 8.5
L 11 8.5
A 0.5 0.5 0 0 0 10.5 9
L 10.5 10
L 10.5 11
A 0.5 0.5 0 0 1 10 11.5
L 9 11.5
L 8 11.5
L 7 11.5
L 6 11.5
L 5 11.5
L 4 11.5
A 0.5 0.5 0 0 1 3.5 11
L 3.5 10
L 3.5 9
L 3.5 8
L 3.5 7
L 3.5 6
L 3.5 5
L 3.5 4
L 3.5 3
A 0.5 0.5 0 0 1 4 2.5
L 5 2.5
L 6 2.5
L 7 2.5
L 8 2.5
L 9 2.5
A 0.5 0.5 0 0 1 9.5 3
L 9.5 4
A 0.5 0.5 0 0 1 9 4.5
A 0.5 0.5 0 0 1 8.5 4
A 0.5 0.5 0 0 0 8 3.5
A 0.5 0.5 0 0 0 7.5 4
L 7.5 5
A 0.5 0.5 0 0 1 7 5.5
A 0.5 0.5 0 0 0 6.5 6
A 0.5 0.5 0 0 1 6 6.5
A 0.5 0.5 0 0 1 5.5 6
L 5.5 5
A 0.5 0.5 0 0 1 6 4.5
A 0.5 0.5 0 0 0 6.5 4
A 0.5 0.5 0 0 0 6 3.5
L 5 3.5
A 0.5 0.5 0 0 0 4.5 4
L 4.5 5
L 4.5 6
L 4.5 7
A 0.5 0.5 0 0 0 5 7.5
A 0.5 0.5 0 0 1 5.5 8
A 0.5 0.5 0 0 1 5 8.5
A 0.5 0.5 0 0 0 4.5 9
L 4.5 10
A 0.5 0.5 0 0 0 5 10.5
A 0.5 0.5 0 0 0 5.5 10
A 0.5 0.5 0 0 1 6 9.5
A 0.5 0.5 0 0 1 6.5 10
A 0.5 0.5 0 0 0 7 10.5
A 0.5 0.5 0 0 0 7.5 10
L 7.5 9.5" fill="white" fill-opacity="0" stroke="black" stroke-width="0.05" stroke-linecap="round" />
</svg>