<svg xmlns="http://www.w3.org/2000/svg" viewBox="0 0 5 6">
	<style>
		svg { background-color: white; }
	</style>
	<!-- 2 6 1 -->
	<path d="M 1 5 h 1 v 1 h -1 z" fill="#ff0000" fill-opacity="0.15" />
	<path d="M 1.5 6 v -0.5" fill="white" fill-opacity="0" stroke="black" stroke-width="0.05" stroke-linecap="round" />
	<path d="M 1 6 h 1 v 1 h -1 z" fill="#ff0000" fill-opacity="0.15" />
	<path d="M 1.5 6 v 0.5" fill="white" fill-opacity="0" stroke="black" stroke-width="0.05" stroke-linecap="round" />
	<!-- 3 5 3 -->
	<path d="M 2 4 h 1 v 1 h -1 z" fill="#ff0000" fill-opacity="0.15" />
	<path d="M 2.3 4.5 h 0.4 M 2.5 4.3 v 0.4" fill="white" fill-opacity="0" stroke="black" stroke-width="0.05" stroke-linecap="round" />
	<!-- 4 4 3 -->
	<path d="M 3 3 h 1 v 1 h -1 z" fill="#ff0000" fill-opacity="0.15" />
	<path d="M 3.3 3.5 h 0.4 M 3.5 3.3 v 0.4" fill="white" fill-opacity="0" stroke="black" stroke-width="0.05" stroke-linecap="round" />
	<!-- 5 3 3 -->
	<path d="M 4 2 h 1 v 1 h -1 z" fill="#ff0000" fill-opacity="0.15" />
	<path d="M 4.3 2.5 h 0.4 M 4.5 2.3 v 0.4" fill="white" fill-opacity="0" stroke="black" stroke-width="0.05" stroke-linecap="round" />
	<!-- 2 1 4 -->
	<path d="M 1 0 h 1 v 1 h -1 z" fill="#ff0000" fill-opacity="0.15" />
	<path d="M 1.8 0.5 h -0.6 l 0.2 -0.2 l -0.2 0.2 l 0.2 0.2" fill="white" fill-opacity="0" stroke="black" stroke-width="0.05" stroke-linecap="round" />
	<!-- 1 6 2 -->
	<path d="M 0 5 h 1 v 1 h -1 z" fill="#dddddd" fill-opacity="1" />
	<!-- 2 5 2 -->
	<path d="M 1 4 h 1 v 1 h -1 z" fill="#dddddd" fill-opacity="1" />
	<!-- 3 4 2 -->
	<path d="M 2 3 h 1 v 1 h -1 z" fill="#dddddd" fill-opacity="1" />
	<!-- 4 3 2 -->
	<path d="M 3 2 h 1 v 1 h -1 z" fill="#dddddd" fill-opacity="1" />
	<!-- 3 3 8 -->
	<path d="M 2 2 h 1 v 1 h -1 z" fill="#000000" fill-opacity="0.5" />
	<!-- 2 4 8 -->
	<path d="M 1 3 h 1 v 1 h -1 z" fill="#000000" fill-opacity="0.5" />
	<!-- 1 5 8 -->
	<path d="M 0 4 h 1 v 1 h -1 z" fill="#000000" fill-opacity="0.5" />
	<!--1-->
	<!--2-->
	<!--3-->
	<path fill="transparent" stroke="gray" stroke-width="0.02" d="M 0.01 0 v 6" />
	<path fill="transparent" stroke="gray" stroke-width="0.02" d="M 1 0 v 6" />
	<path fill="transparent" stroke="gray" stroke-width="0.02" d="M 2 0 v 6" />
	<path fill="transparent" stroke="gray" stroke-width="0.02" d="M 3 0 v 6" />
	<path fill="transparent" stroke="gray" stroke-width="0.02" d="M 4 0 v 6" />
	<path fill="transparent" stroke="gray" stroke-width="0.02" d="M 4.99 0 v 6" />
	<path fill="transparent" stroke="gray" stroke-width="0.02" d="M 0 0.01 h 5" />
	<path fill="transparent" stroke="gray" stroke-width="0.02" d="M 0 1 h 5" />
	<path fill="transparent" stroke="gray" stroke-width="0.02" d="M 0 2 h 5" />
	<path fill="transparent" stroke="gray" stroke-width="0.02" d="M 0 3 h 5" />
	<path fill="transparent" stroke="gray" stroke-width="0.02" d="M 0 4 h 5" />
	<path fill="transparent" stroke="gray" stroke-width="0.02" d="M 0 5 h 5" />
	<path fill="transparent" stroke="gray" stroke-width="0.02" d="M 0 5.99 h 5" />
</svg>