<!--|False|False|False|-->
<svg xmlns="http://www.w3.org/2000/svg" viewBox="0 0 6 5">
	<!--1-->
	<!-- 4 3 9 -->
	<path d="M 3 2 h 1 v 1 h -1 v -0.8 h 0.2 v 0.6 h 0.6 v -0.6 h -0.8 z" fill="#008000" fill-opacity="0.25" />
	<path d="M 3.3 2.3 v 0.4 v -0.2 h 0.4 l -0.13 -0.13 l 0.13 0.13 l -0.13 0.13" fill="white" fill-opacity="0" stroke="black" stroke-width="0.05" stroke-linecap="round" stroke-linejoin="round" />
	<!--2-->
	<!--3-->
	<path fill="transparent" stroke="gray" stroke-width="0.02" d="M 0.01 0 v 5" />
	<path fill="transparent" stroke="gray" stroke-width="0.02" d="M 1 0 v 5" />
	<path fill="transparent" stroke="gray" stroke-width="0.02" d="M 2 0 v 5" />
	<path fill="transparent" stroke="gray" stroke-width="0.02" d="M 3 0 v 5" />
	<path fill="transparent" stroke="gray" stroke-width="0.02" d="M 4 0 v 5" />
	<path fill="transparent" stroke="gray" stroke-width="0.02" d="M 5 0 v 5" />
	<path fill="transparent" stroke="gray" stroke-width="0.02" d="M 5.99 0 v 5" />
	<path fill="transparent" stroke="gray" stroke-width="0.02" d="M 0 0.01 h 6" />
	<path fill="transparent" stroke="gray" stroke-width="0.02" d="M 0 1 h 6" />
	<path fill="transparent" stroke="gray" stroke-width="0.02" d="M 0 2 h 6" />
	<path fill="transparent" stroke="gray" stroke-width="0.02" d="M 0 3 h 6" />
	<path fill="transparent" stroke="gray" stroke-width="0.02" d="M 0 4 h 6" />
	<path fill="transparent" stroke="gray" stroke-width="0.02" d="M 0 4.99 h 6" />
</svg>