<svg xmlns="http://www.w3.org/2000/svg" viewBox="0 0 7 7">
	<path d="M0,0 h7 v7 h-7 z" fill="#dddddd" />
	<rect width="1" height="1" x="0" y="0" fill="#ff0000" fill-opacity="0.15" />
	<rect width="1" height="1" x="0" y="1" fill="#ff0000" fill-opacity="0.15" />
	<rect width="1" height="1" x="0" y="2" fill="#ff0000" fill-opacity="0.15" />
	<rect width="1" height="1" x="0" y="3" fill="#ff0000" fill-opacity="0.15" />
	<rect width="1" height="1" x="1" y="3" fill="#ff0000" fill-opacity="0.15" />
	<rect width="1" height="1" x="1" y="4" fill="#ff0000" fill-opacity="0.15" />
	<rect width="1" height="1" x="0" y="4" fill="#ff0000" fill-opacity="0.15" />
	<rect width="1" height="1" x="0" y="5" fill="#ff0000" fill-opacity="0.15" />
	<rect width="1" height="1" x="0" y="6" fill="#ff0000" fill-opacity="0.15" />
	<rect width="1" height="1" x="1" y="6" fill="#ff0000" fill-opacity="0.15" />
	<rect width="1" height="1" x="1" y="5" fill="#ff0000" fill-opacity="0.15" />
	<rect width="1" height="1" x="2" y="5" fill="#ff0000" fill-opacity="0.15" />
	<rect width="1" height="1" x="2" y="6" fill="#ff0000" fill-opacity="0.15" />
	<rect width="1" height="1" x="3" y="6" fill="#ff0000" fill-opacity="0.15" />
	<rect width="1" height="1" x="4" y="6" fill="#ff0000" fill-opacity="0.15" />
	<rect width="1" height="1" x="5" y="6" fill="#ff0000" fill-opacity="0.15" />
	<rect width="1" height="1" x="5" y="5" fill="#ff0000" fill-opacity="0.15" />
	<rect width="1" height="1" x="2" y="2" fill="#0000ff" fill-opacity="0.15" />
	<rect width="1" height="1" x="1" y="2" fill="#0000ff" fill-opacity="0.15" />
	<rect width="1" height="1" x="1" y="1" fill="#0000ff" fill-opacity="0.15" />
	<rect width="1" height="1" x="1" y="0" fill="#0000ff" fill-opacity="0.15" />
	<rect width="1" height="1" x="2" y="0" fill="#0000ff" fill-opacity="0.15" />
	<rect width="1" height="1" x="5" y="4" fill="#000000" fill-opacity="0.1" />
	<rect width="1" height="1" x="4" y="5" fill="#000000" fill-opacity="0.1" />
	<path fill="transparent" stroke="gray" stroke-width="0.02" d="M 1 0 v 7" />
	<path fill="transparent" stroke="gray" stroke-width="0.02" d="M 0 1 h 7" />
	<path fill="transparent" stroke="gray" stroke-width="0.02" d="M 2 0 v 7" />
	<path fill="transparent" stroke="gray" stroke-width="0.02" d="M 0 2 h 7" />
	<path fill="transparent" stroke="gray" stroke-width="0.02" d="M 3 0 v 7" />
	<path fill="transparent" stroke="gray" stroke-width="0.02" d="M 0 3 h 7" />
	<path fill="transparent" stroke="gray" stroke-width="0.02" d="M 4 0 v 7" />
	<path fill="transparent" stroke="gray" stroke-width="0.02" d="M 0 4 h 7" />
	<path fill="transparent" stroke="gray" stroke-width="0.02" d="M 5 0 v 7" />
	<path fill="transparent" stroke="gray" stroke-width="0.02" d="M 0 5 h 7" />
	<path fill="transparent" stroke="gray" stroke-width="0.02" d="M 6 0 v 7" />
	<path fill="transparent" stroke="gray" stroke-width="0.02" d="M 0 6 h 7" />
	<path d="M 0.5 0.5
L 0.5 1
L 0.5 2
L 0.5 3
A 0.5 0.5 0 0 0 1 3.5
A 0.5 0.5 0 0 1 1.5 4
A 0.5 0.5 0 0 1 1 4.5
A 0.5 0.5 0 0 0 0.5 5
L 0.5 6
A 0.5 0.5 0 0 0 1 6.5
A 0.5 0.5 0 0 0 1.5 6
A 0.5 0.5 0 0 1 2 5.5
A 0.5 0.5 0 0 1 2.5 6
A 0.5 0.5 0 0 0 3 6.5
L 4 6.5
L 5 6.5
A 0.5 0.5 0 0 0 5.5 6
L 5.5 5.5" fill="white" fill-opacity="0" stroke="black" stroke-width="0.05" />
	<path d="M 2.5 2.5
L 2 2.5
A 0.5 0.5 0 0 1 1.5 2
L 1.5 1
A 0.5 0.5 0 0 1 2 0.5
L 2.5 0.5
" fill="white" fill-opacity="0" stroke="blue" stroke-width="0.05" />
</svg>