<!--|True|False|-->
<svg xmlns="http://www.w3.org/2000/svg" viewBox="0 0 5 5">
	<!-- 5 5 1 -->
	<path d="M 4 4 h 1 v 1 h -1 z" fill="#ff0000" fill-opacity="0.15" />
	<path d="M 4.5 5 v -0.5" fill="white" fill-opacity="0" stroke="black" stroke-width="0.05" stroke-linecap="round" /><path d="M 4 5 h 1 v 1 h -1 z" fill="#ff0000" fill-opacity="0.15" />
	<path d="M 4.5 5 v 0.5" fill="white" fill-opacity="0" stroke="black" stroke-width="0.05" stroke-linecap="round" />
	<!-- 2 2 2 -->
	<path d="M 1 1 h 1 v 1 h -1 z" fill="#dddddd" fill-opacity="1" />
	<!-- 2 4 2 -->
	<path d="M 1 3 h 1 v 1 h -1 z" fill="#dddddd" fill-opacity="1" />
	<!-- 2 1 8 -->
	<path d="M 1 0 h 1 v 1 h -1 z" fill="#000000" fill-opacity="0.5" />
	<!-- 3 1 8 -->
	<path d="M 2 0 h 1 v 1 h -1 z" fill="#000000" fill-opacity="0.5" />
	<!-- 4 1 8 -->
	<path d="M 3 0 h 1 v 1 h -1 z" fill="#000000" fill-opacity="0.5" />
	<!-- 1 2 8 -->
	<path d="M 0 1 h 1 v 1 h -1 z" fill="#000000" fill-opacity="0.5" />
	<!-- 1 3 8 -->
	<path d="M 0 2 h 1 v 1 h -1 z" fill="#000000" fill-opacity="0.5" />
	<!-- 1 4 8 -->
	<path d="M 0 3 h 1 v 1 h -1 z" fill="#000000" fill-opacity="0.5" />
	<!-- 5 4 9 -->
	<path d="M 4 3 h 1 v 1 h -1 z" fill="#0000ff" fill-opacity="0.15" />
	<path d="M 4.2 3.2 v 0.6 v -0.3 h 0.6 l -0.2 -0.2 l 0.2 0.2 l -0.2 0.2" fill="white" fill-opacity="0" stroke="blue" stroke-width="0.05" stroke-linecap="round" stroke-linejoin="round" />
	<!-- 5 2 10 -->
	<path d="M 4 1 h 1 v 1 h -1 z" fill="#0000ff" fill-opacity="0.15" />
	<path d="M 4.2 1.5 h 0.6 l -0.2 -0.2 l 0.2 0.2 l -0.2 0.2 l 0.2 -0.2 v 0.3 v -0.6" fill="white" fill-opacity="0" stroke="blue" stroke-width="0.05" stroke-linecap="round" stroke-linejoin="round" />
	<!--1-->
	<!--2-->
	<!-- 2 2 11 -->
	<path d="M 1.3 1.2 v 0.5 h 0.5 h -0.2 a 0.3 0.3 0 0 0 -0.3 -0.3" fill="white" fill-opacity="0" stroke="red" stroke-width="0.05" stroke-linecap="round" stroke-linejoin="round" /><circle cx="1.4200001" cy="1.58" r="0.05" fill="red" fill-opacity="1" />
	<!-- 5 4 12 -->
	<path d="M 4.2 3.2 l 0.6 0.6 M 4.2 3.8 l 0.6 -0.6" fill="white" fill-opacity="0" stroke="red" stroke-width="0.05" stroke-linecap="round" />
	<!--3-->
	<path fill="transparent" stroke="gray" stroke-width="0.02" d="M 0.01 0 v 5" />
	<path fill="transparent" stroke="gray" stroke-width="0.02" d="M 1 0 v 5" />
	<path fill="transparent" stroke="gray" stroke-width="0.02" d="M 2 0 v 5" />
	<path fill="transparent" stroke="gray" stroke-width="0.02" d="M 3 0 v 5" />
	<path fill="transparent" stroke="gray" stroke-width="0.02" d="M 4 0 v 5" />
	<path fill="transparent" stroke="gray" stroke-width="0.02" d="M 4.99 0 v 5" />
	<path fill="transparent" stroke="gray" stroke-width="0.02" d="M 0 0.01 h 5" />
	<path fill="transparent" stroke="gray" stroke-width="0.02" d="M 0 1 h 5" />
	<path fill="transparent" stroke="gray" stroke-width="0.02" d="M 0 2 h 5" />
	<path fill="transparent" stroke="gray" stroke-width="0.02" d="M 0 3 h 5" />
	<path fill="transparent" stroke="gray" stroke-width="0.02" d="M 0 4 h 5" />
	<path fill="transparent" stroke="gray" stroke-width="0.02" d="M 0 4.99 h 5" />
</svg>