<svg xmlns="http://www.w3.org/2000/svg" viewBox="0 0 21 21">
	<path d="M0,0 h21 v21 h-21 z" fill="#ffaaaa" />
	<rect width="1" height="1" x="0" y="0" fill="black" fill-opacity="0.1" />
	<rect width="1" height="1" x="1" y="0" fill="black" fill-opacity="0.1" />
	<rect width="1" height="1" x="2" y="0" fill="black" fill-opacity="0.1" />
	<rect width="1" height="1" x="2" y="1" fill="black" fill-opacity="0.1" />
	<rect width="1" height="1" x="2" y="2" fill="black" fill-opacity="0.1" />
	<rect width="1" height="1" x="2" y="3" fill="black" fill-opacity="0.1" />
	<rect width="1" height="1" x="2" y="4" fill="black" fill-opacity="0.1" />
	<rect width="1" height="1" x="2" y="5" fill="black" fill-opacity="0.1" />
	<rect width="1" height="1" x="3" y="5" fill="black" fill-opacity="0.1" />
	<rect width="1" height="1" x="3" y="4" fill="black" fill-opacity="0.1" />
	<rect width="1" height="1" x="3" y="3" fill="black" fill-opacity="0.1" />
	<rect width="1" height="1" x="3" y="2" fill="black" fill-opacity="0.1" />
	<rect width="1" height="1" x="4" y="2" fill="black" fill-opacity="0.1" />
	<rect width="1" height="1" x="4" y="3" fill="black" fill-opacity="0.1" />
	<rect width="1" height="1" x="5" y="3" fill="black" fill-opacity="0.1" />
	<rect width="1" height="1" x="6" y="3" fill="black" fill-opacity="0.1" />
	<rect width="1" height="1" x="6" y="2" fill="black" fill-opacity="0.1" />
	<rect width="1" height="1" x="5" y="2" fill="black" fill-opacity="0.1" />
	<rect width="1" height="1" x="5" y="1" fill="black" fill-opacity="0.1" />
	<rect width="1" height="1" x="4" y="1" fill="black" fill-opacity="0.1" />
	<rect width="1" height="1" x="3" y="1" fill="black" fill-opacity="0.1" />
	<rect width="1" height="1" x="3" y="0" fill="black" fill-opacity="0.1" />
	<rect width="1" height="1" x="4" y="0" fill="black" fill-opacity="0.1" />
	<rect width="1" height="1" x="5" y="0" fill="black" fill-opacity="0.1" />
	<rect width="1" height="1" x="6" y="0" fill="black" fill-opacity="0.1" />
	<rect width="1" height="1" x="6" y="1" fill="black" fill-opacity="0.1" />
	<rect width="1" height="1" x="7" y="1" fill="black" fill-opacity="0.1" />
	<rect width="1" height="1" x="7" y="0" fill="black" fill-opacity="0.1" />
	<rect width="1" height="1" x="8" y="0" fill="black" fill-opacity="0.1" />
	<rect width="1" height="1" x="9" y="0" fill="black" fill-opacity="0.1" />
	<rect width="1" height="1" x="10" y="0" fill="black" fill-opacity="0.1" />
	<rect width="1" height="1" x="10" y="1" fill="black" fill-opacity="0.1" />
	<rect width="1" height="1" x="10" y="2" fill="black" fill-opacity="0.1" />
	<rect width="1" height="1" x="10" y="3" fill="black" fill-opacity="0.1" />
	<rect width="1" height="1" x="9" y="3" fill="black" fill-opacity="0.1" />
	<rect width="1" height="1" x="9" y="2" fill="black" fill-opacity="0.1" />
	<rect width="1" height="1" x="9" y="1" fill="black" fill-opacity="0.1" />
	<rect width="1" height="1" x="8" y="1" fill="black" fill-opacity="0.1" />
	<rect width="1" height="1" x="8" y="2" fill="black" fill-opacity="0.1" />
	<rect width="1" height="1" x="7" y="2" fill="black" fill-opacity="0.1" />
	<rect width="1" height="1" x="7" y="3" fill="black" fill-opacity="0.1" />
	<rect width="1" height="1" x="8" y="3" fill="black" fill-opacity="0.1" />
	<rect width="1" height="1" x="8" y="4" fill="black" fill-opacity="0.1" />
	<rect width="1" height="1" x="9" y="4" fill="black" fill-opacity="0.1" />
	<rect width="1" height="1" x="10" y="4" fill="black" fill-opacity="0.1" />
	<rect width="1" height="1" x="11" y="4" fill="black" fill-opacity="0.1" />
	<rect width="1" height="1" x="11" y="5" fill="black" fill-opacity="0.1" />
	<rect width="1" height="1" x="10" y="5" fill="black" fill-opacity="0.1" />
	<rect width="1" height="1" x="10" y="6" fill="black" fill-opacity="0.1" />
	<rect width="1" height="1" x="10" y="7" fill="black" fill-opacity="0.1" />
	<rect width="1" height="1" x="10" y="8" fill="black" fill-opacity="0.1" />
	<rect width="1" height="1" x="10" y="9" fill="black" fill-opacity="0.1" />
	<rect width="1" height="1" x="9" y="9" fill="black" fill-opacity="0.1" />
	<rect width="1" height="1" x="8" y="9" fill="black" fill-opacity="0.1" />
	<rect width="1" height="1" x="8" y="10" fill="black" fill-opacity="0.1" />
	<rect width="1" height="1" x="8" y="11" fill="black" fill-opacity="0.1" />
	<rect width="1" height="1" x="8" y="12" fill="black" fill-opacity="0.1" />
	<rect width="1" height="1" x="8" y="13" fill="black" fill-opacity="0.1" />
	<rect width="1" height="1" x="8" y="14" fill="black" fill-opacity="0.1" />
	<rect width="1" height="1" x="9" y="14" fill="black" fill-opacity="0.1" />
	<rect width="1" height="1" x="9" y="15" fill="black" fill-opacity="0.1" />
	<rect width="1" height="1" x="8" y="15" fill="black" fill-opacity="0.1" />
	<rect width="1" height="1" x="7" y="15" fill="black" fill-opacity="0.1" />
	<rect width="1" height="1" x="7" y="16" fill="black" fill-opacity="0.1" />
	<rect width="1" height="1" x="6" y="16" fill="black" fill-opacity="0.1" />
	<rect width="1" height="1" x="6" y="15" fill="black" fill-opacity="0.1" />
	<rect width="1" height="1" x="6" y="14" fill="black" fill-opacity="0.1" />
	<rect width="1" height="1" x="7" y="14" fill="black" fill-opacity="0.1" />
	<rect width="1" height="1" x="7" y="13" fill="black" fill-opacity="0.1" />
	<rect width="1" height="1" x="7" y="12" fill="black" fill-opacity="0.1" />
	<rect width="1" height="1" x="6" y="12" fill="black" fill-opacity="0.1" />
	<rect width="1" height="1" x="6" y="13" fill="black" fill-opacity="0.1" />
	<rect width="1" height="1" x="5" y="13" fill="black" fill-opacity="0.1" />
	<rect width="1" height="1" x="5" y="14" fill="black" fill-opacity="0.1" />
	<rect width="1" height="1" x="5" y="15" fill="black" fill-opacity="0.1" />
	<rect width="1" height="1" x="4" y="15" fill="black" fill-opacity="0.1" />
	<rect width="1" height="1" x="4" y="14" fill="black" fill-opacity="0.1" />
	<rect width="1" height="1" x="4" y="13" fill="black" fill-opacity="0.1" />
	<rect width="1" height="1" x="4" y="12" fill="black" fill-opacity="0.1" />
	<rect width="1" height="1" x="5" y="12" fill="black" fill-opacity="0.1" />
	<rect width="1" height="1" x="5" y="11" fill="black" fill-opacity="0.1" />
	<rect width="1" height="1" x="6" y="11" fill="black" fill-opacity="0.1" />
	<rect width="1" height="1" x="7" y="11" fill="black" fill-opacity="0.1" />
	<rect width="1" height="1" x="7" y="10" fill="black" fill-opacity="0.1" />
	<rect width="1" height="1" x="6" y="10" fill="black" fill-opacity="0.1" />
	<rect width="1" height="1" x="6" y="9" fill="black" fill-opacity="0.1" />
	<rect width="1" height="1" x="7" y="9" fill="black" fill-opacity="0.1" />
	<rect width="1" height="1" x="7" y="8" fill="black" fill-opacity="0.1" />
	<rect width="1" height="1" x="8" y="8" fill="black" fill-opacity="0.1" />
	<rect width="1" height="1" x="9" y="8" fill="black" fill-opacity="0.1" />
	<rect width="1" height="1" x="9" y="7" fill="black" fill-opacity="0.1" />
	<rect width="1" height="1" x="8" y="7" fill="black" fill-opacity="0.1" />
	<rect width="1" height="1" x="8" y="6" fill="black" fill-opacity="0.1" />
	<rect width="1" height="1" x="9" y="6" fill="black" fill-opacity="0.1" />
	<rect width="1" height="1" x="9" y="5" fill="black" fill-opacity="0.1" />
	<rect width="1" height="1" x="8" y="5" fill="black" fill-opacity="0.1" />
	<rect width="1" height="1" x="7" y="5" fill="black" fill-opacity="0.1" />
	<rect width="1" height="1" x="7" y="4" fill="black" fill-opacity="0.1" />
	<rect width="1" height="1" x="6" y="4" fill="black" fill-opacity="0.1" />
	<rect width="1" height="1" x="6" y="5" fill="black" fill-opacity="0.1" />
	<rect width="1" height="1" x="6" y="6" fill="black" fill-opacity="0.1" />
	<rect width="1" height="1" x="7" y="6" fill="black" fill-opacity="0.1" />
	<rect width="1" height="1" x="7" y="7" fill="black" fill-opacity="0.1" />
	<rect width="1" height="1" x="6" y="7" fill="black" fill-opacity="0.1" />
	<rect width="1" height="1" x="6" y="8" fill="black" fill-opacity="0.1" />
	<rect width="1" height="1" x="5" y="8" fill="black" fill-opacity="0.1" />
	<rect width="1" height="1" x="4" y="8" fill="black" fill-opacity="0.1" />
	<rect width="1" height="1" x="4" y="7" fill="black" fill-opacity="0.1" />
	<rect width="1" height="1" x="5" y="7" fill="black" fill-opacity="0.1" />
	<rect width="1" height="1" x="5" y="6" fill="black" fill-opacity="0.1" />
	<rect width="1" height="1" x="5" y="5" fill="black" fill-opacity="0.1" />
	<rect width="1" height="1" x="5" y="4" fill="black" fill-opacity="0.1" />
	<rect width="1" height="1" x="4" y="4" fill="black" fill-opacity="0.1" />
	<rect width="1" height="1" x="4" y="5" fill="black" fill-opacity="0.1" />
	<rect width="1" height="1" x="4" y="6" fill="black" fill-opacity="0.1" />
	<rect width="1" height="1" x="3" y="6" fill="black" fill-opacity="0.1" />
	<rect width="1" height="1" x="3" y="7" fill="black" fill-opacity="0.1" />
	<rect width="1" height="1" x="3" y="8" fill="black" fill-opacity="0.1" />
	<rect width="1" height="1" x="3" y="9" fill="black" fill-opacity="0.1" />
	<rect width="1" height="1" x="4" y="9" fill="black" fill-opacity="0.1" />
	<rect width="1" height="1" x="5" y="9" fill="black" fill-opacity="0.1" />
	<rect width="1" height="1" x="5" y="10" fill="black" fill-opacity="0.1" />
	<rect width="1" height="1" x="4" y="10" fill="black" fill-opacity="0.1" />
	<rect width="1" height="1" x="4" y="11" fill="black" fill-opacity="0.1" />
	<rect width="1" height="1" x="3" y="11" fill="black" fill-opacity="0.1" />
	<rect width="1" height="1" x="3" y="10" fill="black" fill-opacity="0.1" />
	<rect width="1" height="1" x="2" y="10" fill="black" fill-opacity="0.1" />
	<rect width="1" height="1" x="1" y="10" fill="black" fill-opacity="0.1" />
	<rect width="1" height="1" x="1" y="9" fill="black" fill-opacity="0.1" />
	<rect width="1" height="1" x="2" y="9" fill="black" fill-opacity="0.1" />
	<rect width="1" height="1" x="2" y="8" fill="black" fill-opacity="0.1" />
	<rect width="1" height="1" x="2" y="7" fill="black" fill-opacity="0.1" />
	<rect width="1" height="1" x="2" y="6" fill="black" fill-opacity="0.1" />
	<rect width="1" height="1" x="1" y="6" fill="black" fill-opacity="0.1" />
	<rect width="1" height="1" x="1" y="5" fill="black" fill-opacity="0.1" />
	<rect width="1" height="1" x="1" y="4" fill="black" fill-opacity="0.1" />
	<rect width="1" height="1" x="1" y="3" fill="black" fill-opacity="0.1" />
	<rect width="1" height="1" x="1" y="2" fill="black" fill-opacity="0.1" />
	<rect width="1" height="1" x="1" y="1" fill="black" fill-opacity="0.1" />
	<rect width="1" height="1" x="0" y="1" fill="black" fill-opacity="0.1" />
	<rect width="1" height="1" x="0" y="2" fill="black" fill-opacity="0.1" />
	<rect width="1" height="1" x="0" y="3" fill="black" fill-opacity="0.1" />
	<rect width="1" height="1" x="0" y="4" fill="black" fill-opacity="0.1" />
	<rect width="1" height="1" x="0" y="5" fill="black" fill-opacity="0.1" />
	<rect width="1" height="1" x="0" y="6" fill="black" fill-opacity="0.1" />
	<rect width="1" height="1" x="0" y="7" fill="black" fill-opacity="0.1" />
	<rect width="1" height="1" x="1" y="7" fill="black" fill-opacity="0.1" />
	<rect width="1" height="1" x="1" y="8" fill="black" fill-opacity="0.1" />
	<rect width="1" height="1" x="0" y="8" fill="black" fill-opacity="0.1" />
	<rect width="1" height="1" x="0" y="9" fill="black" fill-opacity="0.1" />
	<rect width="1" height="1" x="0" y="10" fill="black" fill-opacity="0.1" />
	<rect width="1" height="1" x="0" y="11" fill="black" fill-opacity="0.1" />
	<rect width="1" height="1" x="1" y="11" fill="black" fill-opacity="0.1" />
	<rect width="1" height="1" x="2" y="11" fill="black" fill-opacity="0.1" />
	<rect width="1" height="1" x="2" y="12" fill="black" fill-opacity="0.1" />
	<rect width="1" height="1" x="3" y="12" fill="black" fill-opacity="0.1" />
	<rect width="1" height="1" x="3" y="13" fill="black" fill-opacity="0.1" />
	<rect width="1" height="1" x="3" y="14" fill="black" fill-opacity="0.1" />
	<rect width="1" height="1" x="2" y="14" fill="black" fill-opacity="0.1" />
	<rect width="1" height="1" x="2" y="13" fill="black" fill-opacity="0.1" />
	<rect width="1" height="1" x="1" y="13" fill="black" fill-opacity="0.1" />
	<rect width="1" height="1" x="1" y="12" fill="black" fill-opacity="0.1" />
	<rect width="1" height="1" x="0" y="12" fill="black" fill-opacity="0.1" />
	<rect width="1" height="1" x="0" y="13" fill="black" fill-opacity="0.1" />
	<rect width="1" height="1" x="0" y="14" fill="black" fill-opacity="0.1" />
	<rect width="1" height="1" x="1" y="14" fill="black" fill-opacity="0.1" />
	<rect width="1" height="1" x="1" y="15" fill="black" fill-opacity="0.1" />
	<rect width="1" height="1" x="0" y="15" fill="black" fill-opacity="0.1" />
	<rect width="1" height="1" x="0" y="16" fill="black" fill-opacity="0.1" />
	<rect width="1" height="1" x="1" y="16" fill="black" fill-opacity="0.1" />
	<rect width="1" height="1" x="2" y="16" fill="black" fill-opacity="0.1" />
	<rect width="1" height="1" x="2" y="15" fill="black" fill-opacity="0.1" />
	<rect width="1" height="1" x="3" y="15" fill="black" fill-opacity="0.1" />
	<rect width="1" height="1" x="3" y="16" fill="black" fill-opacity="0.1" />
	<rect width="1" height="1" x="3" y="17" fill="black" fill-opacity="0.1" />
	<rect width="1" height="1" x="4" y="17" fill="black" fill-opacity="0.1" />
	<rect width="1" height="1" x="4" y="16" fill="black" fill-opacity="0.1" />
	<rect width="1" height="1" x="5" y="16" fill="black" fill-opacity="0.1" />
	<rect width="1" height="1" x="5" y="17" fill="black" fill-opacity="0.1" />
	<rect width="1" height="1" x="6" y="17" fill="black" fill-opacity="0.1" />
	<rect width="1" height="1" x="6" y="18" fill="black" fill-opacity="0.1" />
	<rect width="1" height="1" x="5" y="18" fill="black" fill-opacity="0.1" />
	<rect width="1" height="1" x="4" y="18" fill="black" fill-opacity="0.1" />
	<rect width="1" height="1" x="3" y="18" fill="black" fill-opacity="0.1" />
	<rect width="1" height="1" x="2" y="18" fill="black" fill-opacity="0.1" />
	<rect width="1" height="1" x="2" y="17" fill="black" fill-opacity="0.1" />
	<rect width="1" height="1" x="1" y="17" fill="black" fill-opacity="0.1" />
	<rect width="1" height="1" x="0" y="17" fill="black" fill-opacity="0.1" />
	<rect width="1" height="1" x="0" y="18" fill="black" fill-opacity="0.1" />
	<rect width="1" height="1" x="1" y="18" fill="black" fill-opacity="0.1" />
	<rect width="1" height="1" x="1" y="19" fill="black" fill-opacity="0.1" />
	<rect width="1" height="1" x="0" y="19" fill="black" fill-opacity="0.1" />
	<rect width="1" height="1" x="0" y="20" fill="black" fill-opacity="0.1" />
	<rect width="1" height="1" x="1" y="20" fill="black" fill-opacity="0.1" />
	<rect width="1" height="1" x="2" y="20" fill="black" fill-opacity="0.1" />
	<rect width="1" height="1" x="2" y="19" fill="black" fill-opacity="0.1" />
	<rect width="1" height="1" x="3" y="19" fill="black" fill-opacity="0.1" />
	<rect width="1" height="1" x="3" y="20" fill="black" fill-opacity="0.1" />
	<rect width="1" height="1" x="4" y="20" fill="black" fill-opacity="0.1" />
	<rect width="1" height="1" x="4" y="19" fill="black" fill-opacity="0.1" />
	<rect width="1" height="1" x="5" y="19" fill="black" fill-opacity="0.1" />
	<rect width="1" height="1" x="5" y="20" fill="black" fill-opacity="0.1" />
	<rect width="1" height="1" x="6" y="20" fill="black" fill-opacity="0.1" />
	<rect width="1" height="1" x="6" y="19" fill="black" fill-opacity="0.1" />
	<rect width="1" height="1" x="7" y="19" fill="black" fill-opacity="0.1" />
	<rect width="1" height="1" x="7" y="20" fill="black" fill-opacity="0.1" />
	<rect width="1" height="1" x="8" y="20" fill="black" fill-opacity="0.1" />
	<rect width="1" height="1" x="8" y="19" fill="black" fill-opacity="0.1" />
	<rect width="1" height="1" x="9" y="19" fill="black" fill-opacity="0.1" />
	<rect width="1" height="1" x="9" y="20" fill="black" fill-opacity="0.1" />
	<rect width="1" height="1" x="10" y="20" fill="black" fill-opacity="0.1" />
	<rect width="1" height="1" x="10" y="19" fill="black" fill-opacity="0.1" />
	<rect width="1" height="1" x="11" y="19" fill="black" fill-opacity="0.1" />
	<rect width="1" height="1" x="11" y="20" fill="black" fill-opacity="0.1" />
	<rect width="1" height="1" x="12" y="20" fill="black" fill-opacity="0.1" />
	<rect width="1" height="1" x="13" y="20" fill="black" fill-opacity="0.1" />
	<rect width="1" height="1" x="14" y="20" fill="black" fill-opacity="0.1" />
	<rect width="1" height="1" x="15" y="20" fill="black" fill-opacity="0.1" />
	<rect width="1" height="1" x="15" y="19" fill="black" fill-opacity="0.1" />
	<rect width="1" height="1" x="14" y="19" fill="black" fill-opacity="0.1" />
	<rect width="1" height="1" x="13" y="19" fill="black" fill-opacity="0.1" />
	<rect width="1" height="1" x="12" y="19" fill="black" fill-opacity="0.1" />
	<rect width="1" height="1" x="12" y="18" fill="black" fill-opacity="0.1" />
	<rect width="1" height="1" x="12" y="17" fill="black" fill-opacity="0.1" />
	<rect width="1" height="1" x="12" y="16" fill="black" fill-opacity="0.1" />
	<rect width="1" height="1" x="12" y="15" fill="black" fill-opacity="0.1" />
	<rect width="1" height="1" x="12" y="14" fill="black" fill-opacity="0.1" />
	<rect width="1" height="1" x="11" y="14" fill="black" fill-opacity="0.1" />
	<rect width="1" height="1" x="11" y="15" fill="black" fill-opacity="0.1" />
	<rect width="1" height="1" x="11" y="16" fill="black" fill-opacity="0.1" />
	<rect width="1" height="1" x="11" y="17" fill="black" fill-opacity="0.1" />
	<rect width="1" height="1" x="11" y="18" fill="black" fill-opacity="0.1" />
	<rect width="1" height="1" x="10" y="18" fill="black" fill-opacity="0.1" />
	<rect width="1" height="1" x="10" y="17" fill="black" fill-opacity="0.1" />
	<rect width="1" height="1" x="9" y="17" fill="black" fill-opacity="0.1" />
	<rect width="1" height="1" x="9" y="18" fill="black" fill-opacity="0.1" />
	<rect width="1" height="1" x="8" y="18" fill="black" fill-opacity="0.1" />
	<rect width="1" height="1" x="7" y="18" fill="black" fill-opacity="0.1" />
	<rect width="1" height="1" x="7" y="17" fill="black" fill-opacity="0.1" />
	<rect width="1" height="1" x="8" y="17" fill="black" fill-opacity="0.1" />
	<rect width="1" height="1" x="8" y="16" fill="black" fill-opacity="0.1" />
	<rect width="1" height="1" x="9" y="16" fill="black" fill-opacity="0.1" />
	<rect width="1" height="1" x="10" y="16" fill="black" fill-opacity="0.1" />
	<rect width="1" height="1" x="10" y="15" fill="black" fill-opacity="0.1" />
	<rect width="1" height="1" x="10" y="14" fill="black" fill-opacity="0.1" />
	<rect width="1" height="1" x="10" y="13" fill="black" fill-opacity="0.1" />
	<rect width="1" height="1" x="9" y="13" fill="black" fill-opacity="0.1" />
	<rect width="1" height="1" x="9" y="12" fill="black" fill-opacity="0.1" />
	<rect width="1" height="1" x="10" y="12" fill="black" fill-opacity="0.1" />
	<rect width="1" height="1" x="10" y="11" fill="black" fill-opacity="0.1" />
	<rect width="1" height="1" x="9" y="11" fill="black" fill-opacity="0.1" />
	<rect width="1" height="1" x="9" y="10" fill="black" fill-opacity="0.1" />
	<rect width="1" height="1" x="10" y="10" fill="black" fill-opacity="0.1" />
	<rect width="1" height="1" x="11" y="10" fill="black" fill-opacity="0.1" />
	<rect width="1" height="1" x="11" y="9" fill="black" fill-opacity="0.1" />
	<rect width="1" height="1" x="11" y="8" fill="black" fill-opacity="0.1" />
	<rect width="1" height="1" x="12" y="8" fill="black" fill-opacity="0.1" />
	<rect width="1" height="1" x="12" y="9" fill="black" fill-opacity="0.1" />
	<rect width="1" height="1" x="12" y="10" fill="black" fill-opacity="0.1" />
	<rect width="1" height="1" x="13" y="10" fill="black" fill-opacity="0.1" />
	<rect width="1" height="1" x="13" y="9" fill="black" fill-opacity="0.1" />
	<rect width="1" height="1" x="13" y="8" fill="black" fill-opacity="0.1" />
	<rect width="1" height="1" x="13" y="7" fill="black" fill-opacity="0.1" />
	<rect width="1" height="1" x="12" y="7" fill="black" fill-opacity="0.1" />
	<rect width="1" height="1" x="11" y="7" fill="black" fill-opacity="0.1" />
	<rect width="1" height="1" x="11" y="6" fill="black" fill-opacity="0.1" />
	<rect width="1" height="1" x="12" y="6" fill="black" fill-opacity="0.1" />
	<rect width="1" height="1" x="12" y="5" fill="black" fill-opacity="0.1" />
	<rect width="1" height="1" x="12" y="4" fill="black" fill-opacity="0.1" />
	<rect width="1" height="1" x="13" y="4" fill="black" fill-opacity="0.1" />
	<rect width="1" height="1" x="13" y="5" fill="black" fill-opacity="0.1" />
	<rect width="1" height="1" x="13" y="6" fill="black" fill-opacity="0.1" />
	<rect width="1" height="1" x="14" y="6" fill="black" fill-opacity="0.1" />
	<rect width="1" height="1" x="15" y="6" fill="black" fill-opacity="0.1" />
	<rect width="1" height="1" x="15" y="5" fill="black" fill-opacity="0.1" />
	<rect width="1" height="1" x="14" y="5" fill="black" fill-opacity="0.1" />
	<rect width="1" height="1" x="14" y="4" fill="black" fill-opacity="0.1" />
	<rect width="1" height="1" x="15" y="4" fill="black" fill-opacity="0.1" />
	<rect width="1" height="1" x="16" y="4" fill="black" fill-opacity="0.1" />
	<rect width="1" height="1" x="16" y="5" fill="black" fill-opacity="0.1" />
	<rect width="1" height="1" x="16" y="6" fill="black" fill-opacity="0.1" />
	<rect width="1" height="1" x="17" y="6" fill="black" fill-opacity="0.1" />
	<rect width="1" height="1" x="17" y="5" fill="black" fill-opacity="0.1" />
	<rect width="1" height="1" x="17" y="4" fill="black" fill-opacity="0.1" />
	<rect width="1" height="1" x="18" y="4" fill="black" fill-opacity="0.1" />
	<rect width="1" height="1" x="19" y="4" fill="black" fill-opacity="0.1" />
	<rect width="1" height="1" x="19" y="3" fill="black" fill-opacity="0.1" />
	<rect width="1" height="1" x="18" y="3" fill="black" fill-opacity="0.1" />
	<rect width="1" height="1" x="18" y="2" fill="black" fill-opacity="0.1" />
	<rect width="1" height="1" x="17" y="2" fill="black" fill-opacity="0.1" />
	<rect width="1" height="1" x="17" y="3" fill="black" fill-opacity="0.1" />
	<rect width="1" height="1" x="16" y="3" fill="black" fill-opacity="0.1" />
	<rect width="1" height="1" x="16" y="2" fill="black" fill-opacity="0.1" />
	<rect width="1" height="1" x="15" y="2" fill="black" fill-opacity="0.1" />
	<rect width="1" height="1" x="15" y="3" fill="black" fill-opacity="0.1" />
	<rect width="1" height="1" x="14" y="3" fill="black" fill-opacity="0.1" />
	<rect width="1" height="1" x="13" y="3" fill="black" fill-opacity="0.1" />
	<rect width="1" height="1" x="12" y="3" fill="black" fill-opacity="0.1" />
	<rect width="1" height="1" x="11" y="3" fill="black" fill-opacity="0.1" />
	<rect width="1" height="1" x="11" y="2" fill="black" fill-opacity="0.1" />
	<rect width="1" height="1" x="11" y="1" fill="black" fill-opacity="0.1" />
	<rect width="1" height="1" x="11" y="0" fill="black" fill-opacity="0.1" />
	<rect width="1" height="1" x="12" y="0" fill="black" fill-opacity="0.1" />
	<rect width="1" height="1" x="13" y="0" fill="black" fill-opacity="0.1" />
	<rect width="1" height="1" x="13" y="1" fill="black" fill-opacity="0.1" />
	<rect width="1" height="1" x="12" y="1" fill="black" fill-opacity="0.1" />
	<rect width="1" height="1" x="12" y="2" fill="black" fill-opacity="0.1" />
	<rect width="1" height="1" x="13" y="2" fill="black" fill-opacity="0.1" />
	<rect width="1" height="1" x="14" y="2" fill="black" fill-opacity="0.1" />
	<rect width="1" height="1" x="14" y="1" fill="black" fill-opacity="0.1" />
	<rect width="1" height="1" x="14" y="0" fill="black" fill-opacity="0.1" />
	<rect width="1" height="1" x="15" y="0" fill="black" fill-opacity="0.1" />
	<rect width="1" height="1" x="15" y="1" fill="black" fill-opacity="0.1" />
	<rect width="1" height="1" x="16" y="1" fill="black" fill-opacity="0.1" />
	<rect width="1" height="1" x="16" y="0" fill="black" fill-opacity="0.1" />
	<rect width="1" height="1" x="17" y="0" fill="black" fill-opacity="0.1" />
	<rect width="1" height="1" x="17" y="1" fill="black" fill-opacity="0.1" />
	<rect width="1" height="1" x="18" y="1" fill="black" fill-opacity="0.1" />
	<rect width="1" height="1" x="18" y="0" fill="black" fill-opacity="0.1" />
	<rect width="1" height="1" x="19" y="0" fill="black" fill-opacity="0.1" />
	<rect width="1" height="1" x="20" y="0" fill="black" fill-opacity="0.1" />
	<rect width="1" height="1" x="20" y="1" fill="black" fill-opacity="0.1" />
	<rect width="1" height="1" x="19" y="1" fill="black" fill-opacity="0.1" />
	<rect width="1" height="1" x="19" y="2" fill="black" fill-opacity="0.1" />
	<rect width="1" height="1" x="20" y="2" fill="black" fill-opacity="0.1" />
	<rect width="1" height="1" x="20" y="3" fill="black" fill-opacity="0.1" />
	<rect width="1" height="1" x="20" y="4" fill="black" fill-opacity="0.1" />
	<rect width="1" height="1" x="20" y="5" fill="black" fill-opacity="0.1" />
	<rect width="1" height="1" x="19" y="5" fill="black" fill-opacity="0.1" />
	<rect width="1" height="1" x="18" y="5" fill="black" fill-opacity="0.1" />
	<rect width="1" height="1" x="18" y="6" fill="black" fill-opacity="0.1" />
	<rect width="1" height="1" x="18" y="7" fill="black" fill-opacity="0.1" />
	<rect width="1" height="1" x="18" y="8" fill="black" fill-opacity="0.1" />
	<rect width="1" height="1" x="17" y="8" fill="black" fill-opacity="0.1" />
	<rect width="1" height="1" x="17" y="7" fill="black" fill-opacity="0.1" />
	<rect width="1" height="1" x="16" y="7" fill="black" fill-opacity="0.1" />
	<rect width="1" height="1" x="16" y="8" fill="black" fill-opacity="0.1" />
	<rect width="1" height="1" x="16" y="9" fill="black" fill-opacity="0.1" />
	<rect width="1" height="1" x="17" y="9" fill="black" fill-opacity="0.1" />
	<rect width="1" height="1" x="17" y="10" fill="black" fill-opacity="0.1" />
	<rect width="1" height="1" x="16" y="10" fill="black" fill-opacity="0.1" />
	<rect width="1" height="1" x="15" y="10" fill="black" fill-opacity="0.1" />
	<rect width="1" height="1" x="15" y="9" fill="black" fill-opacity="0.1" />
	<rect width="1" height="1" x="15" y="8" fill="black" fill-opacity="0.1" />
	<rect width="1" height="1" x="15" y="7" fill="black" fill-opacity="0.1" />
	<rect width="1" height="1" x="14" y="7" fill="black" fill-opacity="0.1" />
	<rect width="1" height="1" x="14" y="8" fill="black" fill-opacity="0.1" />
	<rect width="1" height="1" x="14" y="9" fill="black" fill-opacity="0.1" />
	<rect width="1" height="1" x="14" y="10" fill="black" fill-opacity="0.1" />
	<rect width="1" height="1" x="14" y="11" fill="black" fill-opacity="0.1" />
	<rect width="1" height="1" x="13" y="11" fill="black" fill-opacity="0.1" />
	<rect width="1" height="1" x="13" y="12" fill="black" fill-opacity="0.1" />
	<rect width="1" height="1" x="12" y="12" fill="black" fill-opacity="0.1" />
	<rect width="1" height="1" x="12" y="11" fill="black" fill-opacity="0.1" />
	<rect width="1" height="1" x="11" y="11" fill="black" fill-opacity="0.1" />
	<rect width="1" height="1" x="11" y="12" fill="black" fill-opacity="0.1" />
	<rect width="1" height="1" x="11" y="13" fill="black" fill-opacity="0.1" />
	<rect width="1" height="1" x="12" y="13" fill="black" fill-opacity="0.1" />
	<rect width="1" height="1" x="13" y="13" fill="black" fill-opacity="0.1" />
	<rect width="1" height="1" x="13" y="14" fill="black" fill-opacity="0.1" />
	<rect width="1" height="1" x="14" y="14" fill="black" fill-opacity="0.1" />
	<rect width="1" height="1" x="14" y="13" fill="black" fill-opacity="0.1" />
	<rect width="1" height="1" x="14" y="12" fill="black" fill-opacity="0.1" />
	<rect width="1" height="1" x="15" y="12" fill="black" fill-opacity="0.1" />
	<rect width="1" height="1" x="15" y="11" fill="black" fill-opacity="0.1" />
	<rect width="1" height="1" x="16" y="11" fill="black" fill-opacity="0.1" />
	<rect width="1" height="1" x="17" y="11" fill="black" fill-opacity="0.1" />
	<rect width="1" height="1" x="18" y="11" fill="black" fill-opacity="0.1" />
	<rect width="1" height="1" x="18" y="10" fill="black" fill-opacity="0.1" />
	<rect width="1" height="1" x="18" y="9" fill="black" fill-opacity="0.1" />
	<rect width="1" height="1" x="19" y="9" fill="black" fill-opacity="0.1" />
	<rect width="1" height="1" x="19" y="8" fill="black" fill-opacity="0.1" />
	<rect width="1" height="1" x="19" y="7" fill="black" fill-opacity="0.1" />
	<rect width="1" height="1" x="19" y="6" fill="black" fill-opacity="0.1" />
	<rect width="1" height="1" x="20" y="6" fill="black" fill-opacity="0.1" />
	<rect width="1" height="1" x="20" y="7" fill="black" fill-opacity="0.1" />
	<rect width="1" height="1" x="20" y="8" fill="black" fill-opacity="0.1" />
	<rect width="1" height="1" x="20" y="9" fill="black" fill-opacity="0.1" />
	<rect width="1" height="1" x="20" y="10" fill="black" fill-opacity="0.1" />
	<rect width="1" height="1" x="19" y="10" fill="black" fill-opacity="0.1" />
	<rect width="1" height="1" x="19" y="11" fill="black" fill-opacity="0.1" />
	<rect width="1" height="1" x="20" y="11" fill="black" fill-opacity="0.1" />
	<rect width="1" height="1" x="20" y="12" fill="black" fill-opacity="0.1" />
	<rect width="1" height="1" x="20" y="13" fill="black" fill-opacity="0.1" />
	<rect width="1" height="1" x="19" y="13" fill="black" fill-opacity="0.1" />
	<rect width="1" height="1" x="19" y="12" fill="black" fill-opacity="0.1" />
	<rect width="1" height="1" x="18" y="12" fill="black" fill-opacity="0.1" />
	<rect width="1" height="1" x="18" y="13" fill="black" fill-opacity="0.1" />
	<rect width="1" height="1" x="17" y="13" fill="black" fill-opacity="0.1" />
	<rect width="1" height="1" x="17" y="12" fill="black" fill-opacity="0.1" />
	<rect width="1" height="1" x="16" y="12" fill="black" fill-opacity="0.1" />
	<rect width="1" height="1" x="16" y="13" fill="black" fill-opacity="0.1" />
	<rect width="1" height="1" x="15" y="13" fill="black" fill-opacity="0.1" />
	<rect width="1" height="1" x="15" y="14" fill="black" fill-opacity="0.1" />
	<rect width="1" height="1" x="16" y="14" fill="black" fill-opacity="0.1" />
	<rect width="1" height="1" x="16" y="15" fill="black" fill-opacity="0.1" />
	<rect width="1" height="1" x="17" y="15" fill="black" fill-opacity="0.1" />
	<rect width="1" height="1" x="17" y="14" fill="black" fill-opacity="0.1" />
	<rect width="1" height="1" x="18" y="14" fill="black" fill-opacity="0.1" />
	<rect width="1" height="1" x="19" y="14" fill="black" fill-opacity="0.1" />
	<rect width="1" height="1" x="20" y="14" fill="black" fill-opacity="0.1" />
	<rect width="1" height="1" x="20" y="15" fill="black" fill-opacity="0.1" />
	<rect width="1" height="1" x="19" y="15" fill="black" fill-opacity="0.1" />
	<rect width="1" height="1" x="18" y="15" fill="black" fill-opacity="0.1" />
	<rect width="1" height="1" x="18" y="16" fill="black" fill-opacity="0.1" />
	<rect width="1" height="1" x="19" y="16" fill="black" fill-opacity="0.1" />
	<rect width="1" height="1" x="20" y="16" fill="black" fill-opacity="0.1" />
	<rect width="1" height="1" x="20" y="17" fill="black" fill-opacity="0.1" />
	<rect width="1" height="1" x="19" y="17" fill="black" fill-opacity="0.1" />
	<rect width="1" height="1" x="19" y="18" fill="black" fill-opacity="0.1" />
	<rect width="1" height="1" x="20" y="18" fill="black" fill-opacity="0.1" />
	<rect width="1" height="1" x="20" y="19" fill="black" fill-opacity="0.1" />
	<rect width="1" height="1" x="19" y="19" fill="black" fill-opacity="0.1" />
	<rect width="1" height="1" x="18" y="19" fill="black" fill-opacity="0.1" />
	<rect width="1" height="1" x="17" y="19" fill="black" fill-opacity="0.1" />
	<rect width="1" height="1" x="17" y="18" fill="black" fill-opacity="0.1" />
	<rect width="1" height="1" x="18" y="18" fill="black" fill-opacity="0.1" />
	<rect width="1" height="1" x="18" y="17" fill="black" fill-opacity="0.1" />
	<rect width="1" height="1" x="17" y="17" fill="black" fill-opacity="0.1" />
	<rect width="1" height="1" x="17" y="16" fill="black" fill-opacity="0.1" />
	<rect width="1" height="1" x="16" y="16" fill="black" fill-opacity="0.1" />
	<rect width="1" height="1" x="16" y="17" fill="black" fill-opacity="0.1" />
	<rect width="1" height="1" x="15" y="17" fill="black" fill-opacity="0.1" />
	<rect width="1" height="1" x="15" y="16" fill="black" fill-opacity="0.1" />
	<rect width="1" height="1" x="15" y="15" fill="black" fill-opacity="0.1" />
	<rect width="1" height="1" x="14" y="15" fill="black" fill-opacity="0.1" />
	<rect width="1" height="1" x="13" y="15" fill="black" fill-opacity="0.1" />
	<rect width="1" height="1" x="13" y="16" fill="black" fill-opacity="0.1" />
	<rect width="1" height="1" x="14" y="16" fill="black" fill-opacity="0.1" />
	<rect width="1" height="1" x="14" y="17" fill="black" fill-opacity="0.1" />
	<rect width="1" height="1" x="13" y="17" fill="black" fill-opacity="0.1" />
	<rect width="1" height="1" x="13" y="18" fill="black" fill-opacity="0.1" />
	<rect width="1" height="1" x="14" y="18" fill="black" fill-opacity="0.1" />
	<rect width="1" height="1" x="15" y="18" fill="black" fill-opacity="0.1" />
	<rect width="1" height="1" x="16" y="18" fill="black" fill-opacity="0.1" />
	<rect width="1" height="1" x="16" y="19" fill="black" fill-opacity="0.1" />
	<rect width="1" height="1" x="16" y="20" fill="black" fill-opacity="0.1" />
	<rect width="1" height="1" x="17" y="20" fill="black" fill-opacity="0.1" />
	<rect width="1" height="1" x="18" y="20" fill="black" fill-opacity="0.1" />
	<rect width="1" height="1" x="19" y="20" fill="black" fill-opacity="0.1" />
	<rect width="1" height="1" x="20" y="20" fill="black" fill-opacity="0.1" />
	<path fill="transparent" stroke="gray" stroke-width="0.02" d="M 1 0 v 21" />
	<path fill="transparent" stroke="gray" stroke-width="0.02" d="M 0 1 h 21" />
	<path fill="transparent" stroke="gray" stroke-width="0.02" d="M 2 0 v 21" />
	<path fill="transparent" stroke="gray" stroke-width="0.02" d="M 0 2 h 21" />
	<path fill="transparent" stroke="gray" stroke-width="0.02" d="M 3 0 v 21" />
	<path fill="transparent" stroke="gray" stroke-width="0.02" d="M 0 3 h 21" />
	<path fill="transparent" stroke="gray" stroke-width="0.02" d="M 4 0 v 21" />
	<path fill="transparent" stroke="gray" stroke-width="0.02" d="M 0 4 h 21" />
	<path fill="transparent" stroke="gray" stroke-width="0.02" d="M 5 0 v 21" />
	<path fill="transparent" stroke="gray" stroke-width="0.02" d="M 0 5 h 21" />
	<path fill="transparent" stroke="gray" stroke-width="0.02" d="M 6 0 v 21" />
	<path fill="transparent" stroke="gray" stroke-width="0.02" d="M 0 6 h 21" />
	<path fill="transparent" stroke="gray" stroke-width="0.02" d="M 7 0 v 21" />
	<path fill="transparent" stroke="gray" stroke-width="0.02" d="M 0 7 h 21" />
	<path fill="transparent" stroke="gray" stroke-width="0.02" d="M 8 0 v 21" />
	<path fill="transparent" stroke="gray" stroke-width="0.02" d="M 0 8 h 21" />
	<path fill="transparent" stroke="gray" stroke-width="0.02" d="M 9 0 v 21" />
	<path fill="transparent" stroke="gray" stroke-width="0.02" d="M 0 9 h 21" />
	<path fill="transparent" stroke="gray" stroke-width="0.02" d="M 10 0 v 21" />
	<path fill="transparent" stroke="gray" stroke-width="0.02" d="M 0 10 h 21" />
	<path fill="transparent" stroke="gray" stroke-width="0.02" d="M 11 0 v 21" />
	<path fill="transparent" stroke="gray" stroke-width="0.02" d="M 0 11 h 21" />
	<path fill="transparent" stroke="gray" stroke-width="0.02" d="M 12 0 v 21" />
	<path fill="transparent" stroke="gray" stroke-width="0.02" d="M 0 12 h 21" />
	<path fill="transparent" stroke="gray" stroke-width="0.02" d="M 13 0 v 21" />
	<path fill="transparent" stroke="gray" stroke-width="0.02" d="M 0 13 h 21" />
	<path fill="transparent" stroke="gray" stroke-width="0.02" d="M 14 0 v 21" />
	<path fill="transparent" stroke="gray" stroke-width="0.02" d="M 0 14 h 21" />
	<path fill="transparent" stroke="gray" stroke-width="0.02" d="M 15 0 v 21" />
	<path fill="transparent" stroke="gray" stroke-width="0.02" d="M 0 15 h 21" />
	<path fill="transparent" stroke="gray" stroke-width="0.02" d="M 16 0 v 21" />
	<path fill="transparent" stroke="gray" stroke-width="0.02" d="M 0 16 h 21" />
	<path fill="transparent" stroke="gray" stroke-width="0.02" d="M 17 0 v 21" />
	<path fill="transparent" stroke="gray" stroke-width="0.02" d="M 0 17 h 21" />
	<path fill="transparent" stroke="gray" stroke-width="0.02" d="M 18 0 v 21" />
	<path fill="transparent" stroke="gray" stroke-width="0.02" d="M 0 18 h 21" />
	<path fill="transparent" stroke="gray" stroke-width="0.02" d="M 19 0 v 21" />
	<path fill="transparent" stroke="gray" stroke-width="0.02" d="M 0 19 h 21" />
	<path fill="transparent" stroke="gray" stroke-width="0.02" d="M 20 0 v 21" />
	<path fill="transparent" stroke="gray" stroke-width="0.02" d="M 0 20 h 21" />
	<path d="M 0 0.5
L 1 0.5
L 2 0.5
A 0.5 0.5 0 0 1 2.5 1
L 2.5 2
L 2.5 3
L 2.5 4
L 2.5 5
A 0.5 0.5 0 0 0 3 5.5
A 0.5 0.5 0 0 0 3.5 5
L 3.5 4
L 3.5 3
A 0.5 0.5 0 0 1 4 2.5
A 0.5 0.5 0 0 1 4.5 3
A 0.5 0.5 0 0 0 5 3.5
L 6 3.5
A 0.5 0.5 0 0 0 6.5 3
A 0.5 0.5 0 0 0 6 2.5
A 0.5 0.5 0 0 1 5.5 2
A 0.5 0.5 0 0 0 5 1.5
L 4 1.5
A 0.5 0.5 0 0 1 3.5 1
A 0.5 0.5 0 0 1 4 0.5
L 5 0.5
L 6 0.5
A 0.5 0.5 0 0 1 6.5 1
A 0.5 0.5 0 0 0 7 1.5
A 0.5 0.5 0 0 0 7.5 1
A 0.5 0.5 0 0 1 8 0.5
L 9 0.5
L 10 0.5
A 0.5 0.5 0 0 1 10.5 1
L 10.5 2
L 10.5 3
A 0.5 0.5 0 0 1 10 3.5
A 0.5 0.5 0 0 1 9.5 3
L 9.5 2
A 0.5 0.5 0 0 0 9 1.5
A 0.5 0.5 0 0 0 8.5 2
A 0.5 0.5 0 0 1 8 2.5
A 0.5 0.5 0 0 0 7.5 3
A 0.5 0.5 0 0 0 8 3.5
A 0.5 0.5 0 0 1 8.5 4
A 0.5 0.5 0 0 0 9 4.5
L 10 4.5
L 11 4.5
A 0.5 0.5 0 0 1 11.5 5
A 0.5 0.5 0 0 1 11 5.5
A 0.5 0.5 0 0 0 10.5 6
L 10.5 7
L 10.5 8
L 10.5 9
A 0.5 0.5 0 0 1 10 9.5
L 9 9.5
A 0.5 0.5 0 0 0 8.5 10
L 8.5 11
L 8.5 12
L 8.5 13
L 8.5 14
A 0.5 0.5 0 0 0 9 14.5
A 0.5 0.5 0 0 1 9.5 15
A 0.5 0.5 0 0 1 9 15.5
L 8 15.5
A 0.5 0.5 0 0 0 7.5 16
A 0.5 0.5 0 0 1 7 16.5
A 0.5 0.5 0 0 1 6.5 16
L 6.5 15
A 0.5 0.5 0 0 1 7 14.5
A 0.5 0.5 0 0 0 7.5 14
L 7.5 13
A 0.5 0.5 0 0 0 7 12.5
A 0.5 0.5 0 0 0 6.5 13
A 0.5 0.5 0 0 1 6 13.5
A 0.5 0.5 0 0 0 5.5 14
L 5.5 15
A 0.5 0.5 0 0 1 5 15.5
A 0.5 0.5 0 0 1 4.5 15
L 4.5 14
L 4.5 13
A 0.5 0.5 0 0 1 5 12.5
A 0.5 0.5 0 0 0 5.5 12
A 0.5 0.5 0 0 1 6 11.5
L 7 11.5
A 0.5 0.5 0 0 0 7.5 11
A 0.5 0.5 0 0 0 7 10.5
A 0.5 0.5 0 0 1 6.5 10
A 0.5 0.5 0 0 1 7 9.5
A 0.5 0.5 0 0 0 7.5 9
A 0.5 0.5 0 0 1 8 8.5
L 9 8.5
A 0.5 0.5 0 0 0 9.5 8
A 0.5 0.5 0 0 0 9 7.5
A 0.5 0.5 0 0 1 8.5 7
A 0.5 0.5 0 0 1 9 6.5
A 0.5 0.5 0 0 0 9.5 6
A 0.5 0.5 0 0 0 9 5.5
L 8 5.5
A 0.5 0.5 0 0 1 7.5 5
A 0.5 0.5 0 0 0 7 4.5
A 0.5 0.5 0 0 0 6.5 5
L 6.5 6
A 0.5 0.5 0 0 0 7 6.5
A 0.5 0.5 0 0 1 7.5 7
A 0.5 0.5 0 0 1 7 7.5
A 0.5 0.5 0 0 0 6.5 8
A 0.5 0.5 0 0 1 6 8.5
L 5 8.5
A 0.5 0.5 0 0 1 4.5 8
A 0.5 0.5 0 0 1 5 7.5
A 0.5 0.5 0 0 0 5.5 7
L 5.5 6
L 5.5 5
A 0.5 0.5 0 0 0 5 4.5
A 0.5 0.5 0 0 0 4.5 5
L 4.5 6
A 0.5 0.5 0 0 1 4 6.5
A 0.5 0.5 0 0 0 3.5 7
L 3.5 8
L 3.5 9
A 0.5 0.5 0 0 0 4 9.5
L 5 9.5
A 0.5 0.5 0 0 1 5.5 10
A 0.5 0.5 0 0 1 5 10.5
A 0.5 0.5 0 0 0 4.5 11
A 0.5 0.5 0 0 1 4 11.5
A 0.5 0.5 0 0 1 3.5 11
A 0.5 0.5 0 0 0 3 10.5
L 2 10.5
A 0.5 0.5 0 0 1 1.5 10
A 0.5 0.5 0 0 1 2 9.5
A 0.5 0.5 0 0 0 2.5 9
L 2.5 8
L 2.5 7
A 0.5 0.5 0 0 0 2 6.5
A 0.5 0.5 0 0 1 1.5 6
L 1.5 5
L 1.5 4
L 1.5 3
L 1.5 2
A 0.5 0.5 0 0 0 1 1.5
A 0.5 0.5 0 0 0 0.5 2
L 0.5 3
L 0.5 4
L 0.5 5
L 0.5 6
L 0.5 7
A 0.5 0.5 0 0 0 1 7.5
A 0.5 0.5 0 0 1 1.5 8
A 0.5 0.5 0 0 1 1 8.5
A 0.5 0.5 0 0 0 0.5 9
L 0.5 10
L 0.5 11
A 0.5 0.5 0 0 0 1 11.5
L 2 11.5
A 0.5 0.5 0 0 1 2.5 12
A 0.5 0.5 0 0 0 3 12.5
A 0.5 0.5 0 0 1 3.5 13
L 3.5 14
A 0.5 0.5 0 0 1 3 14.5
A 0.5 0.5 0 0 1 2.5 14
A 0.5 0.5 0 0 0 2 13.5
A 0.5 0.5 0 0 1 1.5 13
A 0.5 0.5 0 0 0 1 12.5
A 0.5 0.5 0 0 0 0.5 13
L 0.5 14
A 0.5 0.5 0 0 0 1 14.5
A 0.5 0.5 0 0 1 1.5 15
A 0.5 0.5 0 0 1 1 15.5
A 0.5 0.5 0 0 0 0.5 16
A 0.5 0.5 0 0 0 1 16.5
L 2 16.5
A 0.5 0.5 0 0 0 2.5 16
A 0.5 0.5 0 0 1 3 15.5
A 0.5 0.5 0 0 1 3.5 16
L 3.5 17
A 0.5 0.5 0 0 0 4 17.5
A 0.5 0.5 0 0 0 4.5 17
A 0.5 0.5 0 0 1 5 16.5
A 0.5 0.5 0 0 1 5.5 17
A 0.5 0.5 0 0 0 6 17.5
A 0.5 0.5 0 0 1 6.5 18
A 0.5 0.5 0 0 1 6 18.5
L 5 18.5
L 4 18.5
L 3 18.5
A 0.5 0.5 0 0 1 2.5 18
A 0.5 0.5 0 0 0 2 17.5
L 1 17.5
A 0.5 0.5 0 0 0 0.5 18
A 0.5 0.5 0 0 0 1 18.5
A 0.5 0.5 0 0 1 1.5 19
A 0.5 0.5 0 0 1 1 19.5
A 0.5 0.5 0 0 0 0.5 20
A 0.5 0.5 0 0 0 1 20.5
L 2 20.5
A 0.5 0.5 0 0 0 2.5 20
A 0.5 0.5 0 0 1 3 19.5
A 0.5 0.5 0 0 1 3.5 20
A 0.5 0.5 0 0 0 4 20.5
A 0.5 0.5 0 0 0 4.5 20
A 0.5 0.5 0 0 1 5 19.5
A 0.5 0.5 0 0 1 5.5 20
A 0.5 0.5 0 0 0 6 20.5
A 0.5 0.5 0 0 0 6.5 20
A 0.5 0.5 0 0 1 7 19.5
A 0.5 0.5 0 0 1 7.5 20
A 0.5 0.5 0 0 0 8 20.5
A 0.5 0.5 0 0 0 8.5 20
A 0.5 0.5 0 0 1 9 19.5
A 0.5 0.5 0 0 1 9.5 20
A 0.5 0.5 0 0 0 10 20.5
A 0.5 0.5 0 0 0 10.5 20
A 0.5 0.5 0 0 1 11 19.5
A 0.5 0.5 0 0 1 11.5 20
A 0.5 0.5 0 0 0 12 20.5
L 13 20.5
L 14 20.5
L 15 20.5
A 0.5 0.5 0 0 0 15.5 20
A 0.5 0.5 0 0 0 15 19.5
L 14 19.5
L 13 19.5
A 0.5 0.5 0 0 1 12.5 19
L 12.5 18
L 12.5 17
L 12.5 16
L 12.5 15
A 0.5 0.5 0 0 0 12 14.5
A 0.5 0.5 0 0 0 11.5 15
L 11.5 16
L 11.5 17
L 11.5 18
A 0.5 0.5 0 0 1 11 18.5
A 0.5 0.5 0 0 1 10.5 18
A 0.5 0.5 0 0 0 10 17.5
A 0.5 0.5 0 0 0 9.5 18
A 0.5 0.5 0 0 1 9 18.5
L 8 18.5
A 0.5 0.5 0 0 1 7.5 18
A 0.5 0.5 0 0 1 8 17.5
A 0.5 0.5 0 0 0 8.5 17
A 0.5 0.5 0 0 1 9 16.5
L 10 16.5
A 0.5 0.5 0 0 0 10.5 16
L 10.5 15
L 10.5 14
A 0.5 0.5 0 0 0 10 13.5
A 0.5 0.5 0 0 1 9.5 13
A 0.5 0.5 0 0 1 10 12.5
A 0.5 0.5 0 0 0 10.5 12
A 0.5 0.5 0 0 0 10 11.5
A 0.5 0.5 0 0 1 9.5 11
A 0.5 0.5 0 0 1 10 10.5
L 11 10.5
A 0.5 0.5 0 0 0 11.5 10
L 11.5 9
A 0.5 0.5 0 0 1 12 8.5
A 0.5 0.5 0 0 1 12.5 9
L 12.5 10
A 0.5 0.5 0 0 0 13 10.5
A 0.5 0.5 0 0 0 13.5 10
L 13.5 9
L 13.5 8
A 0.5 0.5 0 0 0 13 7.5
L 12 7.5
A 0.5 0.5 0 0 1 11.5 7
A 0.5 0.5 0 0 1 12 6.5
A 0.5 0.5 0 0 0 12.5 6
L 12.5 5
A 0.5 0.5 0 0 1 13 4.5
A 0.5 0.5 0 0 1 13.5 5
L 13.5 6
A 0.5 0.5 0 0 0 14 6.5
L 15 6.5
A 0.5 0.5 0 0 0 15.5 6
A 0.5 0.5 0 0 0 15 5.5
A 0.5 0.5 0 0 1 14.5 5
A 0.5 0.5 0 0 1 15 4.5
L 16 4.5
A 0.5 0.5 0 0 1 16.5 5
L 16.5 6
A 0.5 0.5 0 0 0 17 6.5
A 0.5 0.5 0 0 0 17.5 6
L 17.5 5
A 0.5 0.5 0 0 1 18 4.5
L 19 4.5
A 0.5 0.5 0 0 0 19.5 4
A 0.5 0.5 0 0 0 19 3.5
A 0.5 0.5 0 0 1 18.5 3
A 0.5 0.5 0 0 0 18 2.5
A 0.5 0.5 0 0 0 17.5 3
A 0.5 0.5 0 0 1 17 3.5
A 0.5 0.5 0 0 1 16.5 3
A 0.5 0.5 0 0 0 16 2.5
A 0.5 0.5 0 0 0 15.5 3
A 0.5 0.5 0 0 1 15 3.5
L 14 3.5
L 13 3.5
L 12 3.5
A 0.5 0.5 0 0 1 11.5 3
L 11.5 2
L 11.5 1
A 0.5 0.5 0 0 1 12 0.5
L 13 0.5
A 0.5 0.5 0 0 1 13.5 1
A 0.5 0.5 0 0 1 13 1.5
A 0.5 0.5 0 0 0 12.5 2
A 0.5 0.5 0 0 0 13 2.5
L 14 2.5
A 0.5 0.5 0 0 0 14.5 2
L 14.5 1
A 0.5 0.5 0 0 1 15 0.5
A 0.5 0.5 0 0 1 15.5 1
A 0.5 0.5 0 0 0 16 1.5
A 0.5 0.5 0 0 0 16.5 1
A 0.5 0.5 0 0 1 17 0.5
A 0.5 0.5 0 0 1 17.5 1
A 0.5 0.5 0 0 0 18 1.5
A 0.5 0.5 0 0 0 18.5 1
A 0.5 0.5 0 0 1 19 0.5
L 20 0.5
A 0.5 0.5 0 0 1 20.5 1
A 0.5 0.5 0 0 1 20 1.5
A 0.5 0.5 0 0 0 19.5 2
A 0.5 0.5 0 0 0 20 2.5
A 0.5 0.5 0 0 1 20.5 3
L 20.5 4
L 20.5 5
A 0.5 0.5 0 0 1 20 5.5
L 19 5.5
A 0.5 0.5 0 0 0 18.5 6
L 18.5 7
L 18.5 8
A 0.5 0.5 0 0 1 18 8.5
A 0.5 0.5 0 0 1 17.5 8
A 0.5 0.5 0 0 0 17 7.5
A 0.5 0.5 0 0 0 16.5 8
L 16.5 9
A 0.5 0.5 0 0 0 17 9.5
A 0.5 0.5 0 0 1 17.5 10
A 0.5 0.5 0 0 1 17 10.5
L 16 10.5
A 0.5 0.5 0 0 1 15.5 10
L 15.5 9
L 15.5 8
A 0.5 0.5 0 0 0 15 7.5
A 0.5 0.5 0 0 0 14.5 8
L 14.5 9
L 14.5 10
L 14.5 11
A 0.5 0.5 0 0 1 14 11.5
A 0.5 0.5 0 0 0 13.5 12
A 0.5 0.5 0 0 1 13 12.5
A 0.5 0.5 0 0 1 12.5 12
A 0.5 0.5 0 0 0 12 11.5
A 0.5 0.5 0 0 0 11.5 12
L 11.5 13
A 0.5 0.5 0 0 0 12 13.5
L 13 13.5
A 0.5 0.5 0 0 1 13.5 14
A 0.5 0.5 0 0 0 14 14.5
A 0.5 0.5 0 0 0 14.5 14
L 14.5 13
A 0.5 0.5 0 0 1 15 12.5
A 0.5 0.5 0 0 0 15.5 12
A 0.5 0.5 0 0 1 16 11.5
L 17 11.5
L 18 11.5
A 0.5 0.5 0 0 0 18.5 11
L 18.5 10
A 0.5 0.5 0 0 1 19 9.5
A 0.5 0.5 0 0 0 19.5 9
L 19.5 8
L 19.5 7
A 0.5 0.5 0 0 1 20 6.5
A 0.5 0.5 0 0 1 20.5 7
L 20.5 8
L 20.5 9
L 20.5 10
A 0.5 0.5 0 0 1 20 10.5
A 0.5 0.5 0 0 0 19.5 11
A 0.5 0.5 0 0 0 20 11.5
A 0.5 0.5 0 0 1 20.5 12
L 20.5 13
A 0.5 0.5 0 0 1 20 13.5
A 0.5 0.5 0 0 1 19.5 13
A 0.5 0.5 0 0 0 19 12.5
A 0.5 0.5 0 0 0 18.5 13
A 0.5 0.5 0 0 1 18 13.5
A 0.5 0.5 0 0 1 17.5 13
A 0.5 0.5 0 0 0 17 12.5
A 0.5 0.5 0 0 0 16.5 13
A 0.5 0.5 0 0 1 16 13.5
A 0.5 0.5 0 0 0 15.5 14
A 0.5 0.5 0 0 0 16 14.5
A 0.5 0.5 0 0 1 16.5 15
A 0.5 0.5 0 0 0 17 15.5
A 0.5 0.5 0 0 0 17.5 15
A 0.5 0.5 0 0 1 18 14.5
L 19 14.5
L 20 14.5
A 0.5 0.5 0 0 1 20.5 15
A 0.5 0.5 0 0 1 20 15.5
L 19 15.5
A 0.5 0.5 0 0 0 18.5 16
A 0.5 0.5 0 0 0 19 16.5
L 20 16.5
A 0.5 0.5 0 0 1 20.5 17
A 0.5 0.5 0 0 1 20 17.5
A 0.5 0.5 0 0 0 19.5 18
A 0.5 0.5 0 0 0 20 18.5
A 0.5 0.5 0 0 1 20.5 19
A 0.5 0.5 0 0 1 20 19.5
L 19 19.5
L 18 19.5
A 0.5 0.5 0 0 1 17.5 19
A 0.5 0.5 0 0 1 18 18.5
A 0.5 0.5 0 0 0 18.5 18
A 0.5 0.5 0 0 0 18 17.5
A 0.5 0.5 0 0 1 17.5 17
A 0.5 0.5 0 0 0 17 16.5
A 0.5 0.5 0 0 0 16.5 17
A 0.5 0.5 0 0 1 16 17.5
A 0.5 0.5 0 0 1 15.5 17
L 15.5 16
A 0.5 0.5 0 0 0 15 15.5
L 14 15.5
A 0.5 0.5 0 0 0 13.5 16
A 0.5 0.5 0 0 0 14 16.5
A 0.5 0.5 0 0 1 14.5 17
A 0.5 0.5 0 0 1 14 17.5
A 0.5 0.5 0 0 0 13.5 18
A 0.5 0.5 0 0 0 14 18.5
L 15 18.5
L 16 18.5
A 0.5 0.5 0 0 1 16.5 19
L 16.5 20
A 0.5 0.5 0 0 0 17 20.5
L 18 20.5
L 19 20.5
L 20 20.5" fill="white" fill-opacity="0" stroke="black" stroke-width="0.05" />
</svg>