<svg xmlns="http://www.w3.org/2000/svg" viewBox="0 0 4 3">
	<!-- 1 2 4 -->
	<path d="M 0 1 h 1 v 1 h -1 z" fill="#000000" fill-opacity="0.5" />
	<!-- 2 3 4 -->
	<path d="M 1 2 h 1 v 1 h -1 z" fill="#000000" fill-opacity="0.5" />
	<!-- 3 2 1 -->
	<path d="M 2 1 h 1 v 1 h -1 z" fill="#ff0000" fill-opacity="0.15" />
	<path d="M 2.5 2 v -0.5" fill="white" fill-opacity="0" stroke="black" stroke-width="0.05" stroke-linecap="round" />
<path d="M 2 2 h 1 v 1 h -1 z" fill="#ff0000" fill-opacity="0.15" />
	<path d="M 2.5 2 v 0.5" fill="white" fill-opacity="0" stroke="black" stroke-width="0.05" stroke-linecap="round" />
	<!-- 2 2 2 -->
	<path d="M 1 1 h 1 v 1 h -1 z" fill="#dddddd" fill-opacity="1" />
	<!--1-->
	<!--2-->
	<!-- 2 2 7 -->
	<path d="M 1.2 1.2 v 0.6 h 0.6 h -0.3 a 0.3 0.3 0 0 0 -0.3 -0.3" fill="white" fill-opacity="0" stroke="red" stroke-width="0.05" stroke-linecap="round" stroke-linejoin="round" /><circle cx="1.3199999" cy="1.6800001" r="0.05" fill="red" fill-opacity="1" />
	<!-- 3 1 8 -->
	<path d="M 2.2 0.2 l 0.6 0.6 M 2.2 0.8 l 0.6 -0.6" fill="white" fill-opacity="0" stroke="red" stroke-width="0.05" stroke-linecap="round" stroke-linejoin="round" />
	<!-- 4 2 8 -->
	<path d="M 3.2 1.2 l 0.6 0.6 M 3.2 1.8 l 0.6 -0.6" fill="white" fill-opacity="0" stroke="red" stroke-width="0.05" stroke-linecap="round" stroke-linejoin="round" />
	<!--3-->
	<path fill="transparent" stroke="gray" stroke-width="0.02" d="M 0.01 0 v 3" />
	<path fill="transparent" stroke="gray" stroke-width="0.02" d="M 1 0 v 3" />
	<path fill="transparent" stroke="gray" stroke-width="0.02" d="M 2 0 v 3" />
	<path fill="transparent" stroke="gray" stroke-width="0.02" d="M 3 0 v 3" />
	<path fill="transparent" stroke="gray" stroke-width="0.02" d="M 3.99 0 v 3" />
	<path fill="transparent" stroke="gray" stroke-width="0.02" d="M 0 0.01 h 4" />
	<path fill="transparent" stroke="gray" stroke-width="0.02" d="M 0 1 h 4" />
	<path fill="transparent" stroke="gray" stroke-width="0.02" d="M 0 2 h 4" />
	<path fill="transparent" stroke="gray" stroke-width="0.02" d="M 0 2.99 h 4" />
</svg>